<?xml version="1.0" encoding="UTF-8"?>
<svg xmlns="http://www.w3.org/2000/svg" width="492" height="461">
  <rect x="267" y="311" width="1" height="1" fill="#f3f4f6"/>
  <rect x="268" y="311" width="1" height="1" fill="#fdfdfe"/>
  <rect x="269" y="311" width="1" height="1" fill="#fcfcfd"/>
  <rect x="270" y="311" width="1" height="1" fill="#fbfbfc"/>
  <rect x="271" y="311" width="1" height="1" fill="#fafafb"/>
  <rect x="272" y="311" width="1" height="1" fill="#f9f9fa"/>
  <rect x="273" y="311" width="1" height="1" fill="#f8f9f9"/>
  <rect x="274" y="311" width="1" height="1" fill="#f8f8f8"/>
  <rect x="275" y="311" width="1" height="1" fill="#f6f6f7"/>
  <rect x="276" y="311" width="1" height="1" fill="#f5f5f7"/>
  <rect x="277" y="311" width="2" height="1" fill="#f4f4f6"/>
  <rect x="279" y="311" width="1" height="1" fill="#f4f5f7"/>
  <rect x="280" y="311" width="1" height="1" fill="#f5f5f7"/>
  <rect x="281" y="311" width="1" height="1" fill="#f5f6f7"/>
  <rect x="282" y="311" width="1" height="1" fill="#f6f7f8"/>
  <rect x="283" y="311" width="1" height="1" fill="#f8f8f8"/>
  <rect x="284" y="311" width="1" height="1" fill="#f9f9f9"/>
  <rect x="285" y="311" width="1" height="1" fill="#fafafa"/>
  <rect x="286" y="311" width="2" height="1" fill="#fbfbfb"/>
  <rect x="288" y="311" width="1" height="1" fill="#fffeff"/>
  <rect x="265" y="312" width="1" height="1" fill="#fcfdff"/>
  <rect x="266" y="312" width="1" height="1" fill="#ffffff"/>
  <rect x="267" y="312" width="1" height="1" fill="#fafbfb"/>
  <rect x="268" y="312" width="1" height="1" fill="#f3f3f3"/>
  <rect x="269" y="312" width="1" height="1" fill="#f0f0f1"/>
  <rect x="270" y="312" width="2" height="1" fill="#efeff0"/>
  <rect x="272" y="312" width="1" height="1" fill="#eeeeef"/>
  <rect x="273" y="312" width="1" height="1" fill="#efeeef"/>
  <rect x="274" y="312" width="2" height="1" fill="#eeeeef"/>
  <rect x="276" y="312" width="2" height="1" fill="#ededee"/>
  <rect x="278" y="312" width="1" height="1" fill="#ededef"/>
  <rect x="279" y="312" width="1" height="1" fill="#eeeeef"/>
  <rect x="280" y="312" width="1" height="1" fill="#eeeef0"/>
  <rect x="281" y="312" width="1" height="1" fill="#efeff0"/>
  <rect x="282" y="312" width="1" height="1" fill="#f0f0f0"/>
  <rect x="283" y="312" width="1" height="1" fill="#f1f0f1"/>
  <rect x="284" y="312" width="1" height="1" fill="#f0efef"/>
  <rect x="285" y="312" width="1" height="1" fill="#eeeeee"/>
  <rect x="286" y="312" width="1" height="1" fill="#ededed"/>
  <rect x="287" y="312" width="1" height="1" fill="#eeeded"/>
  <rect x="288" y="312" width="1" height="1" fill="#fafafa"/>
  <rect x="264" y="313" width="2" height="1" fill="#ffffff"/>
  <rect x="266" y="313" width="1" height="1" fill="#fbfbfa"/>
  <rect x="267" y="313" width="1" height="1" fill="#f6f6f6"/>
  <rect x="268" y="313" width="1" height="1" fill="#efeff0"/>
  <rect x="269" y="313" width="1" height="1" fill="#ecedee"/>
  <rect x="270" y="313" width="1" height="1" fill="#ededee"/>
  <rect x="271" y="313" width="1" height="1" fill="#efefef"/>
  <rect x="272" y="313" width="4" height="1" fill="#eeeeef"/>
  <rect x="276" y="313" width="2" height="1" fill="#efeeef"/>
  <rect x="278" y="313" width="4" height="1" fill="#eeeeef"/>
  <rect x="282" y="313" width="1" height="1" fill="#efeeef"/>
  <rect x="283" y="313" width="1" height="1" fill="#eeeeef"/>
  <rect x="284" y="313" width="1" height="1" fill="#ededed"/>
  <rect x="285" y="313" width="1" height="1" fill="#e9e9ea"/>
  <rect x="286" y="313" width="1" height="1" fill="#e7e7e8"/>
  <rect x="287" y="313" width="1" height="1" fill="#e8e7e8"/>
  <rect x="288" y="313" width="1" height="1" fill="#f6f6f6"/>
  <rect x="263" y="314" width="1" height="1" fill="#d3d2d6"/>
  <rect x="264" y="314" width="1" height="1" fill="#fdfcfc"/>
  <rect x="265" y="314" width="1" height="1" fill="#f4f4f4"/>
  <rect x="266" y="314" width="1" height="1" fill="#f7f7f7"/>
  <rect x="267" y="314" width="1" height="1" fill="#f7f6f6"/>
  <rect x="268" y="314" width="1" height="1" fill="#fcfcfb"/>
  <rect x="269" y="314" width="1" height="1" fill="#fdfdfd"/>
  <rect x="270" y="314" width="1" height="1" fill="#fcfcfb"/>
  <rect x="271" y="314" width="1" height="1" fill="#f9faf9"/>
  <rect x="272" y="314" width="2" height="1" fill="#f9f9f9"/>
  <rect x="274" y="314" width="1" height="1" fill="#f8f9f8"/>
  <rect x="275" y="314" width="1" height="1" fill="#f8f8f7"/>
  <rect x="276" y="314" width="1" height="1" fill="#f7f8f7"/>
  <rect x="277" y="314" width="1" height="1" fill="#f7f7f7"/>
  <rect x="278" y="314" width="1" height="1" fill="#f7f8f7"/>
  <rect x="279" y="314" width="4" height="1" fill="#f8f8f7"/>
  <rect x="283" y="314" width="1" height="1" fill="#f7f7f6"/>
  <rect x="284" y="314" width="1" height="1" fill="#f6f6f5"/>
  <rect x="285" y="314" width="1" height="1" fill="#f4f5f4"/>
  <rect x="286" y="314" width="1" height="1" fill="#f3f4f4"/>
  <rect x="287" y="314" width="1" height="1" fill="#f4f4f4"/>
  <rect x="288" y="314" width="1" height="1" fill="#fafafb"/>
  <rect x="263" y="315" width="1" height="1" fill="#fdfdfd"/>
  <rect x="264" y="315" width="1" height="1" fill="#f3f3f4"/>
  <rect x="265" y="315" width="1" height="1" fill="#f0f0f1"/>
  <rect x="266" y="315" width="1" height="1" fill="#f3f3f3"/>
  <rect x="267" y="315" width="1" height="1" fill="#fcfcfc"/>
  <rect x="268" y="315" width="1" height="1" fill="#e6e7e7"/>
  <rect x="263" y="316" width="1" height="1" fill="#fefefe"/>
  <rect x="264" y="316" width="1" height="1" fill="#f5f5f5"/>
  <rect x="265" y="316" width="1" height="1" fill="#f6f6f7"/>
  <rect x="266" y="316" width="1" height="1" fill="#fcfcfc"/>
  <rect x="267" y="316" width="1" height="1" fill="#dddedf"/>
  <rect x="263" y="317" width="1" height="1" fill="#fdfefd"/>
  <rect x="264" y="317" width="1" height="1" fill="#f7f7f7"/>
  <rect x="265" y="317" width="1" height="1" fill="#f8f8f8"/>
  <rect x="266" y="317" width="1" height="1" fill="#ffffff"/>
  <rect x="263" y="318" width="1" height="1" fill="#fcfcfc"/>
  <rect x="264" y="318" width="1" height="1" fill="#f7f8f8"/>
  <rect x="265" y="318" width="1" height="1" fill="#f9f9f9"/>
  <rect x="266" y="318" width="1" height="1" fill="#ffffff"/>
  <rect x="263" y="319" width="1" height="1" fill="#fbfbfb"/>
  <rect x="264" y="319" width="1" height="1" fill="#f5f5f6"/>
  <rect x="265" y="319" width="1" height="1" fill="#f6f7f7"/>
  <rect x="266" y="319" width="1" height="1" fill="#ffffff"/>
  <rect x="263" y="320" width="1" height="1" fill="#fcfcfc"/>
  <rect x="264" y="320" width="1" height="1" fill="#f6f6f7"/>
  <rect x="265" y="320" width="1" height="1" fill="#f8f8f9"/>
  <rect x="266" y="320" width="1" height="1" fill="#ffffff"/>
  <rect x="263" y="321" width="1" height="1" fill="#fefdfd"/>
  <rect x="264" y="321" width="1" height="1" fill="#f8f7f9"/>
  <rect x="265" y="321" width="1" height="1" fill="#f8f7f8"/>
  <rect x="266" y="321" width="1" height="1" fill="#ffffff"/>
  <rect x="263" y="322" width="1" height="1" fill="#ffffff"/>
  <rect x="264" y="322" width="1" height="1" fill="#f9f9fa"/>
  <rect x="265" y="322" width="1" height="1" fill="#f8f8f9"/>
  <rect x="266" y="322" width="1" height="1" fill="#ffffff"/>
  <rect x="263" y="323" width="1" height="1" fill="#ffffff"/>
  <rect x="264" y="323" width="1" height="1" fill="#f9f9fa"/>
  <rect x="265" y="323" width="1" height="1" fill="#f8f8f9"/>
  <rect x="266" y="323" width="1" height="1" fill="#ffffff"/>
  <rect x="263" y="324" width="1" height="1" fill="#ffffff"/>
  <rect x="264" y="324" width="1" height="1" fill="#f9f9fa"/>
  <rect x="265" y="324" width="1" height="1" fill="#f7f8f9"/>
  <rect x="266" y="324" width="1" height="1" fill="#ffffff"/>
  <rect x="263" y="325" width="1" height="1" fill="#ffffff"/>
  <rect x="264" y="325" width="1" height="1" fill="#f8f8f9"/>
  <rect x="265" y="325" width="1" height="1" fill="#f6f7f8"/>
  <rect x="266" y="325" width="1" height="1" fill="#fefefe"/>
  <rect x="263" y="326" width="1" height="1" fill="#ffffff"/>
  <rect x="264" y="326" width="1" height="1" fill="#f8f8f9"/>
  <rect x="265" y="326" width="1" height="1" fill="#f7f8f8"/>
  <rect x="266" y="326" width="1" height="1" fill="#fdfdfd"/>
  <rect x="263" y="327" width="1" height="1" fill="#ffffff"/>
  <rect x="264" y="327" width="1" height="1" fill="#f7f8f8"/>
  <rect x="265" y="327" width="1" height="1" fill="#f6f6f7"/>
  <rect x="266" y="327" width="1" height="1" fill="#fdfdfd"/>
  <rect x="263" y="328" width="1" height="1" fill="#ffffff"/>
  <rect x="264" y="328" width="2" height="1" fill="#f9f9f9"/>
  <rect x="266" y="328" width="1" height="1" fill="#fdfdfd"/>
  <rect x="263" y="329" width="1" height="1" fill="#ffffff"/>
  <rect x="264" y="329" width="1" height="1" fill="#f8f8f8"/>
  <rect x="265" y="329" width="1" height="1" fill="#f8f7f8"/>
  <rect x="266" y="329" width="1" height="1" fill="#fbfbfb"/>
  <rect x="267" y="329" width="1" height="1" fill="#cdcfd0"/>
  <rect x="263" y="330" width="1" height="1" fill="#fefffe"/>
  <rect x="264" y="330" width="1" height="1" fill="#f3f3f3"/>
  <rect x="265" y="330" width="1" height="1" fill="#f4f4f5"/>
  <rect x="266" y="330" width="1" height="1" fill="#f5f5f5"/>
  <rect x="267" y="330" width="1" height="1" fill="#f8f8f8"/>
  <rect x="268" y="330" width="1" height="1" fill="#d3d6d4"/>
  <rect x="263" y="331" width="1" height="1" fill="#e0e3e6"/>
  <rect x="264" y="331" width="1" height="1" fill="#f7f7f7"/>
  <rect x="265" y="331" width="1" height="1" fill="#efefef"/>
  <rect x="266" y="331" width="1" height="1" fill="#f1f1f2"/>
  <rect x="267" y="331" width="1" height="1" fill="#f5f6f6"/>
  <rect x="268" y="331" width="1" height="1" fill="#fafafa"/>
  <rect x="269" y="331" width="1" height="1" fill="#fbfcfc"/>
  <rect x="270" y="331" width="1" height="1" fill="#fcfdfc"/>
  <rect x="271" y="331" width="1" height="1" fill="#fcfdfb"/>
  <rect x="272" y="331" width="1" height="1" fill="#fdfefc"/>
  <rect x="273" y="331" width="1" height="1" fill="#fffffe"/>
  <rect x="274" y="331" width="6" height="1" fill="#ffffff"/>
  <rect x="280" y="331" width="1" height="1" fill="#fffffe"/>
  <rect x="281" y="331" width="1" height="1" fill="#fefffd"/>
  <rect x="282" y="331" width="1" height="1" fill="#fdfdfb"/>
  <rect x="283" y="331" width="1" height="1" fill="#fbfbfa"/>
  <rect x="284" y="331" width="1" height="1" fill="#faf9f9"/>
  <rect x="285" y="331" width="1" height="1" fill="#f9f8f9"/>
  <rect x="286" y="331" width="1" height="1" fill="#f8f7f8"/>
  <rect x="287" y="331" width="1" height="1" fill="#f5f5f6"/>
  <rect x="288" y="331" width="1" height="1" fill="#f8f8f9"/>
  <rect x="264" y="332" width="1" height="1" fill="#fcfcfd"/>
  <rect x="265" y="332" width="1" height="1" fill="#f9fafa"/>
  <rect x="266" y="332" width="1" height="1" fill="#f4f5f5"/>
  <rect x="267" y="332" width="1" height="1" fill="#f5f6f6"/>
  <rect x="268" y="332" width="1" height="1" fill="#f1f1f1"/>
  <rect x="269" y="332" width="1" height="1" fill="#f0f1f0"/>
  <rect x="270" y="332" width="1" height="1" fill="#f0f0f0"/>
  <rect x="271" y="332" width="1" height="1" fill="#f2f3f2"/>
  <rect x="272" y="332" width="1" height="1" fill="#f2f2f2"/>
  <rect x="273" y="332" width="1" height="1" fill="#f3f3f3"/>
  <rect x="274" y="332" width="1" height="1" fill="#f3f4f3"/>
  <rect x="275" y="332" width="1" height="1" fill="#f4f4f3"/>
  <rect x="276" y="332" width="1" height="1" fill="#f3f3f3"/>
  <rect x="277" y="332" width="3" height="1" fill="#f3f3f2"/>
  <rect x="280" y="332" width="1" height="1" fill="#f2f2f2"/>
  <rect x="281" y="332" width="1" height="1" fill="#f2f2f1"/>
  <rect x="282" y="332" width="1" height="1" fill="#f1f1f1"/>
  <rect x="283" y="332" width="1" height="1" fill="#f0f1f1"/>
  <rect x="284" y="332" width="1" height="1" fill="#efefef"/>
  <rect x="285" y="332" width="1" height="1" fill="#ededee"/>
  <rect x="286" y="332" width="1" height="1" fill="#ebebec"/>
  <rect x="287" y="332" width="1" height="1" fill="#e7e7e6"/>
  <rect x="288" y="332" width="1" height="1" fill="#f4f4f5"/>
  <rect x="265" y="333" width="1" height="1" fill="#fafcfb"/>
  <rect x="266" y="333" width="1" height="1" fill="#fefefe"/>
  <rect x="267" y="333" width="1" height="1" fill="#f8f9f9"/>
  <rect x="268" y="333" width="1" height="1" fill="#f0f0f0"/>
  <rect x="269" y="333" width="1" height="1" fill="#eeeeef"/>
  <rect x="270" y="333" width="1" height="1" fill="#ececed"/>
  <rect x="271" y="333" width="1" height="1" fill="#eff0f0"/>
  <rect x="272" y="333" width="3" height="1" fill="#efeff0"/>
  <rect x="275" y="333" width="2" height="1" fill="#eff0f0"/>
  <rect x="277" y="333" width="1" height="1" fill="#eff0f1"/>
  <rect x="278" y="333" width="2" height="1" fill="#f0f0f1"/>
  <rect x="280" y="333" width="3" height="1" fill="#eff0f1"/>
  <rect x="283" y="333" width="1" height="1" fill="#f0f1f1"/>
  <rect x="284" y="333" width="1" height="1" fill="#eff0f0"/>
  <rect x="285" y="333" width="1" height="1" fill="#ededee"/>
  <rect x="286" y="333" width="1" height="1" fill="#eaebec"/>
  <rect x="287" y="333" width="1" height="1" fill="#e8e9e9"/>
  <rect x="288" y="333" width="1" height="1" fill="#f3f3f3"/>
  <rect x="267" y="334" width="1" height="1" fill="#e5e7e6"/>
  <rect x="268" y="334" width="1" height="1" fill="#f4f4f3"/>
  <rect x="269" y="334" width="2" height="1" fill="#f7f6f6"/>
  <rect x="271" y="334" width="2" height="1" fill="#f8f8f7"/>
  <rect x="273" y="334" width="2" height="1" fill="#f9f8f7"/>
  <rect x="275" y="334" width="1" height="1" fill="#f9f7f6"/>
  <rect x="276" y="334" width="1" height="1" fill="#f8f7f6"/>
  <rect x="277" y="334" width="1" height="1" fill="#f7f6f5"/>
  <rect x="278" y="334" width="1" height="1" fill="#f6f5f5"/>
  <rect x="279" y="334" width="1" height="1" fill="#f5f4f3"/>
  <rect x="280" y="334" width="1" height="1" fill="#f3f2f1"/>
  <rect x="281" y="334" width="1" height="1" fill="#f2f1f0"/>
  <rect x="282" y="334" width="1" height="1" fill="#f1f0ef"/>
  <rect x="283" y="334" width="1" height="1" fill="#f0efee"/>
  <rect x="284" y="334" width="1" height="1" fill="#eeedec"/>
  <rect x="285" y="334" width="1" height="1" fill="#ececeb"/>
  <rect x="286" y="334" width="1" height="1" fill="#ecebec"/>
  <rect x="287" y="334" width="1" height="1" fill="#ebeaea"/>
  <rect x="288" y="334" width="1" height="1" fill="#f4f4f4"/>
</svg>
