<?xml version="1.0" encoding="UTF-8"?>
<svg xmlns="http://www.w3.org/2000/svg" width="492" height="461">
  <rect x="294" y="311" width="1" height="1" fill="#fffeff"/>
  <rect x="295" y="311" width="1" height="1" fill="#fafafa"/>
  <rect x="296" y="311" width="1" height="1" fill="#fdfcfc"/>
  <rect x="297" y="311" width="1" height="1" fill="#ffffff"/>
  <rect x="315" y="311" width="1" height="1" fill="#f5f6f8"/>
  <rect x="316" y="311" width="1" height="1" fill="#f3f3f3"/>
  <rect x="317" y="311" width="1" height="1" fill="#f5f4f5"/>
  <rect x="318" y="311" width="1" height="1" fill="#f4f4f5"/>
  <rect x="319" y="311" width="1" height="1" fill="#f2f3f4"/>
  <rect x="294" y="312" width="1" height="1" fill="#fcfcfc"/>
  <rect x="295" y="312" width="1" height="1" fill="#f1f0f0"/>
  <rect x="296" y="312" width="1" height="1" fill="#f1efef"/>
  <rect x="297" y="312" width="1" height="1" fill="#fdfcfc"/>
  <rect x="313" y="312" width="1" height="1" fill="#c3c1c7"/>
  <rect x="314" y="312" width="1" height="1" fill="#fafafb"/>
  <rect x="315" y="312" width="1" height="1" fill="#f8f6f6"/>
  <rect x="316" y="312" width="1" height="1" fill="#f5f3f1"/>
  <rect x="317" y="312" width="1" height="1" fill="#f6f3f2"/>
  <rect x="318" y="312" width="1" height="1" fill="#f7f6f6"/>
  <rect x="294" y="313" width="1" height="1" fill="#f7f7f8"/>
  <rect x="295" y="313" width="1" height="1" fill="#e8e9ea"/>
  <rect x="296" y="313" width="1" height="1" fill="#ebebeb"/>
  <rect x="297" y="313" width="1" height="1" fill="#f9f9f9"/>
  <rect x="312" y="313" width="1" height="1" fill="#dad9dd"/>
  <rect x="313" y="313" width="1" height="1" fill="#fbfbfc"/>
  <rect x="314" y="313" width="1" height="1" fill="#f9f7f7"/>
  <rect x="315" y="313" width="1" height="1" fill="#f7f5f4"/>
  <rect x="316" y="313" width="1" height="1" fill="#f8f6f3"/>
  <rect x="317" y="313" width="1" height="1" fill="#faf9f7"/>
  <rect x="294" y="314" width="1" height="1" fill="#f8f9f9"/>
  <rect x="295" y="314" width="1" height="1" fill="#eeefef"/>
  <rect x="296" y="314" width="1" height="1" fill="#f0efef"/>
  <rect x="297" y="314" width="1" height="1" fill="#fcfbfb"/>
  <rect x="311" y="314" width="1" height="1" fill="#eeeeef"/>
  <rect x="312" y="314" width="1" height="1" fill="#fbfbfc"/>
  <rect x="313" y="314" width="1" height="1" fill="#f4f3f4"/>
  <rect x="314" y="314" width="1" height="1" fill="#f2f1f2"/>
  <rect x="315" y="314" width="1" height="1" fill="#f6f5f5"/>
  <rect x="316" y="314" width="1" height="1" fill="#f9f8f7"/>
  <rect x="294" y="315" width="1" height="1" fill="#fafafb"/>
  <rect x="295" y="315" width="1" height="1" fill="#f2f2f2"/>
  <rect x="296" y="315" width="1" height="1" fill="#f3f3f3"/>
  <rect x="297" y="315" width="1" height="1" fill="#fefdfd"/>
  <rect x="310" y="315" width="1" height="1" fill="#fcfbfc"/>
  <rect x="311" y="315" width="1" height="1" fill="#fefefe"/>
  <rect x="312" y="315" width="1" height="1" fill="#f6f6f6"/>
  <rect x="313" y="315" width="1" height="1" fill="#f2f1f2"/>
  <rect x="314" y="315" width="1" height="1" fill="#f4f4f4"/>
  <rect x="315" y="315" width="1" height="1" fill="#f2f3f3"/>
  <rect x="294" y="316" width="1" height="1" fill="#f9fafb"/>
  <rect x="295" y="316" width="1" height="1" fill="#f2f2f3"/>
  <rect x="296" y="316" width="1" height="1" fill="#f4f4f4"/>
  <rect x="297" y="316" width="1" height="1" fill="#fdfdfd"/>
  <rect x="309" y="316" width="1" height="1" fill="#f9faf9"/>
  <rect x="310" y="316" width="1" height="1" fill="#f4f4f5"/>
  <rect x="311" y="316" width="1" height="1" fill="#f1f0f0"/>
  <rect x="312" y="316" width="1" height="1" fill="#f3f2f2"/>
  <rect x="313" y="316" width="1" height="1" fill="#fcfbfb"/>
  <rect x="314" y="316" width="1" height="1" fill="#f3f4f3"/>
  <rect x="294" y="317" width="1" height="1" fill="#f8f9fa"/>
  <rect x="295" y="317" width="1" height="1" fill="#f0f1f1"/>
  <rect x="296" y="317" width="1" height="1" fill="#f3f2f2"/>
  <rect x="297" y="317" width="1" height="1" fill="#fcfcfc"/>
  <rect x="308" y="317" width="1" height="1" fill="#fffffe"/>
  <rect x="309" y="317" width="1" height="1" fill="#f6f6f6"/>
  <rect x="310" y="317" width="1" height="1" fill="#ebecec"/>
  <rect x="311" y="317" width="1" height="1" fill="#ebebeb"/>
  <rect x="312" y="317" width="1" height="1" fill="#f8f8f7"/>
  <rect x="313" y="317" width="1" height="1" fill="#f2f3f1"/>
  <rect x="294" y="318" width="1" height="1" fill="#f8f9f9"/>
  <rect x="295" y="318" width="1" height="1" fill="#f0f0f0"/>
  <rect x="296" y="318" width="1" height="1" fill="#f2f2f2"/>
  <rect x="297" y="318" width="1" height="1" fill="#fcfcfd"/>
  <rect x="307" y="318" width="1" height="1" fill="#ffffff"/>
  <rect x="308" y="318" width="1" height="1" fill="#fdfdfc"/>
  <rect x="309" y="318" width="1" height="1" fill="#f9f8f8"/>
  <rect x="310" y="318" width="1" height="1" fill="#f5f4f4"/>
  <rect x="311" y="318" width="1" height="1" fill="#fbfbfb"/>
  <rect x="312" y="318" width="1" height="1" fill="#edeceb"/>
  <rect x="294" y="319" width="1" height="1" fill="#f8f9f9"/>
  <rect x="295" y="319" width="1" height="1" fill="#f1f1f1"/>
  <rect x="296" y="319" width="1" height="1" fill="#f3f2f2"/>
  <rect x="297" y="319" width="1" height="1" fill="#fcfcfd"/>
  <rect x="306" y="319" width="1" height="1" fill="#fefefe"/>
  <rect x="307" y="319" width="1" height="1" fill="#fafbfb"/>
  <rect x="308" y="319" width="1" height="1" fill="#fafafa"/>
  <rect x="309" y="319" width="1" height="1" fill="#fbfafa"/>
  <rect x="310" y="319" width="1" height="1" fill="#ffffff"/>
  <rect x="311" y="319" width="1" height="1" fill="#eff0f0"/>
  <rect x="294" y="320" width="1" height="1" fill="#fafafb"/>
  <rect x="295" y="320" width="1" height="1" fill="#f4f4f4"/>
  <rect x="296" y="320" width="1" height="1" fill="#f8f7f6"/>
  <rect x="297" y="320" width="1" height="1" fill="#fdfefd"/>
  <rect x="305" y="320" width="1" height="1" fill="#ffffff"/>
  <rect x="306" y="320" width="1" height="1" fill="#fdfdfd"/>
  <rect x="307" y="320" width="1" height="1" fill="#fcfcfc"/>
  <rect x="308" y="320" width="1" height="1" fill="#fbfafa"/>
  <rect x="309" y="320" width="1" height="1" fill="#ffffff"/>
  <rect x="310" y="320" width="1" height="1" fill="#e9e9ea"/>
  <rect x="294" y="321" width="1" height="1" fill="#fcfcfd"/>
  <rect x="295" y="321" width="1" height="1" fill="#f6f7f7"/>
  <rect x="296" y="321" width="1" height="1" fill="#faf9fa"/>
  <rect x="297" y="321" width="1" height="1" fill="#fcfdfc"/>
  <rect x="298" y="321" width="1" height="1" fill="#fbfbfa"/>
  <rect x="299" y="321" width="1" height="1" fill="#fcfdfc"/>
  <rect x="300" y="321" width="3" height="1" fill="#fdfdfd"/>
  <rect x="303" y="321" width="2" height="1" fill="#fcfdfd"/>
  <rect x="305" y="321" width="2" height="1" fill="#fbfbfc"/>
  <rect x="307" y="321" width="1" height="1" fill="#fcfcfc"/>
  <rect x="308" y="321" width="1" height="1" fill="#ffffff"/>
  <rect x="309" y="321" width="1" height="1" fill="#d5d7d9"/>
  <rect x="294" y="322" width="1" height="1" fill="#fdfefe"/>
  <rect x="295" y="322" width="1" height="1" fill="#f8f8f8"/>
  <rect x="296" y="322" width="1" height="1" fill="#fbfbfb"/>
  <rect x="297" y="322" width="1" height="1" fill="#f9fafa"/>
  <rect x="298" y="322" width="1" height="1" fill="#f8f8f7"/>
  <rect x="299" y="322" width="1" height="1" fill="#f6f6f6"/>
  <rect x="300" y="322" width="1" height="1" fill="#f4f4f5"/>
  <rect x="301" y="322" width="1" height="1" fill="#f3f3f4"/>
  <rect x="302" y="322" width="1" height="1" fill="#f0f0f0"/>
  <rect x="303" y="322" width="1" height="1" fill="#f1f1f1"/>
  <rect x="304" y="322" width="1" height="1" fill="#f2f3f3"/>
  <rect x="305" y="322" width="2" height="1" fill="#f7f7f7"/>
  <rect x="307" y="322" width="1" height="1" fill="#fefdfd"/>
  <rect x="308" y="322" width="1" height="1" fill="#d6d6d6"/>
  <rect x="294" y="323" width="1" height="1" fill="#ffffff"/>
  <rect x="295" y="323" width="1" height="1" fill="#f8f8f8"/>
  <rect x="296" y="323" width="1" height="1" fill="#fbfbfb"/>
  <rect x="297" y="323" width="1" height="1" fill="#f8f8f9"/>
  <rect x="298" y="323" width="1" height="1" fill="#f5f5f5"/>
  <rect x="299" y="323" width="1" height="1" fill="#f2f2f3"/>
  <rect x="300" y="323" width="1" height="1" fill="#f1f1f2"/>
  <rect x="301" y="323" width="1" height="1" fill="#f0f0f1"/>
  <rect x="302" y="323" width="1" height="1" fill="#efeff0"/>
  <rect x="303" y="323" width="1" height="1" fill="#f0f1f1"/>
  <rect x="304" y="323" width="1" height="1" fill="#f0f0f1"/>
  <rect x="305" y="323" width="1" height="1" fill="#f2f2f3"/>
  <rect x="306" y="323" width="1" height="1" fill="#f5f4f6"/>
  <rect x="307" y="323" width="1" height="1" fill="#fafafa"/>
  <rect x="308" y="323" width="1" height="1" fill="#eae9eb"/>
  <rect x="294" y="324" width="1" height="1" fill="#fefefe"/>
  <rect x="295" y="324" width="1" height="1" fill="#f6f6f6"/>
  <rect x="296" y="324" width="1" height="1" fill="#f9f9f9"/>
  <rect x="297" y="324" width="1" height="1" fill="#f7f8f8"/>
  <rect x="298" y="324" width="1" height="1" fill="#f6f7f6"/>
  <rect x="299" y="324" width="1" height="1" fill="#f4f5f5"/>
  <rect x="300" y="324" width="1" height="1" fill="#f0f1f2"/>
  <rect x="301" y="324" width="1" height="1" fill="#eceeef"/>
  <rect x="302" y="324" width="1" height="1" fill="#ebecee"/>
  <rect x="303" y="324" width="1" height="1" fill="#f2f2f3"/>
  <rect x="304" y="324" width="1" height="1" fill="#f5f5f6"/>
  <rect x="305" y="324" width="1" height="1" fill="#f6f6f7"/>
  <rect x="306" y="324" width="1" height="1" fill="#f3f4f5"/>
  <rect x="307" y="324" width="1" height="1" fill="#f5f5f5"/>
  <rect x="308" y="324" width="1" height="1" fill="#f6f6f6"/>
  <rect x="309" y="324" width="1" height="1" fill="#f9f8f9"/>
  <rect x="294" y="325" width="1" height="1" fill="#fdfdfd"/>
  <rect x="295" y="325" width="1" height="1" fill="#f4f4f4"/>
  <rect x="296" y="325" width="1" height="1" fill="#f5f5f4"/>
  <rect x="297" y="325" width="1" height="1" fill="#fafafa"/>
  <rect x="305" y="325" width="1" height="1" fill="#d3d2d3"/>
  <rect x="306" y="325" width="1" height="1" fill="#f5f5f6"/>
  <rect x="307" y="325" width="1" height="1" fill="#f1f2f2"/>
  <rect x="308" y="325" width="1" height="1" fill="#f1f1f2"/>
  <rect x="309" y="325" width="1" height="1" fill="#f4f4f5"/>
  <rect x="310" y="325" width="1" height="1" fill="#f9f9fa"/>
  <rect x="294" y="326" width="1" height="1" fill="#fbfbfc"/>
  <rect x="295" y="326" width="1" height="1" fill="#f3f3f3"/>
  <rect x="296" y="326" width="1" height="1" fill="#f2f2f1"/>
  <rect x="297" y="326" width="1" height="1" fill="#f8f9fa"/>
  <rect x="306" y="326" width="1" height="1" fill="#c0bfbf"/>
  <rect x="307" y="326" width="1" height="1" fill="#f6f7f7"/>
  <rect x="308" y="326" width="1" height="1" fill="#f2f2f4"/>
  <rect x="309" y="326" width="1" height="1" fill="#f2f3f4"/>
  <rect x="310" y="326" width="1" height="1" fill="#f1f1f2"/>
  <rect x="311" y="326" width="1" height="1" fill="#f5f6f6"/>
  <rect x="294" y="327" width="1" height="1" fill="#fafafb"/>
  <rect x="295" y="327" width="1" height="1" fill="#f2f2f2"/>
  <rect x="296" y="327" width="1" height="1" fill="#f1f0f0"/>
  <rect x="297" y="327" width="1" height="1" fill="#f7f8f9"/>
  <rect x="307" y="327" width="1" height="1" fill="#c2c0c0"/>
  <rect x="308" y="327" width="1" height="1" fill="#f7f8f9"/>
  <rect x="309" y="327" width="1" height="1" fill="#f2f3f4"/>
  <rect x="310" y="327" width="1" height="1" fill="#f0f1f1"/>
  <rect x="311" y="327" width="1" height="1" fill="#f2f3f3"/>
  <rect x="312" y="327" width="1" height="1" fill="#f7f7f8"/>
  <rect x="294" y="328" width="1" height="1" fill="#f9f9fa"/>
  <rect x="295" y="328" width="1" height="1" fill="#f1f1f2"/>
  <rect x="296" y="328" width="1" height="1" fill="#f1f1f1"/>
  <rect x="297" y="328" width="1" height="1" fill="#f7f8f9"/>
  <rect x="309" y="328" width="1" height="1" fill="#f8f8f9"/>
  <rect x="310" y="328" width="1" height="1" fill="#f4f4f4"/>
  <rect x="311" y="328" width="1" height="1" fill="#f8f7f7"/>
  <rect x="312" y="328" width="1" height="1" fill="#faf8f9"/>
  <rect x="313" y="328" width="1" height="1" fill="#fdfefe"/>
  <rect x="294" y="329" width="1" height="1" fill="#f8f8f9"/>
  <rect x="295" y="329" width="2" height="1" fill="#f1f1f1"/>
  <rect x="297" y="329" width="1" height="1" fill="#f7f8f9"/>
  <rect x="310" y="329" width="2" height="1" fill="#fcfbfb"/>
  <rect x="312" y="329" width="1" height="1" fill="#fcfafa"/>
  <rect x="313" y="329" width="1" height="1" fill="#fcfafb"/>
  <rect x="314" y="329" width="1" height="1" fill="#feffff"/>
  <rect x="315" y="329" width="1" height="1" fill="#cbc7c6"/>
  <rect x="294" y="330" width="1" height="1" fill="#f9f9f9"/>
  <rect x="295" y="330" width="2" height="1" fill="#f2f2f1"/>
  <rect x="297" y="330" width="1" height="1" fill="#f7f8f8"/>
  <rect x="311" y="330" width="1" height="1" fill="#fcfcfc"/>
  <rect x="312" y="330" width="1" height="1" fill="#f5f5f5"/>
  <rect x="313" y="330" width="1" height="1" fill="#f4f4f4"/>
  <rect x="314" y="330" width="1" height="1" fill="#f4f4f5"/>
  <rect x="315" y="330" width="1" height="1" fill="#fdfdfd"/>
  <rect x="316" y="330" width="1" height="1" fill="#d6d2d1"/>
  <rect x="294" y="331" width="1" height="1" fill="#f7f7f7"/>
  <rect x="295" y="331" width="1" height="1" fill="#f1f1f1"/>
  <rect x="296" y="331" width="1" height="1" fill="#f1f0f0"/>
  <rect x="297" y="331" width="1" height="1" fill="#f6f6f7"/>
  <rect x="312" y="331" width="1" height="1" fill="#f5f6f7"/>
  <rect x="313" y="331" width="1" height="1" fill="#eeeff0"/>
  <rect x="314" y="331" width="1" height="1" fill="#f1f1f2"/>
  <rect x="315" y="331" width="1" height="1" fill="#f7f7f7"/>
  <rect x="316" y="331" width="1" height="1" fill="#ffffff"/>
  <rect x="317" y="331" width="1" height="1" fill="#d6d1d1"/>
  <rect x="294" y="332" width="1" height="1" fill="#f3f3f4"/>
  <rect x="295" y="332" width="1" height="1" fill="#ececed"/>
  <rect x="296" y="332" width="1" height="1" fill="#ededec"/>
  <rect x="297" y="332" width="1" height="1" fill="#f4f4f4"/>
  <rect x="313" y="332" width="1" height="1" fill="#fbfcfc"/>
  <rect x="314" y="332" width="1" height="1" fill="#f8f8f7"/>
  <rect x="315" y="332" width="1" height="1" fill="#f3f4f3"/>
  <rect x="316" y="332" width="1" height="1" fill="#eff0f0"/>
  <rect x="317" y="332" width="1" height="1" fill="#f3f4f5"/>
  <rect x="318" y="332" width="1" height="1" fill="#d2d0cd"/>
  <rect x="294" y="333" width="1" height="1" fill="#f2f2f3"/>
  <rect x="295" y="333" width="1" height="1" fill="#ececec"/>
  <rect x="296" y="333" width="1" height="1" fill="#ebebea"/>
  <rect x="297" y="333" width="1" height="1" fill="#f3f3f3"/>
  <rect x="314" y="333" width="1" height="1" fill="#ffffff"/>
  <rect x="315" y="333" width="1" height="1" fill="#f3f4f4"/>
  <rect x="316" y="333" width="2" height="1" fill="#e8e9e9"/>
  <rect x="318" y="333" width="1" height="1" fill="#f4f4f3"/>
  <rect x="319" y="333" width="1" height="1" fill="#e2e2dc"/>
  <rect x="294" y="334" width="1" height="1" fill="#f5f5f5"/>
  <rect x="295" y="334" width="1" height="1" fill="#f1f1f0"/>
  <rect x="296" y="334" width="1" height="1" fill="#f2f1f1"/>
  <rect x="297" y="334" width="1" height="1" fill="#f8f7f7"/>
  <rect x="315" y="334" width="1" height="1" fill="#f7f5f3"/>
  <rect x="316" y="334" width="1" height="1" fill="#f4f4f4"/>
  <rect x="317" y="334" width="1" height="1" fill="#f3f3f2"/>
  <rect x="318" y="334" width="1" height="1" fill="#f6f3f2"/>
  <rect x="319" y="334" width="1" height="1" fill="#faf9f7"/>
  <rect x="320" y="334" width="1" height="1" fill="#f2efea"/>
</svg>
