<?xml version="1.0" encoding="UTF-8"?>
<svg xmlns="http://www.w3.org/2000/svg" width="492" height="461">
  <rect x="169" y="311" width="1" height="1" fill="#f6f6f8"/>
  <rect x="170" y="311" width="1" height="1" fill="#f3f4f6"/>
  <rect x="171" y="311" width="3" height="1" fill="#f5f5f7"/>
  <rect x="174" y="311" width="1" height="1" fill="#f6f6f7"/>
  <rect x="175" y="311" width="1" height="1" fill="#f6f6f8"/>
  <rect x="176" y="311" width="2" height="1" fill="#f7f7f8"/>
  <rect x="178" y="311" width="1" height="1" fill="#f8f8f9"/>
  <rect x="179" y="311" width="1" height="1" fill="#f9f9fa"/>
  <rect x="180" y="311" width="1" height="1" fill="#fafafb"/>
  <rect x="181" y="311" width="1" height="1" fill="#fbfbfc"/>
  <rect x="182" y="311" width="1" height="1" fill="#fcfcfd"/>
  <rect x="183" y="311" width="3" height="1" fill="#fdfdfd"/>
  <rect x="186" y="311" width="1" height="1" fill="#fefefd"/>
  <rect x="187" y="311" width="1" height="1" fill="#fffefe"/>
  <rect x="188" y="311" width="2" height="1" fill="#fffffe"/>
  <rect x="190" y="311" width="4" height="1" fill="#ffffff"/>
  <rect x="194" y="311" width="1" height="1" fill="#f6f6f8"/>
  <rect x="169" y="312" width="1" height="1" fill="#f6f6f8"/>
  <rect x="170" y="312" width="1" height="1" fill="#ebebed"/>
  <rect x="171" y="312" width="1" height="1" fill="#ededef"/>
  <rect x="172" y="312" width="1" height="1" fill="#ececed"/>
  <rect x="173" y="312" width="2" height="1" fill="#edeced"/>
  <rect x="175" y="312" width="1" height="1" fill="#efefef"/>
  <rect x="176" y="312" width="1" height="1" fill="#efeeef"/>
  <rect x="177" y="312" width="1" height="1" fill="#f0f0f0"/>
  <rect x="178" y="312" width="1" height="1" fill="#f1f1f2"/>
  <rect x="179" y="312" width="1" height="1" fill="#f4f3f4"/>
  <rect x="180" y="312" width="1" height="1" fill="#f6f5f6"/>
  <rect x="181" y="312" width="1" height="1" fill="#f7f7f7"/>
  <rect x="182" y="312" width="1" height="1" fill="#f8f7f8"/>
  <rect x="183" y="312" width="1" height="1" fill="#f6f6f6"/>
  <rect x="184" y="312" width="1" height="1" fill="#f4f4f4"/>
  <rect x="185" y="312" width="1" height="1" fill="#f4f3f3"/>
  <rect x="186" y="312" width="1" height="1" fill="#f3f3f2"/>
  <rect x="187" y="312" width="1" height="1" fill="#f4f4f3"/>
  <rect x="188" y="312" width="1" height="1" fill="#f2f1f1"/>
  <rect x="189" y="312" width="1" height="1" fill="#f1f1f0"/>
  <rect x="190" y="312" width="1" height="1" fill="#f0efef"/>
  <rect x="191" y="312" width="1" height="1" fill="#f3f2f1"/>
  <rect x="192" y="312" width="1" height="1" fill="#f5f3f2"/>
  <rect x="193" y="312" width="1" height="1" fill="#fffdfc"/>
  <rect x="194" y="312" width="1" height="1" fill="#f1efef"/>
  <rect x="169" y="313" width="1" height="1" fill="#f7f6f8"/>
  <rect x="170" y="313" width="1" height="1" fill="#ededef"/>
  <rect x="171" y="313" width="1" height="1" fill="#ededee"/>
  <rect x="172" y="313" width="1" height="1" fill="#eaebec"/>
  <rect x="173" y="313" width="1" height="1" fill="#ebebec"/>
  <rect x="174" y="313" width="1" height="1" fill="#ececed"/>
  <rect x="175" y="313" width="1" height="1" fill="#edeeee"/>
  <rect x="176" y="313" width="1" height="1" fill="#eeefef"/>
  <rect x="177" y="313" width="1" height="1" fill="#f0f0f0"/>
  <rect x="178" y="313" width="1" height="1" fill="#f1f2f2"/>
  <rect x="179" y="313" width="1" height="1" fill="#f4f5f5"/>
  <rect x="180" y="313" width="1" height="1" fill="#f7f7f7"/>
  <rect x="181" y="313" width="1" height="1" fill="#f8f9f9"/>
  <rect x="182" y="313" width="1" height="1" fill="#f7f7f7"/>
  <rect x="183" y="313" width="1" height="1" fill="#f4f4f4"/>
  <rect x="184" y="313" width="1" height="1" fill="#f0f0f1"/>
  <rect x="185" y="313" width="1" height="1" fill="#eeeeef"/>
  <rect x="186" y="313" width="1" height="1" fill="#edeeee"/>
  <rect x="187" y="313" width="1" height="1" fill="#eeeeef"/>
  <rect x="188" y="313" width="1" height="1" fill="#ececed"/>
  <rect x="189" y="313" width="1" height="1" fill="#eaebec"/>
  <rect x="190" y="313" width="1" height="1" fill="#eaeaeb"/>
  <rect x="191" y="313" width="1" height="1" fill="#edeced"/>
  <rect x="192" y="313" width="1" height="1" fill="#f3f2f1"/>
  <rect x="193" y="313" width="1" height="1" fill="#fdfcfc"/>
  <rect x="194" y="313" width="1" height="1" fill="#e8e5e5"/>
  <rect x="168" y="314" width="1" height="1" fill="#c9cdd1"/>
  <rect x="169" y="314" width="1" height="1" fill="#f6f7f9"/>
  <rect x="170" y="314" width="1" height="1" fill="#f3f5f6"/>
  <rect x="171" y="314" width="1" height="1" fill="#f3f4f5"/>
  <rect x="172" y="314" width="1" height="1" fill="#f2f3f4"/>
  <rect x="173" y="314" width="1" height="1" fill="#f3f4f4"/>
  <rect x="174" y="314" width="1" height="1" fill="#f3f5f6"/>
  <rect x="175" y="314" width="1" height="1" fill="#f6f7f8"/>
  <rect x="176" y="314" width="1" height="1" fill="#f7f8f9"/>
  <rect x="177" y="314" width="1" height="1" fill="#f8f9fa"/>
  <rect x="178" y="314" width="2" height="1" fill="#f9fafa"/>
  <rect x="180" y="314" width="1" height="1" fill="#f9f9fa"/>
  <rect x="181" y="314" width="1" height="1" fill="#fafafa"/>
  <rect x="182" y="314" width="2" height="1" fill="#f9f9f9"/>
  <rect x="184" y="314" width="1" height="1" fill="#f7f7f7"/>
  <rect x="185" y="314" width="1" height="1" fill="#f6f7f7"/>
  <rect x="186" y="314" width="1" height="1" fill="#f5f6f6"/>
  <rect x="187" y="314" width="1" height="1" fill="#f5f5f6"/>
  <rect x="188" y="314" width="1" height="1" fill="#f3f4f5"/>
  <rect x="189" y="314" width="1" height="1" fill="#f2f2f4"/>
  <rect x="190" y="314" width="1" height="1" fill="#f1f2f3"/>
  <rect x="191" y="314" width="1" height="1" fill="#f3f3f3"/>
  <rect x="192" y="314" width="1" height="1" fill="#f5f4f5"/>
  <rect x="193" y="314" width="1" height="1" fill="#f8f7f9"/>
  <rect x="194" y="314" width="1" height="1" fill="#eae9ea"/>
  <rect x="179" y="315" width="1" height="1" fill="#f5f7f8"/>
  <rect x="180" y="315" width="1" height="1" fill="#fcfcfc"/>
  <rect x="181" y="315" width="1" height="1" fill="#f9f9fa"/>
  <rect x="182" y="315" width="1" height="1" fill="#fcfcfc"/>
  <rect x="183" y="315" width="1" height="1" fill="#e6e7e6"/>
  <rect x="179" y="316" width="1" height="1" fill="#eff0f2"/>
  <rect x="180" y="316" width="1" height="1" fill="#fbfbfc"/>
  <rect x="181" y="316" width="1" height="1" fill="#f7f7f7"/>
  <rect x="182" y="316" width="1" height="1" fill="#fafbfb"/>
  <rect x="183" y="316" width="1" height="1" fill="#c2c4c6"/>
  <rect x="179" y="317" width="1" height="1" fill="#efeff1"/>
  <rect x="180" y="317" width="1" height="1" fill="#f9f9fb"/>
  <rect x="181" y="317" width="1" height="1" fill="#f5f5f6"/>
  <rect x="182" y="317" width="1" height="1" fill="#f9f9f9"/>
  <rect x="183" y="317" width="1" height="1" fill="#c8c8c8"/>
  <rect x="179" y="318" width="1" height="1" fill="#eff0f3"/>
  <rect x="180" y="318" width="1" height="1" fill="#f9f9fa"/>
  <rect x="181" y="318" width="1" height="1" fill="#f5f5f5"/>
  <rect x="182" y="318" width="1" height="1" fill="#f9f8f9"/>
  <rect x="183" y="318" width="1" height="1" fill="#c8cbcb"/>
  <rect x="179" y="319" width="1" height="1" fill="#eceef1"/>
  <rect x="180" y="319" width="1" height="1" fill="#f9f9fa"/>
  <rect x="181" y="319" width="1" height="1" fill="#f4f4f5"/>
  <rect x="182" y="319" width="1" height="1" fill="#f9f9f9"/>
  <rect x="183" y="319" width="1" height="1" fill="#cacdcc"/>
  <rect x="179" y="320" width="1" height="1" fill="#ebecef"/>
  <rect x="180" y="320" width="1" height="1" fill="#f8f8fa"/>
  <rect x="181" y="320" width="1" height="1" fill="#f5f5f5"/>
  <rect x="182" y="320" width="1" height="1" fill="#f9f9f9"/>
  <rect x="183" y="320" width="1" height="1" fill="#c8cbcb"/>
  <rect x="179" y="321" width="1" height="1" fill="#e8e9ec"/>
  <rect x="180" y="321" width="1" height="1" fill="#f8f8f9"/>
  <rect x="181" y="321" width="1" height="1" fill="#f4f4f5"/>
  <rect x="182" y="321" width="1" height="1" fill="#f9f9f9"/>
  <rect x="183" y="321" width="1" height="1" fill="#c6c8c8"/>
  <rect x="179" y="322" width="1" height="1" fill="#e7e9eb"/>
  <rect x="180" y="322" width="1" height="1" fill="#f8f9f9"/>
  <rect x="181" y="322" width="1" height="1" fill="#f5f5f6"/>
  <rect x="182" y="322" width="1" height="1" fill="#f9f9f9"/>
  <rect x="183" y="322" width="1" height="1" fill="#c6c8c8"/>
  <rect x="179" y="323" width="1" height="1" fill="#e7e9eb"/>
  <rect x="180" y="323" width="1" height="1" fill="#f9f9fa"/>
  <rect x="181" y="323" width="1" height="1" fill="#f5f5f6"/>
  <rect x="182" y="323" width="1" height="1" fill="#f9f9fa"/>
  <rect x="183" y="323" width="1" height="1" fill="#c3c5c5"/>
  <rect x="179" y="324" width="1" height="1" fill="#e8eaec"/>
  <rect x="180" y="324" width="1" height="1" fill="#fafafb"/>
  <rect x="181" y="324" width="1" height="1" fill="#f5f5f6"/>
  <rect x="182" y="324" width="1" height="1" fill="#faf9fa"/>
  <rect x="179" y="325" width="1" height="1" fill="#e9eaed"/>
  <rect x="180" y="325" width="1" height="1" fill="#fbfbfc"/>
  <rect x="181" y="325" width="1" height="1" fill="#f6f6f6"/>
  <rect x="182" y="325" width="1" height="1" fill="#fafafa"/>
  <rect x="179" y="326" width="1" height="1" fill="#eaeced"/>
  <rect x="180" y="326" width="1" height="1" fill="#fcfcfd"/>
  <rect x="181" y="326" width="1" height="1" fill="#f6f6f7"/>
  <rect x="182" y="326" width="1" height="1" fill="#fafafb"/>
  <rect x="179" y="327" width="1" height="1" fill="#ebedee"/>
  <rect x="180" y="327" width="1" height="1" fill="#fdfdfd"/>
  <rect x="181" y="327" width="1" height="1" fill="#f6f6f7"/>
  <rect x="182" y="327" width="1" height="1" fill="#fafafb"/>
  <rect x="179" y="328" width="1" height="1" fill="#eceeef"/>
  <rect x="180" y="328" width="1" height="1" fill="#fefdfe"/>
  <rect x="181" y="328" width="1" height="1" fill="#f6f6f7"/>
  <rect x="182" y="328" width="1" height="1" fill="#fafafb"/>
  <rect x="179" y="329" width="1" height="1" fill="#ececee"/>
  <rect x="180" y="329" width="1" height="1" fill="#fefdfe"/>
  <rect x="181" y="329" width="1" height="1" fill="#f6f6f7"/>
  <rect x="182" y="329" width="1" height="1" fill="#fbfafb"/>
  <rect x="179" y="330" width="1" height="1" fill="#eaebeb"/>
  <rect x="180" y="330" width="1" height="1" fill="#fefefe"/>
  <rect x="181" y="330" width="1" height="1" fill="#f7f7f8"/>
  <rect x="182" y="330" width="1" height="1" fill="#fbfbfc"/>
  <rect x="179" y="331" width="1" height="1" fill="#e7e8e8"/>
  <rect x="180" y="331" width="1" height="1" fill="#fdfdfe"/>
  <rect x="181" y="331" width="1" height="1" fill="#f6f6f7"/>
  <rect x="182" y="331" width="1" height="1" fill="#fafafb"/>
  <rect x="179" y="332" width="1" height="1" fill="#e2e4e4"/>
  <rect x="180" y="332" width="1" height="1" fill="#f9f8fa"/>
  <rect x="181" y="332" width="1" height="1" fill="#f0f0f1"/>
  <rect x="182" y="332" width="1" height="1" fill="#f6f6f7"/>
  <rect x="179" y="333" width="1" height="1" fill="#dddedf"/>
  <rect x="180" y="333" width="1" height="1" fill="#f6f7f8"/>
  <rect x="181" y="333" width="1" height="1" fill="#eeefef"/>
  <rect x="182" y="333" width="1" height="1" fill="#f4f4f5"/>
  <rect x="179" y="334" width="1" height="1" fill="#d6d9d9"/>
  <rect x="180" y="334" width="1" height="1" fill="#f5f4f5"/>
  <rect x="181" y="334" width="1" height="1" fill="#e7e7e7"/>
  <rect x="182" y="334" width="1" height="1" fill="#f2f1f1"/>
</svg>
