<?xml version="1.0" encoding="UTF-8"?>
<svg xmlns="http://www.w3.org/2000/svg" width="492" height="461">
  <rect x="161" y="89" width="1" height="1" fill="#115cab"/>
  <rect x="160" y="90" width="1" height="1" fill="#0e56a8"/>
  <rect x="161" y="90" width="1" height="1" fill="#1b67b3"/>
  <rect x="210" y="111" width="1" height="1" fill="#0254b2"/>
  <rect x="256" y="129" width="1" height="1" fill="#0052b7"/>
  <rect x="255" y="130" width="1" height="1" fill="#0252b2"/>
  <rect x="246" y="140" width="1" height="1" fill="#0266d0"/>
  <rect x="246" y="141" width="1" height="1" fill="#0070db"/>
  <rect x="247" y="141" width="1" height="1" fill="#006bce"/>
  <rect x="246" y="142" width="1" height="1" fill="#0176dc"/>
  <rect x="247" y="142" width="1" height="1" fill="#0178dd"/>
  <rect x="246" y="143" width="1" height="1" fill="#0174d9"/>
  <rect x="247" y="143" width="1" height="1" fill="#0174dd"/>
  <rect x="248" y="143" width="1" height="1" fill="#015cc1"/>
  <rect x="246" y="144" width="1" height="1" fill="#0272d7"/>
  <rect x="247" y="144" width="1" height="1" fill="#0173db"/>
  <rect x="248" y="144" width="1" height="1" fill="#0168d3"/>
  <rect x="246" y="145" width="1" height="1" fill="#036eda"/>
  <rect x="247" y="145" width="1" height="1" fill="#016ad2"/>
  <rect x="248" y="145" width="1" height="1" fill="#0165d3"/>
  <rect x="246" y="146" width="1" height="1" fill="#0169d9"/>
  <rect x="247" y="146" width="1" height="1" fill="#006fd7"/>
  <rect x="248" y="146" width="1" height="1" fill="#0165cc"/>
  <rect x="246" y="147" width="1" height="1" fill="#0161cd"/>
  <rect x="247" y="147" width="1" height="1" fill="#0169ca"/>
  <rect x="217" y="156" width="1" height="1" fill="#0e6fdb"/>
  <rect x="217" y="157" width="1" height="1" fill="#0788f4"/>
  <rect x="216" y="158" width="1" height="1" fill="#076ddd"/>
  <rect x="217" y="158" width="1" height="1" fill="#0473e2"/>
  <rect x="216" y="159" width="1" height="1" fill="#0381f6"/>
  <rect x="217" y="159" width="1" height="1" fill="#0355b1"/>
  <rect x="215" y="160" width="1" height="1" fill="#0a68ce"/>
  <rect x="216" y="160" width="1" height="1" fill="#047cf2"/>
  <rect x="215" y="161" width="1" height="1" fill="#0675de"/>
  <rect x="216" y="161" width="1" height="1" fill="#0375e9"/>
  <rect x="215" y="162" width="1" height="1" fill="#035cbd"/>
  <rect x="216" y="162" width="1" height="1" fill="#035dbd"/>
  <rect x="285" y="167" width="1" height="1" fill="#0254b7"/>
  <rect x="286" y="167" width="1" height="1" fill="#0254b5"/>
  <rect x="287" y="167" width="1" height="1" fill="#0253b1"/>
</svg>
