<?xml version="1.0" encoding="UTF-8"?>
<svg xmlns="http://www.w3.org/2000/svg" width="492" height="461">
  <rect x="329" y="378" width="1" height="1" fill="#11559b"/>
  <rect x="330" y="378" width="1" height="1" fill="#1967b4"/>
  <rect x="331" y="378" width="1" height="1" fill="#196fc2"/>
  <rect x="332" y="378" width="1" height="1" fill="#186abb"/>
  <rect x="333" y="378" width="1" height="1" fill="#0f5194"/>
  <rect x="327" y="379" width="1" height="1" fill="#0c60c9"/>
  <rect x="328" y="379" width="1" height="1" fill="#059aff"/>
  <rect x="329" y="379" width="1" height="1" fill="#0ca1ff"/>
  <rect x="330" y="379" width="1" height="1" fill="#1391f8"/>
  <rect x="331" y="379" width="1" height="1" fill="#0e90f5"/>
  <rect x="332" y="379" width="1" height="1" fill="#0d9afd"/>
  <rect x="333" y="379" width="1" height="1" fill="#12b0ff"/>
  <rect x="334" y="379" width="1" height="1" fill="#0a8af6"/>
  <rect x="327" y="380" width="1" height="1" fill="#1198fd"/>
  <rect x="328" y="380" width="1" height="1" fill="#027ae4"/>
  <rect x="333" y="380" width="1" height="1" fill="#0664c1"/>
  <rect x="334" y="380" width="1" height="1" fill="#0fb3ff"/>
  <rect x="335" y="380" width="1" height="1" fill="#0465be"/>
  <rect x="326" y="381" width="1" height="1" fill="#0c3f85"/>
  <rect x="327" y="381" width="1" height="1" fill="#0d96fb"/>
  <rect x="328" y="381" width="1" height="1" fill="#065aad"/>
  <rect x="334" y="381" width="1" height="1" fill="#1584eb"/>
  <rect x="335" y="381" width="1" height="1" fill="#0969bf"/>
  <rect x="326" y="382" width="1" height="1" fill="#08427f"/>
  <rect x="327" y="382" width="1" height="1" fill="#0895f7"/>
  <rect x="328" y="382" width="1" height="1" fill="#0462c2"/>
  <rect x="327" y="383" width="1" height="1" fill="#067de9"/>
  <rect x="328" y="383" width="1" height="1" fill="#048af0"/>
  <rect x="329" y="383" width="1" height="1" fill="#025bb3"/>
  <rect x="328" y="384" width="1" height="1" fill="#046ee1"/>
  <rect x="329" y="384" width="1" height="1" fill="#039cf4"/>
  <rect x="330" y="384" width="1" height="1" fill="#039df4"/>
  <rect x="331" y="384" width="1" height="1" fill="#068ff1"/>
  <rect x="332" y="384" width="1" height="1" fill="#0680e6"/>
  <rect x="333" y="384" width="1" height="1" fill="#0761bc"/>
  <rect x="334" y="384" width="1" height="1" fill="#013b8a"/>
  <rect x="330" y="385" width="1" height="1" fill="#024085"/>
  <rect x="331" y="385" width="1" height="1" fill="#03519c"/>
  <rect x="332" y="385" width="1" height="1" fill="#0567c4"/>
  <rect x="333" y="385" width="1" height="1" fill="#068ef2"/>
  <rect x="334" y="385" width="1" height="1" fill="#039bf9"/>
  <rect x="335" y="385" width="1" height="1" fill="#024a9d"/>
  <rect x="334" y="386" width="1" height="1" fill="#0495f4"/>
  <rect x="335" y="386" width="1" height="1" fill="#027fdb"/>
  <rect x="327" y="387" width="1" height="1" fill="#064ca2"/>
  <rect x="334" y="387" width="1" height="1" fill="#0686e4"/>
  <rect x="335" y="387" width="1" height="1" fill="#0180de"/>
  <rect x="326" y="388" width="1" height="1" fill="#0b4792"/>
  <rect x="327" y="388" width="1" height="1" fill="#0699f6"/>
  <rect x="328" y="388" width="1" height="1" fill="#0159b5"/>
  <rect x="334" y="388" width="1" height="1" fill="#0390f2"/>
  <rect x="335" y="388" width="1" height="1" fill="#017ad7"/>
  <rect x="327" y="389" width="1" height="1" fill="#06a1fb"/>
  <rect x="328" y="389" width="1" height="1" fill="#0295f2"/>
  <rect x="329" y="389" width="1" height="1" fill="#0160b4"/>
  <rect x="330" y="389" width="1" height="1" fill="#01509d"/>
  <rect x="331" y="389" width="1" height="1" fill="#0255a4"/>
  <rect x="332" y="389" width="1" height="1" fill="#0162bd"/>
  <rect x="333" y="389" width="1" height="1" fill="#037fe9"/>
  <rect x="334" y="389" width="1" height="1" fill="#0196f8"/>
  <rect x="335" y="389" width="1" height="1" fill="#004590"/>
  <rect x="327" y="390" width="1" height="1" fill="#054189"/>
  <rect x="328" y="390" width="1" height="1" fill="#057fe6"/>
  <rect x="329" y="390" width="1" height="1" fill="#029dfb"/>
  <rect x="330" y="390" width="1" height="1" fill="#019bfd"/>
  <rect x="331" y="390" width="1" height="1" fill="#0095fc"/>
  <rect x="332" y="390" width="1" height="1" fill="#0095f9"/>
  <rect x="333" y="390" width="1" height="1" fill="#0180dd"/>
  <rect x="334" y="390" width="1" height="1" fill="#003b89"/>
</svg>
