<?xml version="1.0" encoding="UTF-8"?>
<svg xmlns="http://www.w3.org/2000/svg" width="492" height="461">
  <rect x="208" y="378" width="1" height="1" fill="#07477e"/>
  <rect x="209" y="378" width="1" height="1" fill="#11639e"/>
  <rect x="210" y="378" width="1" height="1" fill="#136db4"/>
  <rect x="211" y="378" width="1" height="1" fill="#0f68b6"/>
  <rect x="212" y="378" width="1" height="1" fill="#0c5191"/>
  <rect x="207" y="379" width="1" height="1" fill="#0578e4"/>
  <rect x="208" y="379" width="1" height="1" fill="#0699f0"/>
  <rect x="209" y="379" width="1" height="1" fill="#0b90e4"/>
  <rect x="210" y="379" width="1" height="1" fill="#0d85df"/>
  <rect x="211" y="379" width="1" height="1" fill="#0d93ed"/>
  <rect x="212" y="379" width="1" height="1" fill="#0ca1f6"/>
  <rect x="213" y="379" width="1" height="1" fill="#0587ea"/>
  <rect x="214" y="379" width="1" height="1" fill="#014489"/>
  <rect x="206" y="380" width="1" height="1" fill="#0d65c3"/>
  <rect x="207" y="380" width="1" height="1" fill="#069cf1"/>
  <rect x="208" y="380" width="1" height="1" fill="#045395"/>
  <rect x="212" y="380" width="1" height="1" fill="#033f84"/>
  <rect x="213" y="380" width="1" height="1" fill="#069ff9"/>
  <rect x="214" y="380" width="1" height="1" fill="#0299f9"/>
  <rect x="206" y="381" width="1" height="1" fill="#0c7edd"/>
  <rect x="207" y="381" width="1" height="1" fill="#068bec"/>
  <rect x="213" y="381" width="1" height="1" fill="#0770c7"/>
  <rect x="214" y="381" width="1" height="1" fill="#027bd8"/>
  <rect x="206" y="382" width="1" height="1" fill="#0979d7"/>
  <rect x="207" y="382" width="1" height="1" fill="#068bec"/>
  <rect x="206" y="383" width="1" height="1" fill="#013d8e"/>
  <rect x="207" y="383" width="1" height="1" fill="#0497f2"/>
  <rect x="208" y="383" width="1" height="1" fill="#0473cb"/>
  <rect x="209" y="383" width="1" height="1" fill="#02427b"/>
  <rect x="207" y="384" width="1" height="1" fill="#013f94"/>
  <rect x="208" y="384" width="1" height="1" fill="#0283ec"/>
  <rect x="209" y="384" width="1" height="1" fill="#02a5f4"/>
  <rect x="210" y="384" width="1" height="1" fill="#049ff4"/>
  <rect x="211" y="384" width="1" height="1" fill="#0691ef"/>
  <rect x="212" y="384" width="1" height="1" fill="#0465b9"/>
  <rect x="210" y="385" width="1" height="1" fill="#034080"/>
  <rect x="211" y="385" width="1" height="1" fill="#0462ba"/>
  <rect x="212" y="385" width="1" height="1" fill="#0595f4"/>
  <rect x="213" y="385" width="1" height="1" fill="#0495f9"/>
  <rect x="214" y="385" width="1" height="1" fill="#015eb9"/>
  <rect x="213" y="386" width="1" height="1" fill="#0784e9"/>
  <rect x="214" y="386" width="1" height="1" fill="#019dfb"/>
  <rect x="206" y="387" width="1" height="1" fill="#034a99"/>
  <rect x="207" y="387" width="1" height="1" fill="#044787"/>
  <rect x="213" y="387" width="1" height="1" fill="#095ba8"/>
  <rect x="214" y="387" width="1" height="1" fill="#0098f9"/>
  <rect x="206" y="388" width="1" height="1" fill="#028ded"/>
  <rect x="207" y="388" width="1" height="1" fill="#0497f5"/>
  <rect x="213" y="388" width="1" height="1" fill="#076eca"/>
  <rect x="214" y="388" width="1" height="1" fill="#0090f1"/>
  <rect x="206" y="389" width="1" height="1" fill="#0164c7"/>
  <rect x="207" y="389" width="1" height="1" fill="#05b2ff"/>
  <rect x="208" y="389" width="1" height="1" fill="#0886e1"/>
  <rect x="209" y="389" width="1" height="1" fill="#014688"/>
  <rect x="210" y="389" width="1" height="1" fill="#014c88"/>
  <rect x="211" y="389" width="1" height="1" fill="#0260b1"/>
  <rect x="212" y="389" width="1" height="1" fill="#0383e0"/>
  <rect x="213" y="389" width="1" height="1" fill="#03a8f8"/>
  <rect x="214" y="389" width="1" height="1" fill="#0059af"/>
  <rect x="207" y="390" width="1" height="1" fill="#0656ad"/>
  <rect x="208" y="390" width="1" height="1" fill="#0691f6"/>
  <rect x="209" y="390" width="1" height="1" fill="#02a9fd"/>
  <rect x="210" y="390" width="1" height="1" fill="#01a9fc"/>
  <rect x="211" y="390" width="1" height="1" fill="#029ef8"/>
  <rect x="212" y="390" width="1" height="1" fill="#0293e6"/>
  <rect x="213" y="390" width="1" height="1" fill="#0160ac"/>
</svg>
