<?xml version="1.0" encoding="UTF-8"?>
<svg xmlns="http://www.w3.org/2000/svg" width="492" height="461">
  <rect x="188" y="378" width="1" height="1" fill="#0554a7"/>
  <rect x="189" y="378" width="1" height="1" fill="#084d8f"/>
  <rect x="190" y="378" width="1" height="1" fill="#0b477f"/>
  <rect x="193" y="378" width="1" height="1" fill="#174c7d"/>
  <rect x="194" y="378" width="1" height="1" fill="#145790"/>
  <rect x="187" y="379" width="1" height="1" fill="#064ca6"/>
  <rect x="188" y="379" width="1" height="1" fill="#038ced"/>
  <rect x="189" y="379" width="1" height="1" fill="#0585e5"/>
  <rect x="190" y="379" width="1" height="1" fill="#0c97e6"/>
  <rect x="191" y="379" width="1" height="1" fill="#10a4e8"/>
  <rect x="192" y="379" width="1" height="1" fill="#16a4e9"/>
  <rect x="193" y="379" width="1" height="1" fill="#20a9e9"/>
  <rect x="194" y="379" width="1" height="1" fill="#17beef"/>
  <rect x="195" y="379" width="1" height="1" fill="#0676c2"/>
  <rect x="187" y="380" width="1" height="1" fill="#044891"/>
  <rect x="188" y="380" width="1" height="1" fill="#0389e9"/>
  <rect x="189" y="380" width="1" height="1" fill="#024886"/>
  <rect x="187" y="381" width="1" height="1" fill="#044995"/>
  <rect x="188" y="381" width="1" height="1" fill="#0489ec"/>
  <rect x="189" y="381" width="1" height="1" fill="#064279"/>
  <rect x="187" y="382" width="1" height="1" fill="#044993"/>
  <rect x="188" y="382" width="1" height="1" fill="#0285ec"/>
  <rect x="189" y="382" width="1" height="1" fill="#05407d"/>
  <rect x="187" y="383" width="1" height="1" fill="#04468f"/>
  <rect x="188" y="383" width="1" height="1" fill="#0186eb"/>
  <rect x="189" y="383" width="1" height="1" fill="#024a96"/>
  <rect x="187" y="384" width="1" height="1" fill="#044790"/>
  <rect x="188" y="384" width="1" height="1" fill="#0181ec"/>
  <rect x="189" y="384" width="1" height="1" fill="#0377d8"/>
  <rect x="190" y="384" width="1" height="1" fill="#0b88e0"/>
  <rect x="191" y="384" width="1" height="1" fill="#048fe6"/>
  <rect x="192" y="384" width="1" height="1" fill="#028fea"/>
  <rect x="193" y="384" width="1" height="1" fill="#049eed"/>
  <rect x="194" y="384" width="1" height="1" fill="#0399e8"/>
  <rect x="187" y="385" width="1" height="1" fill="#06458f"/>
  <rect x="188" y="385" width="1" height="1" fill="#0286ee"/>
  <rect x="189" y="385" width="1" height="1" fill="#0462ba"/>
  <rect x="187" y="386" width="1" height="1" fill="#064691"/>
  <rect x="188" y="386" width="1" height="1" fill="#0390f0"/>
  <rect x="189" y="386" width="1" height="1" fill="#044280"/>
  <rect x="187" y="387" width="1" height="1" fill="#064791"/>
  <rect x="188" y="387" width="1" height="1" fill="#048ff0"/>
  <rect x="189" y="387" width="1" height="1" fill="#07487c"/>
  <rect x="187" y="388" width="1" height="1" fill="#064894"/>
  <rect x="188" y="388" width="1" height="1" fill="#038ff0"/>
  <rect x="189" y="388" width="1" height="1" fill="#03468c"/>
  <rect x="187" y="389" width="1" height="1" fill="#034b9a"/>
  <rect x="188" y="389" width="1" height="1" fill="#0091f2"/>
  <rect x="189" y="389" width="1" height="1" fill="#0176d6"/>
  <rect x="190" y="389" width="1" height="1" fill="#025aab"/>
  <rect x="191" y="389" width="1" height="1" fill="#0560ac"/>
  <rect x="192" y="389" width="1" height="1" fill="#0461b3"/>
  <rect x="193" y="389" width="1" height="1" fill="#0561ad"/>
  <rect x="194" y="389" width="1" height="1" fill="#0569b4"/>
  <rect x="195" y="389" width="1" height="1" fill="#085b9d"/>
  <rect x="187" y="390" width="1" height="1" fill="#03499d"/>
  <rect x="188" y="390" width="1" height="1" fill="#018ff2"/>
  <rect x="189" y="390" width="2" height="1" fill="#0391ef"/>
  <rect x="191" y="390" width="1" height="1" fill="#0491eb"/>
  <rect x="192" y="390" width="1" height="1" fill="#0390ed"/>
  <rect x="193" y="390" width="1" height="1" fill="#0496ef"/>
  <rect x="194" y="390" width="1" height="1" fill="#02a0f3"/>
  <rect x="195" y="390" width="1" height="1" fill="#0797e9"/>
</svg>
