<?xml version="1.0" encoding="UTF-8"?>
<svg xmlns="http://www.w3.org/2000/svg" width="492" height="461">
  <rect x="313" y="378" width="1" height="1" fill="#054792"/>
  <rect x="314" y="378" width="1" height="1" fill="#074e8f"/>
  <rect x="315" y="378" width="1" height="1" fill="#0d487e"/>
  <rect x="316" y="378" width="1" height="1" fill="#0e497e"/>
  <rect x="317" y="378" width="1" height="1" fill="#104c83"/>
  <rect x="318" y="378" width="1" height="1" fill="#0f4b81"/>
  <rect x="319" y="378" width="1" height="1" fill="#0e4c7d"/>
  <rect x="313" y="379" width="1" height="1" fill="#0689f1"/>
  <rect x="314" y="379" width="1" height="1" fill="#0395f5"/>
  <rect x="315" y="379" width="1" height="1" fill="#0aa0f4"/>
  <rect x="316" y="379" width="1" height="1" fill="#0ea1f4"/>
  <rect x="317" y="379" width="1" height="1" fill="#109cf3"/>
  <rect x="318" y="379" width="1" height="1" fill="#0e9cf2"/>
  <rect x="319" y="379" width="1" height="1" fill="#11a3f3"/>
  <rect x="320" y="379" width="1" height="1" fill="#0d96f0"/>
  <rect x="313" y="380" width="1" height="1" fill="#0a88ee"/>
  <rect x="314" y="380" width="1" height="1" fill="#0373cc"/>
  <rect x="319" y="380" width="1" height="1" fill="#0a5194"/>
  <rect x="320" y="380" width="1" height="1" fill="#0997f2"/>
  <rect x="321" y="380" width="1" height="1" fill="#0894f1"/>
  <rect x="313" y="381" width="1" height="1" fill="#0f93f8"/>
  <rect x="314" y="381" width="1" height="1" fill="#0979d6"/>
  <rect x="320" y="381" width="1" height="1" fill="#034c9c"/>
  <rect x="321" y="381" width="1" height="1" fill="#05a3f8"/>
  <rect x="322" y="381" width="1" height="1" fill="#034f8e"/>
  <rect x="313" y="382" width="1" height="1" fill="#0994fc"/>
  <rect x="314" y="382" width="1" height="1" fill="#037be9"/>
  <rect x="321" y="382" width="1" height="1" fill="#0597f7"/>
  <rect x="322" y="382" width="1" height="1" fill="#0160b1"/>
  <rect x="313" y="383" width="1" height="1" fill="#0793fc"/>
  <rect x="314" y="383" width="1" height="1" fill="#017ef1"/>
  <rect x="321" y="383" width="1" height="1" fill="#0693f6"/>
  <rect x="322" y="383" width="1" height="1" fill="#0164b8"/>
  <rect x="313" y="384" width="1" height="1" fill="#0792fc"/>
  <rect x="314" y="384" width="1" height="1" fill="#0080f3"/>
  <rect x="321" y="384" width="1" height="1" fill="#089af7"/>
  <rect x="322" y="384" width="1" height="1" fill="#0169c3"/>
  <rect x="313" y="385" width="1" height="1" fill="#078ff9"/>
  <rect x="314" y="385" width="1" height="1" fill="#0082f0"/>
  <rect x="321" y="385" width="1" height="1" fill="#0d9df6"/>
  <rect x="322" y="385" width="1" height="1" fill="#026cc6"/>
  <rect x="313" y="386" width="1" height="1" fill="#088ff8"/>
  <rect x="314" y="386" width="1" height="1" fill="#0182ee"/>
  <rect x="321" y="386" width="1" height="1" fill="#12a4f5"/>
  <rect x="322" y="386" width="1" height="1" fill="#036cc3"/>
  <rect x="313" y="387" width="1" height="1" fill="#088cf7"/>
  <rect x="314" y="387" width="1" height="1" fill="#0483ed"/>
  <rect x="321" y="387" width="1" height="1" fill="#11adf8"/>
  <rect x="322" y="387" width="1" height="1" fill="#0365be"/>
  <rect x="313" y="388" width="1" height="1" fill="#088cf5"/>
  <rect x="314" y="388" width="1" height="1" fill="#0481e9"/>
  <rect x="320" y="388" width="1" height="1" fill="#1074cb"/>
  <rect x="321" y="388" width="1" height="1" fill="#10aef7"/>
  <rect x="322" y="388" width="1" height="1" fill="#074886"/>
  <rect x="313" y="389" width="1" height="1" fill="#048ff8"/>
  <rect x="314" y="389" width="1" height="1" fill="#018cf4"/>
  <rect x="315" y="389" width="1" height="1" fill="#025ab1"/>
  <rect x="316" y="389" width="1" height="1" fill="#045ba9"/>
  <rect x="317" y="389" width="1" height="1" fill="#0566c4"/>
  <rect x="318" y="389" width="1" height="1" fill="#086fd4"/>
  <rect x="319" y="389" width="1" height="1" fill="#0c86e7"/>
  <rect x="320" y="389" width="1" height="1" fill="#0ea5f4"/>
  <rect x="321" y="389" width="1" height="1" fill="#086cc4"/>
  <rect x="313" y="390" width="1" height="1" fill="#057cea"/>
  <rect x="314" y="390" width="1" height="1" fill="#037ee8"/>
  <rect x="315" y="390" width="1" height="1" fill="#0787ec"/>
  <rect x="316" y="390" width="1" height="1" fill="#0687ea"/>
  <rect x="317" y="390" width="1" height="1" fill="#0687ec"/>
  <rect x="318" y="390" width="1" height="1" fill="#0882e3"/>
  <rect x="319" y="390" width="1" height="1" fill="#0a7ccf"/>
  <rect x="320" y="390" width="1" height="1" fill="#0658a0"/>
</svg>
