<?xml version="1.0" encoding="UTF-8"?>
<svg xmlns="http://www.w3.org/2000/svg" width="492" height="461">
  <rect x="250" y="356" width="1" height="1" fill="#01458c"/>
  <rect x="251" y="356" width="1" height="1" fill="#01579f"/>
  <rect x="252" y="356" width="1" height="1" fill="#034e8e"/>
  <rect x="253" y="356" width="1" height="1" fill="#04487b"/>
  <rect x="254" y="356" width="1" height="1" fill="#03467d"/>
  <rect x="255" y="356" width="1" height="1" fill="#045093"/>
  <rect x="256" y="356" width="1" height="1" fill="#034e8f"/>
  <rect x="250" y="357" width="1" height="1" fill="#0188f5"/>
  <rect x="251" y="357" width="1" height="1" fill="#009dff"/>
  <rect x="252" y="357" width="1" height="1" fill="#00a4ff"/>
  <rect x="253" y="357" width="1" height="1" fill="#00b2ff"/>
  <rect x="254" y="357" width="1" height="1" fill="#00acff"/>
  <rect x="255" y="357" width="1" height="1" fill="#02a4ff"/>
  <rect x="256" y="357" width="1" height="1" fill="#01a3ff"/>
  <rect x="257" y="357" width="1" height="1" fill="#019dfc"/>
  <rect x="258" y="357" width="1" height="1" fill="#024e94"/>
  <rect x="250" y="358" width="1" height="1" fill="#0489e9"/>
  <rect x="251" y="358" width="1" height="1" fill="#018fee"/>
  <rect x="252" y="358" width="1" height="1" fill="#01427d"/>
  <rect x="256" y="358" width="1" height="1" fill="#04498f"/>
  <rect x="257" y="358" width="1" height="1" fill="#0491f4"/>
  <rect x="258" y="358" width="1" height="1" fill="#0394f7"/>
  <rect x="250" y="359" width="1" height="1" fill="#078cf0"/>
  <rect x="251" y="359" width="1" height="1" fill="#048eec"/>
  <rect x="257" y="359" width="1" height="1" fill="#055eb7"/>
  <rect x="258" y="359" width="1" height="1" fill="#0398fd"/>
  <rect x="250" y="360" width="1" height="1" fill="#088beb"/>
  <rect x="251" y="360" width="1" height="1" fill="#028eee"/>
  <rect x="257" y="360" width="1" height="1" fill="#064c95"/>
  <rect x="258" y="360" width="1" height="1" fill="#0399fd"/>
  <rect x="259" y="360" width="1" height="1" fill="#01407f"/>
  <rect x="250" y="361" width="1" height="1" fill="#0886e5"/>
  <rect x="251" y="361" width="1" height="1" fill="#0192f7"/>
  <rect x="257" y="361" width="1" height="1" fill="#0762bd"/>
  <rect x="258" y="361" width="1" height="1" fill="#03a0fe"/>
  <rect x="250" y="362" width="1" height="1" fill="#0781d9"/>
  <rect x="251" y="362" width="1" height="1" fill="#0199fb"/>
  <rect x="256" y="362" width="1" height="1" fill="#0461b1"/>
  <rect x="257" y="362" width="1" height="1" fill="#0aa5fc"/>
  <rect x="258" y="362" width="1" height="1" fill="#0472ca"/>
  <rect x="250" y="363" width="1" height="1" fill="#047cd3"/>
  <rect x="251" y="363" width="1" height="1" fill="#009dff"/>
  <rect x="252" y="363" width="1" height="1" fill="#0295f8"/>
  <rect x="253" y="363" width="1" height="1" fill="#03a9fd"/>
  <rect x="254" y="363" width="1" height="1" fill="#03abff"/>
  <rect x="255" y="363" width="1" height="1" fill="#07a0ff"/>
  <rect x="256" y="363" width="1" height="1" fill="#099dfb"/>
  <rect x="257" y="363" width="1" height="1" fill="#0664b0"/>
  <rect x="250" y="364" width="1" height="1" fill="#047cd4"/>
  <rect x="251" y="364" width="1" height="1" fill="#019bfc"/>
  <rect x="252" y="364" width="1" height="1" fill="#01467d"/>
  <rect x="255" y="364" width="1" height="1" fill="#0f8ce6"/>
  <rect x="256" y="364" width="1" height="1" fill="#0d9cf7"/>
  <rect x="250" y="365" width="1" height="1" fill="#077cd4"/>
  <rect x="251" y="365" width="1" height="1" fill="#028fef"/>
  <rect x="256" y="365" width="1" height="1" fill="#12a7fe"/>
  <rect x="257" y="365" width="1" height="1" fill="#0b68b1"/>
  <rect x="250" y="366" width="1" height="1" fill="#087ac7"/>
  <rect x="251" y="366" width="1" height="1" fill="#0284e0"/>
  <rect x="256" y="366" width="1" height="1" fill="#0871c4"/>
  <rect x="257" y="366" width="1" height="1" fill="#11a0f5"/>
  <rect x="250" y="367" width="1" height="1" fill="#067ac4"/>
  <rect x="251" y="367" width="1" height="1" fill="#027dd4"/>
  <rect x="257" y="367" width="1" height="1" fill="#0caffb"/>
  <rect x="258" y="367" width="1" height="1" fill="#03629f"/>
  <rect x="250" y="368" width="1" height="1" fill="#086aae"/>
  <rect x="251" y="368" width="1" height="1" fill="#067cca"/>
  <rect x="257" y="368" width="1" height="1" fill="#0768b6"/>
  <rect x="258" y="368" width="1" height="1" fill="#08a6f0"/>
</svg>
