<?xml version="1.0" encoding="UTF-8"?>
<svg xmlns="http://www.w3.org/2000/svg" width="492" height="461">
  <rect x="220" y="378" width="1" height="1" fill="#1271c2"/>
  <rect x="219" y="379" width="1" height="1" fill="#085cb0"/>
  <rect x="220" y="379" width="1" height="1" fill="#09a4fd"/>
  <rect x="221" y="379" width="1" height="1" fill="#03538e"/>
  <rect x="219" y="380" width="1" height="1" fill="#065da5"/>
  <rect x="220" y="380" width="1" height="1" fill="#049df9"/>
  <rect x="221" y="380" width="1" height="1" fill="#015596"/>
  <rect x="219" y="381" width="1" height="1" fill="#065eac"/>
  <rect x="220" y="381" width="1" height="1" fill="#049ffc"/>
  <rect x="221" y="381" width="1" height="1" fill="#01549a"/>
  <rect x="219" y="382" width="1" height="1" fill="#065caa"/>
  <rect x="220" y="382" width="1" height="1" fill="#059dfe"/>
  <rect x="221" y="382" width="1" height="1" fill="#01549a"/>
  <rect x="219" y="383" width="1" height="1" fill="#075aa3"/>
  <rect x="220" y="383" width="1" height="1" fill="#069efe"/>
  <rect x="221" y="383" width="1" height="1" fill="#025397"/>
  <rect x="219" y="384" width="1" height="1" fill="#07569b"/>
  <rect x="220" y="384" width="1" height="1" fill="#059ffe"/>
  <rect x="221" y="384" width="1" height="1" fill="#015294"/>
  <rect x="219" y="385" width="1" height="1" fill="#075494"/>
  <rect x="220" y="385" width="1" height="1" fill="#049ffd"/>
  <rect x="221" y="385" width="1" height="1" fill="#015090"/>
  <rect x="219" y="386" width="1" height="1" fill="#07528e"/>
  <rect x="220" y="386" width="1" height="1" fill="#039efb"/>
  <rect x="221" y="386" width="1" height="1" fill="#014d8e"/>
  <rect x="219" y="387" width="1" height="1" fill="#07508b"/>
  <rect x="220" y="387" width="1" height="1" fill="#039dfa"/>
  <rect x="221" y="387" width="1" height="1" fill="#004a8c"/>
  <rect x="219" y="388" width="1" height="1" fill="#09508a"/>
  <rect x="220" y="388" width="1" height="1" fill="#059af7"/>
  <rect x="221" y="388" width="1" height="1" fill="#014b8c"/>
  <rect x="219" y="389" width="1" height="1" fill="#095190"/>
  <rect x="220" y="389" width="1" height="1" fill="#0498f6"/>
  <rect x="221" y="389" width="1" height="1" fill="#014d8c"/>
  <rect x="219" y="390" width="1" height="1" fill="#07498c"/>
  <rect x="220" y="390" width="1" height="1" fill="#0592f0"/>
  <rect x="221" y="390" width="1" height="1" fill="#024888"/>
</svg>
