<?xml version="1.0" encoding="UTF-8"?>
<svg xmlns="http://www.w3.org/2000/svg" width="492" height="461">
  <rect x="188" y="356" width="1" height="1" fill="#0a548b"/>
  <rect x="187" y="357" width="1" height="1" fill="#084b8a"/>
  <rect x="188" y="357" width="1" height="1" fill="#0bafec"/>
  <rect x="188" y="358" width="1" height="1" fill="#09a2e6"/>
  <rect x="188" y="359" width="1" height="1" fill="#07a0e8"/>
  <rect x="188" y="360" width="1" height="1" fill="#06a1ec"/>
  <rect x="188" y="361" width="1" height="1" fill="#06a3ef"/>
  <rect x="189" y="361" width="1" height="1" fill="#024a7e"/>
  <rect x="188" y="362" width="1" height="1" fill="#05a6f3"/>
  <rect x="189" y="362" width="1" height="1" fill="#024d82"/>
  <rect x="188" y="363" width="1" height="1" fill="#05a8f6"/>
  <rect x="189" y="363" width="1" height="1" fill="#024f85"/>
  <rect x="188" y="364" width="1" height="1" fill="#04a9fb"/>
  <rect x="189" y="364" width="1" height="1" fill="#024f87"/>
  <rect x="187" y="365" width="1" height="1" fill="#05447a"/>
  <rect x="188" y="365" width="1" height="1" fill="#03aafc"/>
  <rect x="189" y="365" width="1" height="1" fill="#034e86"/>
  <rect x="187" y="366" width="1" height="1" fill="#05477c"/>
  <rect x="188" y="366" width="1" height="1" fill="#02a8fb"/>
  <rect x="189" y="366" width="1" height="1" fill="#035087"/>
  <rect x="187" y="367" width="1" height="1" fill="#054a7f"/>
  <rect x="188" y="367" width="1" height="1" fill="#01a6f9"/>
  <rect x="189" y="367" width="1" height="1" fill="#01548e"/>
  <rect x="187" y="368" width="1" height="1" fill="#064379"/>
  <rect x="188" y="368" width="1" height="1" fill="#049df2"/>
  <rect x="189" y="368" width="1" height="1" fill="#04528f"/>
</svg>
