<?xml version="1.0" encoding="UTF-8"?>
<svg xmlns="http://www.w3.org/2000/svg" width="492" height="461">
  <rect x="173" y="356" width="1" height="1" fill="#0c53a1"/>
  <rect x="174" y="356" width="1" height="1" fill="#0d5292"/>
  <rect x="181" y="356" width="1" height="1" fill="#0a5194"/>
  <rect x="173" y="357" width="1" height="1" fill="#0c8ffa"/>
  <rect x="174" y="357" width="1" height="1" fill="#079dfb"/>
  <rect x="181" y="357" width="1" height="1" fill="#0aa5f3"/>
  <rect x="182" y="357" width="1" height="1" fill="#0370c0"/>
  <rect x="173" y="358" width="1" height="1" fill="#0982e8"/>
  <rect x="174" y="358" width="1" height="1" fill="#0490f3"/>
  <rect x="181" y="358" width="1" height="1" fill="#0d99ea"/>
  <rect x="182" y="358" width="1" height="1" fill="#0569ab"/>
  <rect x="173" y="359" width="1" height="1" fill="#097fe4"/>
  <rect x="174" y="359" width="1" height="1" fill="#048cf1"/>
  <rect x="181" y="359" width="1" height="1" fill="#0f95e8"/>
  <rect x="182" y="359" width="1" height="1" fill="#0767ad"/>
  <rect x="173" y="360" width="1" height="1" fill="#0b7bde"/>
  <rect x="174" y="360" width="1" height="1" fill="#058bf0"/>
  <rect x="181" y="360" width="1" height="1" fill="#1090e3"/>
  <rect x="182" y="360" width="1" height="1" fill="#0567b0"/>
  <rect x="173" y="361" width="1" height="1" fill="#0d76d8"/>
  <rect x="174" y="361" width="1" height="1" fill="#0688ed"/>
  <rect x="181" y="361" width="1" height="1" fill="#118ce1"/>
  <rect x="182" y="361" width="1" height="1" fill="#0468b6"/>
  <rect x="173" y="362" width="1" height="1" fill="#0d73d0"/>
  <rect x="174" y="362" width="1" height="1" fill="#0586e9"/>
  <rect x="181" y="362" width="1" height="1" fill="#0f88e0"/>
  <rect x="182" y="362" width="1" height="1" fill="#026bc3"/>
  <rect x="173" y="363" width="1" height="1" fill="#0c6fcb"/>
  <rect x="174" y="363" width="1" height="1" fill="#0486e7"/>
  <rect x="181" y="363" width="1" height="1" fill="#0e89df"/>
  <rect x="182" y="363" width="1" height="1" fill="#016ece"/>
  <rect x="173" y="364" width="1" height="1" fill="#0d70cf"/>
  <rect x="174" y="364" width="1" height="1" fill="#0484e6"/>
  <rect x="181" y="364" width="1" height="1" fill="#0e8be2"/>
  <rect x="182" y="364" width="1" height="1" fill="#016fd2"/>
  <rect x="173" y="365" width="1" height="1" fill="#0b69c9"/>
  <rect x="174" y="365" width="1" height="1" fill="#0481e6"/>
  <rect x="181" y="365" width="1" height="1" fill="#0e94ee"/>
  <rect x="182" y="365" width="1" height="1" fill="#026cd0"/>
  <rect x="173" y="366" width="1" height="1" fill="#07519f"/>
  <rect x="174" y="366" width="1" height="1" fill="#048feb"/>
  <rect x="181" y="366" width="1" height="1" fill="#08acfa"/>
  <rect x="182" y="366" width="1" height="1" fill="#035ba5"/>
  <rect x="174" y="367" width="1" height="1" fill="#0381e7"/>
  <rect x="175" y="367" width="1" height="1" fill="#038ce4"/>
  <rect x="176" y="367" width="1" height="1" fill="#0562aa"/>
  <rect x="177" y="367" width="1" height="1" fill="#044e84"/>
  <rect x="178" y="367" width="1" height="1" fill="#044b88"/>
  <rect x="179" y="367" width="1" height="1" fill="#07549d"/>
  <rect x="180" y="367" width="1" height="1" fill="#0989e9"/>
  <rect x="181" y="367" width="1" height="1" fill="#0599ef"/>
  <rect x="175" y="368" width="1" height="1" fill="#0670c9"/>
  <rect x="176" y="368" width="1" height="1" fill="#058ce8"/>
  <rect x="177" y="368" width="1" height="1" fill="#0695ee"/>
  <rect x="178" y="368" width="1" height="1" fill="#0692ee"/>
  <rect x="179" y="368" width="1" height="1" fill="#0a90e8"/>
  <rect x="180" y="368" width="1" height="1" fill="#0876bd"/>
</svg>
