<?xml version="1.0" encoding="UTF-8"?>
<svg xmlns="http://www.w3.org/2000/svg" width="492" height="461">
  <rect x="240" y="378" width="1" height="1" fill="#0b569d"/>
  <rect x="241" y="378" width="1" height="1" fill="#1061ab"/>
  <rect x="248" y="378" width="1" height="1" fill="#0d559b"/>
  <rect x="240" y="379" width="1" height="1" fill="#0481ef"/>
  <rect x="241" y="379" width="1" height="1" fill="#08a9fb"/>
  <rect x="242" y="379" width="1" height="1" fill="#07559e"/>
  <rect x="248" y="379" width="1" height="1" fill="#15a5ed"/>
  <rect x="249" y="379" width="1" height="1" fill="#0d70b8"/>
  <rect x="240" y="380" width="1" height="1" fill="#017ee6"/>
  <rect x="241" y="380" width="1" height="1" fill="#0086f0"/>
  <rect x="242" y="380" width="1" height="1" fill="#0394f0"/>
  <rect x="248" y="380" width="1" height="1" fill="#0c9dea"/>
  <rect x="249" y="380" width="1" height="1" fill="#0a67ad"/>
  <rect x="240" y="381" width="1" height="1" fill="#027feb"/>
  <rect x="241" y="381" width="1" height="1" fill="#0177dd"/>
  <rect x="242" y="381" width="1" height="1" fill="#028aed"/>
  <rect x="243" y="381" width="1" height="1" fill="#0269c8"/>
  <rect x="248" y="381" width="1" height="1" fill="#079bec"/>
  <rect x="249" y="381" width="1" height="1" fill="#0967b2"/>
  <rect x="240" y="382" width="1" height="1" fill="#0282eb"/>
  <rect x="241" y="382" width="1" height="1" fill="#0276ca"/>
  <rect x="242" y="382" width="1" height="1" fill="#014aa0"/>
  <rect x="243" y="382" width="1" height="1" fill="#049fef"/>
  <rect x="244" y="382" width="1" height="1" fill="#024a8c"/>
  <rect x="248" y="382" width="1" height="1" fill="#0699ec"/>
  <rect x="249" y="382" width="1" height="1" fill="#0466b6"/>
  <rect x="240" y="383" width="1" height="1" fill="#0183e8"/>
  <rect x="241" y="383" width="1" height="1" fill="#0276cb"/>
  <rect x="243" y="383" width="1" height="1" fill="#0263c2"/>
  <rect x="244" y="383" width="1" height="1" fill="#049bef"/>
  <rect x="248" y="383" width="1" height="1" fill="#0796eb"/>
  <rect x="249" y="383" width="1" height="1" fill="#0266ba"/>
  <rect x="240" y="384" width="1" height="1" fill="#0182e4"/>
  <rect x="241" y="384" width="1" height="1" fill="#017ad5"/>
  <rect x="244" y="384" width="1" height="1" fill="#048dec"/>
  <rect x="245" y="384" width="1" height="1" fill="#0b7cd6"/>
  <rect x="248" y="384" width="1" height="1" fill="#0990e8"/>
  <rect x="249" y="384" width="1" height="1" fill="#0169c0"/>
  <rect x="240" y="385" width="1" height="1" fill="#0184df"/>
  <rect x="241" y="385" width="1" height="1" fill="#017cd7"/>
  <rect x="244" y="385" width="1" height="1" fill="#013882"/>
  <rect x="245" y="385" width="1" height="1" fill="#0aabf3"/>
  <rect x="246" y="385" width="1" height="1" fill="#044d91"/>
  <rect x="248" y="385" width="1" height="1" fill="#0e90e3"/>
  <rect x="249" y="385" width="1" height="1" fill="#016cc8"/>
  <rect x="240" y="386" width="1" height="1" fill="#0287df"/>
  <rect x="241" y="386" width="1" height="1" fill="#017ad6"/>
  <rect x="245" y="386" width="1" height="1" fill="#056bc8"/>
  <rect x="246" y="386" width="1" height="1" fill="#0b9aee"/>
  <rect x="247" y="386" width="1" height="1" fill="#013f8c"/>
  <rect x="248" y="386" width="1" height="1" fill="#0a86dc"/>
  <rect x="249" y="386" width="1" height="1" fill="#0371ce"/>
  <rect x="240" y="387" width="1" height="1" fill="#0488dd"/>
  <rect x="241" y="387" width="1" height="1" fill="#0177cf"/>
  <rect x="246" y="387" width="1" height="1" fill="#0998f1"/>
  <rect x="247" y="387" width="1" height="1" fill="#0489ea"/>
  <rect x="248" y="387" width="1" height="1" fill="#0687eb"/>
  <rect x="249" y="387" width="1" height="1" fill="#0472d2"/>
  <rect x="240" y="388" width="1" height="1" fill="#068bde"/>
  <rect x="241" y="388" width="1" height="1" fill="#0176cb"/>
  <rect x="246" y="388" width="1" height="1" fill="#0453a0"/>
  <rect x="247" y="388" width="1" height="1" fill="#089ef4"/>
  <rect x="248" y="388" width="1" height="1" fill="#028ff4"/>
  <rect x="249" y="388" width="1" height="1" fill="#0375da"/>
  <rect x="240" y="389" width="1" height="1" fill="#048fe4"/>
  <rect x="241" y="389" width="1" height="1" fill="#0174c7"/>
  <rect x="247" y="389" width="1" height="1" fill="#097edb"/>
  <rect x="248" y="389" width="1" height="1" fill="#0298f9"/>
  <rect x="249" y="389" width="1" height="1" fill="#027ce5"/>
  <rect x="240" y="390" width="1" height="1" fill="#0a97e6"/>
  <rect x="241" y="390" width="1" height="1" fill="#0471c0"/>
  <rect x="248" y="390" width="1" height="1" fill="#0791f0"/>
  <rect x="249" y="390" width="1" height="1" fill="#057ddf"/>
</svg>
