<?xml version="1.0" encoding="UTF-8"?>
<svg xmlns="http://www.w3.org/2000/svg" width="492" height="461">
  <path d="M0,0 L0,460 L491,460 L491,0 Z M231,6 L232,5 L260,5 L261,6 L271,6 L272,7 L279,7 L280,8 L285,8 L286,9 L290,9 L291,10 L295,10 L296,11 L299,11 L300,12 L303,12 L304,13 L307,13 L308,14 L310,14 L311,15 L313,15 L314,16 L317,16 L318,17 L319,17 L320,18 L322,18 L323,19 L325,19 L326,20 L328,20 L329,21 L330,21 L331,22 L332,22 L333,23 L335,23 L336,24 L337,24 L338,25 L339,25 L340,26 L341,26 L342,27 L344,27 L345,28 L346,28 L347,29 L348,29 L349,30 L350,30 L352,32 L353,32 L354,33 L355,33 L356,34 L357,34 L358,35 L359,35 L361,37 L362,37 L363,38 L364,38 L366,40 L367,40 L369,42 L370,42 L372,44 L373,44 L375,46 L376,46 L379,49 L380,49 L383,52 L384,52 L387,55 L388,55 L394,61 L395,61 L416,82 L416,83 L421,88 L421,89 L425,93 L425,94 L428,97 L428,98 L430,100 L430,101 L433,104 L433,105 L435,107 L435,108 L437,110 L437,111 L438,112 L438,113 L440,115 L440,116 L441,117 L441,118 L442,119 L442,120 L444,122 L444,123 L445,124 L445,125 L446,126 L446,127 L447,128 L447,129 L448,130 L448,131 L449,132 L449,133 L450,134 L450,135 L451,136 L451,137 L452,138 L452,140 L453,141 L453,142 L454,143 L454,144 L455,145 L455,147 L456,148 L456,149 L457,150 L457,152 L458,153 L458,155 L459,156 L459,158 L460,159 L460,161 L461,162 L461,164 L462,165 L462,167 L463,168 L463,171 L464,172 L464,174 L465,175 L465,178 L466,179 L466,183 L467,184 L467,188 L468,189 L468,193 L469,194 L469,200 L470,201 L470,209 L471,210 L471,251 L470,252 L470,260 L469,261 L469,267 L468,268 L468,272 L467,273 L467,277 L466,278 L466,282 L465,283 L465,286 L464,287 L464,289 L463,290 L463,293 L462,294 L462,296 L461,297 L461,299 L460,300 L460,302 L459,303 L459,305 L458,306 L458,308 L457,309 L457,311 L456,312 L456,313 L455,314 L455,316 L454,317 L454,318 L453,319 L453,320 L452,321 L452,323 L451,324 L451,325 L450,326 L450,327 L449,328 L449,329 L448,330 L448,331 L447,332 L447,333 L446,334 L446,335 L445,336 L445,337 L444,338 L444,339 L442,341 L442,342 L441,343 L441,344 L440,345 L440,346 L438,348 L438,349 L437,350 L437,351 L435,353 L435,354 L433,356 L433,357 L430,360 L430,361 L428,363 L428,364 L425,367 L425,368 L421,372 L421,373 L416,378 L416,379 L395,400 L394,400 L388,406 L387,406 L384,409 L383,409 L380,412 L379,412 L376,415 L375,415 L373,417 L372,417 L370,419 L369,419 L367,421 L366,421 L364,423 L363,423 L362,424 L361,424 L359,426 L358,426 L357,427 L356,427 L355,428 L354,428 L353,429 L352,429 L350,431 L349,431 L348,432 L347,432 L346,433 L345,433 L344,434 L342,434 L341,435 L340,435 L339,436 L338,436 L337,437 L336,437 L335,438 L333,438 L332,439 L331,439 L330,440 L329,440 L328,441 L326,441 L325,442 L323,442 L322,443 L320,443 L319,444 L318,444 L317,445 L314,445 L313,446 L311,446 L310,447 L308,447 L307,448 L304,448 L303,449 L300,449 L299,450 L296,450 L295,451 L291,451 L290,452 L286,452 L285,453 L280,453 L279,454 L272,454 L271,455 L261,455 L260,456 L232,456 L231,455 L221,455 L220,454 L213,454 L212,453 L207,453 L206,452 L202,452 L201,451 L197,451 L196,450 L193,450 L192,449 L189,449 L188,448 L185,448 L184,447 L182,447 L181,446 L179,446 L178,445 L175,445 L174,444 L173,444 L172,443 L170,443 L169,442 L167,442 L166,441 L164,441 L163,440 L162,440 L161,439 L160,439 L159,438 L157,438 L156,437 L155,437 L154,436 L153,436 L152,435 L151,435 L150,434 L148,434 L147,433 L146,433 L145,432 L144,432 L143,431 L142,431 L140,429 L139,429 L138,428 L137,428 L136,427 L135,427 L134,426 L133,426 L131,424 L130,424 L129,423 L128,423 L126,421 L125,421 L123,419 L122,419 L120,417 L119,417 L117,415 L116,415 L113,412 L112,412 L109,409 L108,409 L105,406 L104,406 L98,400 L97,400 L76,379 L76,378 L71,373 L71,372 L67,368 L67,367 L64,364 L64,363 L62,361 L62,360 L59,357 L59,356 L57,354 L57,353 L55,351 L55,350 L54,349 L54,348 L52,346 L52,345 L51,344 L51,343 L50,342 L50,341 L48,339 L48,338 L47,337 L47,336 L46,335 L46,334 L45,333 L45,332 L44,331 L44,330 L43,329 L43,328 L42,327 L42,326 L41,325 L41,324 L40,323 L40,321 L39,320 L39,319 L38,318 L38,317 L37,316 L37,314 L36,313 L36,312 L35,311 L35,309 L34,308 L34,306 L33,305 L33,303 L32,302 L32,300 L31,299 L31,297 L30,296 L30,294 L29,293 L29,290 L28,289 L28,287 L27,286 L27,283 L26,282 L26,278 L25,277 L25,273 L24,272 L24,268 L23,267 L23,261 L22,260 L22,252 L21,251 L21,210 L22,209 L22,201 L23,200 L23,194 L24,193 L24,189 L25,188 L25,184 L26,183 L26,179 L27,178 L27,175 L28,174 L28,172 L29,171 L29,168 L30,167 L30,165 L31,164 L31,162 L32,161 L32,159 L33,158 L33,156 L34,155 L34,153 L35,152 L35,150 L36,149 L36,148 L37,147 L37,145 L38,144 L38,143 L39,142 L39,141 L40,140 L40,138 L41,137 L41,136 L42,135 L42,134 L43,133 L43,132 L44,131 L44,130 L45,129 L45,128 L46,127 L46,126 L47,125 L47,124 L48,123 L48,122 L50,120 L50,119 L51,118 L51,117 L52,116 L52,115 L54,113 L54,112 L55,111 L55,110 L57,108 L57,107 L59,105 L59,104 L62,101 L62,100 L64,98 L64,97 L67,94 L67,93 L71,89 L71,88 L76,83 L76,82 L97,61 L98,61 L104,55 L105,55 L108,52 L109,52 L112,49 L113,49 L116,46 L117,46 L119,44 L120,44 L122,42 L123,42 L125,40 L126,40 L128,38 L129,38 L130,37 L131,37 L133,35 L134,35 L135,34 L136,34 L137,33 L138,33 L139,32 L140,32 L142,30 L143,30 L144,29 L145,29 L146,28 L147,28 L148,27 L150,27 L151,26 L152,26 L153,25 L154,25 L155,24 L156,24 L157,23 L159,23 L160,22 L161,22 L162,21 L163,21 L164,20 L166,20 L167,19 L169,19 L170,18 L172,18 L173,17 L174,17 L175,16 L178,16 L179,15 L181,15 L182,14 L184,14 L185,13 L188,13 L189,12 L192,12 L193,11 L196,11 L197,10 L201,10 L202,9 L206,9 L207,8 L212,8 L213,7 L220,7 L221,6 Z" fill="#030710" fill-rule="evenodd"/>
</svg>
