<?xml version="1.0" encoding="UTF-8"?>
<svg xmlns="http://www.w3.org/2000/svg" width="492" height="461">
  <path d="M329,378 L328,379 L327,379 L327,381 L326,382 L328,384 L328,386 L326,388 L327,389 L328,388 L328,386 L329,385 L334,385 L333,384 L330,384 L328,382 L328,380 L329,379 L332,379 L334,381 L335,381 L335,380 L333,378 Z" fill="#0681fb" fill-rule="evenodd"/>
  <path d="M314,378 L313,379 L313,390 L320,390 L322,388 L322,381 L320,379 L315,379 Z M314,380 L315,379 L319,379 L320,380 L320,381 L321,382 L321,387 L319,389 L315,389 L314,388 Z" fill="#0681fb" fill-rule="evenodd"/>
  <path d="M299,378 L298,379 L298,380 L299,381 L299,390 L299,385 L300,384 L302,384 L303,385 L303,386 L305,388 L305,389 L306,390 L307,390 L307,379 L307,382 L306,383 L303,383 L301,381 L301,380 Z" fill="#0681fb" fill-rule="evenodd"/>
  <path d="M286,378 L286,390 L294,390 L293,389 L288,389 L287,388 L287,386 L289,384 L293,384 L288,384 L287,383 L287,380 L288,379 L293,379 L293,378 Z" fill="#0681fb" fill-rule="evenodd"/>
  <path d="M269,378 L268,379 L268,390 L275,390 L275,389 L270,389 L269,388 Z" fill="#0681fb" fill-rule="evenodd"/>
  <path d="M258,378 L257,379 L257,381 L256,382 L256,384 L255,385 L255,387 L254,388 L254,389 L253,390 L254,390 L255,389 L255,388 L256,387 L261,387 L262,388 L262,389 L263,390 L263,387 L262,386 L262,384 L261,383 L261,382 L260,381 L260,379 L259,378 Z" fill="#0681fb" fill-rule="evenodd"/>
  <path d="M240,378 L240,390 L241,390 L241,386 L242,385 L244,385 L246,387 L246,388 L248,390 L249,390 L249,379 L248,378 L248,383 L247,384 L245,384 L244,383 L244,382 L242,380 L242,379 L241,378 Z" fill="#0681fb" fill-rule="evenodd"/>
  <path d="M229,378 L228,379 L227,379 L226,380 L226,389 L227,390 L233,390 L235,388 L235,385 L234,385 L233,384 L231,384 L230,385 L228,385 L227,384 L227,381 L229,379 L232,379 L234,381 L235,381 L234,380 L234,379 L233,379 L232,378 Z M227,386 L228,385 L232,385 L233,386 L233,388 L232,389 L228,389 L227,388 Z" fill="#0681fb" fill-rule="evenodd"/>
  <path d="M220,378 L219,379 L219,390 L221,390 L221,379 Z" fill="#0681fb" fill-rule="evenodd"/>
  <path d="M208,378 L206,380 L206,382 L208,384 L210,384 L211,385 L212,385 L213,386 L213,388 L212,389 L208,389 L207,388 L207,387 L206,387 L206,389 L207,390 L213,390 L214,389 L214,385 L213,385 L212,384 L209,384 L208,383 L208,380 L209,379 L212,379 L213,380 L213,381 L214,381 L214,380 L212,378 Z" fill="#0681fb" fill-rule="evenodd"/>
  <path d="M188,378 L187,379 L187,390 L195,390 L195,389 L190,389 L189,388 L189,386 L191,384 L194,384 L190,384 L189,383 L189,380 L190,379 L195,379 L194,378 Z" fill="#0681fb" fill-rule="evenodd"/>
  <path d="M173,378 L173,390 L174,390 L174,385 L175,384 L180,384 L181,385 L181,390 L182,390 L182,378 L181,378 L181,383 L180,384 L175,384 L174,383 L174,378 Z" fill="#0681fb" fill-rule="evenodd"/>
  <path d="M160,378 L160,379 L162,379 L163,380 L163,381 L164,382 L164,388 L165,389 L165,380 L166,379 L168,379 L168,378 Z" fill="#0681fb" fill-rule="evenodd"/>
  <path d="M330,356 L329,357 L329,368 L337,368 L336,367 L331,367 L330,366 L330,364 L331,363 L336,363 L336,362 L331,362 L330,361 L330,358 L331,357 L337,357 L336,356 L335,357 L333,357 L332,356 Z" fill="#0681fb" fill-rule="evenodd"/>
  <path d="M316,356 L316,368 L317,368 L317,364 L318,363 L320,363 L322,365 L322,366 L323,367 L323,368 L324,368 L324,367 L323,366 L323,363 L324,362 L324,358 L323,357 L318,357 L317,356 Z M317,358 L318,357 L321,357 L323,359 L323,361 L321,363 L318,363 L317,362 Z" fill="#0681fb" fill-rule="evenodd"/>
  <path d="M304,356 L303,357 L303,368 L311,368 L310,367 L306,367 L305,366 L305,364 L306,363 L310,363 L310,362 L306,362 L305,361 L305,358 L306,357 L311,357 L308,357 L307,356 Z" fill="#0681fb" fill-rule="evenodd"/>
  <path d="M289,356 L289,368 L290,368 L290,364 L291,363 L296,363 L297,364 L297,368 L298,368 L298,357 L297,356 L297,361 L296,362 L291,362 L290,361 L290,357 Z" fill="#0681fb" fill-rule="evenodd"/>
  <path d="M270,356 L269,357 L270,358 L270,360 L271,361 L271,364 L272,365 L272,368 L274,368 L274,366 L275,365 L275,364 L276,363 L278,363 L279,364 L279,367 L280,368 L281,368 L282,367 L282,364 L283,363 L283,360 L284,359 L284,356 L283,357 L283,360 L282,361 L279,361 L278,360 L278,357 L277,356 L276,357 L276,359 L275,360 L275,361 L274,362 L272,362 L271,361 L271,358 L270,357 Z" fill="#0681fb" fill-rule="evenodd"/>
  <path d="M251,356 L250,357 L250,368 L251,368 L251,364 L252,363 L254,363 L256,365 L256,366 L257,367 L257,368 L258,368 L258,367 L257,366 L257,363 L258,362 L258,357 L256,357 L255,356 L254,357 L252,357 Z M251,358 L252,357 L255,357 L257,359 L257,361 L255,363 L252,363 L251,362 Z" fill="#0681fb" fill-rule="evenodd"/>
  <path d="M239,356 L238,357 L237,357 L236,358 L236,367 L237,368 L243,368 L245,366 L245,359 L242,356 Z M239,357 L241,357 L244,360 L244,365 L242,367 L238,367 L236,365 L236,360 Z" fill="#0681fb" fill-rule="evenodd"/>
  <path d="M224,356 L224,368 L225,368 L225,364 L226,363 L230,363 L230,362 L226,362 L225,361 L225,358 L226,357 L231,357 L230,356 Z" fill="#0681fb" fill-rule="evenodd"/>
  <path d="M204,356 L204,357 L206,357 L207,358 L207,359 L208,360 L208,368 L208,359 L210,357 L213,357 L212,356 Z" fill="#0681fb" fill-rule="evenodd"/>
  <path d="M195,356 L194,357 L194,368 L201,368 L201,367 L196,367 L195,366 Z" fill="#0681fb" fill-rule="evenodd"/>
  <path d="M173,356 L173,366 L175,368 L180,368 L182,366 L182,357 L181,356 L181,366 L180,367 L175,367 L174,366 L174,356 Z" fill="#0681fb" fill-rule="evenodd"/>
  <path d="M160,356 L159,357 L159,364 L160,365 L160,368 L167,368 L168,367 L168,364 L167,363 L167,361 L168,360 L168,358 L167,357 L161,357 Z M161,364 L162,363 L166,363 L167,364 L167,366 L166,367 L162,367 L161,366 Z M161,358 L162,357 L166,357 L167,358 L167,360 L165,362 L162,362 L161,361 Z" fill="#0681fb" fill-rule="evenodd"/>
  <path d="M370,311 L367,314 L367,321 L370,324 L387,324 L389,326 L389,329 L387,331 L368,331 L368,334 L390,334 L392,332 L392,331 L393,330 L393,325 L392,324 L392,323 L390,321 L373,321 L371,319 L371,316 L373,314 L392,314 L392,311 Z" fill="#0681fb" fill-rule="evenodd"/>
  <path d="M338,311 L334,315 L334,330 L335,331 L335,332 L336,333 L337,333 L338,334 L358,334 L359,333 L360,333 L361,332 L361,331 L362,330 L362,315 L361,314 L361,313 L360,312 L359,312 L358,311 Z M341,314 L355,314 L356,315 L357,315 L358,316 L358,329 L357,330 L356,330 L355,331 L341,331 L338,328 L338,317 Z" fill="#0681fb" fill-rule="evenodd"/>
  <path d="M299,229 L297,231 L297,232 L294,235 L294,236 L292,238 L292,239 L290,241 L290,242 L288,244 L288,245 L285,248 L360,248 L361,249 L362,249 L364,251 L364,268 L362,270 L361,270 L360,271 L256,271 L256,290 L368,290 L369,289 L371,289 L372,288 L373,288 L375,286 L376,286 L380,282 L380,281 L382,279 L382,277 L383,276 L383,274 L384,273 L384,246 L383,245 L383,242 L382,241 L382,240 L380,238 L380,237 L377,234 L376,234 L374,232 L373,232 L372,231 L371,231 L370,230 L368,230 L367,229 Z" fill="#0681fb" fill-rule="evenodd"/>
  <path d="M276,186 L275,187 L271,187 L270,188 L268,188 L267,189 L266,189 L264,191 L263,191 L260,194 L260,195 L258,197 L258,198 L257,199 L257,200 L256,201 L256,203 L255,204 L255,231 L256,232 L256,234 L257,235 L257,236 L258,237 L258,238 L259,239 L259,240 L262,243 L263,243 L265,245 L266,245 L267,246 L268,246 L269,247 L270,247 L271,248 L275,248 L275,247 L277,245 L277,244 L279,242 L279,241 L281,239 L281,238 L283,236 L283,235 L285,233 L285,232 L287,230 L287,229 L280,229 L279,228 L278,228 L275,225 L275,210 L279,206 L382,206 L382,186 Z" fill="#0681fb" fill-rule="evenodd"/>
  <path d="M294,311 L294,334 L297,334 L297,325 L298,324 L304,324 L307,327 L308,327 L315,334 L320,334 L314,328 L313,328 L309,324 L309,321 L319,311 L314,311 L304,321 L298,321 L297,320 L297,311 Z" fill="#fcfcfb" fill-rule="evenodd"/>
  <path d="M267,311 L266,312 L265,312 L263,314 L263,331 L265,333 L266,333 L267,334 L288,334 L288,331 L269,331 L266,328 L266,317 L269,314 L288,314 L288,311 Z" fill="#fcfcfb" fill-rule="evenodd"/>
  <path d="M242,311 L241,312 L241,313 L239,315 L239,316 L238,317 L238,318 L237,319 L237,320 L235,322 L235,323 L234,324 L234,325 L233,326 L233,327 L231,329 L231,330 L230,331 L230,332 L229,333 L229,334 L233,334 L233,333 L235,331 L235,330 L236,329 L236,328 L238,326 L238,325 L239,324 L239,323 L240,322 L240,321 L242,319 L242,318 L243,317 L245,317 L248,320 L248,321 L249,322 L249,325 L248,326 L244,326 L243,327 L243,328 L251,328 L254,331 L254,332 L256,334 L260,334 L258,332 L258,331 L257,330 L257,329 L256,328 L256,327 L255,326 L255,325 L254,324 L254,323 L252,321 L252,320 L251,319 L251,318 L250,317 L250,316 L248,314 L248,313 L246,311 Z" fill="#fcfcfb" fill-rule="evenodd"/>
  <path d="M199,311 L199,334 L222,334 L223,333 L224,333 L225,332 L225,324 L224,323 L224,321 L225,320 L225,314 L222,311 Z M202,325 L203,324 L220,324 L222,326 L222,329 L220,331 L203,331 L202,330 Z M202,315 L203,314 L220,314 L222,316 L222,319 L220,321 L203,321 L202,320 Z" fill="#fcfcfb" fill-rule="evenodd"/>
  <path d="M168,311 L168,314 L178,314 L179,315 L179,334 L182,334 L182,328 L183,327 L183,315 L184,314 L194,314 L194,311 Z" fill="#fcfcfb" fill-rule="evenodd"/>
  <path d="M137,311 L137,331 L140,334 L160,334 L164,330 L164,311 L160,311 L160,329 L158,331 L143,331 L142,330 L141,330 L140,329 L140,311 Z" fill="#fcfcfb" fill-rule="evenodd"/>
  <path d="M108,311 L107,312 L106,312 L104,314 L104,331 L107,334 L127,334 L128,333 L129,333 L131,331 L131,314 L129,312 L128,312 L127,311 Z M110,314 L125,314 L128,317 L128,328 L125,331 L109,331 L107,329 L107,317 Z" fill="#fcfcfb" fill-rule="evenodd"/>
  <path d="M123,187 L122,188 L120,188 L119,189 L117,189 L115,191 L114,191 L108,197 L108,198 L107,199 L107,200 L106,201 L106,203 L105,204 L105,273 L106,274 L106,276 L107,277 L107,278 L108,279 L108,280 L115,287 L116,287 L117,288 L118,288 L119,289 L122,289 L123,290 L219,290 L220,289 L222,289 L223,288 L224,288 L225,287 L226,287 L227,286 L228,286 L232,282 L232,281 L234,279 L234,278 L235,277 L235,275 L236,274 L236,268 L237,267 L237,238 L236,237 L236,220 L237,219 L237,213 L236,212 L236,203 L235,202 L235,200 L234,199 L234,198 L232,196 L232,195 L228,191 L227,191 L226,190 L225,190 L224,189 L223,189 L222,188 L220,188 L219,187 Z M128,207 L129,206 L212,206 L213,207 L214,207 L216,209 L216,210 L217,211 L217,266 L216,267 L216,268 L214,270 L213,270 L212,271 L129,271 L128,270 L127,270 L125,268 L125,267 L124,266 L124,212 L125,211 L125,210 L126,209 L126,208 L127,207 Z" fill="#fcfcfb" fill-rule="evenodd"/>
</svg>
