<?xml version="1.0" encoding="UTF-8"?>
<svg xmlns="http://www.w3.org/2000/svg" width="492" height="461">
  <path d="M186,381 L185,382 L184,382 L184,385 L186,385 Z" fill="#050505" fill-rule="evenodd"/>
  <path d="M142,328 L142,329 L149,329 L146,329 L145,328 Z" fill="#050505" fill-rule="evenodd"/>
  <path d="M191,316 L191,317 L194,320 L196,320 L197,321 L197,317 L195,317 L194,316 Z" fill="#050505" fill-rule="evenodd"/>
  <path d="M246,368 L245,369 L245,371 L244,372 L244,374 L243,375 L243,379 L244,380 L245,380 L247,382 L247,383 L247,378 L248,377 L249,377 L250,378 L250,386 L251,387 L252,387 L254,385 L254,384 L255,383 L255,382 L256,381 L256,379 L258,377 L259,377 L262,380 L263,379 L264,379 L265,378 L265,377 L264,376 L264,375 L262,375 L260,373 L259,373 L257,371 L256,371 L254,369 L253,369 L252,368 L251,369 L250,369 L249,368 Z" fill="#05050f" fill-rule="evenodd"/>
  <path d="M240,358 L239,359 L238,359 L238,364 L239,365 L241,365 L242,364 L242,360 Z" fill="#05050f" fill-rule="evenodd"/>
  <path d="M299,328 L299,333 L300,333 L301,334 L302,334 L303,333 L304,333 L305,332 L306,332 L308,330 L308,329 L307,328 L305,328 L304,329 L300,329 Z" fill="#05050f" fill-rule="evenodd"/>
  <path d="M268,323 L268,329 L276,329 L276,328 L275,327 L275,326 L273,324 L271,324 L270,323 Z" fill="#05050f" fill-rule="evenodd"/>
  <path d="M142,320 L142,327 L145,327 L146,328 L149,328 L150,329 L156,329 L155,328 L155,324 L153,322 L152,322 L151,321 L146,321 L145,320 Z" fill="#05050f" fill-rule="evenodd"/>
  <path d="M344,316 L344,317 L343,318 L343,319 L342,320 L342,321 L341,322 L341,323 L340,324 L340,328 L341,329 L345,329 L347,327 L348,327 L349,326 L350,326 L351,325 L352,325 L353,324 L354,324 L355,325 L356,325 L357,324 L357,317 L356,316 Z" fill="#05050f" fill-rule="evenodd"/>
  <path d="M109,316 L109,322 L112,322 L113,323 L114,323 L115,324 L116,324 L117,325 L125,325 L126,324 L126,318 L125,319 L124,318 L121,318 L119,316 Z" fill="#05050f" fill-rule="evenodd"/>
  <path d="M261,315 L260,316 L253,316 L252,317 L252,318 L253,319 L253,320 L255,322 L255,323 L261,323 Z" fill="#05050f" fill-rule="evenodd"/>
  <path d="M195,315 L195,316 L197,316 L197,315 Z" fill="#05050f" fill-rule="evenodd"/>
  <path d="M231,314 L230,315 L227,315 L227,319 L226,320 L227,321 L229,321 L230,322 L234,322 L234,321 L236,319 L236,317 L235,316 L234,316 L233,315 L232,315 Z" fill="#05050f" fill-rule="evenodd"/>
  <path d="M135,314 L134,315 L133,315 L133,327 L134,326 L135,327 Z" fill="#05050f" fill-rule="evenodd"/>
  <path d="M284,236 L284,237 L283,238 L283,239 L284,240 L284,241 L285,242 L286,242 L287,243 L288,243 L288,242 L290,240 L290,239 L291,238 L290,237 L289,237 L288,236 Z" fill="#05050f" fill-rule="evenodd"/>
  <path d="M137,207 L137,209 L134,212 L130,212 L129,213 L127,213 L126,212 L126,266 L127,267 L128,267 L129,266 L135,266 L136,265 L137,266 L180,266 L181,267 L189,267 L190,266 L212,266 L213,267 L215,267 L215,212 L211,212 L210,211 L209,211 L208,210 L208,209 L207,208 L207,207 L158,207 L157,208 L156,208 L155,209 L154,209 L153,210 L152,210 L149,207 Z" fill="#05050f" fill-rule="evenodd"/>
  <path d="M67,185 L67,187 L66,188 L66,192 L65,193 L65,197 L64,198 L64,203 L63,204 L63,211 L62,212 L62,249 L63,250 L63,257 L64,258 L64,263 L65,264 L65,268 L66,269 L66,273 L67,274 L67,277 L68,278 L68,280 L69,281 L69,284 L70,285 L70,287 L71,288 L71,290 L72,291 L72,293 L73,294 L73,296 L74,297 L74,298 L75,299 L75,301 L76,302 L76,303 L77,304 L77,305 L78,306 L78,307 L79,308 L79,310 L80,311 L80,312 L81,313 L81,314 L82,315 L82,316 L84,318 L84,319 L85,320 L85,321 L86,322 L86,323 L87,324 L87,325 L89,327 L89,328 L91,330 L91,331 L92,332 L92,333 L95,336 L95,337 L97,339 L97,340 L100,343 L100,344 L104,348 L104,349 L112,357 L112,358 L119,365 L120,365 L127,372 L128,372 L132,376 L133,376 L136,379 L137,379 L140,382 L141,382 L143,384 L144,384 L146,386 L147,386 L149,388 L150,388 L151,389 L152,389 L154,391 L155,391 L156,392 L157,392 L158,393 L159,393 L160,394 L161,394 L162,395 L163,395 L164,396 L165,396 L166,397 L167,397 L168,398 L169,398 L170,399 L171,399 L172,400 L174,400 L175,401 L176,401 L177,402 L179,402 L180,403 L181,403 L182,404 L184,404 L185,405 L187,405 L188,406 L190,406 L191,407 L193,407 L194,408 L197,408 L198,409 L201,409 L202,410 L205,410 L206,411 L210,411 L211,412 L215,412 L216,413 L222,413 L223,414 L232,414 L233,415 L259,415 L260,414 L269,414 L270,413 L276,413 L277,412 L281,412 L282,411 L286,411 L287,410 L290,410 L291,409 L294,409 L295,408 L298,408 L299,407 L301,407 L302,406 L304,406 L305,405 L307,405 L308,404 L310,404 L311,403 L312,403 L313,402 L315,402 L316,401 L317,401 L318,400 L320,400 L321,399 L322,399 L323,398 L324,398 L325,397 L326,397 L327,396 L328,396 L327,395 L326,395 L325,394 L325,393 L323,391 L323,390 L325,388 L325,387 L326,386 L327,386 L325,384 L325,382 L324,381 L324,379 L323,379 L322,378 L323,377 L324,377 L326,375 L337,375 L341,379 L341,381 L342,382 L342,384 L341,385 L341,387 L338,390 L338,391 L340,389 L341,389 L342,388 L343,388 L345,386 L346,386 L348,384 L349,384 L351,382 L352,382 L355,379 L356,379 L359,376 L360,376 L364,372 L365,372 L372,365 L373,365 L380,358 L380,357 L388,349 L388,348 L392,344 L392,343 L395,340 L395,339 L397,337 L397,336 L400,333 L400,332 L401,331 L401,330 L403,328 L403,327 L405,325 L405,324 L406,323 L406,322 L407,321 L407,320 L408,319 L408,318 L410,316 L410,315 L411,314 L411,313 L412,312 L412,311 L413,310 L413,308 L414,307 L414,306 L415,305 L415,304 L416,303 L416,302 L417,301 L417,299 L418,298 L418,297 L419,296 L419,294 L420,293 L420,291 L421,290 L421,288 L422,287 L422,285 L423,284 L423,281 L424,280 L424,278 L425,277 L425,274 L426,273 L426,269 L427,268 L427,264 L428,263 L428,258 L429,257 L429,250 L430,249 L430,212 L429,211 L429,204 L428,203 L428,198 L427,197 L427,193 L426,192 L426,188 L425,187 L425,185 Z M171,351 L172,350 L176,350 L179,353 L179,357 L178,358 L177,358 L175,360 L175,365 L176,366 L177,365 L179,365 L180,364 L180,356 L181,355 L182,355 L183,356 L183,362 L186,362 L186,357 L188,355 L190,357 L190,360 L192,360 L193,359 L193,356 L194,355 L195,355 L196,356 L197,356 L198,355 L199,355 L203,351 L204,351 L205,350 L215,350 L216,351 L217,351 L219,353 L219,354 L220,354 L222,356 L223,355 L231,355 L232,356 L232,357 L231,358 L230,358 L230,359 L231,360 L231,361 L232,362 L233,362 L234,363 L234,359 L238,355 L242,355 L243,354 L244,354 L245,353 L249,353 L250,354 L255,354 L256,353 L257,353 L259,351 L261,351 L262,350 L263,350 L264,351 L265,351 L266,352 L266,355 L265,356 L265,362 L266,363 L266,364 L267,365 L268,365 L269,366 L269,365 L270,364 L269,363 L269,358 L268,357 L268,356 L269,355 L270,355 L272,357 L272,359 L273,359 L275,357 L275,356 L276,355 L277,355 L279,353 L281,353 L282,354 L284,354 L285,355 L290,355 L291,354 L295,354 L296,353 L299,356 L299,365 L300,366 L302,366 L302,363 L301,362 L302,361 L302,356 L305,353 L310,353 L311,354 L312,354 L313,355 L330,355 L331,354 L338,354 L340,356 L340,357 L341,358 L341,360 L339,362 L339,363 L338,364 L338,368 L336,370 L333,370 L332,369 L329,369 L328,368 L328,367 L325,367 L325,368 L324,369 L321,369 L320,370 L319,370 L318,371 L317,371 L315,373 L313,373 L312,374 L310,374 L309,375 L303,375 L301,377 L296,377 L295,376 L294,376 L293,375 L293,374 L290,371 L290,369 L289,369 L288,368 L288,367 L287,366 L286,367 L283,367 L281,369 L280,369 L278,367 L275,367 L275,368 L274,369 L272,369 L271,368 L270,369 L270,373 L271,374 L272,374 L273,375 L277,375 L278,376 L283,376 L284,377 L290,377 L291,376 L292,376 L293,377 L294,377 L295,378 L295,386 L296,387 L297,387 L297,378 L298,377 L300,377 L301,378 L301,379 L303,381 L304,381 L305,380 L305,378 L306,377 L310,377 L311,378 L312,378 L313,377 L320,377 L322,379 L323,379 L324,380 L324,381 L325,382 L324,383 L324,389 L322,391 L321,391 L320,392 L316,392 L315,393 L313,393 L312,394 L310,394 L309,395 L308,395 L307,394 L306,394 L305,393 L304,393 L303,392 L304,391 L304,389 L303,388 L303,387 L301,385 L301,392 L298,395 L295,395 L294,396 L288,396 L287,395 L286,395 L284,393 L284,392 L283,391 L283,388 L280,388 L279,389 L278,389 L275,392 L274,392 L273,393 L270,393 L269,394 L259,394 L258,395 L255,395 L254,396 L253,396 L252,395 L247,395 L245,393 L245,392 L244,391 L244,390 L243,389 L243,388 L242,387 L242,386 L242,390 L241,391 L240,391 L239,390 L239,381 L238,381 L237,382 L236,382 L235,383 L235,384 L236,385 L236,388 L232,392 L229,392 L228,393 L227,392 L226,392 L225,393 L224,392 L223,393 L218,393 L217,394 L216,394 L215,395 L213,395 L212,396 L208,396 L207,395 L206,395 L205,394 L204,394 L203,393 L201,393 L200,392 L199,393 L198,393 L197,394 L195,394 L194,395 L187,395 L185,393 L186,392 L186,386 L184,386 L183,385 L183,382 L184,381 L185,381 L186,380 L186,378 L187,377 L195,377 L196,378 L196,379 L195,380 L195,382 L196,383 L196,384 L197,385 L197,386 L198,387 L204,387 L206,385 L206,384 L205,383 L205,380 L208,377 L220,377 L222,375 L224,375 L225,374 L225,372 L224,371 L224,370 L222,368 L222,367 L221,366 L220,366 L219,365 L219,364 L216,364 L215,363 L210,363 L210,368 L208,370 L206,368 L206,363 L205,364 L204,364 L203,365 L204,366 L204,368 L205,369 L205,370 L204,371 L204,372 L203,373 L202,373 L201,374 L192,374 L191,373 L185,373 L183,375 L183,376 L182,377 L183,378 L183,390 L184,391 L184,393 L182,395 L179,395 L176,392 L176,389 L175,388 L175,390 L174,391 L173,391 L172,390 L172,386 L168,386 L167,387 L166,387 L166,390 L165,391 L163,391 L162,390 L162,389 L160,389 L159,388 L159,382 L160,381 L160,380 L159,379 L159,378 L160,377 L166,377 L170,373 L171,373 L172,372 L172,371 L173,370 L173,367 L172,366 L172,360 L171,360 L170,361 L169,361 L168,362 L169,363 L169,367 L167,369 L165,369 L164,370 L158,370 L156,368 L156,364 L157,363 L158,363 L158,356 L159,355 L161,355 L162,354 L163,354 L164,353 L165,353 L166,352 L168,352 L169,351 Z M134,305 L135,304 L139,304 L140,305 L141,305 L142,306 L143,306 L147,310 L148,310 L149,311 L152,311 L153,310 L155,310 L156,309 L158,309 L159,308 L161,308 L163,310 L164,310 L165,311 L165,320 L168,320 L169,319 L171,319 L172,318 L172,316 L168,316 L167,315 L167,310 L168,309 L181,309 L181,308 L183,306 L184,306 L186,304 L191,304 L192,305 L196,305 L197,306 L198,306 L200,308 L200,309 L221,309 L221,308 L225,304 L228,304 L234,310 L235,310 L236,311 L237,310 L238,310 L242,306 L243,306 L244,305 L246,305 L247,304 L250,304 L251,305 L252,305 L253,306 L254,306 L256,308 L257,308 L258,309 L259,309 L260,310 L261,310 L263,312 L265,310 L267,310 L268,309 L286,309 L286,308 L287,307 L288,307 L289,306 L290,306 L291,305 L292,305 L293,304 L300,304 L301,305 L302,305 L306,309 L306,310 L307,311 L308,311 L310,313 L311,312 L312,312 L315,309 L319,309 L321,311 L317,315 L320,318 L320,319 L322,321 L322,322 L323,323 L324,323 L325,324 L327,324 L328,325 L332,325 L333,326 L333,317 L332,317 L329,314 L329,311 L330,310 L331,310 L332,309 L333,309 L334,308 L337,308 L338,307 L339,307 L340,306 L345,306 L346,307 L349,307 L351,309 L357,309 L358,310 L359,310 L360,311 L361,311 L362,310 L364,310 L366,308 L367,308 L368,307 L374,307 L375,306 L389,306 L393,310 L393,315 L392,316 L383,316 L388,316 L389,317 L387,319 L388,319 L389,320 L390,320 L393,323 L393,324 L394,325 L394,328 L395,329 L396,329 L398,331 L398,335 L396,337 L396,338 L395,339 L394,339 L393,340 L390,340 L389,341 L383,341 L382,340 L380,340 L379,339 L377,339 L374,336 L372,336 L371,335 L368,335 L367,334 L367,333 L366,332 L366,331 L368,329 L368,327 L369,326 L369,324 L368,323 L367,323 L366,324 L364,324 L364,326 L363,327 L363,330 L362,331 L362,332 L360,334 L361,335 L360,336 L360,338 L359,339 L357,339 L356,340 L347,340 L346,341 L340,341 L339,340 L338,340 L336,338 L335,338 L334,337 L334,335 L333,334 L333,333 L328,333 L327,334 L323,334 L321,336 L316,336 L312,340 L311,340 L310,341 L301,341 L300,342 L297,342 L295,340 L295,336 L294,336 L292,334 L292,316 L286,316 L286,319 L290,323 L291,323 L292,324 L287,329 L288,329 L290,331 L290,334 L288,336 L275,336 L274,337 L273,337 L272,336 L265,336 L264,337 L260,337 L259,338 L258,338 L255,341 L253,341 L252,342 L247,342 L246,341 L245,341 L242,338 L242,337 L241,336 L241,335 L240,334 L234,334 L234,335 L233,336 L228,336 L227,335 L227,333 L226,333 L225,334 L224,334 L223,335 L222,335 L221,336 L219,336 L219,337 L218,338 L218,340 L217,341 L210,341 L209,340 L203,340 L200,337 L201,336 L199,336 L197,334 L197,322 L196,321 L194,321 L190,317 L190,316 L184,316 L184,329 L185,330 L184,331 L184,335 L183,336 L179,336 L178,335 L178,334 L177,334 L176,333 L172,333 L171,334 L163,334 L162,335 L160,335 L159,336 L141,336 L140,335 L139,335 L136,332 L135,333 L135,334 L133,336 L133,337 L131,339 L128,339 L127,340 L126,339 L125,339 L123,337 L123,336 L108,336 L107,335 L106,335 L103,332 L103,331 L102,330 L102,324 L101,324 L100,323 L99,323 L97,321 L97,320 L99,318 L102,318 L102,315 L103,314 L103,313 L106,310 L107,310 L108,309 L126,309 L127,310 L128,310 L129,309 L130,309 L132,307 L132,306 L133,305 Z M274,186 L275,185 L385,185 L387,187 L387,188 L388,189 L388,190 L389,191 L389,196 L388,197 L388,198 L387,199 L387,205 L386,206 L386,207 L385,208 L384,208 L383,209 L381,209 L379,207 L370,207 L369,208 L365,208 L364,209 L362,209 L361,210 L358,210 L357,211 L344,211 L343,210 L323,210 L322,211 L298,211 L297,210 L295,210 L294,211 L289,211 L288,212 L286,212 L285,213 L284,213 L282,215 L282,217 L283,218 L283,219 L286,222 L287,222 L288,223 L289,223 L290,224 L291,224 L292,225 L293,225 L294,226 L297,226 L298,227 L300,227 L301,228 L302,228 L303,227 L304,227 L305,226 L306,226 L307,225 L308,225 L309,224 L311,224 L312,225 L317,225 L318,226 L319,226 L320,227 L359,227 L360,228 L370,228 L371,227 L382,238 L382,239 L383,240 L384,240 L385,241 L387,241 L388,242 L388,243 L389,244 L389,251 L390,252 L390,258 L391,259 L391,262 L390,263 L390,265 L389,266 L389,268 L386,271 L387,272 L386,273 L386,274 L387,275 L387,277 L383,281 L382,281 L380,283 L380,284 L379,285 L379,288 L377,290 L376,290 L375,291 L373,291 L372,292 L371,292 L370,293 L369,292 L367,294 L365,292 L264,292 L264,293 L263,294 L261,294 L260,295 L255,295 L254,294 L253,294 L251,292 L250,292 L247,289 L247,286 L250,283 L250,282 L251,281 L251,280 L252,279 L252,278 L253,277 L254,277 L254,274 L255,273 L255,271 L256,270 L261,270 L262,269 L263,269 L265,267 L266,267 L267,266 L270,266 L271,265 L272,265 L273,266 L292,266 L293,267 L297,267 L298,268 L300,268 L301,269 L312,269 L313,268 L314,268 L315,267 L316,267 L317,266 L337,266 L338,267 L350,267 L351,266 L356,266 L360,262 L361,262 L362,261 L363,261 L363,252 L362,251 L360,251 L359,252 L358,251 L357,252 L355,252 L354,253 L284,253 L283,252 L276,252 L275,251 L274,251 L272,249 L268,249 L267,250 L266,249 L265,250 L264,250 L263,249 L262,249 L260,247 L260,246 L261,245 L261,243 L258,240 L258,239 L256,237 L256,236 L255,235 L255,234 L253,232 L252,232 L251,231 L252,230 L251,229 L251,227 L252,226 L252,225 L253,224 L254,224 L254,203 L251,200 L252,199 L250,197 L250,195 L253,192 L259,192 L260,193 L264,189 L265,189 L266,188 L267,188 L268,187 L270,187 L271,186 Z M124,186 L125,185 L217,185 L218,186 L221,186 L222,187 L224,187 L225,188 L226,188 L227,187 L228,188 L229,188 L230,189 L230,190 L231,191 L231,192 L233,194 L233,195 L235,197 L235,198 L236,199 L236,200 L237,201 L239,201 L242,204 L242,205 L239,208 L238,208 L238,269 L242,269 L243,270 L243,271 L244,272 L244,273 L245,274 L245,275 L244,276 L244,278 L242,280 L241,280 L240,281 L237,281 L236,280 L235,280 L230,285 L230,287 L229,288 L229,289 L228,290 L227,290 L226,289 L224,289 L223,290 L222,290 L221,291 L218,291 L217,292 L125,292 L124,291 L121,291 L120,290 L118,290 L117,289 L116,289 L115,288 L114,288 L107,281 L107,280 L105,278 L105,276 L104,276 L103,275 L103,206 L104,205 L104,202 L105,201 L105,200 L106,199 L106,198 L108,196 L108,195 L113,190 L114,190 L116,188 L117,188 L118,187 L120,187 L121,186 Z" fill="#05050f" fill-rule="evenodd"/>
  <path d="M299,391 L299,392 L297,394 L296,394 L298,394 L300,392 L300,391 Z" fill="#050519" fill-rule="evenodd"/>
  <path d="M340,387 L337,390 L337,391 L336,392 L337,391 L337,390 Z" fill="#050519" fill-rule="evenodd"/>
  <path d="M175,387 L177,389 L177,392 L179,394 L182,394 L183,393 L183,391 L183,393 L182,394 L180,394 L177,391 L178,390 Z" fill="#050519" fill-rule="evenodd"/>
  <path d="M254,386 L252,388 L251,388 L250,387 L250,388 L252,388 Z" fill="#050519" fill-rule="evenodd"/>
  <path d="M232,386 L233,387 L233,386 Z" fill="#050519" fill-rule="evenodd"/>
  <path d="M323,385 L323,388 L320,391 L316,391 L315,392 L311,392 L310,393 L309,392 L307,392 L305,390 L305,391 L304,392 L305,392 L306,393 L307,393 L308,394 L309,394 L310,393 L312,393 L313,392 L315,392 L316,391 L320,391 L321,390 L322,390 L323,389 L324,390 L324,391 L325,392 L325,389 L324,390 L323,389 Z" fill="#050519" fill-rule="evenodd"/>
  <path d="M207,385 L204,388 L199,388 L201,390 L200,391 L199,391 L198,392 L197,392 L196,393 L197,393 L198,392 L199,392 L200,391 L201,392 L203,392 L204,393 L205,393 L206,394 L207,394 L208,395 L212,395 L213,394 L215,394 L216,393 L217,393 L218,392 L223,392 L224,391 L225,392 L226,391 L227,391 L228,392 L227,391 L221,391 L220,392 L218,392 L217,393 L216,392 L215,393 L214,393 L213,394 L211,394 L210,395 L208,395 L207,394 L206,394 L204,392 L203,392 L201,390 L202,389 L204,389 L205,388 L205,387 L206,386 L207,386 L208,387 L207,386 Z" fill="#050519" fill-rule="evenodd"/>
  <path d="M168,385 L167,386 L168,385 L171,385 Z" fill="#050519" fill-rule="evenodd"/>
  <path d="M326,384 L329,387 L329,386 L328,385 L327,385 Z" fill="#050519" fill-rule="evenodd"/>
  <path d="M283,384 L282,385 L281,385 L280,386 L279,386 L279,387 L277,389 L278,388 L279,388 L280,387 L283,387 L284,388 L284,391 L285,392 L285,393 L285,392 L284,391 L285,390 L284,389 L284,384 Z" fill="#050519" fill-rule="evenodd"/>
  <path d="M160,384 L160,388 L162,388 L161,388 L160,387 Z" fill="#050519" fill-rule="evenodd"/>
  <path d="M242,383 L242,385 L243,386 L243,387 L244,388 L244,389 L245,390 L245,391 L246,392 L246,393 L247,394 L252,394 L253,395 L254,395 L255,394 L258,394 L259,393 L269,393 L262,393 L260,391 L259,392 L258,392 L257,393 L255,393 L254,394 L253,394 L252,393 L250,393 L248,391 L247,391 L246,390 L246,389 L245,388 L245,387 L243,385 L243,384 Z" fill="#050519" fill-rule="evenodd"/>
  <path d="M323,381 L324,382 L323,383 L325,381 L324,382 Z" fill="#050519" fill-rule="evenodd"/>
  <path d="M305,381 L304,382 L303,382 L305,384 L305,385 L305,384 L304,383 L305,382 Z" fill="#050519" fill-rule="evenodd"/>
  <path d="M293,380 L293,381 L294,382 L294,386 L296,388 L297,388 L296,388 L294,386 L294,380 Z" fill="#050519" fill-rule="evenodd"/>
  <path d="M243,380 L245,382 L245,383 L247,385 L247,384 L246,383 L246,382 L245,381 L244,381 Z" fill="#050519" fill-rule="evenodd"/>
  <path d="M193,380 L194,381 L194,382 L195,383 L195,384 L196,385 L196,386 L197,387 L196,386 L196,385 L195,384 L195,383 L194,382 L194,380 Z" fill="#050519" fill-rule="evenodd"/>
  <path d="M308,378 L310,378 L311,379 L312,379 L311,379 L310,378 Z" fill="#050519" fill-rule="evenodd"/>
  <path d="M213,378 L215,378 L216,379 L217,379 L218,378 Z" fill="#050519" fill-rule="evenodd"/>
  <path d="M282,377 L283,377 L284,378 L285,378 L284,378 L283,377 Z" fill="#050519" fill-rule="evenodd"/>
  <path d="M265,376 L266,377 L266,378 L264,380 L263,380 L262,381 L261,380 L261,381 L262,382 L263,382 L264,383 L265,383 L266,382 L266,377 Z" fill="#050519" fill-rule="evenodd"/>
  <path d="M243,373 L242,374 L242,375 L238,379 L237,379 L236,380 L236,381 L234,383 L232,383 L234,383 L236,381 L237,381 L238,380 L239,380 L239,378 L240,377 L241,377 L242,378 L242,375 L243,374 Z" fill="#050519" fill-rule="evenodd"/>
  <path d="M184,373 L182,375 L182,376 L181,377 L182,376 L182,375 Z" fill="#050519" fill-rule="evenodd"/>
  <path d="M291,369 L291,371 L294,374 L294,375 L295,375 L296,376 L301,376 L302,375 L301,375 L300,376 L298,376 L297,375 L296,375 L295,374 L294,374 L291,371 Z" fill="#050519" fill-rule="evenodd"/>
  <path d="M174,369 L174,370 L173,371 L173,372 L173,371 L174,370 Z" fill="#050519" fill-rule="evenodd"/>
  <path d="M157,368 L158,369 L158,368 Z" fill="#050519" fill-rule="evenodd"/>
  <path d="M276,365 L276,366 L278,366 L277,365 Z" fill="#050519" fill-rule="evenodd"/>
  <path d="M326,364 L324,366 L328,366 L328,364 Z" fill="#050519" fill-rule="evenodd"/>
  <path d="M246,364 L246,366 L244,368 L244,371 L244,369 L246,367 L249,367 L249,365 L248,364 Z" fill="#050519" fill-rule="evenodd"/>
  <path d="M157,364 L157,366 L158,365 L158,364 Z" fill="#050519" fill-rule="evenodd"/>
  <path d="M287,363 L286,364 L285,364 L283,366 L286,366 L287,365 L288,366 L288,363 Z" fill="#050519" fill-rule="evenodd"/>
  <path d="M203,362 L203,364 L202,365 L203,366 L203,371 L201,373 L192,373 L201,373 L202,372 L203,372 L203,371 L204,370 L204,369 L203,368 L203,366 L202,365 L204,363 L205,363 L205,362 L204,363 Z" fill="#050519" fill-rule="evenodd"/>
  <path d="M243,361 L243,364 L242,365 L243,365 Z" fill="#050519" fill-rule="evenodd"/>
  <path d="M193,360 L192,361 L190,361 L190,362 L192,362 L192,361 Z" fill="#050519" fill-rule="evenodd"/>
  <path d="M340,359 L340,360 L338,362 L338,363 L337,364 L337,366 L337,364 L338,363 L338,362 L340,360 Z" fill="#050519" fill-rule="evenodd"/>
  <path d="M170,359 L169,360 L170,360 L171,359 L172,359 Z" fill="#050519" fill-rule="evenodd"/>
  <path d="M275,358 L273,360 L274,360 L274,359 Z" fill="#050519" fill-rule="evenodd"/>
  <path d="M227,358 L226,359 L227,360 L227,361 L230,361 L231,362 L231,363 L233,363 L232,363 L230,361 L230,360 L229,359 L229,358 Z" fill="#050519" fill-rule="evenodd"/>
  <path d="M296,354 L295,355 L291,355 L291,357 L293,357 L294,356 L295,357 L297,355 Z" fill="#050519" fill-rule="evenodd"/>
  <path d="M279,354 L278,355 L278,356 L279,355 L280,355 L281,356 L283,356 L284,355 L285,356 L285,357 L286,358 L288,358 L288,356 L285,356 L284,355 L282,355 L281,354 Z" fill="#050519" fill-rule="evenodd"/>
  <path d="M245,354 L244,355 L243,355 L244,355 L245,354 L247,354 L248,355 L252,355 L250,355 L249,354 Z" fill="#050519" fill-rule="evenodd"/>
  <path d="M202,353 L199,356 L198,356 L197,357 L196,357 L197,357 L198,356 L199,356 Z" fill="#050519" fill-rule="evenodd"/>
  <path d="M262,351 L263,351 L264,352 L264,353 L265,354 L264,355 L264,362 L265,363 L265,364 L268,367 L268,368 L269,369 L269,372 L269,369 L271,367 L270,366 L270,365 L270,366 L269,367 L268,366 L267,366 L265,364 L265,363 L264,362 L264,356 L265,355 L265,352 L264,352 L263,351 Z" fill="#050519" fill-rule="evenodd"/>
  <path d="M172,351 L171,352 L169,352 L173,352 L174,351 L176,351 L178,353 L178,355 L175,358 L175,359 L177,357 L178,357 L178,353 L176,351 Z" fill="#050519" fill-rule="evenodd"/>
  <path d="M375,336 L377,338 L378,338 L377,338 Z" fill="#050519" fill-rule="evenodd"/>
  <path d="M359,334 L359,337 L358,338 L357,338 L356,339 L347,339 L346,340 L340,340 L346,340 L347,339 L356,339 L357,338 L359,338 L359,336 L360,335 Z" fill="#050519" fill-rule="evenodd"/>
  <path d="M394,329 L394,330 L395,330 L397,332 L397,335 L397,331 L396,330 L395,330 Z" fill="#050519" fill-rule="evenodd"/>
  <path d="M331,326 L332,326 L333,327 L332,326 Z" fill="#050519" fill-rule="evenodd"/>
  <path d="M353,325 L352,326 L351,326 L350,327 L349,327 L348,328 L347,328 L346,329 L348,329 L348,328 L349,327 L354,327 L355,328 L355,329 L356,329 L357,328 L357,325 L356,326 L355,326 L354,325 Z" fill="#050519" fill-rule="evenodd"/>
  <path d="M364,321 L363,322 L363,326 L363,324 L364,323 L366,323 L367,322 L366,321 Z" fill="#050519" fill-rule="evenodd"/>
  <path d="M342,316 L342,318 L341,319 L340,319 L340,323 L340,322 L341,321 L341,320 L342,319 L342,318 L343,317 L343,316 Z" fill="#050519" fill-rule="evenodd"/>
  <path d="M330,314 L332,316 L333,316 L332,316 Z" fill="#050519" fill-rule="evenodd"/>
  <path d="M368,308 L367,309 L366,309 L364,311 L362,311 L361,312 L363,312 L366,309 L368,309 L369,308 L373,308 Z" fill="#050519" fill-rule="evenodd"/>
  <path d="M338,308 L337,309 L334,309 L337,309 Z" fill="#050519" fill-rule="evenodd"/>
  <path d="M366,292 L367,293 L368,292 Z" fill="#050519" fill-rule="evenodd"/>
  <path d="M260,292 L259,293 L258,293 L257,294 L255,294 L260,294 L261,293 L263,293 L263,292 Z" fill="#050519" fill-rule="evenodd"/>
  <path d="M371,291 L370,292 L371,291 L372,291 Z" fill="#050519" fill-rule="evenodd"/>
  <path d="M379,284 L374,289 L373,289 L374,290 L375,290 L376,289 L377,289 L378,288 L378,285 Z" fill="#050519" fill-rule="evenodd"/>
  <path d="M253,278 L253,279 L252,280 L254,278 Z" fill="#050519" fill-rule="evenodd"/>
  <path d="M274,250 L275,250 L276,251 L281,251 L276,251 L275,250 Z" fill="#050519" fill-rule="evenodd"/>
  <path d="M262,244 L262,245 L261,246 L261,247 L262,248 L261,247 L261,246 L262,245 Z" fill="#050519" fill-rule="evenodd"/>
  <path d="M383,241 L386,244 L386,248 L385,249 L385,253 L386,254 L386,255 L387,256 L387,257 L388,258 L388,263 L386,265 L386,266 L385,267 L385,274 L384,275 L384,277 L383,278 L383,279 L382,280 L383,280 L386,277 L386,275 L385,274 L385,273 L386,272 L385,271 L388,268 L388,266 L389,265 L389,263 L390,262 L390,259 L389,258 L389,252 L388,251 L388,244 L387,243 L387,242 L385,242 L384,241 Z" fill="#050519" fill-rule="evenodd"/>
  <path d="M371,228 L372,229 L372,230 L373,230 L375,232 Z" fill="#050519" fill-rule="evenodd"/>
  <path d="M295,227 L296,227 L297,228 L300,228 L298,228 L297,227 Z" fill="#050519" fill-rule="evenodd"/>
  <path d="M360,208 L359,209 L355,209 L354,210 L344,210 L357,210 L358,209 L361,209 L362,208 L364,208 Z" fill="#050519" fill-rule="evenodd"/>
  <path d="M325,208 L324,209 L322,209 L321,210 L298,210 L322,210 L323,209 L333,209 L329,209 L328,208 Z" fill="#050519" fill-rule="evenodd"/>
  <path d="M383,186 L384,187 L385,187 L387,189 L387,197 L386,198 L386,204 L384,206 L384,207 L383,208 L382,207 L380,207 L381,208 L383,208 L384,207 L385,207 L385,206 L386,205 L386,199 L387,198 L387,197 L388,196 L388,191 L387,190 L387,189 L386,188 L386,187 L385,186 Z" fill="#050519" fill-rule="evenodd"/>
  <path d="M326,376 L325,377 L325,378 L325,377 L326,376 L328,376 Z" fill="#050f0f" fill-rule="evenodd"/>
  <path d="M222,376 L221,377 L222,376 L223,376 Z" fill="#050f0f" fill-rule="evenodd"/>
  <path d="M296,339 L296,340 L297,341 L300,341 L297,341 L296,340 Z" fill="#050f0f" fill-rule="evenodd"/>
  <path d="M314,336 L314,337 L312,339 L315,336 Z" fill="#050f0f" fill-rule="evenodd"/>
  <path d="M202,336 L201,337 L203,339 L209,339 L210,340 L217,340 L217,338 L218,337 L218,336 L214,336 L214,337 L213,338 L212,338 L211,339 L210,339 L209,338 L208,338 L207,337 L207,336 Z" fill="#050f0f" fill-rule="evenodd"/>
  <path d="M227,331 L225,333 L226,332 L227,332 L228,333 L228,332 Z" fill="#050f0f" fill-rule="evenodd"/>
  <path d="M309,330 L306,333 L305,333 L304,334 L303,334 L302,335 L301,335 L300,334 L299,334 L299,335 L304,335 L305,334 L307,334 L309,332 L310,332 L310,331 Z" fill="#050f0f" fill-rule="evenodd"/>
  <path d="M134,327 L133,328 L133,330 L132,331 L132,332 L129,335 L127,335 L126,336 L124,336 L124,337 L125,338 L126,338 L127,339 L128,338 L131,338 L132,337 L132,336 L134,334 L134,333 L136,331 L135,330 L135,328 Z" fill="#050f0f" fill-rule="evenodd"/>
  <path d="M302,326 L300,328 L299,327 L300,328 L304,328 L305,327 L306,327 L305,326 Z" fill="#050f0f" fill-rule="evenodd"/>
  <path d="M239,326 L239,327 L237,329 L237,330 L235,332 L235,333 L240,333 L242,335 L242,336 L243,337 L243,338 L245,340 L246,340 L247,341 L252,341 L253,340 L255,340 L258,337 L259,337 L260,336 L264,336 L265,335 L267,335 L266,335 L265,334 L264,334 L262,332 L261,332 L261,335 L260,336 L258,336 L258,337 L255,340 L248,340 L246,338 L246,335 L248,333 L248,332 L249,331 L249,330 L246,330 L245,331 L244,330 L242,330 L241,329 L241,327 L240,326 Z" fill="#050f0f" fill-rule="evenodd"/>
  <path d="M256,324 L257,325 L258,324 L261,324 Z" fill="#050f0f" fill-rule="evenodd"/>
  <path d="M109,323 L109,324 L114,324 L115,325 L116,325 L120,329 L126,329 L126,325 L125,326 L117,326 L116,325 L115,325 L114,324 L113,324 L112,323 Z" fill="#050f0f" fill-rule="evenodd"/>
  <path d="M268,321 L268,322 L270,322 L271,323 L273,323 L276,326 L276,327 L277,328 L277,329 L278,329 L278,327 L277,326 L277,325 L275,323 L274,323 L273,322 L271,322 L270,321 Z" fill="#050f0f" fill-rule="evenodd"/>
  <path d="M226,321 L225,322 L226,323 L229,323 L230,324 L233,324 L233,323 L230,323 L229,322 L227,322 Z" fill="#050f0f" fill-rule="evenodd"/>
  <path d="M146,320 L151,320 L152,321 L153,321 L156,324 L156,328 L157,329 L158,329 L158,326 L156,324 L156,323 L154,321 L152,321 L151,320 Z" fill="#050f0f" fill-rule="evenodd"/>
  <path d="M99,319 L98,320 L98,321 L99,322 L100,322 L101,323 L102,323 L102,319 Z" fill="#050f0f" fill-rule="evenodd"/>
  <path d="M316,316 L320,320 L320,321 L323,324 L324,324 L323,324 L321,322 L321,321 L319,319 L319,318 L317,316 Z" fill="#050f0f" fill-rule="evenodd"/>
  <path d="M283,316 L283,318 L284,319 L284,321 L285,322 L285,323 L286,324 L286,327 L284,329 L286,329 L291,324 L290,324 L285,319 L285,316 Z" fill="#050f0f" fill-rule="evenodd"/>
  <path d="M173,316 L173,318 L171,320 L169,320 L168,321 L165,321 L170,321 L171,322 L172,322 L174,324 L174,325 L176,327 L176,329 L174,331 L173,331 L171,333 L163,333 L162,334 L163,333 L171,333 L172,332 L176,332 L177,333 L178,333 L178,321 L177,320 L177,318 L176,317 L176,316 Z" fill="#050f0f" fill-rule="evenodd"/>
  <path d="M120,316 L121,317 L124,317 L125,318 L126,317 L126,316 Z" fill="#050f0f" fill-rule="evenodd"/>
  <path d="M290,313 L290,314 L289,315 L292,315 L292,313 Z" fill="#050f0f" fill-rule="evenodd"/>
  <path d="M197,312 L196,313 L195,313 L195,314 L197,314 Z" fill="#050f0f" fill-rule="evenodd"/>
  <path d="M257,309 L258,310 L258,312 L257,313 L256,313 L255,314 L254,314 L253,315 L251,315 L251,316 L252,316 L253,315 L260,315 L261,314 L262,314 L262,312 L261,311 L260,311 L259,310 L258,310 Z" fill="#050f0f" fill-rule="evenodd"/>
  <path d="M159,309 L158,310 L156,310 L162,310 L161,309 Z" fill="#050f0f" fill-rule="evenodd"/>
  <path d="M289,307 L288,308 L287,308 L287,309 Z" fill="#050f0f" fill-rule="evenodd"/>
  <path d="M302,306 L305,309 L305,310 L306,311 L306,312 L308,314 L309,314 L309,313 L308,312 L307,312 L305,310 L305,309 Z" fill="#050f0f" fill-rule="evenodd"/>
  <path d="M133,306 L133,307 L130,310 L129,310 L129,311 L130,311 L132,313 L132,314 L134,314 L135,313 L135,312 L133,310 Z" fill="#050f0f" fill-rule="evenodd"/>
  <path d="M225,305 L222,308 L222,310 L223,309 L223,308 L224,307 L225,307 L226,306 L228,306 L229,307 L230,307 L231,308 L231,311 L230,312 L229,312 L228,313 L226,313 L226,314 L230,314 L231,313 L232,314 L233,314 L234,315 L235,315 L237,317 L237,316 L238,315 L238,314 L240,312 L240,311 L242,309 L242,308 L244,306 L245,306 L244,306 L243,307 L242,307 L238,311 L237,311 L236,312 L235,311 L234,311 L228,305 Z" fill="#050f0f" fill-rule="evenodd"/>
  <path d="M186,305 L184,307 L183,307 L182,308 L182,309 L184,309 L184,308 L186,306 L195,306 L198,309 L199,309 L199,308 L198,307 L197,307 L196,306 L192,306 L191,305 Z" fill="#050f0f" fill-rule="evenodd"/>
  <path d="M229,286 L227,288 L226,288 L227,289 L228,289 L228,288 L229,287 Z" fill="#050f0f" fill-rule="evenodd"/>
  <path d="M243,278 L242,279 L241,279 L240,280 L239,279 L235,279 L234,280 L235,279 L236,279 L237,280 L240,280 L241,279 L242,279 Z" fill="#050f0f" fill-rule="evenodd"/>
  <path d="M238,270 L240,270 L241,271 L242,271 L243,272 L242,271 L242,270 Z" fill="#050f0f" fill-rule="evenodd"/>
  <path d="M276,267 L280,267 L281,268 L297,268 L298,269 L300,269 L298,269 L297,268 L293,268 L292,267 Z" fill="#050f0f" fill-rule="evenodd"/>
  <path d="M136,266 L135,267 L129,267 L128,268 L127,268 L126,267 L128,269 L131,269 L133,267 L146,267 L147,268 L149,268 L150,269 L183,269 L184,268 L186,268 L187,269 L213,269 L214,268 L213,268 L212,267 L190,267 L189,268 L181,268 L180,267 L137,267 Z" fill="#050f0f" fill-rule="evenodd"/>
  <path d="M252,231 L253,231 L254,232 L253,231 Z" fill="#050f0f" fill-rule="evenodd"/>
  <path d="M309,225 L308,226 L307,226 L306,227 L305,227 L304,228 L303,228 L305,228 L306,227 L309,227 L310,226 L314,226 L315,227 L319,227 L318,227 L317,226 L312,226 L311,225 Z" fill="#050f0f" fill-rule="evenodd"/>
  <path d="M208,207 L208,208 L209,209 L209,210 L210,210 L211,211 L215,211 L215,210 L213,208 L212,208 L211,207 Z" fill="#050f0f" fill-rule="evenodd"/>
  <path d="M150,207 L152,209 L153,209 L154,208 L155,208 L156,207 L157,207 Z" fill="#050f0f" fill-rule="evenodd"/>
  <path d="M130,207 L129,208 L128,208 L127,209 L127,210 L126,211 L127,212 L129,212 L130,211 L134,211 L136,209 L136,207 Z" fill="#050f0f" fill-rule="evenodd"/>
  <path d="M237,202 L237,203 L238,204 L238,207 L239,207 L241,205 L241,204 L239,202 Z" fill="#050f0f" fill-rule="evenodd"/>
  <path d="M227,188 L227,189 L229,191 L230,191 L229,190 L229,189 L228,189 Z" fill="#050f0f" fill-rule="evenodd"/>
  <path d="M309,387 L309,390 L308,391 L307,391 L309,391 L310,392 L311,391 L315,391 L313,391 L312,390 L312,387 L311,387 L310,388 Z" fill="#050f19" fill-rule="evenodd"/>
  <path d="M330,386 L330,387 L329,388 L332,388 L333,387 L332,386 Z" fill="#050f19" fill-rule="evenodd"/>
  <path d="M292,386 L292,388 L294,388 L295,389 L295,390 L294,391 L285,391 L286,392 L286,394 L288,394 L289,395 L291,395 L292,394 L295,394 L296,393 L297,393 L298,392 L298,391 L297,390 L297,389 L296,389 L293,386 Z" fill="#050f19" fill-rule="evenodd"/>
  <path d="M175,386 L179,390 L178,391 L180,393 L182,393 L182,391 L181,391 L180,390 L180,386 Z" fill="#050f19" fill-rule="evenodd"/>
  <path d="M208,385 L208,386 L209,387 L209,388 L210,387 L210,386 L209,386 Z" fill="#050f19" fill-rule="evenodd"/>
  <path d="M195,385 L194,386 L190,386 L190,388 L195,388 L196,389 L196,390 L195,391 L187,391 L187,392 L186,393 L187,393 L188,394 L193,394 L194,393 L195,393 L197,391 L198,391 L199,390 L200,390 L198,388 L197,388 L195,386 Z" fill="#050f19" fill-rule="evenodd"/>
  <path d="M259,382 L258,383 L258,384 L259,383 Z" fill="#050f19" fill-rule="evenodd"/>
  <path d="M168,382 L167,383 L166,383 L166,386 L168,384 L171,384 L172,385 L172,382 Z" fill="#050f19" fill-rule="evenodd"/>
  <path d="M292,380 L292,381 L293,382 L293,383 L293,382 L292,381 Z" fill="#050f19" fill-rule="evenodd"/>
  <path d="M229,380 L229,386 L228,387 L229,388 L232,388 L232,387 L231,386 L230,386 L229,385 L232,382 L234,382 L233,382 L231,380 L230,381 Z" fill="#050f19" fill-rule="evenodd"/>
  <path d="M191,380 L190,381 L190,382 L193,382 L194,383 L193,382 L193,381 L192,380 Z" fill="#050f19" fill-rule="evenodd"/>
  <path d="M162,380 L160,382 L160,383 L161,384 L161,387 L162,387 Z" fill="#050f19" fill-rule="evenodd"/>
  <path d="M309,379 L309,381 L312,381 L312,380 L311,380 L310,379 Z" fill="#050f19" fill-rule="evenodd"/>
  <path d="M215,379 L215,381 L216,382 L216,387 L215,388 L215,389 L213,391 L211,391 L210,392 L209,392 L208,391 L207,391 L205,389 L204,390 L202,390 L203,391 L204,391 L206,393 L207,393 L208,394 L210,394 L211,393 L213,393 L214,392 L215,392 L216,391 L217,392 L218,391 L220,391 L219,391 L218,390 L218,379 L217,380 L216,380 Z" fill="#050f19" fill-rule="evenodd"/>
  <path d="M329,376 L328,377 L326,377 L326,378 L325,379 L324,378 L325,379 L325,380 L326,380 L326,379 L328,377 L333,377 L336,380 L336,381 L335,382 L335,384 L336,385 L336,389 L334,391 L327,391 L326,390 L326,393 L327,394 L328,394 L329,395 L330,395 L331,394 L332,394 L333,393 L334,393 L336,391 L336,390 L340,386 L340,384 L341,383 L341,382 L340,381 L340,379 L338,377 L332,377 L331,376 Z" fill="#050f19" fill-rule="evenodd"/>
  <path d="M158,366 L157,367 L158,367 Z" fill="#050f19" fill-rule="evenodd"/>
  <path d="M291,364 L291,368 L292,369 L292,371 L294,373 L295,373 L296,374 L297,374 L298,375 L300,375 L301,374 L306,374 L307,373 L312,373 L313,372 L315,372 L317,370 L318,370 L319,369 L320,369 L322,367 L321,366 L319,366 L318,367 L318,368 L317,369 L316,369 L315,368 L315,367 L314,368 L313,368 L311,370 L308,370 L307,371 L305,371 L302,368 L302,367 L299,367 L299,368 L298,369 L297,369 L296,368 L296,364 L295,365 L292,365 Z" fill="#050f19" fill-rule="evenodd"/>
  <path d="M162,364 L162,366 L164,366 L166,364 L165,365 L164,364 Z" fill="#050f19" fill-rule="evenodd"/>
  <path d="M286,362 L283,365 L285,363 L286,363 L287,362 Z" fill="#050f19" fill-rule="evenodd"/>
  <path d="M246,362 L246,363 L248,363 L249,364 L247,362 Z" fill="#050f19" fill-rule="evenodd"/>
  <path d="M272,360 L273,361 L273,362 L273,361 Z" fill="#050f19" fill-rule="evenodd"/>
  <path d="M294,357 L293,358 L291,358 L294,358 L296,360 L296,361 L296,357 L295,358 Z" fill="#050f19" fill-rule="evenodd"/>
  <path d="M323,356 L324,356 L325,357 L325,358 L326,359 L326,361 L325,362 L325,363 L324,364 L324,365 L326,363 L328,363 L328,357 L327,356 Z" fill="#050f19" fill-rule="evenodd"/>
  <path d="M279,356 L279,357 L282,357 L281,357 L280,356 Z" fill="#050f19" fill-rule="evenodd"/>
  <path d="M331,355 L337,355 L338,356 L338,357 L336,359 L336,360 L335,361 L336,361 L337,362 L337,363 L336,364 L332,364 L332,366 L336,366 L337,367 L336,366 L336,364 L337,363 L337,362 L339,360 L339,359 L340,358 L339,357 L339,356 L338,355 Z" fill="#050f19" fill-rule="evenodd"/>
  <path d="M245,355 L244,356 L243,356 L244,356 L246,358 L246,359 L247,358 L248,358 L249,357 L249,356 L248,356 L247,355 Z" fill="#050f19" fill-rule="evenodd"/>
  <path d="M306,354 L305,355 L311,355 L312,356 L312,357 L311,358 L307,358 L306,359 L306,360 L307,361 L310,361 L311,362 L311,363 L310,364 L308,364 L306,366 L312,366 L314,364 L314,362 L315,361 L315,357 L314,357 L313,356 L312,356 L311,355 L309,355 L308,354 Z" fill="#050f19" fill-rule="evenodd"/>
  <path d="M260,352 L259,353 L258,353 L256,355 L253,355 L257,355 L260,358 L260,362 L261,363 L261,367 L259,369 L257,369 L255,367 L255,366 L252,366 L252,367 L253,368 L255,368 L259,372 L260,372 L261,373 L262,373 L263,374 L264,374 L267,377 L267,382 L265,384 L264,384 L263,383 L262,383 L263,384 L263,385 L264,386 L264,388 L265,389 L265,390 L264,391 L262,391 L261,390 L261,389 L260,388 L257,388 L256,389 L256,390 L255,391 L253,391 L252,390 L252,389 L253,388 L252,389 L250,389 L250,390 L249,391 L250,392 L252,392 L253,393 L254,393 L255,392 L257,392 L258,391 L259,391 L260,390 L262,392 L271,392 L272,391 L274,391 L268,391 L267,390 L267,379 L269,377 L270,378 L270,380 L271,380 L273,382 L273,384 L272,385 L272,386 L270,388 L275,388 L276,389 L276,390 L276,389 L278,387 L278,386 L279,385 L280,385 L281,384 L282,384 L283,383 L284,383 L285,384 L285,389 L285,379 L284,379 L283,378 L282,378 L281,377 L278,377 L277,376 L273,376 L272,375 L271,375 L268,372 L268,369 L267,368 L267,367 L264,364 L264,363 L263,362 L263,355 L264,354 L263,353 L263,352 Z" fill="#050f19" fill-rule="evenodd"/>
  <path d="M174,352 L173,353 L167,353 L166,354 L164,354 L163,355 L162,355 L166,355 L167,356 L168,356 L169,357 L169,359 L170,358 L172,358 L172,356 L173,355 L174,355 L175,356 L175,357 L177,355 L177,353 L176,352 Z" fill="#050f19" fill-rule="evenodd"/>
  <path d="M206,351 L205,352 L203,352 L203,353 L199,357 L198,357 L197,358 L196,358 L196,359 L199,362 L199,366 L201,366 L202,367 L202,368 L201,369 L199,369 L198,370 L194,370 L192,368 L192,365 L193,364 L193,361 L193,362 L192,363 L190,363 L190,368 L189,369 L187,369 L186,368 L186,364 L183,364 L183,366 L182,367 L182,368 L181,369 L175,369 L174,368 L175,369 L175,370 L174,371 L174,372 L173,373 L172,373 L170,375 L169,375 L169,376 L168,377 L167,377 L169,377 L170,378 L170,379 L171,379 L173,377 L174,377 L175,378 L175,379 L176,380 L178,380 L180,382 L180,377 L181,376 L181,375 L184,372 L187,372 L188,371 L189,371 L190,372 L201,372 L202,371 L202,366 L201,365 L202,364 L202,362 L203,361 L204,362 L205,361 L206,362 L206,359 L204,359 L202,357 L204,355 L213,355 L214,356 L214,357 L212,359 L210,359 L210,361 L211,361 L212,362 L213,361 L214,362 L216,362 L217,363 L219,363 L220,364 L220,365 L221,365 L223,367 L223,368 L226,371 L226,374 L223,377 L222,377 L221,378 L222,379 L222,390 L226,390 L225,389 L225,388 L224,387 L224,386 L223,386 L222,385 L222,383 L223,382 L224,382 L224,381 L228,377 L233,377 L235,379 L236,379 L237,378 L238,378 L241,375 L241,374 L243,372 L243,369 L237,369 L234,366 L234,364 L227,364 L227,366 L226,367 L226,368 L225,369 L224,369 L223,368 L223,367 L222,366 L222,357 L223,356 L222,357 L220,355 L219,355 L218,354 L218,353 L217,352 L215,352 L214,351 Z" fill="#050f19" fill-rule="evenodd"/>
  <path d="M208,336 L208,337 L209,337 L210,338 L211,338 L212,337 L213,337 L213,336 Z" fill="#050f19" fill-rule="evenodd"/>
  <path d="M311,332 L310,333 L309,333 L307,335 L305,335 L304,336 L299,336 L298,335 L296,337 L296,338 L297,339 L297,340 L304,340 L305,339 L311,339 L313,337 L313,336 L314,335 Z" fill="#050f19" fill-rule="evenodd"/>
  <path d="M393,331 L393,332 L390,335 L389,335 L388,336 L380,336 L379,335 L373,335 L375,335 L377,337 L378,337 L379,338 L380,338 L381,339 L383,339 L384,340 L387,340 L388,339 L392,339 L393,338 L394,338 L396,336 L396,332 L395,331 Z" fill="#050f19" fill-rule="evenodd"/>
  <path d="M250,330 L250,331 L249,332 L249,333 L247,335 L247,338 L248,339 L255,339 L257,337 L257,336 L256,336 L253,333 L253,332 L251,330 Z" fill="#050f19" fill-rule="evenodd"/>
  <path d="M349,328 L349,329 L354,329 L354,328 Z" fill="#050f19" fill-rule="evenodd"/>
  <path d="M370,325 L370,326 L369,327 L369,329 L380,329 L381,328 L383,328 L384,329 L388,329 L388,326 L387,325 Z M380,326 L381,325 L384,325 L385,326 L384,327 L381,327 Z" fill="#050f19" fill-rule="evenodd"/>
  <path d="M109,325 L109,329 L119,329 L116,326 L115,326 L114,325 Z" fill="#050f19" fill-rule="evenodd"/>
  <path d="M165,322 L165,331 L164,332 L171,332 L173,330 L174,330 L175,329 L175,327 L173,325 L173,324 L172,323 L171,323 L170,322 Z" fill="#050f19" fill-rule="evenodd"/>
  <path d="M315,317 L310,322 L310,323 L318,331 L319,331 L321,333 L324,333 L325,332 L333,332 L335,334 L335,335 L336,336 L336,337 L337,338 L338,338 L339,339 L346,339 L347,338 L356,338 L357,337 L358,337 L358,335 L356,335 L355,336 L340,336 L339,335 L338,335 L337,334 L336,334 L334,332 L334,331 L333,330 L333,328 L332,327 L331,327 L330,326 L328,326 L327,325 L323,325 L319,321 L319,320 L316,317 Z" fill="#050f19" fill-rule="evenodd"/>
  <path d="M372,316 L372,319 L382,319 L383,320 L387,320 L386,320 L385,319 L386,318 L387,318 L387,317 L382,317 L381,316 Z" fill="#050f19" fill-rule="evenodd"/>
  <path d="M340,316 L340,318 L339,319 L339,327 L339,319 L340,318 L341,318 L341,316 Z" fill="#050f19" fill-rule="evenodd"/>
  <path d="M269,316 L268,317 L268,320 L270,320 L271,321 L273,321 L274,322 L275,322 L278,325 L278,326 L279,327 L279,329 L283,329 L285,327 L285,324 L284,323 L284,322 L283,321 L283,319 L282,318 L282,316 Z" fill="#050f19" fill-rule="evenodd"/>
  <path d="M204,316 L204,319 L207,319 L207,317 L208,316 Z" fill="#050f19" fill-rule="evenodd"/>
  <path d="M339,308 L337,310 L333,310 L332,311 L331,311 L330,312 L330,313 L332,315 L333,315 L334,314 L334,313 L336,311 L337,311 L338,310 L340,310 L341,309 L349,309 L348,308 Z" fill="#050f19" fill-rule="evenodd"/>
  <path d="M378,307 L377,308 L374,308 L373,309 L369,309 L368,310 L366,310 L363,313 L362,313 L362,314 L363,315 L363,321 L364,320 L366,320 L366,314 L370,310 L391,310 L388,307 Z" fill="#050f19" fill-rule="evenodd"/>
  <path d="M226,307 L225,308 L224,308 L224,309 L223,310 L225,312 L228,312 L229,311 L230,311 L230,308 L229,308 L228,307 Z" fill="#050f19" fill-rule="evenodd"/>
  <path d="M186,307 L185,308 L185,309 L194,309 L196,311 L197,311 L198,310 L195,307 Z" fill="#050f19" fill-rule="evenodd"/>
  <path d="M246,306 L245,307 L244,307 L243,308 L243,309 L242,310 L243,310 L244,309 L245,310 L247,310 L249,312 L249,313 L250,314 L253,314 L254,313 L255,313 L256,312 L257,312 L257,310 L255,308 L254,308 L252,306 Z" fill="#050f19" fill-rule="evenodd"/>
  <path d="M293,305 L292,306 L291,306 L288,309 L290,311 L290,312 L292,312 L292,311 L293,310 L298,310 L299,311 L299,319 L304,319 L308,315 L305,312 L305,311 L304,310 L304,309 L300,305 Z" fill="#050f19" fill-rule="evenodd"/>
  <path d="M136,305 L135,306 L134,306 L134,310 L135,311 L136,310 L141,310 L142,311 L142,318 L143,319 L151,319 L152,320 L154,320 L157,323 L157,324 L158,325 L158,315 L159,314 L159,311 L155,311 L154,312 L148,312 L145,309 L144,309 L141,306 L140,306 L139,305 Z" fill="#050f19" fill-rule="evenodd"/>
  <path d="M372,289 L371,290 L369,290 L368,291 L365,291 L370,291 L371,290 L373,290 Z" fill="#050f19" fill-rule="evenodd"/>
  <path d="M254,279 L252,281 L252,282 L248,286 L248,288 L249,289 L249,290 L250,291 L251,291 L253,293 L257,293 L258,292 L259,292 L256,292 L254,290 Z" fill="#050f19" fill-rule="evenodd"/>
  <path d="M238,271 L238,272 L237,273 L237,276 L236,277 L236,278 L239,278 L240,279 L241,278 L242,278 L243,277 L243,273 L242,272 L241,272 L240,271 Z" fill="#050f19" fill-rule="evenodd"/>
  <path d="M133,268 L132,269 L149,269 L147,269 L146,268 Z" fill="#050f19" fill-rule="evenodd"/>
  <path d="M362,262 L361,263 L360,263 L359,264 L359,265 L358,266 L357,266 L356,267 L355,267 L354,268 L316,268 L315,269 L313,269 L312,270 L298,270 L297,269 L281,269 L280,268 L276,268 L275,267 L268,267 L267,268 L265,268 L265,269 L264,270 L263,270 L360,270 L361,269 L362,269 L362,268 L363,267 L363,262 Z" fill="#050f19" fill-rule="evenodd"/>
  <path d="M385,254 L385,266 L385,265 L387,263 L387,258 L386,257 L386,256 L385,255 Z" fill="#050f19" fill-rule="evenodd"/>
  <path d="M263,245 L262,246 L262,247 L264,249 L265,248 L270,248 L268,248 L267,247 L266,247 L264,245 Z" fill="#050f19" fill-rule="evenodd"/>
  <path d="M384,243 L384,244 L385,245 L385,248 L385,244 Z" fill="#050f19" fill-rule="evenodd"/>
  <path d="M282,239 L281,240 L281,241 L279,243 L279,244 L277,246 L277,247 L275,249 L273,249 L275,249 L276,250 L281,250 L282,251 L285,251 L286,252 L299,252 L300,251 L339,251 L340,252 L350,252 L351,251 L356,251 L357,250 L360,250 L289,250 L288,249 L285,249 L284,248 L286,246 L286,245 L287,244 L286,243 L285,243 L283,241 L283,240 Z" fill="#050f19" fill-rule="evenodd"/>
  <path d="M368,229 L370,229 L371,230 L371,229 Z" fill="#050f19" fill-rule="evenodd"/>
  <path d="M310,227 L309,228 L306,228 L359,228 L315,228 L314,227 Z" fill="#050f19" fill-rule="evenodd"/>
  <path d="M254,225 L253,226 L253,230 L254,231 Z" fill="#050f19" fill-rule="evenodd"/>
  <path d="M279,207 L276,210 L276,225 L278,227 L279,227 L280,228 L287,228 L288,229 L288,230 L287,231 L287,232 L285,234 L287,234 L288,235 L289,235 L290,236 L291,236 L292,237 L293,236 L293,235 L296,232 L296,231 L298,229 L297,229 L296,228 L295,228 L294,227 L293,227 L292,226 L291,226 L290,225 L289,225 L288,224 L287,224 L285,222 L284,222 L282,220 L282,218 L281,217 L281,214 L282,213 L283,213 L284,212 L285,212 L286,211 L287,211 L288,210 L291,210 L292,209 L321,209 L322,208 L324,208 L325,207 L328,207 L329,208 L333,208 L334,209 L354,209 L355,208 L359,208 L360,207 L365,207 Z" fill="#050f19" fill-rule="evenodd"/>
  <path d="M254,193 L253,194 L252,194 L252,195 L251,196 L251,197 L253,199 L253,201 L255,203 L255,201 L256,200 L256,198 L258,196 L258,195 L259,194 L258,194 L257,193 Z" fill="#050f19" fill-rule="evenodd"/>
  <path d="M383,187 L383,188 L384,189 L384,199 L383,200 L383,207 L383,206 L385,204 L385,198 L386,197 L386,189 L385,188 L384,188 Z" fill="#050f19" fill-rule="evenodd"/>
  <path d="M211,386 L211,387 L210,388 L212,388 L212,387 Z" fill="#050f23" fill-rule="evenodd"/>
  <path d="M292,385 L291,386 L289,386 L289,388 L291,388 L291,386 L292,385 L293,385 Z" fill="#050f23" fill-rule="evenodd"/>
  <path d="M259,384 L258,385 L257,385 L260,385 Z" fill="#050f23" fill-rule="evenodd"/>
  <path d="M309,382 L309,386 L310,387 L311,386 L312,386 L312,382 Z" fill="#050f23" fill-rule="evenodd"/>
  <path d="M315,381 L315,388 L316,387 L317,388 L318,388 L319,387 L320,387 L320,383 L319,382 L319,381 Z" fill="#050f23" fill-rule="evenodd"/>
  <path d="M270,381 L270,387 L271,386 L271,385 L272,384 L272,382 L271,381 Z" fill="#050f23" fill-rule="evenodd"/>
  <path d="M225,381 L225,382 L224,383 L223,383 L223,385 L225,385 Z" fill="#050f23" fill-rule="evenodd"/>
  <path d="M329,380 L329,382 L330,383 L334,383 L334,382 L332,380 Z" fill="#050f23" fill-rule="evenodd"/>
  <path d="M289,380 L288,381 L289,382 L290,382 L291,383 L292,383 L292,382 L291,381 L291,380 Z" fill="#050f23" fill-rule="evenodd"/>
  <path d="M210,380 L208,382 L210,382 L211,383 L213,383 L215,385 L215,386 L215,382 L213,382 L211,380 Z" fill="#050f23" fill-rule="evenodd"/>
  <path d="M175,380 L175,382 L179,382 L178,381 L176,381 Z" fill="#050f23" fill-rule="evenodd"/>
  <path d="M172,379 L171,380 L169,380 L168,381 L166,381 L166,382 L167,382 L168,381 L172,381 Z" fill="#050f23" fill-rule="evenodd"/>
  <path d="M318,365 L318,366 L319,365 L320,365 Z" fill="#050f23" fill-rule="evenodd"/>
  <path d="M193,365 L193,368 L194,369 L198,369 L194,369 L193,368 Z" fill="#050f23" fill-rule="evenodd"/>
  <path d="M277,363 L276,364 L277,364 L278,365 L277,364 Z" fill="#050f23" fill-rule="evenodd"/>
  <path d="M315,362 L315,364 L312,367 L312,368 L311,369 L304,369 L305,370 L307,370 L308,369 L311,369 L313,367 L314,367 L315,366 Z" fill="#050f23" fill-rule="evenodd"/>
  <path d="M259,362 L258,363 L258,366 L259,367 L259,368 L260,367 L260,363 Z" fill="#050f23" fill-rule="evenodd"/>
  <path d="M196,360 L196,366 L198,366 L198,362 Z" fill="#050f23" fill-rule="evenodd"/>
  <path d="M291,359 L291,361 L295,361 L295,360 L294,359 Z" fill="#050f23" fill-rule="evenodd"/>
  <path d="M285,359 L284,360 L284,363 L286,361 L287,361 L288,362 L288,359 L287,360 L286,359 Z" fill="#050f23" fill-rule="evenodd"/>
  <path d="M162,359 L162,361 L165,361 L165,360 L166,359 L164,361 L163,361 L162,360 Z" fill="#050f23" fill-rule="evenodd"/>
  <path d="M335,358 L334,359 L334,360 L333,361 L332,360 L332,359 L332,361 L334,361 L335,360 L335,359 L336,358 Z" fill="#050f23" fill-rule="evenodd"/>
  <path d="M279,358 L279,359 L282,359 L282,358 Z" fill="#050f23" fill-rule="evenodd"/>
  <path d="M249,358 L248,359 L247,359 L246,360 L246,361 L247,361 L249,363 Z" fill="#050f23" fill-rule="evenodd"/>
  <path d="M288,382 L289,383 L290,383 L289,383 Z" fill="#050f2d" fill-rule="evenodd"/>
  <path d="M280,360 L280,361 L281,362 L281,363 L281,360 Z" fill="#050f2d" fill-rule="evenodd"/>
  <path d="M163,359 L163,360 L164,360 L165,359 L166,360 L165,359 Z" fill="#050f2d" fill-rule="evenodd"/>
  <path d="M253,359 L252,360 L252,361 L256,361 L256,360 L255,359 Z" fill="#05192d" fill-rule="evenodd"/>
  <path d="M319,358 L319,359 L318,360 L318,361 L322,361 L322,359 L321,358 Z" fill="#05192d" fill-rule="evenodd"/>
  <path d="M300,383 L300,384 L301,383 Z" fill="#053769" fill-rule="evenodd"/>
  <path d="M188,356 L187,357 L187,361 L187,357 Z" fill="#054169" fill-rule="evenodd"/>
  <path d="M305,365 L305,366 L306,367 L307,367 L306,367 L305,366 Z" fill="#054b91" fill-rule="evenodd"/>
  <path d="M229,362 L229,363 L230,363 Z" fill="#0573cd" fill-rule="evenodd"/>
  <path d="M166,361 L167,362 L166,363 L167,362 Z" fill="#0573cd" fill-rule="evenodd"/>
  <path d="M282,229 L283,230 L283,232 L284,233 L284,234 L285,233 L285,232 L286,231 L286,229 Z" fill="#0573eb" fill-rule="evenodd"/>
  <path d="M233,385 L234,386 L234,387 L234,386 Z" fill="#057dcd" fill-rule="evenodd"/>
  <path d="M227,362 L228,363 L228,362 Z" fill="#057dcd" fill-rule="evenodd"/>
  <path d="M320,388 L319,389 L317,389 L318,390 L319,390 L319,389 L320,388 L321,389 Z" fill="#057dd7" fill-rule="evenodd"/>
  <path d="M256,384 L256,385 L255,386 L256,386 L257,387 L256,386 Z" fill="#057dd7" fill-rule="evenodd"/>
  <path d="M240,384 L240,390 L241,390 L241,384 Z" fill="#057dd7" fill-rule="evenodd"/>
  <path d="M260,381 L260,382 L261,383 L260,382 Z" fill="#057dd7" fill-rule="evenodd"/>
  <path d="M289,365 L289,368 L290,368 L290,365 Z" fill="#057dd7" fill-rule="evenodd"/>
  <path d="M173,365 L174,366 L174,367 L175,368 L176,368 L174,366 L174,365 Z" fill="#057dd7" fill-rule="evenodd"/>
  <path d="M275,364 L273,366 L272,366 L272,368 L273,367 L273,366 Z" fill="#057dd7" fill-rule="evenodd"/>
  <path d="M181,362 L181,363 L182,364 L181,363 Z" fill="#057dd7" fill-rule="evenodd"/>
  <path d="M297,360 L297,361 L296,362 L295,362 L295,363 L296,363 L297,364 L297,368 L297,363 L298,362 L297,361 L298,360 Z" fill="#057dd7" fill-rule="evenodd"/>
  <path d="M245,360 L244,361 L244,365 L245,364 L244,363 L245,362 Z" fill="#057dd7" fill-rule="evenodd"/>
  <path d="M168,360 L166,362 L164,362 L166,362 L167,363 L167,364 L168,365 L168,366 L167,367 L168,366 L168,365 L167,364 L167,363 L166,362 Z" fill="#057dd7" fill-rule="evenodd"/>
  <path d="M225,359 L225,362 L226,363 L225,364 L226,363 L227,363 L225,361 Z" fill="#057dd7" fill-rule="evenodd"/>
  <path d="M315,389 L315,390 L317,390 L316,389 Z" fill="#057de1" fill-rule="evenodd"/>
  <path d="M262,388 L262,389 L263,388 Z" fill="#057de1" fill-rule="evenodd"/>
  <path d="M261,384 L261,386 L260,387 L258,387 L260,387 L261,386 L262,386 L262,385 Z" fill="#057de1" fill-rule="evenodd"/>
  <path d="M240,379 L240,383 L241,383 L240,382 L240,380 L241,379 L242,380 L242,381 L242,380 L241,379 Z" fill="#057de1" fill-rule="evenodd"/>
  <path d="M181,378 L181,380 L182,381 L182,382 L182,379 Z" fill="#057de1" fill-rule="evenodd"/>
  <path d="M290,361 L289,362 L289,364 L290,364 L291,363 L294,363 L294,362 L291,362 Z" fill="#057de1" fill-rule="evenodd"/>
  <path d="M173,361 L173,364 L174,364 L174,362 Z" fill="#057de1" fill-rule="evenodd"/>
  <path d="M368,331 L368,333 L369,334 L380,334 L380,332 L379,331 Z" fill="#057deb" fill-rule="evenodd"/>
  <path d="M359,322 L359,328 L356,331 L355,331 L355,334 L358,334 L362,330 L362,325 L361,324 L361,323 L360,322 Z" fill="#057deb" fill-rule="evenodd"/>
  <path d="M385,321 L384,322 L384,324 L387,324 L389,326 L389,327 L391,329 L392,329 L393,328 L392,327 L392,323 L391,322 L390,322 L389,321 Z" fill="#057deb" fill-rule="evenodd"/>
  <path d="M335,319 L335,329 L336,330 L336,329 L337,328 L337,320 L336,319 Z" fill="#057deb" fill-rule="evenodd"/>
  <path d="M346,311 L346,314 L355,314 L355,313 L357,311 Z" fill="#057deb" fill-rule="evenodd"/>
  <path d="M380,331 L381,332 L381,334 L382,334 L382,331 Z" fill="#057df5" fill-rule="evenodd"/>
  <path d="M380,321 L381,322 L381,324 L383,324 L383,322 L384,321 Z" fill="#057df5" fill-rule="evenodd"/>
  <path d="M336,315 L335,316 L335,318 L336,318 L338,320 L338,328 L337,329 L337,330 L336,331 L335,330 L335,331 L338,334 L354,334 L354,331 L341,331 L338,328 L338,317 Z" fill="#057df5" fill-rule="evenodd"/>
  <path d="M368,313 L367,314 L367,321 L368,320 L369,321 L369,322 L370,321 L371,321 L372,320 L371,319 L371,316 L372,315 L371,315 L369,313 Z" fill="#057df5" fill-rule="evenodd"/>
  <path d="M375,311 L375,314 L384,314 L384,311 Z" fill="#057df5" fill-rule="evenodd"/>
  <path d="M358,311 L356,313 L356,314 L358,316 L358,317 L359,318 L359,321 L360,321 L362,323 L362,324 L362,315 L361,314 L361,313 L360,312 L359,312 Z" fill="#057df5" fill-rule="evenodd"/>
  <path d="M261,288 L262,289 L266,289 L267,288 L271,288 Z" fill="#057df5" fill-rule="evenodd"/>
  <path d="M344,271 L344,272 L343,273 L350,273 L348,271 Z" fill="#057df5" fill-rule="evenodd"/>
  <path d="M256,271 L256,277 L260,277 L262,275 L263,275 L264,274 L266,274 L267,273 L273,273 L271,273 L270,272 L269,272 L268,271 Z" fill="#057df5" fill-rule="evenodd"/>
  <path d="M381,268 L381,276 L379,278 L378,278 L376,280 L376,281 L371,286 L370,286 L369,287 L366,287 L365,288 L364,288 L364,290 L367,290 L368,289 L370,289 L371,288 L372,288 L373,287 L374,287 L376,285 L377,285 L379,283 L379,282 L381,280 L381,279 L382,278 L382,277 L383,276 L383,274 L384,273 L384,269 L382,269 Z" fill="#057df5" fill-rule="evenodd"/>
  <path d="M364,268 L361,271 L358,271 L358,272 L359,272 L360,273 L363,273 L364,272 L365,272 L366,271 L366,270 L367,269 L365,269 Z" fill="#057df5" fill-rule="evenodd"/>
  <path d="M299,229 L298,230 L298,231 L295,234 L295,235 L293,237 L293,238 L291,240 L291,241 L288,244 L288,245 L287,246 L287,247 L286,248 L293,248 L294,247 L295,247 L297,245 L296,244 L296,238 L298,236 L298,235 L299,234 L302,234 L303,233 L306,233 L307,232 L365,232 L366,233 L367,232 L368,233 L370,233 L371,234 L372,234 L376,238 L376,239 L377,240 L377,241 L379,243 L380,243 L381,244 L381,246 L382,247 L381,248 L382,249 L382,251 L383,250 L384,250 L384,246 L383,245 L383,243 L382,242 L382,241 L381,240 L381,239 L380,238 L380,237 L377,234 L376,234 L374,232 L373,232 L372,231 L371,231 L370,230 L367,230 L366,229 Z" fill="#057df5" fill-rule="evenodd"/>
  <path d="M274,223 L273,224 L272,224 L272,228 L273,229 L273,230 L277,234 L277,236 L278,237 L278,238 L276,240 L276,241 L274,243 L273,243 L273,245 L272,246 L272,248 L274,248 L277,245 L277,244 L279,242 L279,241 L281,239 L281,238 L282,237 L282,236 L283,235 L283,234 L282,233 L282,230 L281,229 L279,229 L275,225 L275,223 Z" fill="#057df5" fill-rule="evenodd"/>
  <path d="M306,202 L305,203 L306,204 L307,204 L308,205 L309,205 L310,204 L312,204 L313,203 L310,203 L309,202 Z" fill="#057df5" fill-rule="evenodd"/>
  <path d="M378,199 L375,202 L373,202 L372,203 L371,203 L370,202 L368,202 L367,203 L354,203 L354,204 L353,205 L353,206 L376,206 L376,203 L377,202 L377,201 L378,200 L379,200 L379,199 Z" fill="#057df5" fill-rule="evenodd"/>
  <path d="M264,191 L263,192 L262,192 L260,194 L260,195 L258,197 L258,198 L257,199 L257,200 L256,201 L256,205 L255,206 L255,207 L256,208 L256,223 L255,224 L255,231 L256,232 L256,234 L257,235 L257,236 L258,237 L258,238 L264,244 L265,243 L265,242 L266,241 L265,240 L265,239 L264,238 L264,237 L263,236 L263,235 L262,234 L261,234 L260,233 L259,233 L258,232 L258,222 L259,221 L259,212 L258,211 L258,207 L259,206 L259,203 L260,202 L260,198 L261,197 L260,197 L259,196 L260,195 L261,195 L262,194 L263,195 L264,194 L263,193 L263,192 Z" fill="#057df5" fill-rule="evenodd"/>
  <path d="M299,187 L302,187 L303,188 L306,188 L307,187 L311,187 Z" fill="#057df5" fill-rule="evenodd"/>
  <path d="M272,187 L271,188 L269,188 L269,190 L273,190 L274,189 L275,189 L277,187 L285,187 Z" fill="#057df5" fill-rule="evenodd"/>
  <path d="M267,274 L266,275 L264,275 L263,276 L262,276 L260,278 L256,278 L257,279 L259,279 L260,280 L260,286 L261,287 L274,287 L275,286 L277,286 L278,285 L293,285 L294,284 L295,284 L296,283 L294,283 L293,282 L286,282 L283,279 L283,278 L281,276 L280,276 L279,275 L276,275 L275,274 Z" fill="#057dff" fill-rule="evenodd"/>
  <path d="M307,233 L306,234 L303,234 L302,235 L299,235 L299,236 L297,238 L297,244 L299,244 L300,243 L304,243 L305,244 L315,244 L316,243 L321,243 L322,242 L332,242 L333,243 L337,243 L338,244 L340,244 L341,245 L343,245 L344,244 L347,244 L352,239 L357,239 L358,240 L360,240 L364,244 L364,245 L365,246 L365,247 L368,250 L369,250 L373,254 L370,257 L370,261 L372,263 L372,267 L371,268 L370,268 L369,269 L368,269 L367,270 L367,271 L365,273 L364,273 L363,274 L360,274 L359,273 L358,273 L358,274 L359,275 L359,277 L356,280 L355,279 L354,279 L352,277 L352,276 L350,274 L343,274 L343,278 L344,279 L344,283 L346,285 L348,285 L349,286 L361,286 L362,287 L365,287 L366,286 L369,286 L370,285 L371,285 L375,281 L375,280 L378,277 L379,277 L380,276 L380,268 L379,267 L379,266 L377,264 L377,262 L376,261 L376,259 L375,258 L375,257 L373,255 L373,254 L374,253 L378,253 L379,252 L380,252 L381,251 L381,249 L380,248 L381,247 L380,246 L380,244 L379,244 L376,241 L376,240 L375,239 L375,238 L372,235 L371,235 L370,234 L368,234 L367,233 L366,234 L365,233 Z" fill="#057dff" fill-rule="evenodd"/>
  <path d="M261,199 L261,202 L260,203 L260,206 L259,207 L259,211 L260,212 L260,221 L259,222 L259,232 L260,232 L261,233 L262,233 L264,235 L264,236 L265,237 L265,238 L266,239 L266,240 L267,241 L268,240 L269,240 L270,239 L273,239 L274,240 L274,242 L275,241 L275,240 L277,238 L277,237 L276,236 L276,234 L272,230 L272,229 L271,228 L271,224 L272,223 L270,223 L269,222 L268,222 L265,219 L265,214 L266,213 L266,211 L267,210 L267,209 L266,208 L266,207 L264,205 L264,204 L263,203 L263,201 Z" fill="#057dff" fill-rule="evenodd"/>
  <path d="M352,187 L352,188 L353,189 L353,190 L354,191 L354,192 L355,193 L355,194 L356,195 L356,199 L355,200 L355,201 L354,202 L367,202 L368,201 L370,201 L371,202 L372,202 L373,201 L375,201 L376,200 L375,200 L374,201 L368,201 L366,199 L366,195 L367,194 L368,194 L369,193 L371,193 L371,192 L367,192 L365,190 L365,188 L364,187 Z" fill="#057dff" fill-rule="evenodd"/>
  <path d="M286,187 L285,188 L277,188 L275,190 L274,190 L273,191 L270,191 L270,192 L273,195 L275,195 L279,199 L282,199 L283,200 L284,199 L294,199 L295,200 L299,200 L300,201 L302,201 L303,202 L305,202 L306,201 L309,201 L310,202 L314,202 L314,193 L315,192 L315,188 L314,187 L312,187 L311,188 L307,188 L306,189 L303,189 L302,188 L299,188 L298,187 Z" fill="#057dff" fill-rule="evenodd"/>
  <path d="M250,367 L251,368 L251,367 Z" fill="#0587d7" fill-rule="evenodd"/>
  <path d="M274,366 L274,367 L273,368 L274,367 Z" fill="#0587d7" fill-rule="evenodd"/>
  <path d="M278,361 L279,362 L279,365 L280,366 L282,366 L280,366 L279,365 L279,362 Z" fill="#0587d7" fill-rule="evenodd"/>
  <path d="M277,359 L275,361 L275,363 L275,361 L277,359 L278,359 Z" fill="#0587d7" fill-rule="evenodd"/>
  <path d="M270,359 L271,360 L271,362 L272,363 L272,365 L272,363 L271,362 L271,360 Z" fill="#0587d7" fill-rule="evenodd"/>
  <path d="M269,389 L269,390 L275,390 L270,390 Z" fill="#0587e1" fill-rule="evenodd"/>
  <path d="M334,388 L333,389 L333,390 L335,388 Z" fill="#0587e1" fill-rule="evenodd"/>
  <path d="M173,387 L173,389 L174,389 L174,387 Z" fill="#0587e1" fill-rule="evenodd"/>
  <path d="M333,385 L334,386 L335,386 L334,385 Z" fill="#0587e1" fill-rule="evenodd"/>
  <path d="M243,382 L244,383 L244,384 L245,385 L245,386 L247,388 L247,389 L248,390 L249,390 L249,388 L248,387 L248,383 L248,386 L247,387 L245,385 L245,384 Z" fill="#0587e1" fill-rule="evenodd"/>
  <path d="M299,379 L299,382 L299,381 L300,380 L301,381 L301,382 L303,384 L303,385 L303,384 L301,382 L301,381 Z" fill="#0587e1" fill-rule="evenodd"/>
  <path d="M207,379 L207,380 L206,381 L206,382 L208,384 L211,384 L214,387 L214,388 L214,386 L213,385 L212,385 L211,384 L209,384 L207,382 L207,380 L208,379 L212,379 L213,380 L214,380 L213,379 Z" fill="#0587e1" fill-rule="evenodd"/>
  <path d="M188,379 L188,390 L195,390 L189,390 L188,389 Z" fill="#0587e1" fill-rule="evenodd"/>
  <path d="M250,364 L250,366 L251,366 L251,365 Z" fill="#0587e1" fill-rule="evenodd"/>
  <path d="M322,363 L321,364 L322,365 L321,364 Z" fill="#0587e1" fill-rule="evenodd"/>
  <path d="M167,359 L167,360 L168,359 Z" fill="#0587e1" fill-rule="evenodd"/>
  <path d="M173,358 L173,360 L174,361 L174,359 Z" fill="#0587e1" fill-rule="evenodd"/>
  <path d="M289,357 L289,361 L290,360 L290,357 Z" fill="#0587e1" fill-rule="evenodd"/>
  <path d="M243,357 L243,358 L244,359 L244,360 L244,358 Z" fill="#0587e1" fill-rule="evenodd"/>
  <path d="M224,357 L224,363 L225,363 L224,362 L224,359 L225,358 L225,357 Z" fill="#0587e1" fill-rule="evenodd"/>
  <path d="M313,386 L313,390 L314,389 L314,386 Z" fill="#0587eb" fill-rule="evenodd"/>
  <path d="M327,380 L327,382 L328,383 L327,382 Z" fill="#0587eb" fill-rule="evenodd"/>
  <path d="M313,380 L314,381 L314,380 Z" fill="#0587eb" fill-rule="evenodd"/>
  <path d="M227,379 L226,380 L226,384 L227,384 Z" fill="#0587eb" fill-rule="evenodd"/>
  <path d="M173,379 L173,386 L174,386 L174,385 L175,384 L180,384 L181,385 L181,390 L182,390 L182,384 L181,383 L181,382 L181,383 L180,384 L175,384 L174,383 L174,379 Z" fill="#0587eb" fill-rule="evenodd"/>
  <path d="M316,364 L316,368 L317,368 L317,364 Z" fill="#0587eb" fill-rule="evenodd"/>
  <path d="M173,357 L174,358 L174,357 Z" fill="#0587eb" fill-rule="evenodd"/>
  <path d="M313,381 L313,385 L314,385 L314,382 Z" fill="#0587f5" fill-rule="evenodd"/>
  <path d="M316,360 L316,363 L318,363 L317,362 L317,360 Z" fill="#0587f5" fill-rule="evenodd"/>
  <path d="M389,329 L388,330 L389,331 L389,332 L390,332 L391,333 L392,332 L392,330 L390,330 Z" fill="#0587f5" fill-rule="evenodd"/>
  <path d="M368,321 L368,322 L369,323 L370,323 L371,324 L372,324 L372,323 L373,322 L373,321 L372,321 L371,322 L370,322 L369,323 L368,322 Z" fill="#0587f5" fill-rule="evenodd"/>
  <path d="M337,315 L338,316 L339,316 L338,316 Z" fill="#0587f5" fill-rule="evenodd"/>
  <path d="M342,311 L342,314 L345,314 L344,313 L345,312 L345,311 Z" fill="#0587f5" fill-rule="evenodd"/>
  <path d="M272,288 L271,289 L267,289 L266,290 L262,290 L261,289 L260,289 L259,290 L363,290 L363,288 L341,288 L340,289 L336,289 L335,290 L326,290 L325,289 L322,289 L321,288 Z" fill="#0587f5" fill-rule="evenodd"/>
  <path d="M349,271 L351,273 L353,273 L354,272 L357,272 L357,271 Z" fill="#0587f5" fill-rule="evenodd"/>
  <path d="M269,271 L270,271 L271,272 L273,272 L274,273 L288,273 L289,274 L297,274 L298,273 L342,273 L343,272 L343,271 Z" fill="#0587f5" fill-rule="evenodd"/>
  <path d="M384,261 L384,262 L381,265 L381,267 L382,268 L384,268 Z" fill="#0587f5" fill-rule="evenodd"/>
  <path d="M383,251 L382,252 L382,253 L384,255 L384,256 L384,251 Z" fill="#0587f5" fill-rule="evenodd"/>
  <path d="M364,248 L363,249 L362,249 L364,251 L364,252 L365,253 L365,266 L364,267 L365,268 L366,268 L367,267 L367,265 L366,264 L368,262 L368,261 L369,260 L369,256 L368,255 L368,252 L367,251 L367,250 L366,249 L365,249 Z" fill="#0587f5" fill-rule="evenodd"/>
  <path d="M297,246 L295,248 L294,248 L352,248 L351,248 L350,247 L347,247 L346,246 L343,246 L342,247 L338,247 L337,248 L315,248 L314,247 L307,247 L306,246 Z" fill="#0587f5" fill-rule="evenodd"/>
  <path d="M266,242 L266,243 L265,244 L265,245 L266,245 L267,246 L268,246 L269,247 L271,247 L271,246 L272,245 L272,243 L271,244 L270,244 L269,243 L268,243 L267,242 Z" fill="#0587f5" fill-rule="evenodd"/>
  <path d="M275,219 L275,220 L273,222 L273,223 L274,222 L275,222 Z" fill="#0587f5" fill-rule="evenodd"/>
  <path d="M283,203 L282,204 L281,204 L280,205 L279,205 L279,206 L276,209 L279,206 L352,206 L352,205 L353,204 L353,203 L314,203 L312,205 L310,205 L309,206 L308,206 L307,205 L306,205 L304,203 Z" fill="#0587f5" fill-rule="evenodd"/>
  <path d="M379,196 L379,197 L378,198 L379,198 L380,199 L380,200 L379,201 L378,201 L378,202 L377,203 L377,206 L382,206 L382,196 Z" fill="#0587f5" fill-rule="evenodd"/>
  <path d="M262,195 L261,196 L260,196 L262,196 Z" fill="#0587f5" fill-rule="evenodd"/>
  <path d="M267,189 L266,190 L265,190 L265,191 L264,192 L264,193 L265,193 L267,191 L268,191 L268,189 Z" fill="#0587f5" fill-rule="evenodd"/>
  <path d="M369,187 L374,187 L376,189 L376,188 L377,187 Z" fill="#0587f5" fill-rule="evenodd"/>
  <path d="M256,279 L256,290 L258,290 L260,288 L260,287 L259,286 L259,280 L257,280 Z" fill="#0587ff" fill-rule="evenodd"/>
  <path d="M276,274 L279,274 L280,275 L281,275 L284,278 L284,279 L286,281 L293,281 L294,282 L296,282 L297,283 L295,285 L294,285 L293,286 L278,286 L277,287 L275,287 L321,287 L322,288 L325,288 L326,289 L335,289 L336,288 L340,288 L341,287 L361,287 L349,287 L348,286 L346,286 L343,283 L343,279 L342,278 L342,274 L298,274 L297,275 L289,275 L288,274 Z" fill="#0587ff" fill-rule="evenodd"/>
  <path d="M354,273 L353,274 L351,274 L353,276 L353,277 L354,278 L355,278 L356,279 L358,277 L358,275 L357,274 L357,273 Z" fill="#0587ff" fill-rule="evenodd"/>
  <path d="M369,261 L369,262 L367,264 L368,265 L368,267 L367,268 L369,268 L370,267 L371,267 L371,263 Z" fill="#0587ff" fill-rule="evenodd"/>
  <path d="M381,252 L380,253 L379,253 L378,254 L374,254 L374,255 L376,257 L376,258 L377,259 L377,261 L378,262 L378,264 L380,266 L380,267 L380,265 L383,262 L383,261 L384,260 L384,257 L383,256 L383,255 L381,253 Z" fill="#0587ff" fill-rule="evenodd"/>
  <path d="M368,251 L369,252 L369,255 L370,256 L372,254 L369,251 Z" fill="#0587ff" fill-rule="evenodd"/>
  <path d="M322,243 L321,244 L316,244 L315,245 L305,245 L304,244 L300,244 L299,245 L298,245 L306,245 L307,246 L314,246 L315,247 L337,247 L338,246 L342,246 L341,246 L340,245 L338,245 L337,244 L333,244 L332,243 Z" fill="#0587ff" fill-rule="evenodd"/>
  <path d="M352,240 L347,245 L344,245 L346,245 L347,246 L350,246 L351,247 L352,247 L353,248 L355,248 L356,247 L357,247 L358,248 L363,248 L364,247 L365,248 L364,247 L364,246 L363,245 L363,244 L360,241 L358,241 L357,240 Z" fill="#0587ff" fill-rule="evenodd"/>
  <path d="M270,240 L269,241 L268,241 L268,242 L269,242 L270,243 L271,243 L272,242 L273,242 L273,240 Z" fill="#0587ff" fill-rule="evenodd"/>
  <path d="M269,191 L268,192 L267,192 L261,198 L264,201 L264,203 L265,204 L265,205 L267,207 L267,208 L268,209 L268,210 L267,211 L267,213 L266,214 L266,219 L268,221 L269,221 L270,222 L272,222 L274,220 L274,219 L275,218 L274,217 L274,211 L275,210 L275,209 L278,206 L278,205 L279,204 L280,204 L281,203 L282,203 L283,202 L302,202 L300,202 L299,201 L295,201 L294,200 L284,200 L283,201 L282,200 L279,200 L275,196 L273,196 L269,192 Z" fill="#0587ff" fill-rule="evenodd"/>
  <path d="M365,187 L366,188 L366,190 L367,191 L371,191 L372,192 L372,193 L371,194 L369,194 L368,195 L367,195 L367,199 L368,200 L374,200 L375,199 L377,199 L377,198 L378,197 L378,195 L376,193 L376,190 L374,188 L369,188 L368,187 Z" fill="#0587ff" fill-rule="evenodd"/>
  <path d="M315,187 L316,188 L316,192 L315,193 L315,202 L353,202 L354,201 L354,200 L355,199 L355,195 L354,194 L354,193 L353,192 L353,191 L352,190 L352,189 L351,188 L351,187 L344,187 L343,188 L321,188 L320,187 L319,188 L317,188 L316,187 Z" fill="#0587ff" fill-rule="evenodd"/>
  <path d="M276,357 L276,358 L277,358 Z" fill="#0591e1" fill-rule="evenodd"/>
  <path d="M327,388 L327,389 L328,389 L329,390 Z" fill="#0591eb" fill-rule="evenodd"/>
  <path d="M206,388 L208,390 L212,390 L213,389 L212,390 L209,390 L207,388 Z" fill="#0591eb" fill-rule="evenodd"/>
  <path d="M304,386 L305,387 L305,388 L306,388 Z" fill="#0591eb" fill-rule="evenodd"/>
  <path d="M226,385 L226,388 L227,389 L227,387 L226,386 L227,385 Z" fill="#0591eb" fill-rule="evenodd"/>
  <path d="M287,379 L287,390 L292,390 L288,390 L287,389 L287,380 L288,379 Z" fill="#0591eb" fill-rule="evenodd"/>
  <path d="M236,366 L238,368 L240,368 L239,368 L237,366 Z" fill="#0591eb" fill-rule="evenodd"/>
  <path d="M250,359 L250,363 L251,364 L252,363 L254,363 L255,364 L254,363 L252,363 L251,362 L251,360 Z" fill="#0591eb" fill-rule="evenodd"/>
  <path d="M316,357 L316,359 L317,359 L317,358 L318,357 L322,357 L324,359 L324,360 L324,358 L323,357 Z" fill="#0591eb" fill-rule="evenodd"/>
  <path d="M250,357 L250,358 L251,359 L251,357 Z" fill="#0591f5" fill-rule="evenodd"/>
  <path d="M307,385 L307,388 L306,389 L307,390 Z" fill="#059beb" fill-rule="evenodd"/>
  <path d="M164,379 L164,383 L164,380 L165,379 L168,379 Z" fill="#059bf5" fill-rule="evenodd"/>
  <path d="M257,362 L256,363 L255,363 L256,364 L256,365 L256,363 Z" fill="#059bf5" fill-rule="evenodd"/>
  <path d="M330,357 L330,358 L331,357 L333,357 Z" fill="#059bf5" fill-rule="evenodd"/>
  <path d="M252,357 L256,357 L258,359 L258,360 L258,358 L257,357 Z" fill="#059bf5" fill-rule="evenodd"/>
  <path d="M160,357 L160,359 L160,358 L161,357 L164,357 Z" fill="#059bf5" fill-rule="evenodd"/>
  <path d="M299,326 L300,327 L301,326 Z" fill="#0f0f0f" fill-rule="evenodd"/>
  <path d="M256,325 L257,326 L257,327 L258,328 L258,329 L260,331 L260,332 L261,331 L262,331 L261,330 L261,325 L258,325 L257,326 Z" fill="#0f0f0f" fill-rule="evenodd"/>
  <path d="M207,325 L206,326 L204,326 L204,328 L215,328 L216,329 L220,329 L220,326 L218,326 L217,325 Z" fill="#0f0f0f" fill-rule="evenodd"/>
  <path d="M227,324 L227,327 L228,328 L227,329 L227,330 L228,331 L229,331 L229,330 L228,330 L227,329 L229,327 L231,327 L232,326 L232,325 L230,325 L229,324 Z" fill="#0f0f0f" fill-rule="evenodd"/>
  <path d="M244,317 L244,318 L242,320 L242,321 L241,322 L241,323 L240,324 L240,325 L241,326 L242,326 L243,325 L246,325 L247,324 L248,325 L248,324 L247,323 L247,321 L245,319 L245,318 Z" fill="#0f0f0f" fill-rule="evenodd"/>
  <path d="M218,316 L218,319 L220,319 L220,316 Z" fill="#0f0f0f" fill-rule="evenodd"/>
  <path d="M177,316 L177,317 L178,318 L178,320 L178,316 Z" fill="#0f0f0f" fill-rule="evenodd"/>
  <path d="M227,328 L228,329 L230,329 L231,328 L229,328 L228,329 Z" fill="#0f0f19" fill-rule="evenodd"/>
  <path d="M209,316 L208,317 L208,319 L217,319 L217,316 Z" fill="#0f0f19" fill-rule="evenodd"/>
  <path d="M195,311 L195,312 L196,312 Z" fill="#0f0f19" fill-rule="evenodd"/>
  <path d="M334,362 L333,363 L334,362 L335,363 L336,362 Z" fill="#0f73c3" fill-rule="evenodd"/>
  <path d="M374,321 L374,323 L375,324 L380,324 L380,322 L379,321 Z" fill="#0f7df5" fill-rule="evenodd"/>
  <path d="M370,311 L369,312 L371,314 L374,314 L374,311 Z" fill="#0f7df5" fill-rule="evenodd"/>
  <path d="M237,357 L236,358 L237,359 L236,358 Z" fill="#0f87d7" fill-rule="evenodd"/>
  <path d="M384,331 L384,334 L389,334 L390,333 L389,333 L388,332 L388,331 Z" fill="#0f87f5" fill-rule="evenodd"/>
  <path d="M373,323 L373,324 L374,324 Z" fill="#0f87f5" fill-rule="evenodd"/>
  <path d="M386,311 L386,314 L390,314 L390,311 Z" fill="#0f87f5" fill-rule="evenodd"/>
  <path d="M338,311 L336,313 L336,314 L337,314 L338,315 L340,315 L341,314 L341,311 Z" fill="#0f87f5" fill-rule="evenodd"/>
  <path d="M378,187 L377,188 L377,189 L379,191 L379,195 L382,195 L382,187 Z" fill="#0f87f5" fill-rule="evenodd"/>
  <path d="M377,190 L377,193 L378,194 L378,191 Z" fill="#0f87ff" fill-rule="evenodd"/>
  <path d="M237,358 L236,359 L236,360 L236,359 Z" fill="#0f91e1" fill-rule="evenodd"/>
  <path d="M332,379 L333,379 L334,380 L333,379 Z" fill="#0f91eb" fill-rule="evenodd"/>
  <path d="M320,380 L321,381 L321,380 Z" fill="#0f9beb" fill-rule="evenodd"/>
  <path d="M195,357 L195,368 L197,368 L196,368 L195,367 Z" fill="#0fa5f5" fill-rule="evenodd"/>
  <path d="M285,330 L288,330 L289,331 L289,332 L289,331 L288,330 Z" fill="#5f6969" fill-rule="evenodd"/>
  <path d="M245,326 L244,327 L243,327 L244,327 L245,328 L246,328 L246,326 Z" fill="#d7d7d7" fill-rule="evenodd"/>
  <path d="M248,327 L248,328 L249,328 Z" fill="#d7e1e1" fill-rule="evenodd"/>
  <path d="M104,328 L104,331 L107,334 L127,334 L128,333 L128,332 L126,330 L125,331 L109,331 L107,329 L107,328 Z" fill="#f5f5f5" fill-rule="evenodd"/>
  <path d="M265,327 L264,328 L263,328 L263,331 L265,333 L266,333 L267,334 L288,334 L288,331 L269,331 L266,328 L266,327 Z" fill="#f5f5f5" fill-rule="evenodd"/>
  <path d="M137,318 L137,331 L139,333 L140,333 L141,334 L159,334 L160,333 L161,333 L162,332 L161,332 L159,330 L158,331 L142,331 L140,329 L140,319 L139,318 Z" fill="#f5f5f5" fill-rule="evenodd"/>
  <path d="M294,311 L294,334 L297,334 L297,325 L298,324 L304,324 L305,325 L306,325 L315,334 L317,334 L317,332 L308,323 L308,322 L319,311 L315,311 L313,313 L312,313 L304,321 L298,321 L297,320 L297,311 Z" fill="#f5f5f5" fill-rule="evenodd"/>
  <path d="M267,311 L266,312 L265,312 L263,314 L263,318 L266,318 L266,317 L269,314 L288,314 L288,311 Z" fill="#f5f5f5" fill-rule="evenodd"/>
  <path d="M242,311 L241,312 L241,313 L239,315 L239,316 L238,317 L238,318 L237,319 L237,320 L236,321 L236,322 L234,324 L234,325 L233,326 L233,327 L232,328 L232,329 L231,330 L231,331 L230,332 L230,333 L229,334 L233,334 L233,333 L234,332 L234,331 L236,329 L236,328 L238,326 L238,325 L239,324 L239,323 L240,322 L240,321 L241,320 L241,319 L242,318 L242,317 L244,315 L245,315 L246,316 L246,317 L247,318 L247,319 L248,320 L248,321 L249,322 L249,323 L250,324 L250,325 L251,326 L251,328 L255,332 L255,333 L256,334 L260,334 L258,332 L258,331 L257,330 L257,329 L256,328 L256,327 L255,326 L255,325 L253,323 L253,322 L252,321 L252,320 L251,319 L251,318 L249,316 L249,315 L248,314 L248,313 L246,311 Z" fill="#f5f5f5" fill-rule="evenodd"/>
  <path d="M199,311 L199,334 L222,334 L223,333 L224,333 L225,332 L225,324 L223,322 L225,320 L225,314 L222,311 Z M202,325 L203,324 L220,324 L222,326 L222,329 L220,331 L203,331 L202,330 Z M202,315 L203,314 L220,314 L222,316 L222,319 L220,321 L203,321 L202,320 Z" fill="#f5f5f5" fill-rule="evenodd"/>
  <path d="M169,311 L169,314 L178,314 L179,315 L179,334 L182,334 L182,316 L184,314 L194,314 L194,311 Z" fill="#f5f5f5" fill-rule="evenodd"/>
  <path d="M108,311 L107,312 L106,312 L104,314 L104,318 L107,318 L107,317 L110,314 L125,314 L128,317 L128,322 L131,322 L131,315 L130,314 L130,313 L129,312 L128,312 L127,311 Z" fill="#f5f5f5" fill-rule="evenodd"/>
  <path d="M129,289 L128,290 L126,290 L144,290 L137,290 L136,289 Z" fill="#f5f5f5" fill-rule="evenodd"/>
  <path d="M113,284 L113,285 L115,287 L116,287 L117,288 L118,288 L115,285 L114,285 Z" fill="#f5f5f5" fill-rule="evenodd"/>
  <path d="M234,277 L233,278 L231,278 L230,279 L229,279 L228,280 L228,281 L226,283 L226,284 L222,288 L220,288 L219,289 L215,289 L214,290 L210,290 L218,290 L219,289 L222,289 L223,288 L224,288 L225,287 L226,287 L228,285 L229,285 L231,283 L231,282 L233,280 L233,279 L234,278 Z" fill="#f5f5f5" fill-rule="evenodd"/>
  <path d="M105,273 L106,274 L106,276 L107,277 L107,278 L108,279 L108,280 L108,277 L107,276 L107,275 Z" fill="#f5f5f5" fill-rule="evenodd"/>
  <path d="M123,233 L123,236 L122,237 L122,247 L123,248 L123,254 L124,255 L124,233 Z" fill="#f5f5f5" fill-rule="evenodd"/>
  <path d="M124,217 L123,218 L123,229 L124,230 L124,231 Z" fill="#f5f5f5" fill-rule="evenodd"/>
  <path d="M133,203 L130,206 L212,206 L211,205 L211,204 L210,204 L209,203 Z" fill="#f5f5f5" fill-rule="evenodd"/>
  <path d="M108,198 L107,199 L107,201 L106,202 L106,203 L105,204 L106,203 L107,203 L108,202 Z" fill="#f5f5f5" fill-rule="evenodd"/>
  <path d="M226,190 L226,194 L227,195 L227,196 L228,197 L228,198 L229,199 L230,199 L232,201 L232,202 L233,202 L234,203 L236,203 L235,202 L235,200 L234,199 L234,198 L232,196 L232,195 L229,192 L228,192 Z" fill="#f5f5f5" fill-rule="evenodd"/>
  <path d="M160,311 L160,312 L162,314 L163,313 L163,312 L162,312 L161,311 Z" fill="#f5f5ff" fill-rule="evenodd"/>
  <path d="M108,276 L109,277 L109,278 L109,277 Z" fill="#f5f5ff" fill-rule="evenodd"/>
  <path d="M226,195 L226,196 L227,197 L226,196 Z" fill="#f5f5ff" fill-rule="evenodd"/>
  <path d="M216,268 L216,269 L215,270 L214,270 L217,270 L216,269 Z" fill="#f5ffff" fill-rule="evenodd"/>
  <path d="M123,230 L123,231 L122,232 L122,236 L122,233 L123,232 L124,232 L123,231 Z" fill="#fff5f5" fill-rule="evenodd"/>
  <path d="M236,260 L235,261 L235,263 L236,264 Z" fill="#fffff5" fill-rule="evenodd"/>
  <path d="M128,324 L128,329 L127,330 L128,330 L130,332 L129,333 L130,332 L130,331 L131,330 L131,324 Z" fill="#ffffff" fill-rule="evenodd"/>
  <path d="M263,319 L263,326 L266,326 L266,319 Z" fill="#ffffff" fill-rule="evenodd"/>
  <path d="M104,319 L104,326 L107,326 L107,320 L106,320 L105,319 Z" fill="#ffffff" fill-rule="evenodd"/>
  <path d="M160,313 L160,330 L161,330 L162,331 L163,331 L163,314 L162,315 Z" fill="#ffffff" fill-rule="evenodd"/>
  <path d="M137,311 L137,317 L140,317 L140,311 Z" fill="#ffffff" fill-rule="evenodd"/>
  <path d="M123,187 L122,188 L120,188 L119,189 L118,189 L117,190 L116,190 L113,193 L112,193 L111,194 L111,195 L110,196 L111,197 L110,198 L110,201 L105,206 L105,272 L106,273 L107,273 L109,275 L109,276 L110,277 L110,282 L112,284 L113,283 L114,284 L115,284 L120,289 L122,289 L123,290 L125,290 L126,289 L128,289 L129,288 L131,288 L132,287 L135,287 L136,288 L139,288 L140,289 L175,289 L176,288 L178,288 L179,289 L187,289 L188,288 L191,288 L192,289 L193,288 L198,288 L199,289 L213,289 L214,288 L218,288 L219,287 L221,287 L222,286 L223,286 L224,285 L224,284 L225,283 L225,282 L226,281 L226,280 L229,277 L230,277 L231,276 L232,276 L233,275 L234,276 L236,274 L236,265 L234,263 L234,261 L236,259 L236,204 L234,204 L233,203 L232,203 L229,200 L228,200 L226,198 L226,197 L225,196 L225,193 L224,192 L225,191 L224,190 L224,189 L223,189 L222,188 L220,188 L219,187 Z M133,202 L209,202 L210,203 L211,203 L212,204 L212,205 L216,209 L216,210 L217,211 L217,266 L216,267 L217,268 L217,269 L218,270 L217,271 L198,271 L197,272 L196,272 L195,271 L176,271 L175,272 L167,272 L166,271 L154,271 L153,272 L147,272 L146,271 L129,271 L128,270 L127,270 L125,268 L125,267 L124,266 L124,257 L122,255 L122,253 L121,252 L121,226 L122,225 L122,216 L123,215 L124,215 L124,211 L125,210 L125,209 L127,207 L128,207 Z" fill="#ffffff" fill-rule="evenodd"/>
  <path d="M329,378 L328,379 L327,379 L327,380 L326,381 L326,383 L328,385 L329,385 L330,386 L333,386 L334,387 L334,388 L333,389 L330,389 L328,387 L327,387 L326,388 L326,389 L327,390 L327,391 L335,391 L336,390 L336,385 L335,384 L331,384 L329,382 L329,381 L330,380 L332,380 L334,382 L336,382 L336,380 L334,378 Z" fill="#0579cd" fill-rule="evenodd"/>
  <path d="M313,378 L313,391 L321,391 L323,389 L323,381 L320,378 Z M315,381 L316,380 L318,380 L321,383 L321,387 L319,389 L316,389 L315,388 Z" fill="#0579cd" fill-rule="evenodd"/>
  <path d="M299,378 L298,379 L298,391 L301,391 L301,390 L300,389 L300,384 L301,383 L302,384 L302,385 L303,386 L303,387 L305,389 L305,390 L306,391 L308,391 L309,390 L309,387 L308,386 L308,378 L307,378 L306,379 L306,384 L305,385 L304,384 L304,383 L302,381 L302,380 L300,378 Z" fill="#0579cd" fill-rule="evenodd"/>
  <path d="M286,378 L286,391 L295,391 L295,390 L294,389 L289,389 L288,388 L288,387 L290,385 L294,385 L294,384 L289,384 L288,383 L288,382 L290,380 L294,380 L294,378 Z" fill="#0579cd" fill-rule="evenodd"/>
  <path d="M269,378 L268,379 L268,391 L276,391 L276,389 L271,389 L270,388 L270,378 Z" fill="#0579cd" fill-rule="evenodd"/>
  <path d="M258,378 L257,379 L257,381 L256,382 L256,384 L255,385 L255,386 L254,387 L254,389 L253,390 L253,391 L255,391 L256,390 L256,389 L257,388 L260,388 L262,390 L262,391 L265,391 L265,390 L264,389 L264,387 L263,386 L263,384 L262,383 L262,382 L261,381 L261,379 L260,378 Z M258,383 L259,382 L260,383 L260,384 L261,385 L260,386 L259,386 L258,385 Z" fill="#0579cd" fill-rule="evenodd"/>
  <path d="M240,378 L240,391 L242,391 L242,385 L243,384 L244,385 L244,386 L246,388 L246,389 L248,391 L250,391 L250,379 L249,378 L248,378 L248,384 L247,385 L245,383 L245,382 L243,380 L243,379 L242,378 Z" fill="#0579cd" fill-rule="evenodd"/>
  <path d="M229,378 L228,379 L227,379 L226,380 L226,390 L227,391 L234,391 L236,389 L236,385 L235,385 L234,384 L231,384 L230,385 L230,386 L233,386 L234,387 L232,389 L229,389 L228,388 L228,382 L230,380 L232,380 L234,382 L236,382 L236,381 L235,380 L235,379 L234,379 L233,378 Z" fill="#0579cd" fill-rule="evenodd"/>
  <path d="M220,378 L219,379 L219,391 L222,391 L222,379 L221,378 Z" fill="#0579cd" fill-rule="evenodd"/>
  <path d="M208,378 L206,380 L206,384 L207,385 L209,385 L210,386 L212,386 L213,387 L213,388 L212,389 L209,389 L208,388 L208,387 L206,387 L206,390 L207,391 L214,391 L215,390 L215,385 L214,385 L213,384 L211,384 L210,383 L209,383 L208,382 L210,380 L211,380 L213,382 L215,382 L215,379 L214,379 L213,378 Z" fill="#0579cd" fill-rule="evenodd"/>
  <path d="M188,378 L187,379 L187,391 L196,391 L196,389 L191,389 L190,388 L190,386 L191,385 L195,385 L195,384 L191,384 L190,383 L190,381 L191,380 L196,380 L196,379 L195,378 L193,378 L192,379 L191,378 Z" fill="#0579cd" fill-rule="evenodd"/>
  <path d="M173,378 L173,391 L175,391 L175,387 L177,385 L179,385 L181,387 L181,391 L183,391 L183,378 L181,378 L181,383 L180,384 L177,384 L175,382 L175,378 Z" fill="#0579cd" fill-rule="evenodd"/>
  <path d="M160,378 L160,380 L162,380 L163,381 L163,382 L164,383 L164,391 L166,391 L166,381 L167,380 L169,380 L169,378 Z" fill="#0579cd" fill-rule="evenodd"/>
  <path d="M330,356 L329,357 L329,369 L338,369 L338,368 L337,367 L332,367 L331,366 L331,365 L332,364 L337,364 L337,362 L332,362 L331,361 L331,360 L333,358 L338,358 L338,357 L337,356 Z" fill="#0579cd" fill-rule="evenodd"/>
  <path d="M316,356 L316,369 L318,369 L318,365 L319,364 L323,368 L323,369 L325,369 L325,367 L324,366 L324,364 L325,363 L325,358 L323,356 Z M318,359 L319,358 L321,358 L323,360 L323,361 L321,363 L319,363 L318,362 Z" fill="#0579cd" fill-rule="evenodd"/>
  <path d="M304,356 L303,357 L303,369 L312,369 L312,367 L307,367 L306,366 L306,365 L307,364 L311,364 L311,362 L307,362 L306,361 L306,359 L307,358 L312,358 L312,357 L311,356 Z" fill="#0579cd" fill-rule="evenodd"/>
  <path d="M289,356 L289,369 L291,369 L291,365 L292,364 L296,364 L297,365 L297,369 L299,369 L299,356 L297,356 L297,361 L296,362 L292,362 L291,361 L291,356 Z" fill="#0579cd" fill-rule="evenodd"/>
  <path d="M270,356 L269,357 L269,358 L270,359 L270,361 L271,362 L271,365 L272,366 L272,369 L275,369 L275,367 L276,366 L276,363 L277,362 L278,363 L278,364 L279,365 L279,368 L280,369 L282,369 L283,368 L283,365 L284,364 L284,361 L285,360 L285,356 L284,356 L283,357 L283,359 L282,360 L282,363 L281,364 L280,363 L280,361 L279,360 L279,357 L278,356 L277,356 L276,357 L276,358 L275,359 L275,363 L274,364 L273,363 L273,362 L272,361 L272,358 L271,357 L271,356 Z" fill="#0579cd" fill-rule="evenodd"/>
  <path d="M250,356 L250,369 L252,369 L252,366 L254,364 L256,366 L256,367 L257,368 L257,369 L259,369 L259,367 L258,366 L258,364 L259,363 L259,362 L260,361 L260,360 L259,359 L259,357 L258,357 L257,356 Z M254,358 L255,358 L257,360 L257,361 L255,363 L253,363 L252,362 L252,360 Z" fill="#0579cd" fill-rule="evenodd"/>
  <path d="M239,356 L238,357 L237,357 L236,358 L236,363 L235,364 L235,366 L236,367 L236,368 L237,369 L244,369 L246,367 L246,359 L245,358 L245,357 L244,357 L243,356 Z M240,358 L241,358 L244,361 L244,365 L241,368 L240,367 L239,367 L238,366 L238,364 L237,363 L237,362 L238,361 L238,360 Z" fill="#0579cd" fill-rule="evenodd"/>
  <path d="M224,356 L224,369 L226,369 L226,365 L227,364 L231,364 L231,362 L227,362 L226,361 L226,359 L227,358 L232,358 L232,356 Z" fill="#0579cd" fill-rule="evenodd"/>
  <path d="M204,356 L204,358 L206,358 L207,359 L207,364 L208,365 L208,369 L209,369 L209,360 L211,358 L214,358 L214,357 L213,356 Z" fill="#0579cd" fill-rule="evenodd"/>
  <path d="M195,356 L194,357 L194,369 L202,369 L202,367 L197,367 L196,366 L196,356 Z" fill="#0579cd" fill-rule="evenodd"/>
  <path d="M188,356 L187,357 L187,358 L188,359 L188,364 L187,365 L187,369 L190,369 L190,361 L189,360 L189,356 Z" fill="#0579cd" fill-rule="evenodd"/>
  <path d="M173,356 L173,367 L175,369 L181,369 L183,367 L183,357 L182,356 L181,356 L181,366 L180,367 L176,367 L175,366 L175,356 Z" fill="#0579cd" fill-rule="evenodd"/>
  <path d="M160,356 L159,357 L159,365 L160,366 L159,367 L159,369 L168,369 L169,368 L169,364 L168,363 L168,362 L169,361 L169,358 L168,357 L163,357 L162,356 Z M162,365 L163,364 L166,364 L167,365 L167,366 L166,367 L164,367 L163,368 L162,367 Z M162,359 L163,358 L165,358 L167,360 L165,362 L163,362 L162,361 Z" fill="#0579cd" fill-rule="evenodd"/>
</svg>
