<?xml version="1.0" encoding="UTF-8"?>
<svg xmlns="http://www.w3.org/2000/svg" width="492" height="461">
  <rect x="338" y="311" width="1" height="1" fill="#0656be"/>
  <rect x="339" y="311" width="1" height="1" fill="#0583f9"/>
  <rect x="340" y="311" width="1" height="1" fill="#0492ff"/>
  <rect x="341" y="311" width="1" height="1" fill="#0594ff"/>
  <rect x="342" y="311" width="1" height="1" fill="#058efe"/>
  <rect x="343" y="311" width="1" height="1" fill="#058bfd"/>
  <rect x="344" y="311" width="1" height="1" fill="#0587fb"/>
  <rect x="345" y="311" width="1" height="1" fill="#0687f9"/>
  <rect x="346" y="311" width="1" height="1" fill="#0587f6"/>
  <rect x="347" y="311" width="1" height="1" fill="#0685f4"/>
  <rect x="348" y="311" width="1" height="1" fill="#0685f2"/>
  <rect x="349" y="311" width="1" height="1" fill="#0783f0"/>
  <rect x="350" y="311" width="1" height="1" fill="#0882ee"/>
  <rect x="351" y="311" width="1" height="1" fill="#0781ed"/>
  <rect x="352" y="311" width="1" height="1" fill="#067fec"/>
  <rect x="353" y="311" width="1" height="1" fill="#0780ed"/>
  <rect x="354" y="311" width="1" height="1" fill="#0780ee"/>
  <rect x="355" y="311" width="1" height="1" fill="#0983f0"/>
  <rect x="356" y="311" width="1" height="1" fill="#0b84f1"/>
  <rect x="357" y="311" width="1" height="1" fill="#0c7dec"/>
  <rect x="358" y="311" width="1" height="1" fill="#0d60c5"/>
  <rect x="336" y="312" width="1" height="1" fill="#073983"/>
  <rect x="337" y="312" width="1" height="1" fill="#078cfa"/>
  <rect x="338" y="312" width="1" height="1" fill="#0690fe"/>
  <rect x="339" y="312" width="1" height="1" fill="#0889f8"/>
  <rect x="340" y="312" width="1" height="1" fill="#0b84f2"/>
  <rect x="341" y="312" width="1" height="1" fill="#0c82ef"/>
  <rect x="342" y="312" width="1" height="1" fill="#0a80f0"/>
  <rect x="343" y="312" width="1" height="1" fill="#0780f3"/>
  <rect x="344" y="312" width="1" height="1" fill="#047df1"/>
  <rect x="345" y="312" width="1" height="1" fill="#037bf1"/>
  <rect x="346" y="312" width="1" height="1" fill="#007aef"/>
  <rect x="347" y="312" width="1" height="1" fill="#0079ed"/>
  <rect x="348" y="312" width="1" height="1" fill="#0178eb"/>
  <rect x="349" y="312" width="1" height="1" fill="#0177e8"/>
  <rect x="350" y="312" width="2" height="1" fill="#0176e6"/>
  <rect x="352" y="312" width="1" height="1" fill="#0076e6"/>
  <rect x="353" y="312" width="1" height="1" fill="#0177e8"/>
  <rect x="354" y="312" width="1" height="1" fill="#0178ea"/>
  <rect x="355" y="312" width="1" height="1" fill="#037aed"/>
  <rect x="356" y="312" width="1" height="1" fill="#047aef"/>
  <rect x="357" y="312" width="1" height="1" fill="#047df3"/>
  <rect x="358" y="312" width="1" height="1" fill="#0786f7"/>
  <rect x="359" y="312" width="1" height="1" fill="#078bf0"/>
  <rect x="360" y="312" width="1" height="1" fill="#0561c7"/>
  <rect x="335" y="313" width="1" height="1" fill="#07357a"/>
  <rect x="336" y="313" width="1" height="1" fill="#0a93ff"/>
  <rect x="337" y="313" width="1" height="1" fill="#0789fd"/>
  <rect x="338" y="313" width="1" height="1" fill="#0986f9"/>
  <rect x="339" y="313" width="1" height="1" fill="#0e85f5"/>
  <rect x="340" y="313" width="1" height="1" fill="#1280f1"/>
  <rect x="341" y="313" width="1" height="1" fill="#127fef"/>
  <rect x="342" y="313" width="1" height="1" fill="#0f7fef"/>
  <rect x="343" y="313" width="1" height="1" fill="#0b7df0"/>
  <rect x="344" y="313" width="1" height="1" fill="#077bee"/>
  <rect x="345" y="313" width="1" height="1" fill="#057aee"/>
  <rect x="346" y="313" width="1" height="1" fill="#0279ed"/>
  <rect x="347" y="313" width="1" height="1" fill="#0178ec"/>
  <rect x="348" y="313" width="1" height="1" fill="#0177e9"/>
  <rect x="349" y="313" width="1" height="1" fill="#0276e6"/>
  <rect x="350" y="313" width="2" height="1" fill="#0175e5"/>
  <rect x="352" y="313" width="1" height="1" fill="#0075e8"/>
  <rect x="353" y="313" width="1" height="1" fill="#0076ea"/>
  <rect x="354" y="313" width="1" height="1" fill="#0075eb"/>
  <rect x="355" y="313" width="1" height="1" fill="#0178ef"/>
  <rect x="356" y="313" width="1" height="1" fill="#0278ef"/>
  <rect x="357" y="313" width="1" height="1" fill="#027cf3"/>
  <rect x="358" y="313" width="1" height="1" fill="#037df7"/>
  <rect x="359" y="313" width="1" height="1" fill="#027ef4"/>
  <rect x="360" y="313" width="1" height="1" fill="#048efa"/>
  <rect x="361" y="313" width="1" height="1" fill="#055fc9"/>
  <rect x="335" y="314" width="1" height="1" fill="#1382fd"/>
  <rect x="336" y="314" width="1" height="1" fill="#0a88fd"/>
  <rect x="337" y="314" width="1" height="1" fill="#0e82f6"/>
  <rect x="338" y="314" width="1" height="1" fill="#1084f7"/>
  <rect x="339" y="314" width="1" height="1" fill="#0f81f9"/>
  <rect x="340" y="314" width="1" height="1" fill="#0f8bfe"/>
  <rect x="341" y="314" width="1" height="1" fill="#0e92ff"/>
  <rect x="342" y="314" width="1" height="1" fill="#0b90fe"/>
  <rect x="343" y="314" width="1" height="1" fill="#0b8df4"/>
  <rect x="344" y="314" width="1" height="1" fill="#088bf2"/>
  <rect x="345" y="314" width="1" height="1" fill="#098af1"/>
  <rect x="346" y="314" width="1" height="1" fill="#0789ee"/>
  <rect x="347" y="314" width="1" height="1" fill="#0687ea"/>
  <rect x="348" y="314" width="1" height="1" fill="#0784e8"/>
  <rect x="349" y="314" width="1" height="1" fill="#0783e4"/>
  <rect x="350" y="314" width="1" height="1" fill="#0781e3"/>
  <rect x="351" y="314" width="1" height="1" fill="#0781e8"/>
  <rect x="352" y="314" width="1" height="1" fill="#057fe9"/>
  <rect x="353" y="314" width="1" height="1" fill="#057fea"/>
  <rect x="354" y="314" width="1" height="1" fill="#057dec"/>
  <rect x="355" y="314" width="1" height="1" fill="#0680ef"/>
  <rect x="356" y="314" width="1" height="1" fill="#0784f1"/>
  <rect x="357" y="314" width="1" height="1" fill="#0481f1"/>
  <rect x="358" y="314" width="1" height="1" fill="#037df4"/>
  <rect x="359" y="314" width="1" height="1" fill="#0481fb"/>
  <rect x="360" y="314" width="1" height="1" fill="#037dff"/>
  <rect x="361" y="314" width="1" height="1" fill="#068aff"/>
  <rect x="334" y="315" width="1" height="1" fill="#094398"/>
  <rect x="335" y="315" width="1" height="1" fill="#0b95ff"/>
  <rect x="336" y="315" width="1" height="1" fill="#0b7ef8"/>
  <rect x="337" y="315" width="1" height="1" fill="#1281f4"/>
  <rect x="338" y="315" width="1" height="1" fill="#127ef7"/>
  <rect x="339" y="315" width="1" height="1" fill="#1187fc"/>
  <rect x="340" y="315" width="1" height="1" fill="#0c61cc"/>
  <rect x="341" y="315" width="1" height="1" fill="#03408c"/>
  <rect x="342" y="315" width="1" height="1" fill="#04367a"/>
  <rect x="356" y="315" width="1" height="1" fill="#0d488e"/>
  <rect x="357" y="315" width="1" height="1" fill="#0b7bea"/>
  <rect x="358" y="315" width="1" height="1" fill="#0486f8"/>
  <rect x="359" y="315" width="1" height="1" fill="#0381fd"/>
  <rect x="360" y="315" width="1" height="1" fill="#027eff"/>
  <rect x="361" y="315" width="1" height="1" fill="#0284ff"/>
  <rect x="362" y="315" width="1" height="1" fill="#076ae5"/>
  <rect x="334" y="316" width="1" height="1" fill="#085ac5"/>
  <rect x="335" y="316" width="1" height="1" fill="#068fff"/>
  <rect x="336" y="316" width="1" height="1" fill="#077ef9"/>
  <rect x="337" y="316" width="1" height="1" fill="#0a7cfa"/>
  <rect x="338" y="316" width="1" height="1" fill="#0c88ff"/>
  <rect x="339" y="316" width="1" height="1" fill="#0d5bc6"/>
  <rect x="358" y="316" width="1" height="1" fill="#0680f7"/>
  <rect x="359" y="316" width="1" height="1" fill="#0283ff"/>
  <rect x="360" y="316" width="1" height="1" fill="#017fff"/>
  <rect x="361" y="316" width="1" height="1" fill="#0180ff"/>
  <rect x="362" y="316" width="1" height="1" fill="#037cfe"/>
  <rect x="334" y="317" width="1" height="1" fill="#075ac4"/>
  <rect x="335" y="317" width="1" height="1" fill="#048dff"/>
  <rect x="336" y="317" width="1" height="1" fill="#027cf9"/>
  <rect x="337" y="317" width="1" height="1" fill="#037cfe"/>
  <rect x="338" y="317" width="1" height="1" fill="#058cff"/>
  <rect x="358" y="317" width="1" height="1" fill="#055dd3"/>
  <rect x="359" y="317" width="1" height="1" fill="#018aff"/>
  <rect x="360" y="317" width="1" height="1" fill="#0181ff"/>
  <rect x="361" y="317" width="1" height="1" fill="#0082ff"/>
  <rect x="362" y="317" width="1" height="1" fill="#0281ff"/>
  <rect x="334" y="318" width="1" height="1" fill="#0956b9"/>
  <rect x="335" y="318" width="1" height="1" fill="#048bfb"/>
  <rect x="336" y="318" width="1" height="1" fill="#027bf4"/>
  <rect x="337" y="318" width="1" height="1" fill="#027bf9"/>
  <rect x="338" y="318" width="1" height="1" fill="#0287fd"/>
  <rect x="358" y="318" width="1" height="1" fill="#054fb3"/>
  <rect x="359" y="318" width="1" height="1" fill="#018dff"/>
  <rect x="360" y="318" width="1" height="1" fill="#0081fd"/>
  <rect x="361" y="318" width="1" height="1" fill="#0082ff"/>
  <rect x="362" y="318" width="1" height="1" fill="#0182ff"/>
  <rect x="334" y="319" width="1" height="1" fill="#0852af"/>
  <rect x="335" y="319" width="1" height="1" fill="#048af7"/>
  <rect x="336" y="319" width="1" height="1" fill="#017aef"/>
  <rect x="337" y="319" width="1" height="1" fill="#0279f3"/>
  <rect x="338" y="319" width="1" height="1" fill="#0283f7"/>
  <rect x="358" y="319" width="1" height="1" fill="#054ea7"/>
  <rect x="359" y="319" width="1" height="1" fill="#018cff"/>
  <rect x="360" y="319" width="1" height="1" fill="#0181f9"/>
  <rect x="361" y="319" width="1" height="1" fill="#0180fd"/>
  <rect x="362" y="319" width="1" height="1" fill="#0282fb"/>
  <rect x="334" y="320" width="1" height="1" fill="#0751ac"/>
  <rect x="335" y="320" width="1" height="1" fill="#0489f3"/>
  <rect x="336" y="320" width="1" height="1" fill="#017aec"/>
  <rect x="337" y="320" width="1" height="1" fill="#0278ef"/>
  <rect x="338" y="320" width="1" height="1" fill="#0283f4"/>
  <rect x="358" y="320" width="1" height="1" fill="#0550a9"/>
  <rect x="359" y="320" width="1" height="1" fill="#018cfb"/>
  <rect x="360" y="320" width="1" height="1" fill="#007ff3"/>
  <rect x="361" y="320" width="1" height="1" fill="#017ef7"/>
  <rect x="362" y="320" width="1" height="1" fill="#0380f7"/>
  <rect x="334" y="321" width="1" height="1" fill="#074fa9"/>
  <rect x="335" y="321" width="1" height="1" fill="#038af2"/>
  <rect x="336" y="321" width="1" height="1" fill="#017aeb"/>
  <rect x="337" y="321" width="1" height="1" fill="#0178ec"/>
  <rect x="338" y="321" width="1" height="1" fill="#0284f1"/>
  <rect x="358" y="321" width="1" height="1" fill="#0450ab"/>
  <rect x="359" y="321" width="1" height="1" fill="#008cf9"/>
  <rect x="360" y="321" width="1" height="1" fill="#017cee"/>
  <rect x="361" y="321" width="1" height="1" fill="#027cf3"/>
  <rect x="362" y="321" width="1" height="1" fill="#057ef3"/>
  <rect x="334" y="322" width="1" height="1" fill="#0651ab"/>
  <rect x="335" y="322" width="1" height="1" fill="#038cf3"/>
  <rect x="336" y="322" width="1" height="1" fill="#017beb"/>
  <rect x="337" y="322" width="1" height="1" fill="#027aec"/>
  <rect x="338" y="322" width="1" height="1" fill="#0385f1"/>
  <rect x="358" y="322" width="1" height="1" fill="#0352b1"/>
  <rect x="359" y="322" width="1" height="1" fill="#018cf8"/>
  <rect x="360" y="322" width="1" height="1" fill="#017ceb"/>
  <rect x="361" y="322" width="1" height="1" fill="#037bef"/>
  <rect x="362" y="322" width="1" height="1" fill="#067fef"/>
  <rect x="334" y="323" width="1" height="1" fill="#0551ad"/>
  <rect x="335" y="323" width="1" height="1" fill="#028df4"/>
  <rect x="336" y="323" width="1" height="1" fill="#017ded"/>
  <rect x="337" y="323" width="1" height="1" fill="#037aee"/>
  <rect x="338" y="323" width="1" height="1" fill="#0485f2"/>
  <rect x="358" y="323" width="1" height="1" fill="#0352b3"/>
  <rect x="359" y="323" width="1" height="1" fill="#018af7"/>
  <rect x="360" y="323" width="1" height="1" fill="#017beb"/>
  <rect x="361" y="323" width="1" height="1" fill="#0379ee"/>
  <rect x="362" y="323" width="1" height="1" fill="#077cec"/>
  <rect x="334" y="324" width="1" height="1" fill="#0653ae"/>
  <rect x="335" y="324" width="1" height="1" fill="#028ef8"/>
  <rect x="336" y="324" width="1" height="1" fill="#017ef0"/>
  <rect x="337" y="324" width="1" height="1" fill="#027bf0"/>
  <rect x="338" y="324" width="1" height="1" fill="#0584f4"/>
  <rect x="358" y="324" width="1" height="1" fill="#0353ae"/>
  <rect x="359" y="324" width="1" height="1" fill="#0189f7"/>
  <rect x="360" y="324" width="1" height="1" fill="#017bed"/>
  <rect x="361" y="324" width="1" height="1" fill="#0279f0"/>
  <rect x="362" y="324" width="1" height="1" fill="#057bec"/>
  <rect x="334" y="325" width="1" height="1" fill="#0655b1"/>
  <rect x="335" y="325" width="1" height="1" fill="#028efb"/>
  <rect x="336" y="325" width="1" height="1" fill="#007ff3"/>
  <rect x="337" y="325" width="1" height="1" fill="#027bf2"/>
  <rect x="338" y="325" width="1" height="1" fill="#0484f4"/>
  <rect x="358" y="325" width="1" height="1" fill="#0453a9"/>
  <rect x="359" y="325" width="1" height="1" fill="#0188f8"/>
  <rect x="360" y="325" width="1" height="1" fill="#007aef"/>
  <rect x="361" y="325" width="1" height="1" fill="#0178f2"/>
  <rect x="362" y="325" width="1" height="1" fill="#037aee"/>
  <rect x="334" y="326" width="1" height="1" fill="#0657b4"/>
  <rect x="335" y="326" width="1" height="1" fill="#028ffd"/>
  <rect x="336" y="326" width="1" height="1" fill="#007ff3"/>
  <rect x="337" y="326" width="1" height="1" fill="#027cf1"/>
  <rect x="338" y="326" width="1" height="1" fill="#0483f3"/>
  <rect x="358" y="326" width="1" height="1" fill="#0551a5"/>
  <rect x="359" y="326" width="1" height="1" fill="#0187f8"/>
  <rect x="360" y="326" width="1" height="1" fill="#0079f0"/>
  <rect x="361" y="326" width="1" height="1" fill="#0179f3"/>
  <rect x="362" y="326" width="1" height="1" fill="#037ef1"/>
  <rect x="334" y="327" width="1" height="1" fill="#0657b9"/>
  <rect x="335" y="327" width="1" height="1" fill="#018ffe"/>
  <rect x="336" y="327" width="1" height="1" fill="#007ff4"/>
  <rect x="337" y="327" width="1" height="1" fill="#017bf2"/>
  <rect x="338" y="327" width="1" height="1" fill="#0484f3"/>
  <rect x="358" y="327" width="1" height="1" fill="#0650a9"/>
  <rect x="359" y="327" width="1" height="1" fill="#0186f7"/>
  <rect x="360" y="327" width="1" height="1" fill="#0079f0"/>
  <rect x="361" y="327" width="1" height="1" fill="#0279f4"/>
  <rect x="362" y="327" width="1" height="1" fill="#027ff4"/>
  <rect x="334" y="328" width="1" height="1" fill="#065abe"/>
  <rect x="335" y="328" width="1" height="1" fill="#018cfe"/>
  <rect x="336" y="328" width="1" height="1" fill="#007ef4"/>
  <rect x="337" y="328" width="1" height="1" fill="#017cf3"/>
  <rect x="338" y="328" width="1" height="1" fill="#0484f5"/>
  <rect x="358" y="328" width="1" height="1" fill="#0661c3"/>
  <rect x="359" y="328" width="1" height="1" fill="#0183f5"/>
  <rect x="360" y="328" width="1" height="1" fill="#0179f0"/>
  <rect x="361" y="328" width="1" height="1" fill="#0278f4"/>
  <rect x="362" y="328" width="1" height="1" fill="#0284f6"/>
  <rect x="334" y="329" width="1" height="1" fill="#0753b7"/>
  <rect x="335" y="329" width="1" height="1" fill="#028bfd"/>
  <rect x="336" y="329" width="1" height="1" fill="#017df6"/>
  <rect x="337" y="329" width="1" height="1" fill="#017bf3"/>
  <rect x="338" y="329" width="1" height="1" fill="#0385f6"/>
  <rect x="339" y="329" width="1" height="1" fill="#0754b1"/>
  <rect x="358" y="329" width="1" height="1" fill="#047ce4"/>
  <rect x="359" y="329" width="1" height="1" fill="#017bf2"/>
  <rect x="360" y="329" width="1" height="1" fill="#0177ee"/>
  <rect x="361" y="329" width="1" height="1" fill="#027cf4"/>
  <rect x="362" y="329" width="1" height="1" fill="#047af0"/>
  <rect x="334" y="330" width="1" height="1" fill="#054094"/>
  <rect x="335" y="330" width="1" height="1" fill="#038afc"/>
  <rect x="336" y="330" width="1" height="1" fill="#027bf4"/>
  <rect x="337" y="330" width="1" height="1" fill="#047ef2"/>
  <rect x="338" y="330" width="1" height="1" fill="#047df3"/>
  <rect x="339" y="330" width="1" height="1" fill="#0483f1"/>
  <rect x="340" y="330" width="1" height="1" fill="#035db7"/>
  <rect x="341" y="330" width="1" height="1" fill="#023a79"/>
  <rect x="356" y="330" width="1" height="1" fill="#0a4187"/>
  <rect x="357" y="330" width="1" height="1" fill="#0b73df"/>
  <rect x="358" y="330" width="1" height="1" fill="#017bf0"/>
  <rect x="359" y="330" width="1" height="1" fill="#007aea"/>
  <rect x="360" y="330" width="1" height="1" fill="#0175ea"/>
  <rect x="361" y="330" width="1" height="1" fill="#0287f2"/>
  <rect x="362" y="330" width="1" height="1" fill="#0353b4"/>
  <rect x="335" y="331" width="1" height="1" fill="#0780f8"/>
  <rect x="336" y="331" width="1" height="1" fill="#037cf4"/>
  <rect x="337" y="331" width="1" height="1" fill="#057af1"/>
  <rect x="338" y="331" width="1" height="1" fill="#057cf2"/>
  <rect x="339" y="331" width="1" height="1" fill="#037cf4"/>
  <rect x="340" y="331" width="1" height="1" fill="#0383f6"/>
  <rect x="341" y="331" width="1" height="1" fill="#0581f5"/>
  <rect x="342" y="331" width="1" height="1" fill="#057df7"/>
  <rect x="343" y="331" width="1" height="1" fill="#0581fa"/>
  <rect x="344" y="331" width="1" height="1" fill="#0583fd"/>
  <rect x="345" y="331" width="1" height="1" fill="#0684ff"/>
  <rect x="346" y="331" width="1" height="1" fill="#0784ff"/>
  <rect x="347" y="331" width="1" height="1" fill="#0785ff"/>
  <rect x="348" y="331" width="1" height="1" fill="#0686ff"/>
  <rect x="349" y="331" width="1" height="1" fill="#0787ff"/>
  <rect x="350" y="331" width="1" height="1" fill="#0885ff"/>
  <rect x="351" y="331" width="1" height="1" fill="#0989ff"/>
  <rect x="352" y="331" width="1" height="1" fill="#0985fd"/>
  <rect x="353" y="331" width="1" height="1" fill="#0983fb"/>
  <rect x="354" y="331" width="1" height="1" fill="#0a7ff8"/>
  <rect x="355" y="331" width="1" height="1" fill="#0b7ef6"/>
  <rect x="356" y="331" width="1" height="1" fill="#0881f5"/>
  <rect x="357" y="331" width="1" height="1" fill="#037cf2"/>
  <rect x="358" y="331" width="1" height="1" fill="#007af1"/>
  <rect x="359" y="331" width="1" height="1" fill="#0173e9"/>
  <rect x="360" y="331" width="1" height="1" fill="#017aed"/>
  <rect x="361" y="331" width="1" height="1" fill="#0384ed"/>
  <rect x="335" y="332" width="1" height="1" fill="#0444a1"/>
  <rect x="336" y="332" width="1" height="1" fill="#0690fb"/>
  <rect x="337" y="332" width="1" height="1" fill="#0380f5"/>
  <rect x="338" y="332" width="1" height="1" fill="#037bf3"/>
  <rect x="339" y="332" width="1" height="1" fill="#047cf3"/>
  <rect x="340" y="332" width="1" height="1" fill="#0578f0"/>
  <rect x="341" y="332" width="1" height="1" fill="#0779ee"/>
  <rect x="342" y="332" width="1" height="1" fill="#077af0"/>
  <rect x="343" y="332" width="1" height="1" fill="#077cf2"/>
  <rect x="344" y="332" width="1" height="1" fill="#067bf2"/>
  <rect x="345" y="332" width="1" height="1" fill="#077bf2"/>
  <rect x="346" y="332" width="1" height="1" fill="#077bf3"/>
  <rect x="347" y="332" width="1" height="1" fill="#087bf3"/>
  <rect x="348" y="332" width="1" height="1" fill="#077bf2"/>
  <rect x="349" y="332" width="1" height="1" fill="#087cf3"/>
  <rect x="350" y="332" width="1" height="1" fill="#087bf1"/>
  <rect x="351" y="332" width="1" height="1" fill="#087df0"/>
  <rect x="352" y="332" width="1" height="1" fill="#087aee"/>
  <rect x="353" y="332" width="1" height="1" fill="#077bee"/>
  <rect x="354" y="332" width="1" height="1" fill="#067aef"/>
  <rect x="355" y="332" width="1" height="1" fill="#0578f0"/>
  <rect x="356" y="332" width="1" height="1" fill="#0375ec"/>
  <rect x="357" y="332" width="1" height="1" fill="#0277ed"/>
  <rect x="358" y="332" width="1" height="1" fill="#0274ec"/>
  <rect x="359" y="332" width="1" height="1" fill="#0378ec"/>
  <rect x="360" y="332" width="1" height="1" fill="#058eef"/>
  <rect x="361" y="332" width="1" height="1" fill="#013e97"/>
  <rect x="336" y="333" width="1" height="1" fill="#05469d"/>
  <rect x="337" y="333" width="1" height="1" fill="#0487f9"/>
  <rect x="338" y="333" width="1" height="1" fill="#0389fa"/>
  <rect x="339" y="333" width="1" height="1" fill="#057ef5"/>
  <rect x="340" y="333" width="1" height="1" fill="#0879ef"/>
  <rect x="341" y="333" width="1" height="1" fill="#0a7bee"/>
  <rect x="342" y="333" width="1" height="1" fill="#0a79ed"/>
  <rect x="343" y="333" width="1" height="1" fill="#0a7cef"/>
  <rect x="344" y="333" width="1" height="1" fill="#0a7bee"/>
  <rect x="345" y="333" width="1" height="1" fill="#0b7cef"/>
  <rect x="346" y="333" width="1" height="1" fill="#0b7aee"/>
  <rect x="347" y="333" width="1" height="1" fill="#0b7aed"/>
  <rect x="348" y="333" width="2" height="1" fill="#0b7aec"/>
  <rect x="350" y="333" width="1" height="1" fill="#0b78ea"/>
  <rect x="351" y="333" width="1" height="1" fill="#0b7aea"/>
  <rect x="352" y="333" width="1" height="1" fill="#0b79ea"/>
  <rect x="353" y="333" width="1" height="1" fill="#0a79eb"/>
  <rect x="354" y="333" width="1" height="1" fill="#0778ed"/>
  <rect x="355" y="333" width="1" height="1" fill="#0577ee"/>
  <rect x="356" y="333" width="1" height="1" fill="#0374ec"/>
  <rect x="357" y="333" width="1" height="1" fill="#0474ee"/>
  <rect x="358" y="333" width="1" height="1" fill="#057bf2"/>
  <rect x="359" y="333" width="1" height="1" fill="#0789ee"/>
  <rect x="360" y="333" width="1" height="1" fill="#0245a0"/>
  <rect x="338" y="334" width="1" height="1" fill="#095cc2"/>
  <rect x="339" y="334" width="1" height="1" fill="#087ff6"/>
  <rect x="340" y="334" width="1" height="1" fill="#0782f9"/>
  <rect x="341" y="334" width="1" height="1" fill="#0a85fa"/>
  <rect x="342" y="334" width="1" height="1" fill="#0a81f9"/>
  <rect x="343" y="334" width="1" height="1" fill="#0c84fa"/>
  <rect x="344" y="334" width="1" height="1" fill="#0a82f8"/>
  <rect x="345" y="334" width="1" height="1" fill="#0b83f7"/>
  <rect x="346" y="334" width="2" height="1" fill="#0a82f6"/>
  <rect x="348" y="334" width="1" height="1" fill="#0982f5"/>
  <rect x="349" y="334" width="1" height="1" fill="#0a81f4"/>
  <rect x="350" y="334" width="1" height="1" fill="#0980f3"/>
  <rect x="351" y="334" width="1" height="1" fill="#0a81f3"/>
  <rect x="352" y="334" width="1" height="1" fill="#097ef2"/>
  <rect x="353" y="334" width="1" height="1" fill="#0980f1"/>
  <rect x="354" y="334" width="1" height="1" fill="#077df1"/>
  <rect x="355" y="334" width="1" height="1" fill="#077ef4"/>
  <rect x="356" y="334" width="1" height="1" fill="#067bef"/>
  <rect x="357" y="334" width="1" height="1" fill="#0a79e8"/>
  <rect x="358" y="334" width="1" height="1" fill="#0859bc"/>
</svg>
