<?xml version="1.0" encoding="UTF-8"?>
<svg xmlns="http://www.w3.org/2000/svg" width="492" height="461">
  <rect x="370" y="311" width="1" height="1" fill="#075fcb"/>
  <rect x="371" y="311" width="1" height="1" fill="#0781f8"/>
  <rect x="372" y="311" width="1" height="1" fill="#078bfe"/>
  <rect x="373" y="311" width="1" height="1" fill="#078cfd"/>
  <rect x="374" y="311" width="1" height="1" fill="#0688fa"/>
  <rect x="375" y="311" width="1" height="1" fill="#0585fa"/>
  <rect x="376" y="311" width="1" height="1" fill="#0582f7"/>
  <rect x="377" y="311" width="1" height="1" fill="#0582f6"/>
  <rect x="378" y="311" width="1" height="1" fill="#0482f5"/>
  <rect x="379" y="311" width="1" height="1" fill="#0481f5"/>
  <rect x="380" y="311" width="1" height="1" fill="#0481f6"/>
  <rect x="381" y="311" width="1" height="1" fill="#0582f7"/>
  <rect x="382" y="311" width="1" height="1" fill="#0683f8"/>
  <rect x="383" y="311" width="1" height="1" fill="#0586fa"/>
  <rect x="384" y="311" width="1" height="1" fill="#0586fc"/>
  <rect x="385" y="311" width="1" height="1" fill="#0587fe"/>
  <rect x="386" y="311" width="1" height="1" fill="#0687ff"/>
  <rect x="387" y="311" width="1" height="1" fill="#0688ff"/>
  <rect x="388" y="311" width="1" height="1" fill="#0887fd"/>
  <rect x="389" y="311" width="1" height="1" fill="#0882fc"/>
  <rect x="390" y="311" width="1" height="1" fill="#087cf9"/>
  <rect x="391" y="311" width="1" height="1" fill="#0a91fa"/>
  <rect x="392" y="311" width="1" height="1" fill="#074da4"/>
  <rect x="369" y="312" width="1" height="1" fill="#0c87f4"/>
  <rect x="370" y="312" width="1" height="1" fill="#0b87f5"/>
  <rect x="371" y="312" width="1" height="1" fill="#0c83f3"/>
  <rect x="372" y="312" width="1" height="1" fill="#0c81f2"/>
  <rect x="373" y="312" width="1" height="1" fill="#0c7ff1"/>
  <rect x="374" y="312" width="1" height="1" fill="#0a7ef0"/>
  <rect x="375" y="312" width="1" height="1" fill="#087ff1"/>
  <rect x="376" y="312" width="1" height="1" fill="#057cf0"/>
  <rect x="377" y="312" width="1" height="1" fill="#047bf0"/>
  <rect x="378" y="312" width="2" height="1" fill="#027bf0"/>
  <rect x="380" y="312" width="1" height="1" fill="#027bf1"/>
  <rect x="381" y="312" width="1" height="1" fill="#037bf1"/>
  <rect x="382" y="312" width="1" height="1" fill="#047cf1"/>
  <rect x="383" y="312" width="1" height="1" fill="#047df1"/>
  <rect x="384" y="312" width="1" height="1" fill="#047df2"/>
  <rect x="385" y="312" width="1" height="1" fill="#067df3"/>
  <rect x="386" y="312" width="1" height="1" fill="#097ef2"/>
  <rect x="387" y="312" width="1" height="1" fill="#0e7ff0"/>
  <rect x="388" y="312" width="1" height="1" fill="#1281ed"/>
  <rect x="389" y="312" width="1" height="1" fill="#1382ee"/>
  <rect x="390" y="312" width="1" height="1" fill="#0d83f3"/>
  <rect x="391" y="312" width="1" height="1" fill="#0c95fb"/>
  <rect x="392" y="312" width="1" height="1" fill="#0956af"/>
  <rect x="368" y="313" width="1" height="1" fill="#0d82fa"/>
  <rect x="369" y="313" width="1" height="1" fill="#0984f8"/>
  <rect x="370" y="313" width="1" height="1" fill="#0e80f0"/>
  <rect x="371" y="313" width="1" height="1" fill="#1280ef"/>
  <rect x="372" y="313" width="1" height="1" fill="#137cee"/>
  <rect x="373" y="313" width="1" height="1" fill="#127bef"/>
  <rect x="374" y="313" width="1" height="1" fill="#117cee"/>
  <rect x="375" y="313" width="1" height="1" fill="#0d7cef"/>
  <rect x="376" y="313" width="1" height="1" fill="#097bee"/>
  <rect x="377" y="313" width="1" height="1" fill="#077aee"/>
  <rect x="378" y="313" width="1" height="1" fill="#057aed"/>
  <rect x="379" y="313" width="1" height="1" fill="#0479ed"/>
  <rect x="380" y="313" width="1" height="1" fill="#0479ee"/>
  <rect x="381" y="313" width="1" height="1" fill="#057aed"/>
  <rect x="382" y="313" width="1" height="1" fill="#067aed"/>
  <rect x="383" y="313" width="1" height="1" fill="#067bed"/>
  <rect x="384" y="313" width="1" height="1" fill="#077bed"/>
  <rect x="385" y="313" width="1" height="1" fill="#097bed"/>
  <rect x="386" y="313" width="1" height="1" fill="#0d7ced"/>
  <rect x="387" y="313" width="1" height="1" fill="#147de9"/>
  <rect x="388" y="313" width="1" height="1" fill="#1980e6"/>
  <rect x="389" y="313" width="1" height="1" fill="#1880e7"/>
  <rect x="390" y="313" width="1" height="1" fill="#0e80ee"/>
  <rect x="391" y="313" width="1" height="1" fill="#098ef8"/>
  <rect x="392" y="313" width="1" height="1" fill="#0956af"/>
  <rect x="367" y="314" width="1" height="1" fill="#0d4da9"/>
  <rect x="368" y="314" width="1" height="1" fill="#068bff"/>
  <rect x="369" y="314" width="1" height="1" fill="#0780fa"/>
  <rect x="370" y="314" width="1" height="1" fill="#0b82f9"/>
  <rect x="371" y="314" width="1" height="1" fill="#0e7cf8"/>
  <rect x="372" y="314" width="1" height="1" fill="#1086fc"/>
  <rect x="373" y="314" width="1" height="1" fill="#108efd"/>
  <rect x="374" y="314" width="1" height="1" fill="#0f8efb"/>
  <rect x="375" y="314" width="1" height="1" fill="#0e8df6"/>
  <rect x="376" y="314" width="1" height="1" fill="#0c8af3"/>
  <rect x="377" y="314" width="1" height="1" fill="#0d8af2"/>
  <rect x="378" y="314" width="1" height="1" fill="#0a87f0"/>
  <rect x="379" y="314" width="1" height="1" fill="#0a87ef"/>
  <rect x="380" y="314" width="1" height="1" fill="#0a85ef"/>
  <rect x="381" y="314" width="2" height="1" fill="#0b84ee"/>
  <rect x="383" y="314" width="1" height="1" fill="#0b85f0"/>
  <rect x="384" y="314" width="1" height="1" fill="#0a85f1"/>
  <rect x="385" y="314" width="1" height="1" fill="#0c85f1"/>
  <rect x="386" y="314" width="1" height="1" fill="#0d84f2"/>
  <rect x="387" y="314" width="1" height="1" fill="#1187f1"/>
  <rect x="388" y="314" width="1" height="1" fill="#1388f1"/>
  <rect x="389" y="314" width="1" height="1" fill="#148af2"/>
  <rect x="390" y="314" width="1" height="1" fill="#0d87f4"/>
  <rect x="391" y="314" width="1" height="1" fill="#1095f6"/>
  <rect x="392" y="314" width="1" height="1" fill="#0b53a8"/>
  <rect x="367" y="315" width="1" height="1" fill="#0866dc"/>
  <rect x="368" y="315" width="1" height="1" fill="#0388ff"/>
  <rect x="369" y="315" width="1" height="1" fill="#0582fe"/>
  <rect x="370" y="315" width="1" height="1" fill="#077eff"/>
  <rect x="371" y="315" width="1" height="1" fill="#0b7fff"/>
  <rect x="372" y="315" width="1" height="1" fill="#0c5fce"/>
  <rect x="373" y="315" width="1" height="1" fill="#073d89"/>
  <rect x="367" y="316" width="1" height="1" fill="#0771e9"/>
  <rect x="368" y="316" width="1" height="1" fill="#0289ff"/>
  <rect x="369" y="316" width="1" height="1" fill="#0483ff"/>
  <rect x="370" y="316" width="1" height="1" fill="#0681ff"/>
  <rect x="371" y="316" width="1" height="1" fill="#0c6de9"/>
  <rect x="367" y="317" width="1" height="1" fill="#0774ea"/>
  <rect x="368" y="317" width="1" height="1" fill="#0289ff"/>
  <rect x="369" y="317" width="1" height="1" fill="#0284ff"/>
  <rect x="370" y="317" width="1" height="1" fill="#0686ff"/>
  <rect x="371" y="317" width="1" height="1" fill="#0960cb"/>
  <rect x="367" y="318" width="1" height="1" fill="#0776e7"/>
  <rect x="368" y="318" width="1" height="1" fill="#018bff"/>
  <rect x="369" y="318" width="1" height="1" fill="#0285fe"/>
  <rect x="370" y="318" width="1" height="1" fill="#0587ff"/>
  <rect x="371" y="318" width="1" height="1" fill="#0562d3"/>
  <rect x="367" y="319" width="1" height="1" fill="#0873e2"/>
  <rect x="368" y="319" width="1" height="1" fill="#018bff"/>
  <rect x="369" y="319" width="1" height="1" fill="#0185fe"/>
  <rect x="370" y="319" width="1" height="1" fill="#0384ff"/>
  <rect x="371" y="319" width="1" height="1" fill="#0573ec"/>
  <rect x="367" y="320" width="1" height="1" fill="#0768d6"/>
  <rect x="368" y="320" width="1" height="1" fill="#028aff"/>
  <rect x="369" y="320" width="1" height="1" fill="#0486fd"/>
  <rect x="370" y="320" width="1" height="1" fill="#0783fc"/>
  <rect x="371" y="320" width="1" height="1" fill="#0988fb"/>
  <rect x="372" y="320" width="1" height="1" fill="#044eac"/>
  <rect x="367" y="321" width="1" height="1" fill="#064aa6"/>
  <rect x="368" y="321" width="1" height="1" fill="#058cff"/>
  <rect x="369" y="321" width="1" height="1" fill="#0684fb"/>
  <rect x="370" y="321" width="1" height="1" fill="#0988fb"/>
  <rect x="371" y="321" width="1" height="1" fill="#0a85fc"/>
  <rect x="372" y="321" width="1" height="1" fill="#088afe"/>
  <rect x="373" y="321" width="1" height="1" fill="#0683fe"/>
  <rect x="374" y="321" width="1" height="1" fill="#037eff"/>
  <rect x="375" y="321" width="1" height="1" fill="#027efd"/>
  <rect x="376" y="321" width="1" height="1" fill="#0480fe"/>
  <rect x="377" y="321" width="1" height="1" fill="#0481fe"/>
  <rect x="378" y="321" width="1" height="1" fill="#0582fd"/>
  <rect x="379" y="321" width="1" height="1" fill="#0582fc"/>
  <rect x="380" y="321" width="1" height="1" fill="#0581fb"/>
  <rect x="381" y="321" width="1" height="1" fill="#0580f9"/>
  <rect x="382" y="321" width="1" height="1" fill="#0680f6"/>
  <rect x="383" y="321" width="1" height="1" fill="#0782f4"/>
  <rect x="384" y="321" width="1" height="1" fill="#0981f2"/>
  <rect x="385" y="321" width="1" height="1" fill="#0981f1"/>
  <rect x="386" y="321" width="1" height="1" fill="#077eef"/>
  <rect x="387" y="321" width="1" height="1" fill="#087eed"/>
  <rect x="388" y="321" width="1" height="1" fill="#077dec"/>
  <rect x="389" y="321" width="1" height="1" fill="#0671e0"/>
  <rect x="390" y="321" width="1" height="1" fill="#033b8f"/>
  <rect x="368" y="322" width="1" height="1" fill="#097af1"/>
  <rect x="369" y="322" width="1" height="1" fill="#0590fd"/>
  <rect x="370" y="322" width="1" height="1" fill="#0482fb"/>
  <rect x="371" y="322" width="1" height="1" fill="#0682fb"/>
  <rect x="372" y="322" width="1" height="1" fill="#097ff6"/>
  <rect x="373" y="322" width="1" height="1" fill="#0c7df2"/>
  <rect x="374" y="322" width="1" height="1" fill="#0d7df2"/>
  <rect x="375" y="322" width="1" height="1" fill="#0d7ef4"/>
  <rect x="376" y="322" width="1" height="1" fill="#0c80f4"/>
  <rect x="377" y="322" width="1" height="1" fill="#0c7df4"/>
  <rect x="378" y="322" width="1" height="1" fill="#0b7df4"/>
  <rect x="379" y="322" width="1" height="1" fill="#0a7df4"/>
  <rect x="380" y="322" width="1" height="1" fill="#097df4"/>
  <rect x="381" y="322" width="1" height="1" fill="#077af3"/>
  <rect x="382" y="322" width="1" height="1" fill="#057af2"/>
  <rect x="383" y="322" width="1" height="1" fill="#047af1"/>
  <rect x="384" y="322" width="1" height="1" fill="#0479f0"/>
  <rect x="385" y="322" width="1" height="1" fill="#037bf0"/>
  <rect x="386" y="322" width="1" height="1" fill="#037bef"/>
  <rect x="387" y="322" width="1" height="1" fill="#047cee"/>
  <rect x="388" y="322" width="1" height="1" fill="#0480ed"/>
  <rect x="389" y="322" width="1" height="1" fill="#0481ee"/>
  <rect x="390" y="322" width="1" height="1" fill="#068def"/>
  <rect x="391" y="322" width="1" height="1" fill="#0560d5"/>
  <rect x="369" y="323" width="1" height="1" fill="#0b78e5"/>
  <rect x="370" y="323" width="1" height="1" fill="#0698ff"/>
  <rect x="371" y="323" width="1" height="1" fill="#068eff"/>
  <rect x="372" y="323" width="1" height="1" fill="#0b84f7"/>
  <rect x="373" y="323" width="1" height="1" fill="#1183ef"/>
  <rect x="374" y="323" width="1" height="1" fill="#1481ed"/>
  <rect x="375" y="323" width="1" height="1" fill="#1484f0"/>
  <rect x="376" y="323" width="1" height="1" fill="#1282f0"/>
  <rect x="377" y="323" width="1" height="1" fill="#1182f0"/>
  <rect x="378" y="323" width="1" height="1" fill="#1080f0"/>
  <rect x="379" y="323" width="1" height="1" fill="#0f81f0"/>
  <rect x="380" y="323" width="1" height="1" fill="#0d7ff0"/>
  <rect x="381" y="323" width="1" height="1" fill="#0b7df0"/>
  <rect x="382" y="323" width="1" height="1" fill="#087bf0"/>
  <rect x="383" y="323" width="1" height="1" fill="#067cf1"/>
  <rect x="384" y="323" width="1" height="1" fill="#0478f0"/>
  <rect x="385" y="323" width="1" height="1" fill="#0378ef"/>
  <rect x="386" y="323" width="1" height="1" fill="#0479ee"/>
  <rect x="387" y="323" width="1" height="1" fill="#067cef"/>
  <rect x="388" y="323" width="1" height="1" fill="#047aed"/>
  <rect x="389" y="323" width="1" height="1" fill="#037eee"/>
  <rect x="390" y="323" width="1" height="1" fill="#027bee"/>
  <rect x="391" y="323" width="1" height="1" fill="#048fef"/>
  <rect x="392" y="323" width="1" height="1" fill="#065bc2"/>
  <rect x="370" y="324" width="1" height="1" fill="#084897"/>
  <rect x="371" y="324" width="1" height="1" fill="#0974eb"/>
  <rect x="372" y="324" width="1" height="1" fill="#0980f4"/>
  <rect x="373" y="324" width="1" height="1" fill="#0c84f4"/>
  <rect x="374" y="324" width="1" height="1" fill="#0d85f5"/>
  <rect x="375" y="324" width="1" height="1" fill="#0d85f6"/>
  <rect x="376" y="324" width="1" height="1" fill="#0c84f4"/>
  <rect x="377" y="324" width="1" height="1" fill="#0d83f2"/>
  <rect x="378" y="324" width="1" height="1" fill="#0e82f1"/>
  <rect x="379" y="324" width="1" height="1" fill="#0e80ef"/>
  <rect x="380" y="324" width="1" height="1" fill="#0d7fef"/>
  <rect x="381" y="324" width="1" height="1" fill="#0c7ded"/>
  <rect x="382" y="324" width="1" height="1" fill="#0a7aeb"/>
  <rect x="383" y="324" width="1" height="1" fill="#0979ea"/>
  <rect x="384" y="324" width="1" height="1" fill="#0879ea"/>
  <rect x="385" y="324" width="1" height="1" fill="#0879e8"/>
  <rect x="386" y="324" width="1" height="1" fill="#0c7ae8"/>
  <rect x="387" y="324" width="1" height="1" fill="#0e7ceb"/>
  <rect x="388" y="324" width="1" height="1" fill="#0885ee"/>
  <rect x="389" y="324" width="1" height="1" fill="#0382ef"/>
  <rect x="390" y="324" width="1" height="1" fill="#017eef"/>
  <rect x="391" y="324" width="1" height="1" fill="#027dee"/>
  <rect x="392" y="324" width="1" height="1" fill="#0592f0"/>
  <rect x="388" y="325" width="1" height="1" fill="#084096"/>
  <rect x="389" y="325" width="1" height="1" fill="#0387f0"/>
  <rect x="390" y="325" width="1" height="1" fill="#007cf0"/>
  <rect x="391" y="325" width="1" height="1" fill="#0178ee"/>
  <rect x="392" y="325" width="1" height="1" fill="#028df2"/>
  <rect x="393" y="325" width="1" height="1" fill="#0950a4"/>
  <rect x="389" y="326" width="1" height="1" fill="#037aeb"/>
  <rect x="390" y="326" width="1" height="1" fill="#007df0"/>
  <rect x="391" y="326" width="1" height="1" fill="#017aed"/>
  <rect x="392" y="326" width="1" height="1" fill="#028af3"/>
  <rect x="393" y="326" width="1" height="1" fill="#085bb8"/>
  <rect x="389" y="327" width="1" height="1" fill="#0374e7"/>
  <rect x="390" y="327" width="1" height="1" fill="#007ef0"/>
  <rect x="391" y="327" width="1" height="1" fill="#017bee"/>
  <rect x="392" y="327" width="1" height="1" fill="#048cf5"/>
  <rect x="393" y="327" width="1" height="1" fill="#075dbe"/>
  <rect x="389" y="328" width="1" height="1" fill="#037aeb"/>
  <rect x="390" y="328" width="1" height="1" fill="#0081f3"/>
  <rect x="391" y="328" width="1" height="1" fill="#017df1"/>
  <rect x="392" y="328" width="1" height="1" fill="#048ff8"/>
  <rect x="393" y="328" width="1" height="1" fill="#055ec2"/>
  <rect x="389" y="329" width="1" height="1" fill="#0687f3"/>
  <rect x="390" y="329" width="1" height="1" fill="#0082f5"/>
  <rect x="391" y="329" width="1" height="1" fill="#0180f5"/>
  <rect x="392" y="329" width="1" height="1" fill="#0493fc"/>
  <rect x="393" y="329" width="1" height="1" fill="#065abb"/>
  <rect x="388" y="330" width="1" height="1" fill="#0b61c6"/>
  <rect x="389" y="330" width="1" height="1" fill="#0389fb"/>
  <rect x="390" y="330" width="1" height="1" fill="#0085fb"/>
  <rect x="391" y="330" width="1" height="1" fill="#0183f5"/>
  <rect x="392" y="330" width="1" height="1" fill="#0597fb"/>
  <rect x="393" y="330" width="1" height="1" fill="#064b9c"/>
  <rect x="368" y="331" width="1" height="1" fill="#0397f4"/>
  <rect x="369" y="331" width="1" height="1" fill="#0181f1"/>
  <rect x="370" y="331" width="1" height="1" fill="#0282f0"/>
  <rect x="371" y="331" width="1" height="1" fill="#0486f1"/>
  <rect x="372" y="331" width="1" height="1" fill="#0384f0"/>
  <rect x="373" y="331" width="1" height="1" fill="#0483ef"/>
  <rect x="374" y="331" width="2" height="1" fill="#0382ef"/>
  <rect x="376" y="331" width="1" height="1" fill="#0381ef"/>
  <rect x="377" y="331" width="1" height="1" fill="#0482f0"/>
  <rect x="378" y="331" width="1" height="1" fill="#0582f0"/>
  <rect x="379" y="331" width="1" height="1" fill="#0684f2"/>
  <rect x="380" y="331" width="1" height="1" fill="#0686f4"/>
  <rect x="381" y="331" width="1" height="1" fill="#0688f5"/>
  <rect x="382" y="331" width="1" height="1" fill="#068af7"/>
  <rect x="383" y="331" width="1" height="1" fill="#068cf9"/>
  <rect x="384" y="331" width="1" height="1" fill="#078afb"/>
  <rect x="385" y="331" width="1" height="1" fill="#088afd"/>
  <rect x="386" y="331" width="1" height="1" fill="#0b8cfe"/>
  <rect x="387" y="331" width="1" height="1" fill="#0d8cff"/>
  <rect x="388" y="331" width="1" height="1" fill="#0788ff"/>
  <rect x="389" y="331" width="1" height="1" fill="#0387ff"/>
  <rect x="390" y="331" width="1" height="1" fill="#0186ff"/>
  <rect x="391" y="331" width="1" height="1" fill="#0385f9"/>
  <rect x="392" y="331" width="1" height="1" fill="#0896f9"/>
  <rect x="368" y="332" width="1" height="1" fill="#0287f0"/>
  <rect x="369" y="332" width="1" height="1" fill="#0071e5"/>
  <rect x="370" y="332" width="1" height="1" fill="#0171e7"/>
  <rect x="371" y="332" width="1" height="1" fill="#0173e7"/>
  <rect x="372" y="332" width="1" height="1" fill="#0072e6"/>
  <rect x="373" y="332" width="3" height="1" fill="#0075e9"/>
  <rect x="376" y="332" width="1" height="1" fill="#0075e8"/>
  <rect x="377" y="332" width="1" height="1" fill="#0076e8"/>
  <rect x="378" y="332" width="1" height="1" fill="#0076e9"/>
  <rect x="379" y="332" width="1" height="1" fill="#0177eb"/>
  <rect x="380" y="332" width="1" height="1" fill="#0178ec"/>
  <rect x="381" y="332" width="1" height="1" fill="#0379ed"/>
  <rect x="382" y="332" width="1" height="1" fill="#057bef"/>
  <rect x="383" y="332" width="1" height="1" fill="#077ef1"/>
  <rect x="384" y="332" width="1" height="1" fill="#0a7ff2"/>
  <rect x="385" y="332" width="1" height="1" fill="#0c81f3"/>
  <rect x="386" y="332" width="1" height="1" fill="#0e82f4"/>
  <rect x="387" y="332" width="1" height="1" fill="#0f82f6"/>
  <rect x="388" y="332" width="1" height="1" fill="#0e84f6"/>
  <rect x="389" y="332" width="1" height="1" fill="#0c84f7"/>
  <rect x="390" y="332" width="1" height="1" fill="#0781fb"/>
  <rect x="391" y="332" width="1" height="1" fill="#0c9bff"/>
  <rect x="392" y="332" width="1" height="1" fill="#0668cd"/>
  <rect x="368" y="333" width="1" height="1" fill="#0580ed"/>
  <rect x="369" y="333" width="1" height="1" fill="#037be8"/>
  <rect x="370" y="333" width="1" height="1" fill="#0273e6"/>
  <rect x="371" y="333" width="1" height="1" fill="#0275e8"/>
  <rect x="372" y="333" width="1" height="1" fill="#0174e7"/>
  <rect x="373" y="333" width="1" height="1" fill="#0076ea"/>
  <rect x="374" y="333" width="1" height="1" fill="#0075ea"/>
  <rect x="375" y="333" width="1" height="1" fill="#0077ea"/>
  <rect x="376" y="333" width="1" height="1" fill="#0076e9"/>
  <rect x="377" y="333" width="1" height="1" fill="#0077ea"/>
  <rect x="378" y="333" width="1" height="1" fill="#0077eb"/>
  <rect x="379" y="333" width="1" height="1" fill="#0079ed"/>
  <rect x="380" y="333" width="1" height="1" fill="#0179ed"/>
  <rect x="381" y="333" width="1" height="1" fill="#047cef"/>
  <rect x="382" y="333" width="1" height="1" fill="#067cef"/>
  <rect x="383" y="333" width="1" height="1" fill="#097ff0"/>
  <rect x="384" y="333" width="1" height="1" fill="#0e81f1"/>
  <rect x="385" y="333" width="1" height="1" fill="#1283f1"/>
  <rect x="386" y="333" width="1" height="1" fill="#1383f0"/>
  <rect x="387" y="333" width="1" height="1" fill="#1583f2"/>
  <rect x="388" y="333" width="1" height="1" fill="#1480f1"/>
  <rect x="389" y="333" width="1" height="1" fill="#1384f6"/>
  <rect x="390" y="333" width="1" height="1" fill="#1095fe"/>
  <rect x="391" y="333" width="1" height="1" fill="#0b77e6"/>
  <rect x="368" y="334" width="1" height="1" fill="#04469e"/>
  <rect x="369" y="334" width="1" height="1" fill="#0779e6"/>
  <rect x="370" y="334" width="1" height="1" fill="#047be9"/>
  <rect x="371" y="334" width="1" height="1" fill="#057deb"/>
  <rect x="372" y="334" width="1" height="1" fill="#057dea"/>
  <rect x="373" y="334" width="1" height="1" fill="#067ceb"/>
  <rect x="374" y="334" width="1" height="1" fill="#057deb"/>
  <rect x="375" y="334" width="1" height="1" fill="#067eea"/>
  <rect x="376" y="334" width="1" height="1" fill="#057dea"/>
  <rect x="377" y="334" width="1" height="1" fill="#067eeb"/>
  <rect x="378" y="334" width="1" height="1" fill="#057fed"/>
  <rect x="379" y="334" width="1" height="1" fill="#0580ee"/>
  <rect x="380" y="334" width="1" height="1" fill="#0481f1"/>
  <rect x="381" y="334" width="1" height="1" fill="#0682f3"/>
  <rect x="382" y="334" width="1" height="1" fill="#0783f4"/>
  <rect x="383" y="334" width="1" height="1" fill="#0985f6"/>
  <rect x="384" y="334" width="1" height="1" fill="#0b84f5"/>
  <rect x="385" y="334" width="1" height="1" fill="#0d86f5"/>
  <rect x="386" y="334" width="1" height="1" fill="#0e85f5"/>
  <rect x="387" y="334" width="1" height="1" fill="#1288f8"/>
  <rect x="388" y="334" width="1" height="1" fill="#1287f4"/>
  <rect x="389" y="334" width="1" height="1" fill="#147be0"/>
  <rect x="390" y="334" width="1" height="1" fill="#084698"/>
</svg>
