<?xml version="1.0" encoding="UTF-8"?>
<svg xmlns="http://www.w3.org/2000/svg" width="492" height="461">
  <rect x="108" y="311" width="1" height="1" fill="#f5f6f8"/>
  <rect x="109" y="311" width="1" height="1" fill="#fcfcfc"/>
  <rect x="110" y="311" width="1" height="1" fill="#fdfcfc"/>
  <rect x="111" y="311" width="1" height="1" fill="#fdfdfd"/>
  <rect x="112" y="311" width="2" height="1" fill="#fefdfd"/>
  <rect x="114" y="311" width="1" height="1" fill="#fdfcfd"/>
  <rect x="115" y="311" width="1" height="1" fill="#fcfcfd"/>
  <rect x="116" y="311" width="1" height="1" fill="#fbfbfc"/>
  <rect x="117" y="311" width="1" height="1" fill="#fafbfb"/>
  <rect x="118" y="311" width="1" height="1" fill="#fafafa"/>
  <rect x="119" y="311" width="1" height="1" fill="#f9fafa"/>
  <rect x="120" y="311" width="3" height="1" fill="#f9f9fa"/>
  <rect x="123" y="311" width="1" height="1" fill="#f9f8f9"/>
  <rect x="124" y="311" width="2" height="1" fill="#f8f8f9"/>
  <rect x="126" y="311" width="1" height="1" fill="#f4f4f6"/>
  <rect x="127" y="311" width="1" height="1" fill="#d5d6d9"/>
  <rect x="106" y="312" width="1" height="1" fill="#f4f4f8"/>
  <rect x="107" y="312" width="1" height="1" fill="#fbfcfc"/>
  <rect x="108" y="312" width="1" height="1" fill="#f7f7f7"/>
  <rect x="109" y="312" width="1" height="1" fill="#f3f2f3"/>
  <rect x="110" y="312" width="1" height="1" fill="#f1f1f1"/>
  <rect x="111" y="312" width="2" height="1" fill="#f1f0f1"/>
  <rect x="113" y="312" width="1" height="1" fill="#f1f1f1"/>
  <rect x="114" y="312" width="2" height="1" fill="#f1f0f1"/>
  <rect x="116" y="312" width="1" height="1" fill="#f0f0f1"/>
  <rect x="117" y="312" width="1" height="1" fill="#f0f0f0"/>
  <rect x="118" y="312" width="1" height="1" fill="#eff0f0"/>
  <rect x="119" y="312" width="1" height="1" fill="#f0f0f0"/>
  <rect x="120" y="312" width="4" height="1" fill="#efeff0"/>
  <rect x="124" y="312" width="1" height="1" fill="#eeeeee"/>
  <rect x="125" y="312" width="1" height="1" fill="#efeff0"/>
  <rect x="126" y="312" width="1" height="1" fill="#f0eff0"/>
  <rect x="127" y="312" width="1" height="1" fill="#f2f3f3"/>
  <rect x="128" y="312" width="1" height="1" fill="#f4f5f6"/>
  <rect x="129" y="312" width="1" height="1" fill="#e9e9eb"/>
  <rect x="105" y="313" width="2" height="1" fill="#fbfbfc"/>
  <rect x="107" y="313" width="1" height="1" fill="#f5f5f6"/>
  <rect x="108" y="313" width="1" height="1" fill="#f2f2f2"/>
  <rect x="109" y="313" width="1" height="1" fill="#ededee"/>
  <rect x="110" y="313" width="1" height="1" fill="#ececed"/>
  <rect x="111" y="313" width="4" height="1" fill="#eeeeee"/>
  <rect x="115" y="313" width="1" height="1" fill="#eeeeef"/>
  <rect x="116" y="313" width="1" height="1" fill="#efeeef"/>
  <rect x="117" y="313" width="2" height="1" fill="#efefef"/>
  <rect x="119" y="313" width="1" height="1" fill="#eeefef"/>
  <rect x="120" y="313" width="4" height="1" fill="#eeeeef"/>
  <rect x="124" y="313" width="1" height="1" fill="#efeeef"/>
  <rect x="125" y="313" width="1" height="1" fill="#eeeeef"/>
  <rect x="126" y="313" width="1" height="1" fill="#ededee"/>
  <rect x="127" y="313" width="1" height="1" fill="#eeeeee"/>
  <rect x="128" y="313" width="1" height="1" fill="#eeedef"/>
  <rect x="129" y="313" width="1" height="1" fill="#f6f6f8"/>
  <rect x="130" y="313" width="1" height="1" fill="#ededef"/>
  <rect x="104" y="314" width="1" height="1" fill="#d0ced3"/>
  <rect x="105" y="314" width="1" height="1" fill="#f7f8f8"/>
  <rect x="106" y="314" width="1" height="1" fill="#f1f2f2"/>
  <rect x="107" y="314" width="1" height="1" fill="#f3f4f4"/>
  <rect x="108" y="314" width="1" height="1" fill="#f3f3f4"/>
  <rect x="109" y="314" width="1" height="1" fill="#f5f6f7"/>
  <rect x="110" y="314" width="1" height="1" fill="#f6f6f7"/>
  <rect x="111" y="314" width="1" height="1" fill="#f5f5f6"/>
  <rect x="112" y="314" width="1" height="1" fill="#f6f6f7"/>
  <rect x="113" y="314" width="1" height="1" fill="#f7f7f7"/>
  <rect x="114" y="314" width="1" height="1" fill="#f8f8f7"/>
  <rect x="115" y="314" width="1" height="1" fill="#f8f8f8"/>
  <rect x="116" y="314" width="2" height="1" fill="#f9f9f8"/>
  <rect x="118" y="314" width="1" height="1" fill="#f9faf9"/>
  <rect x="119" y="314" width="2" height="1" fill="#fbfaf9"/>
  <rect x="121" y="314" width="2" height="1" fill="#fafaf9"/>
  <rect x="123" y="314" width="2" height="1" fill="#fafafa"/>
  <rect x="125" y="314" width="1" height="1" fill="#fafbfb"/>
  <rect x="126" y="314" width="1" height="1" fill="#f9fafa"/>
  <rect x="127" y="314" width="1" height="1" fill="#f7f7f7"/>
  <rect x="128" y="314" width="1" height="1" fill="#f7f7f8"/>
  <rect x="129" y="314" width="1" height="1" fill="#f5f5f7"/>
  <rect x="130" y="314" width="1" height="1" fill="#fcfbfc"/>
  <rect x="104" y="315" width="1" height="1" fill="#f4f4f6"/>
  <rect x="105" y="315" width="1" height="1" fill="#eff0f1"/>
  <rect x="106" y="315" width="1" height="1" fill="#f0f0f1"/>
  <rect x="107" y="315" width="1" height="1" fill="#f2f2f3"/>
  <rect x="108" y="315" width="1" height="1" fill="#f7f7f8"/>
  <rect x="109" y="315" width="1" height="1" fill="#c3c6c9"/>
  <rect x="126" y="315" width="1" height="1" fill="#e5e5e4"/>
  <rect x="127" y="315" width="1" height="1" fill="#ffffff"/>
  <rect x="128" y="315" width="1" height="1" fill="#fbfbfc"/>
  <rect x="129" y="315" width="1" height="1" fill="#fafafb"/>
  <rect x="130" y="315" width="1" height="1" fill="#f9f9fa"/>
  <rect x="131" y="315" width="1" height="1" fill="#f7f6f7"/>
  <rect x="104" y="316" width="1" height="1" fill="#f8f9fa"/>
  <rect x="105" y="316" width="1" height="1" fill="#f0f1f3"/>
  <rect x="106" y="316" width="1" height="1" fill="#f3f3f5"/>
  <rect x="107" y="316" width="1" height="1" fill="#f8f8f9"/>
  <rect x="108" y="316" width="1" height="1" fill="#cacbcc"/>
  <rect x="127" y="316" width="1" height="1" fill="#d4d1d3"/>
  <rect x="128" y="316" width="1" height="1" fill="#fdfdff"/>
  <rect x="129" y="316" width="1" height="1" fill="#f9fafb"/>
  <rect x="130" y="316" width="1" height="1" fill="#f6f6f7"/>
  <rect x="131" y="316" width="1" height="1" fill="#fafafa"/>
  <rect x="104" y="317" width="1" height="1" fill="#fbfbfc"/>
  <rect x="105" y="317" width="1" height="1" fill="#f2f3f6"/>
  <rect x="106" y="317" width="1" height="1" fill="#f5f5f7"/>
  <rect x="107" y="317" width="1" height="1" fill="#fbfbfc"/>
  <rect x="128" y="317" width="1" height="1" fill="#fbfcfd"/>
  <rect x="129" y="317" width="1" height="1" fill="#f5f7f8"/>
  <rect x="130" y="317" width="1" height="1" fill="#f5f6f6"/>
  <rect x="131" y="317" width="1" height="1" fill="#f8f9f9"/>
  <rect x="104" y="318" width="1" height="1" fill="#fdfdfe"/>
  <rect x="105" y="318" width="1" height="1" fill="#f6f7f9"/>
  <rect x="106" y="318" width="1" height="1" fill="#f8f8f9"/>
  <rect x="107" y="318" width="1" height="1" fill="#fdfcfd"/>
  <rect x="128" y="318" width="1" height="1" fill="#f9fafb"/>
  <rect x="129" y="318" width="2" height="1" fill="#f4f6f6"/>
  <rect x="131" y="318" width="1" height="1" fill="#f8f9f8"/>
  <rect x="104" y="319" width="1" height="1" fill="#ffffff"/>
  <rect x="105" y="319" width="1" height="1" fill="#f8f8fa"/>
  <rect x="106" y="319" width="1" height="1" fill="#f9f7f9"/>
  <rect x="107" y="319" width="1" height="1" fill="#fffefe"/>
  <rect x="128" y="319" width="1" height="1" fill="#f8f9fa"/>
  <rect x="129" y="319" width="1" height="1" fill="#f2f4f5"/>
  <rect x="130" y="319" width="1" height="1" fill="#f3f4f4"/>
  <rect x="131" y="319" width="1" height="1" fill="#f8f8f8"/>
  <rect x="104" y="320" width="1" height="1" fill="#ffffff"/>
  <rect x="105" y="320" width="1" height="1" fill="#fbfbfc"/>
  <rect x="106" y="320" width="1" height="1" fill="#fbfafb"/>
  <rect x="107" y="320" width="1" height="1" fill="#ffffff"/>
  <rect x="128" y="320" width="1" height="1" fill="#f8f9f9"/>
  <rect x="129" y="320" width="1" height="1" fill="#f2f4f4"/>
  <rect x="130" y="320" width="1" height="1" fill="#f3f4f4"/>
  <rect x="131" y="320" width="1" height="1" fill="#f7f8f8"/>
  <rect x="104" y="321" width="1" height="1" fill="#ffffff"/>
  <rect x="105" y="321" width="1" height="1" fill="#fcfcfd"/>
  <rect x="106" y="321" width="1" height="1" fill="#fbfbfb"/>
  <rect x="107" y="321" width="1" height="1" fill="#ffffff"/>
  <rect x="128" y="321" width="1" height="1" fill="#f8f9f9"/>
  <rect x="129" y="321" width="1" height="1" fill="#f1f3f4"/>
  <rect x="130" y="321" width="1" height="1" fill="#f3f5f5"/>
  <rect x="131" y="321" width="1" height="1" fill="#f7f8f8"/>
  <rect x="104" y="322" width="1" height="1" fill="#ffffff"/>
  <rect x="105" y="322" width="1" height="1" fill="#fcfcfd"/>
  <rect x="106" y="322" width="1" height="1" fill="#fbfbfb"/>
  <rect x="107" y="322" width="1" height="1" fill="#ffffff"/>
  <rect x="128" y="322" width="1" height="1" fill="#f9f9fb"/>
  <rect x="129" y="322" width="1" height="1" fill="#f3f5f5"/>
  <rect x="130" y="322" width="1" height="1" fill="#f5f6f6"/>
  <rect x="131" y="322" width="1" height="1" fill="#f9f9f9"/>
  <rect x="104" y="323" width="1" height="1" fill="#ffffff"/>
  <rect x="105" y="323" width="1" height="1" fill="#fbfcfc"/>
  <rect x="106" y="323" width="1" height="1" fill="#fafbfb"/>
  <rect x="107" y="323" width="1" height="1" fill="#ffffff"/>
  <rect x="128" y="323" width="1" height="1" fill="#fbfbfc"/>
  <rect x="129" y="323" width="1" height="1" fill="#f5f6f6"/>
  <rect x="130" y="323" width="1" height="1" fill="#f8f8f7"/>
  <rect x="131" y="323" width="1" height="1" fill="#fbfbfb"/>
  <rect x="104" y="324" width="1" height="1" fill="#ffffff"/>
  <rect x="105" y="324" width="2" height="1" fill="#fafbfc"/>
  <rect x="107" y="324" width="1" height="1" fill="#ffffff"/>
  <rect x="128" y="324" width="1" height="1" fill="#fefdfe"/>
  <rect x="129" y="324" width="1" height="1" fill="#f8f9f8"/>
  <rect x="130" y="324" width="1" height="1" fill="#fafaf9"/>
  <rect x="131" y="324" width="1" height="1" fill="#fefdfd"/>
  <rect x="104" y="325" width="1" height="1" fill="#ffffff"/>
  <rect x="105" y="325" width="1" height="1" fill="#f9fafb"/>
  <rect x="106" y="325" width="1" height="1" fill="#fafbfb"/>
  <rect x="107" y="325" width="1" height="1" fill="#ffffff"/>
  <rect x="128" y="325" width="1" height="1" fill="#ffffff"/>
  <rect x="129" y="325" width="1" height="1" fill="#fbfbfb"/>
  <rect x="130" y="325" width="1" height="1" fill="#fdfcfc"/>
  <rect x="131" y="325" width="1" height="1" fill="#ffffff"/>
  <rect x="104" y="326" width="1" height="1" fill="#fefefe"/>
  <rect x="105" y="326" width="1" height="1" fill="#f7f8f9"/>
  <rect x="106" y="326" width="1" height="1" fill="#f9f9fa"/>
  <rect x="107" y="326" width="1" height="1" fill="#ffffff"/>
  <rect x="128" y="326" width="1" height="1" fill="#ffffff"/>
  <rect x="129" y="326" width="1" height="1" fill="#fefdfd"/>
  <rect x="130" y="326" width="1" height="1" fill="#fffefe"/>
  <rect x="131" y="326" width="1" height="1" fill="#ffffff"/>
  <rect x="104" y="327" width="1" height="1" fill="#fcfcfd"/>
  <rect x="105" y="327" width="1" height="1" fill="#f4f5f8"/>
  <rect x="106" y="327" width="1" height="1" fill="#f8f8f9"/>
  <rect x="107" y="327" width="1" height="1" fill="#fffeff"/>
  <rect x="128" y="327" width="1" height="1" fill="#ffffff"/>
  <rect x="129" y="327" width="1" height="1" fill="#fffffe"/>
  <rect x="130" y="327" width="2" height="1" fill="#ffffff"/>
  <rect x="104" y="328" width="1" height="1" fill="#f9fafb"/>
  <rect x="105" y="328" width="1" height="1" fill="#f3f4f7"/>
  <rect x="106" y="328" width="1" height="1" fill="#f8f7fa"/>
  <rect x="107" y="328" width="1" height="1" fill="#fdfdff"/>
  <rect x="128" y="328" width="1" height="1" fill="#ffffff"/>
  <rect x="129" y="328" width="1" height="1" fill="#fffffe"/>
  <rect x="130" y="328" width="2" height="1" fill="#ffffff"/>
  <rect x="104" y="329" width="1" height="1" fill="#f6f6f8"/>
  <rect x="105" y="329" width="1" height="1" fill="#f0f1f5"/>
  <rect x="106" y="329" width="1" height="1" fill="#f3f2f7"/>
  <rect x="107" y="329" width="1" height="1" fill="#fbfbfe"/>
  <rect x="127" y="329" width="1" height="1" fill="#d4d2d4"/>
  <rect x="128" y="329" width="1" height="1" fill="#ffffff"/>
  <rect x="129" y="329" width="1" height="1" fill="#fffffd"/>
  <rect x="130" y="329" width="1" height="1" fill="#fefefc"/>
  <rect x="131" y="329" width="1" height="1" fill="#ffffff"/>
  <rect x="104" y="330" width="1" height="1" fill="#f3f3f4"/>
  <rect x="105" y="330" width="1" height="1" fill="#f0f1f4"/>
  <rect x="106" y="330" width="1" height="1" fill="#f3f3f5"/>
  <rect x="107" y="330" width="1" height="1" fill="#f7f7f8"/>
  <rect x="108" y="330" width="1" height="1" fill="#f9f9f9"/>
  <rect x="126" y="330" width="1" height="1" fill="#cacacc"/>
  <rect x="127" y="330" width="1" height="1" fill="#ffffff"/>
  <rect x="128" y="330" width="1" height="1" fill="#fffffe"/>
  <rect x="129" y="330" width="1" height="1" fill="#fdfdfc"/>
  <rect x="130" y="330" width="1" height="1" fill="#fffefd"/>
  <rect x="131" y="330" width="1" height="1" fill="#f8f7f6"/>
  <rect x="104" y="331" width="1" height="1" fill="#dddee1"/>
  <rect x="105" y="331" width="1" height="1" fill="#f3f4f4"/>
  <rect x="106" y="331" width="1" height="1" fill="#eff0f0"/>
  <rect x="107" y="331" width="1" height="1" fill="#f4f4f4"/>
  <rect x="108" y="331" width="1" height="1" fill="#f8f8f7"/>
  <rect x="109" y="331" width="1" height="1" fill="#fbfcfb"/>
  <rect x="110" y="331" width="1" height="1" fill="#fcfdfb"/>
  <rect x="111" y="331" width="1" height="1" fill="#fefffe"/>
  <rect x="112" y="331" width="1" height="1" fill="#fffffe"/>
  <rect x="113" y="331" width="10" height="1" fill="#ffffff"/>
  <rect x="123" y="331" width="1" height="1" fill="#fffffe"/>
  <rect x="124" y="331" width="1" height="1" fill="#fefdfc"/>
  <rect x="125" y="331" width="1" height="1" fill="#fffefe"/>
  <rect x="126" y="331" width="1" height="1" fill="#ffffff"/>
  <rect x="127" y="331" width="2" height="1" fill="#fcfcfc"/>
  <rect x="129" y="331" width="1" height="1" fill="#f9f8f8"/>
  <rect x="130" y="331" width="1" height="1" fill="#ffffff"/>
  <rect x="105" y="332" width="1" height="1" fill="#f7f8f8"/>
  <rect x="106" y="332" width="1" height="1" fill="#f5f5f5"/>
  <rect x="107" y="332" width="1" height="1" fill="#f4f4f4"/>
  <rect x="108" y="332" width="1" height="1" fill="#f2f3f3"/>
  <rect x="109" y="332" width="1" height="1" fill="#f1f2f1"/>
  <rect x="110" y="332" width="1" height="1" fill="#f0efee"/>
  <rect x="111" y="332" width="2" height="1" fill="#f4f4f3"/>
  <rect x="113" y="332" width="2" height="1" fill="#f5f5f5"/>
  <rect x="115" y="332" width="1" height="1" fill="#f6f6f5"/>
  <rect x="116" y="332" width="1" height="1" fill="#f5f5f4"/>
  <rect x="117" y="332" width="1" height="1" fill="#f5f5f5"/>
  <rect x="118" y="332" width="2" height="1" fill="#f4f5f4"/>
  <rect x="120" y="332" width="2" height="1" fill="#f3f3f3"/>
  <rect x="122" y="332" width="1" height="1" fill="#f2f1f1"/>
  <rect x="123" y="332" width="1" height="1" fill="#f2f2f1"/>
  <rect x="124" y="332" width="1" height="1" fill="#f1f0f0"/>
  <rect x="125" y="332" width="1" height="1" fill="#f3f3f3"/>
  <rect x="126" y="332" width="1" height="1" fill="#f5f5f5"/>
  <rect x="127" y="332" width="1" height="1" fill="#f9f9f9"/>
  <rect x="128" y="332" width="1" height="1" fill="#f8f8f9"/>
  <rect x="129" y="332" width="1" height="1" fill="#fdfdfe"/>
  <rect x="130" y="332" width="1" height="1" fill="#f7f7f7"/>
  <rect x="106" y="333" width="1" height="1" fill="#f9f9fa"/>
  <rect x="107" y="333" width="1" height="1" fill="#f8f8f9"/>
  <rect x="108" y="333" width="1" height="1" fill="#f2f2f2"/>
  <rect x="109" y="333" width="1" height="1" fill="#edeeee"/>
  <rect x="110" y="333" width="1" height="1" fill="#ebebec"/>
  <rect x="111" y="333" width="1" height="1" fill="#eeeeef"/>
  <rect x="112" y="333" width="1" height="1" fill="#eeefef"/>
  <rect x="113" y="333" width="2" height="1" fill="#efeff0"/>
  <rect x="115" y="333" width="1" height="1" fill="#eff0f0"/>
  <rect x="116" y="333" width="1" height="1" fill="#efeff0"/>
  <rect x="117" y="333" width="2" height="1" fill="#f0f0f1"/>
  <rect x="119" y="333" width="3" height="1" fill="#eff0f0"/>
  <rect x="122" y="333" width="2" height="1" fill="#eeefef"/>
  <rect x="124" y="333" width="1" height="1" fill="#eeeeef"/>
  <rect x="125" y="333" width="1" height="1" fill="#f1f1f1"/>
  <rect x="126" y="333" width="1" height="1" fill="#f3f3f3"/>
  <rect x="127" y="333" width="1" height="1" fill="#fcfcfc"/>
  <rect x="128" y="333" width="1" height="1" fill="#fefeff"/>
  <rect x="129" y="333" width="1" height="1" fill="#f3f5f6"/>
  <rect x="107" y="334" width="1" height="1" fill="#cacacc"/>
  <rect x="108" y="334" width="1" height="1" fill="#f3f2f2"/>
  <rect x="109" y="334" width="1" height="1" fill="#f3f4f4"/>
  <rect x="110" y="334" width="1" height="1" fill="#f3f3f3"/>
  <rect x="111" y="334" width="1" height="1" fill="#f4f4f4"/>
  <rect x="112" y="334" width="1" height="1" fill="#f4f3f3"/>
  <rect x="113" y="334" width="2" height="1" fill="#f4f4f3"/>
  <rect x="115" y="334" width="1" height="1" fill="#f5f4f3"/>
  <rect x="116" y="334" width="1" height="1" fill="#f4f3f2"/>
  <rect x="117" y="334" width="1" height="1" fill="#f4f4f3"/>
  <rect x="118" y="334" width="3" height="1" fill="#f4f3f2"/>
  <rect x="121" y="334" width="1" height="1" fill="#f5f4f2"/>
  <rect x="122" y="334" width="1" height="1" fill="#f5f4f3"/>
  <rect x="123" y="334" width="1" height="1" fill="#f6f5f4"/>
  <rect x="124" y="334" width="1" height="1" fill="#f5f4f4"/>
  <rect x="125" y="334" width="1" height="1" fill="#f8f8f8"/>
  <rect x="126" y="334" width="1" height="1" fill="#f9f8f7"/>
  <rect x="127" y="334" width="1" height="1" fill="#e7e8e7"/>
</svg>
