<?xml version="1.0" encoding="UTF-8"?>
<svg xmlns="http://www.w3.org/2000/svg" width="492" height="461">
  <rect x="199" y="311" width="1" height="1" fill="#ffffff"/>
  <rect x="200" y="311" width="2" height="1" fill="#fefefe"/>
  <rect x="202" y="311" width="1" height="1" fill="#fdfdfe"/>
  <rect x="203" y="311" width="1" height="1" fill="#fcfcfd"/>
  <rect x="204" y="311" width="1" height="1" fill="#fafbfc"/>
  <rect x="205" y="311" width="1" height="1" fill="#f9f9fa"/>
  <rect x="206" y="311" width="1" height="1" fill="#f7f7f9"/>
  <rect x="207" y="311" width="1" height="1" fill="#f5f6f7"/>
  <rect x="208" y="311" width="1" height="1" fill="#f5f5f6"/>
  <rect x="209" y="311" width="1" height="1" fill="#f5f5f7"/>
  <rect x="210" y="311" width="1" height="1" fill="#f5f6f7"/>
  <rect x="211" y="311" width="1" height="1" fill="#f6f6f7"/>
  <rect x="212" y="311" width="1" height="1" fill="#f7f7f8"/>
  <rect x="213" y="311" width="1" height="1" fill="#f8f8f9"/>
  <rect x="214" y="311" width="1" height="1" fill="#f9f9f9"/>
  <rect x="215" y="311" width="1" height="1" fill="#fafafa"/>
  <rect x="216" y="311" width="1" height="1" fill="#fbfbfc"/>
  <rect x="217" y="311" width="1" height="1" fill="#fcfcfd"/>
  <rect x="218" y="311" width="1" height="1" fill="#fdfdfe"/>
  <rect x="219" y="311" width="1" height="1" fill="#fffefe"/>
  <rect x="220" y="311" width="1" height="1" fill="#ffffff"/>
  <rect x="221" y="311" width="1" height="1" fill="#fbfbfb"/>
  <rect x="222" y="311" width="1" height="1" fill="#cccbcd"/>
  <rect x="199" y="312" width="1" height="1" fill="#ffffff"/>
  <rect x="200" y="312" width="1" height="1" fill="#f6f7f8"/>
  <rect x="201" y="312" width="1" height="1" fill="#f8f8f8"/>
  <rect x="202" y="312" width="1" height="1" fill="#f5f5f5"/>
  <rect x="203" y="312" width="1" height="1" fill="#f3f2f3"/>
  <rect x="204" y="312" width="1" height="1" fill="#f2f1f2"/>
  <rect x="205" y="312" width="1" height="1" fill="#f1f1f2"/>
  <rect x="206" y="312" width="2" height="1" fill="#f0f0f1"/>
  <rect x="208" y="312" width="5" height="1" fill="#efeff0"/>
  <rect x="213" y="312" width="2" height="1" fill="#f0f0f0"/>
  <rect x="215" y="312" width="1" height="1" fill="#f0f1f1"/>
  <rect x="216" y="312" width="1" height="1" fill="#f0f0f0"/>
  <rect x="217" y="312" width="2" height="1" fill="#f0f1f1"/>
  <rect x="219" y="312" width="1" height="1" fill="#f0f0f0"/>
  <rect x="220" y="312" width="1" height="1" fill="#f2f2f2"/>
  <rect x="221" y="312" width="1" height="1" fill="#f7f7f7"/>
  <rect x="222" y="312" width="1" height="1" fill="#fefefd"/>
  <rect x="223" y="312" width="1" height="1" fill="#ffffff"/>
  <rect x="199" y="313" width="1" height="1" fill="#ffffff"/>
  <rect x="200" y="313" width="1" height="1" fill="#f5f6f7"/>
  <rect x="201" y="313" width="1" height="1" fill="#f6f7f7"/>
  <rect x="202" y="313" width="1" height="1" fill="#f2f2f2"/>
  <rect x="203" y="313" width="1" height="1" fill="#eeeeef"/>
  <rect x="204" y="313" width="1" height="1" fill="#ececed"/>
  <rect x="205" y="313" width="2" height="1" fill="#ededee"/>
  <rect x="207" y="313" width="2" height="1" fill="#eeeeee"/>
  <rect x="209" y="313" width="1" height="1" fill="#eeeeef"/>
  <rect x="210" y="313" width="1" height="1" fill="#eeefef"/>
  <rect x="211" y="313" width="1" height="1" fill="#eeeeef"/>
  <rect x="212" y="313" width="1" height="1" fill="#eeefef"/>
  <rect x="213" y="313" width="1" height="1" fill="#eeeeef"/>
  <rect x="214" y="313" width="1" height="1" fill="#efefef"/>
  <rect x="215" y="313" width="1" height="1" fill="#eeefef"/>
  <rect x="216" y="313" width="1" height="1" fill="#efeff0"/>
  <rect x="217" y="313" width="1" height="1" fill="#eeefef"/>
  <rect x="218" y="313" width="1" height="1" fill="#eeeeef"/>
  <rect x="219" y="313" width="1" height="1" fill="#ededee"/>
  <rect x="220" y="313" width="1" height="1" fill="#ececed"/>
  <rect x="221" y="313" width="1" height="1" fill="#f0f1f1"/>
  <rect x="222" y="313" width="1" height="1" fill="#f6f5f5"/>
  <rect x="223" y="313" width="1" height="1" fill="#fdfdfd"/>
  <rect x="224" y="313" width="1" height="1" fill="#ffffff"/>
  <rect x="199" y="314" width="1" height="1" fill="#fefefe"/>
  <rect x="200" y="314" width="1" height="1" fill="#f5f7f7"/>
  <rect x="201" y="314" width="1" height="1" fill="#f7f8f9"/>
  <rect x="202" y="314" width="1" height="1" fill="#f5f7f7"/>
  <rect x="203" y="314" width="1" height="1" fill="#f8f9f8"/>
  <rect x="204" y="314" width="1" height="1" fill="#f9f9f9"/>
  <rect x="205" y="314" width="1" height="1" fill="#f8f9f9"/>
  <rect x="206" y="314" width="1" height="1" fill="#f8f7f8"/>
  <rect x="207" y="314" width="1" height="1" fill="#f7f7f7"/>
  <rect x="208" y="314" width="1" height="1" fill="#f8f8f7"/>
  <rect x="209" y="314" width="2" height="1" fill="#f8f8f8"/>
  <rect x="211" y="314" width="1" height="1" fill="#f9f8f8"/>
  <rect x="212" y="314" width="1" height="1" fill="#f9f9f9"/>
  <rect x="213" y="314" width="4" height="1" fill="#faf9f9"/>
  <rect x="217" y="314" width="1" height="1" fill="#fafafa"/>
  <rect x="218" y="314" width="1" height="1" fill="#faf9fa"/>
  <rect x="219" y="314" width="2" height="1" fill="#fafafa"/>
  <rect x="221" y="314" width="1" height="1" fill="#f9f9f9"/>
  <rect x="222" y="314" width="1" height="1" fill="#f8f8f8"/>
  <rect x="223" y="314" width="1" height="1" fill="#f7f7f7"/>
  <rect x="224" y="314" width="1" height="1" fill="#f9f9f9"/>
  <rect x="225" y="314" width="1" height="1" fill="#f3f2f2"/>
  <rect x="199" y="315" width="1" height="1" fill="#fcfcfc"/>
  <rect x="200" y="315" width="1" height="1" fill="#f4f6f6"/>
  <rect x="201" y="315" width="1" height="1" fill="#f7f8f9"/>
  <rect x="202" y="315" width="1" height="1" fill="#fcfcfc"/>
  <rect x="221" y="315" width="1" height="1" fill="#eff0f0"/>
  <rect x="222" y="315" width="1" height="1" fill="#f9f9fa"/>
  <rect x="223" y="315" width="1" height="1" fill="#f3f3f4"/>
  <rect x="224" y="315" width="1" height="1" fill="#f3f3f3"/>
  <rect x="225" y="315" width="1" height="1" fill="#f8f8f9"/>
  <rect x="199" y="316" width="1" height="1" fill="#fafbfb"/>
  <rect x="200" y="316" width="1" height="1" fill="#f3f5f6"/>
  <rect x="201" y="316" width="1" height="1" fill="#f5f6f7"/>
  <rect x="202" y="316" width="1" height="1" fill="#fcfdfd"/>
  <rect x="222" y="316" width="1" height="1" fill="#fcfcfd"/>
  <rect x="223" y="316" width="1" height="1" fill="#f7f7f7"/>
  <rect x="224" y="316" width="1" height="1" fill="#f5f5f6"/>
  <rect x="225" y="316" width="1" height="1" fill="#f9f9fa"/>
  <rect x="199" y="317" width="1" height="1" fill="#f9fafa"/>
  <rect x="200" y="317" width="1" height="1" fill="#f2f3f5"/>
  <rect x="201" y="317" width="1" height="1" fill="#f3f5f6"/>
  <rect x="202" y="317" width="1" height="1" fill="#fbfcfc"/>
  <rect x="222" y="317" width="1" height="1" fill="#fbfcfc"/>
  <rect x="223" y="317" width="1" height="1" fill="#f9f9f9"/>
  <rect x="224" y="317" width="1" height="1" fill="#f7f6f7"/>
  <rect x="225" y="317" width="1" height="1" fill="#f9f9fa"/>
  <rect x="199" y="318" width="1" height="1" fill="#f9f9fa"/>
  <rect x="200" y="318" width="1" height="1" fill="#f2f2f4"/>
  <rect x="201" y="318" width="1" height="1" fill="#f4f4f6"/>
  <rect x="202" y="318" width="1" height="1" fill="#fcfbfc"/>
  <rect x="222" y="318" width="1" height="1" fill="#fafafa"/>
  <rect x="223" y="318" width="1" height="1" fill="#f6f7f6"/>
  <rect x="224" y="318" width="1" height="1" fill="#f4f4f4"/>
  <rect x="225" y="318" width="1" height="1" fill="#f8f8fa"/>
  <rect x="199" y="319" width="1" height="1" fill="#f9f9f9"/>
  <rect x="200" y="319" width="1" height="1" fill="#f1f1f3"/>
  <rect x="201" y="319" width="1" height="1" fill="#f3f3f4"/>
  <rect x="202" y="319" width="1" height="1" fill="#fcfbfc"/>
  <rect x="222" y="319" width="1" height="1" fill="#fbfbfb"/>
  <rect x="223" y="319" width="1" height="1" fill="#f4f4f5"/>
  <rect x="224" y="319" width="1" height="1" fill="#f3f2f2"/>
  <rect x="225" y="319" width="1" height="1" fill="#f7f8f9"/>
  <rect x="199" y="320" width="1" height="1" fill="#f8f8f8"/>
  <rect x="200" y="320" width="1" height="1" fill="#f1f2f3"/>
  <rect x="201" y="320" width="1" height="1" fill="#f5f5f6"/>
  <rect x="202" y="320" width="1" height="1" fill="#fbfbfb"/>
  <rect x="221" y="320" width="1" height="1" fill="#f8f8f8"/>
  <rect x="222" y="320" width="1" height="1" fill="#fdfdfd"/>
  <rect x="223" y="320" width="1" height="1" fill="#f8f7f8"/>
  <rect x="224" y="320" width="1" height="1" fill="#fafafa"/>
  <rect x="225" y="320" width="1" height="1" fill="#f4f4f5"/>
  <rect x="199" y="321" width="1" height="1" fill="#f8f8f8"/>
  <rect x="200" y="321" width="1" height="1" fill="#f1f2f4"/>
  <rect x="201" y="321" width="1" height="1" fill="#f6f6f8"/>
  <rect x="202" y="321" width="2" height="1" fill="#fafafa"/>
  <rect x="204" y="321" width="1" height="1" fill="#fdfdfc"/>
  <rect x="205" y="321" width="1" height="1" fill="#fefffe"/>
  <rect x="206" y="321" width="1" height="1" fill="#fffffe"/>
  <rect x="207" y="321" width="15" height="1" fill="#ffffff"/>
  <rect x="222" y="321" width="2" height="1" fill="#fcfcfd"/>
  <rect x="224" y="321" width="1" height="1" fill="#f1f1f1"/>
  <rect x="199" y="322" width="1" height="1" fill="#f9f9fa"/>
  <rect x="200" y="322" width="1" height="1" fill="#f3f3f5"/>
  <rect x="201" y="322" width="2" height="1" fill="#f7f7f8"/>
  <rect x="203" y="322" width="1" height="1" fill="#f7f7f7"/>
  <rect x="204" y="322" width="1" height="1" fill="#f4f4f3"/>
  <rect x="205" y="322" width="2" height="1" fill="#f3f3f2"/>
  <rect x="207" y="322" width="1" height="1" fill="#f3f4f3"/>
  <rect x="208" y="322" width="4" height="1" fill="#f3f3f3"/>
  <rect x="212" y="322" width="1" height="1" fill="#f4f4f3"/>
  <rect x="213" y="322" width="2" height="1" fill="#f4f4f4"/>
  <rect x="215" y="322" width="1" height="1" fill="#f3f3f3"/>
  <rect x="216" y="322" width="1" height="1" fill="#f2f2f2"/>
  <rect x="217" y="322" width="1" height="1" fill="#f3f3f3"/>
  <rect x="218" y="322" width="2" height="1" fill="#f1f1f2"/>
  <rect x="220" y="322" width="1" height="1" fill="#f2f2f2"/>
  <rect x="221" y="322" width="1" height="1" fill="#f8f9f9"/>
  <rect x="222" y="322" width="1" height="1" fill="#f9fafb"/>
  <rect x="223" y="322" width="1" height="1" fill="#ffffff"/>
  <rect x="224" y="322" width="1" height="1" fill="#bfc0c4"/>
  <rect x="199" y="323" width="1" height="1" fill="#fbfafb"/>
  <rect x="200" y="323" width="1" height="1" fill="#f3f3f4"/>
  <rect x="201" y="323" width="1" height="1" fill="#f7f7f8"/>
  <rect x="202" y="323" width="1" height="1" fill="#f7f7f7"/>
  <rect x="203" y="323" width="1" height="1" fill="#f5f5f5"/>
  <rect x="204" y="323" width="1" height="1" fill="#f1f1f1"/>
  <rect x="205" y="323" width="1" height="1" fill="#eeefef"/>
  <rect x="206" y="323" width="1" height="1" fill="#eceded"/>
  <rect x="207" y="323" width="1" height="1" fill="#edeeee"/>
  <rect x="208" y="323" width="1" height="1" fill="#eeeeef"/>
  <rect x="209" y="323" width="2" height="1" fill="#efefef"/>
  <rect x="211" y="323" width="2" height="1" fill="#efeff0"/>
  <rect x="213" y="323" width="1" height="1" fill="#f0f0f0"/>
  <rect x="214" y="323" width="1" height="1" fill="#f0f1f1"/>
  <rect x="215" y="323" width="2" height="1" fill="#f1f1f2"/>
  <rect x="217" y="323" width="2" height="1" fill="#f2f2f2"/>
  <rect x="219" y="323" width="1" height="1" fill="#f2f3f2"/>
  <rect x="220" y="323" width="1" height="1" fill="#f2f2f1"/>
  <rect x="221" y="323" width="1" height="1" fill="#f4f4f4"/>
  <rect x="222" y="323" width="1" height="1" fill="#f8f9fa"/>
  <rect x="223" y="323" width="2" height="1" fill="#feffff"/>
  <rect x="199" y="324" width="1" height="1" fill="#fcfcfc"/>
  <rect x="200" y="324" width="1" height="1" fill="#f4f5f6"/>
  <rect x="201" y="324" width="1" height="1" fill="#f8f8f9"/>
  <rect x="202" y="324" width="1" height="1" fill="#f7f8f8"/>
  <rect x="203" y="324" width="1" height="1" fill="#f5f6f6"/>
  <rect x="204" y="324" width="1" height="1" fill="#f4f4f4"/>
  <rect x="205" y="324" width="1" height="1" fill="#f3f3f4"/>
  <rect x="206" y="324" width="1" height="1" fill="#f2f3f4"/>
  <rect x="207" y="324" width="2" height="1" fill="#f1f3f4"/>
  <rect x="209" y="324" width="1" height="1" fill="#f1f2f4"/>
  <rect x="210" y="324" width="1" height="1" fill="#f1f2f3"/>
  <rect x="211" y="324" width="1" height="1" fill="#f1f1f2"/>
  <rect x="212" y="324" width="2" height="1" fill="#f0f0f1"/>
  <rect x="214" y="324" width="1" height="1" fill="#eff0f1"/>
  <rect x="215" y="324" width="1" height="1" fill="#eeeeef"/>
  <rect x="216" y="324" width="2" height="1" fill="#ededee"/>
  <rect x="218" y="324" width="1" height="1" fill="#edeced"/>
  <rect x="219" y="324" width="1" height="1" fill="#efeeee"/>
  <rect x="220" y="324" width="1" height="1" fill="#f8f7f7"/>
  <rect x="221" y="324" width="1" height="1" fill="#fcfcfb"/>
  <rect x="222" y="324" width="1" height="1" fill="#f9f9f9"/>
  <rect x="223" y="324" width="1" height="1" fill="#f7f7f7"/>
  <rect x="224" y="324" width="1" height="1" fill="#f9f9f9"/>
  <rect x="225" y="324" width="1" height="1" fill="#fbfcfc"/>
  <rect x="199" y="325" width="1" height="1" fill="#fcfdfd"/>
  <rect x="200" y="325" width="1" height="1" fill="#f4f4f6"/>
  <rect x="201" y="325" width="1" height="1" fill="#f6f6f7"/>
  <rect x="202" y="325" width="1" height="1" fill="#fbfbfb"/>
  <rect x="221" y="325" width="1" height="1" fill="#c1c0c1"/>
  <rect x="222" y="325" width="1" height="1" fill="#fafafa"/>
  <rect x="223" y="325" width="1" height="1" fill="#f2f3f3"/>
  <rect x="224" y="325" width="1" height="1" fill="#f2f2f2"/>
  <rect x="225" y="325" width="1" height="1" fill="#fcfcfc"/>
  <rect x="199" y="326" width="1" height="1" fill="#fdfdfd"/>
  <rect x="200" y="326" width="1" height="1" fill="#f5f5f6"/>
  <rect x="201" y="326" width="1" height="1" fill="#f3f4f5"/>
  <rect x="202" y="326" width="1" height="1" fill="#fbfbfc"/>
  <rect x="222" y="326" width="1" height="1" fill="#fbfbfc"/>
  <rect x="223" y="326" width="1" height="1" fill="#f9f8f9"/>
  <rect x="224" y="326" width="1" height="1" fill="#f8f7f8"/>
  <rect x="225" y="326" width="1" height="1" fill="#ffffff"/>
  <rect x="199" y="327" width="1" height="1" fill="#fcfcfd"/>
  <rect x="200" y="327" width="2" height="1" fill="#f3f3f5"/>
  <rect x="202" y="327" width="1" height="1" fill="#fafafb"/>
  <rect x="222" y="327" width="1" height="1" fill="#f0f2f3"/>
  <rect x="223" y="327" width="1" height="1" fill="#fdfdfd"/>
  <rect x="224" y="327" width="1" height="1" fill="#fafafa"/>
  <rect x="225" y="327" width="1" height="1" fill="#ffffff"/>
  <rect x="199" y="328" width="1" height="1" fill="#fbfafb"/>
  <rect x="200" y="328" width="1" height="1" fill="#f2f2f3"/>
  <rect x="201" y="328" width="1" height="1" fill="#f1f2f3"/>
  <rect x="202" y="328" width="1" height="1" fill="#f9f9fa"/>
  <rect x="222" y="328" width="1" height="1" fill="#eff1f2"/>
  <rect x="223" y="328" width="1" height="1" fill="#fbfbfb"/>
  <rect x="224" y="328" width="1" height="1" fill="#f9f9f9"/>
  <rect x="225" y="328" width="1" height="1" fill="#ffffff"/>
  <rect x="199" y="329" width="1" height="1" fill="#f9f9f9"/>
  <rect x="200" y="329" width="1" height="1" fill="#f0eff1"/>
  <rect x="201" y="329" width="1" height="1" fill="#f0f0f1"/>
  <rect x="202" y="329" width="1" height="1" fill="#f8f8f9"/>
  <rect x="222" y="329" width="1" height="1" fill="#f9f9f9"/>
  <rect x="223" y="329" width="1" height="1" fill="#f7f7f7"/>
  <rect x="224" y="329" width="1" height="1" fill="#f7f7f6"/>
  <rect x="225" y="329" width="1" height="1" fill="#fffffe"/>
  <rect x="199" y="330" width="1" height="1" fill="#f8f8f8"/>
  <rect x="200" y="330" width="1" height="1" fill="#f0f0f1"/>
  <rect x="201" y="330" width="1" height="1" fill="#f3f3f3"/>
  <rect x="202" y="330" width="1" height="1" fill="#f9f8f8"/>
  <rect x="221" y="330" width="1" height="1" fill="#dddddf"/>
  <rect x="222" y="330" width="1" height="1" fill="#f8f8f8"/>
  <rect x="223" y="330" width="1" height="1" fill="#f4f4f4"/>
  <rect x="224" y="330" width="1" height="1" fill="#f3f3f3"/>
  <rect x="225" y="330" width="1" height="1" fill="#fdfcfc"/>
  <rect x="199" y="331" width="1" height="1" fill="#f7f7f7"/>
  <rect x="200" y="331" width="1" height="1" fill="#f0eff0"/>
  <rect x="201" y="331" width="1" height="1" fill="#f4f4f4"/>
  <rect x="202" y="331" width="1" height="1" fill="#f6f6f6"/>
  <rect x="203" y="331" width="1" height="1" fill="#fafaf9"/>
  <rect x="204" y="331" width="1" height="1" fill="#fcfcfc"/>
  <rect x="205" y="331" width="1" height="1" fill="#fdfdfd"/>
  <rect x="206" y="331" width="1" height="1" fill="#fefefe"/>
  <rect x="207" y="331" width="3" height="1" fill="#ffffff"/>
  <rect x="210" y="331" width="1" height="1" fill="#fefefe"/>
  <rect x="211" y="331" width="1" height="1" fill="#fdfdfe"/>
  <rect x="212" y="331" width="1" height="1" fill="#fdfdfd"/>
  <rect x="213" y="331" width="1" height="1" fill="#fcfcfc"/>
  <rect x="214" y="331" width="1" height="1" fill="#fbfbfb"/>
  <rect x="215" y="331" width="1" height="1" fill="#fafafb"/>
  <rect x="216" y="331" width="1" height="1" fill="#f8f8f9"/>
  <rect x="217" y="331" width="1" height="1" fill="#f7f8f8"/>
  <rect x="218" y="331" width="1" height="1" fill="#f7f7f8"/>
  <rect x="219" y="331" width="1" height="1" fill="#f9f9fa"/>
  <rect x="220" y="331" width="1" height="1" fill="#fafbfa"/>
  <rect x="221" y="331" width="1" height="1" fill="#f9f9f9"/>
  <rect x="222" y="331" width="1" height="1" fill="#f4f5f4"/>
  <rect x="223" y="331" width="1" height="1" fill="#f2f2f2"/>
  <rect x="224" y="331" width="1" height="1" fill="#f0f0f1"/>
  <rect x="225" y="331" width="1" height="1" fill="#fbfbfb"/>
  <rect x="199" y="332" width="1" height="1" fill="#f7f7f6"/>
  <rect x="200" y="332" width="1" height="1" fill="#eeeeef"/>
  <rect x="201" y="332" width="1" height="1" fill="#f2f2f3"/>
  <rect x="202" y="332" width="1" height="1" fill="#f1f1f1"/>
  <rect x="203" y="332" width="1" height="1" fill="#f0f0f0"/>
  <rect x="204" y="332" width="1" height="1" fill="#eeeeee"/>
  <rect x="205" y="332" width="1" height="1" fill="#eff0f0"/>
  <rect x="206" y="332" width="1" height="1" fill="#f0f0f1"/>
  <rect x="207" y="332" width="1" height="1" fill="#f2f2f2"/>
  <rect x="208" y="332" width="2" height="1" fill="#f1f1f2"/>
  <rect x="210" y="332" width="1" height="1" fill="#f0f1f1"/>
  <rect x="211" y="332" width="3" height="1" fill="#f0f0f1"/>
  <rect x="214" y="332" width="2" height="1" fill="#efeff0"/>
  <rect x="216" y="332" width="2" height="1" fill="#eeeeef"/>
  <rect x="218" y="332" width="1" height="1" fill="#ededef"/>
  <rect x="219" y="332" width="1" height="1" fill="#edeeef"/>
  <rect x="220" y="332" width="1" height="1" fill="#edeeee"/>
  <rect x="221" y="332" width="1" height="1" fill="#f0f1f1"/>
  <rect x="222" y="332" width="1" height="1" fill="#f0f1f2"/>
  <rect x="223" y="332" width="1" height="1" fill="#edeeef"/>
  <rect x="224" y="332" width="1" height="1" fill="#f9f9fa"/>
  <rect x="225" y="332" width="1" height="1" fill="#d8d9db"/>
  <rect x="199" y="333" width="1" height="1" fill="#f8f7f7"/>
  <rect x="200" y="333" width="1" height="1" fill="#edeeed"/>
  <rect x="201" y="333" width="1" height="1" fill="#eff0f0"/>
  <rect x="202" y="333" width="1" height="1" fill="#eeefef"/>
  <rect x="203" y="333" width="1" height="1" fill="#efefef"/>
  <rect x="204" y="333" width="1" height="1" fill="#eff0f0"/>
  <rect x="205" y="333" width="3" height="1" fill="#f0f1f1"/>
  <rect x="208" y="333" width="1" height="1" fill="#f0f0f1"/>
  <rect x="209" y="333" width="1" height="1" fill="#f1f1f2"/>
  <rect x="210" y="333" width="1" height="1" fill="#f0f1f1"/>
  <rect x="211" y="333" width="4" height="1" fill="#f1f1f2"/>
  <rect x="215" y="333" width="1" height="1" fill="#f0f1f2"/>
  <rect x="216" y="333" width="1" height="1" fill="#f0f1f1"/>
  <rect x="217" y="333" width="1" height="1" fill="#f1f1f2"/>
  <rect x="218" y="333" width="2" height="1" fill="#f0f1f1"/>
  <rect x="220" y="333" width="1" height="1" fill="#eeeff0"/>
  <rect x="221" y="333" width="1" height="1" fill="#f2f2f2"/>
  <rect x="222" y="333" width="1" height="1" fill="#f6f6f6"/>
  <rect x="223" y="333" width="1" height="1" fill="#f9f9fa"/>
  <rect x="224" y="333" width="1" height="1" fill="#dcdcdd"/>
  <rect x="199" y="334" width="1" height="1" fill="#f8f8f6"/>
  <rect x="200" y="334" width="1" height="1" fill="#f2f2f1"/>
  <rect x="201" y="334" width="1" height="1" fill="#f5f5f4"/>
  <rect x="202" y="334" width="1" height="1" fill="#f6f6f4"/>
  <rect x="203" y="334" width="1" height="1" fill="#f7f6f5"/>
  <rect x="204" y="334" width="1" height="1" fill="#f8f7f6"/>
  <rect x="205" y="334" width="2" height="1" fill="#f9f8f7"/>
  <rect x="207" y="334" width="1" height="1" fill="#f9f7f6"/>
  <rect x="208" y="334" width="1" height="1" fill="#f8f6f4"/>
  <rect x="209" y="334" width="1" height="1" fill="#f7f6f4"/>
  <rect x="210" y="334" width="1" height="1" fill="#f7f6f3"/>
  <rect x="211" y="334" width="1" height="1" fill="#f6f5f2"/>
  <rect x="212" y="334" width="1" height="1" fill="#f5f4f2"/>
  <rect x="213" y="334" width="2" height="1" fill="#f4f3f1"/>
  <rect x="215" y="334" width="1" height="1" fill="#f3f2f0"/>
  <rect x="216" y="334" width="2" height="1" fill="#f2f1ef"/>
  <rect x="218" y="334" width="1" height="1" fill="#f0f0ef"/>
  <rect x="219" y="334" width="1" height="1" fill="#f0efef"/>
  <rect x="220" y="334" width="1" height="1" fill="#efeeee"/>
  <rect x="221" y="334" width="1" height="1" fill="#f1f1f1"/>
  <rect x="222" y="334" width="1" height="1" fill="#d0d2d3"/>
</svg>
