<?xml version="1.0" encoding="UTF-8"?>
<svg xmlns="http://www.w3.org/2000/svg" width="492" height="461">
  <rect x="242" y="311" width="1" height="1" fill="#f3f3f5"/>
  <rect x="243" y="311" width="1" height="1" fill="#fdfdfc"/>
  <rect x="244" y="311" width="1" height="1" fill="#fffefe"/>
  <rect x="245" y="311" width="1" height="1" fill="#fdfdfd"/>
  <rect x="246" y="311" width="1" height="1" fill="#fefdfd"/>
  <rect x="241" y="312" width="1" height="1" fill="#e6e6ea"/>
  <rect x="242" y="312" width="1" height="1" fill="#fefefe"/>
  <rect x="243" y="312" width="1" height="1" fill="#f7f6f6"/>
  <rect x="244" y="312" width="1" height="1" fill="#f2f1f1"/>
  <rect x="245" y="312" width="1" height="1" fill="#f3f2f2"/>
  <rect x="246" y="312" width="1" height="1" fill="#faf9f9"/>
  <rect x="247" y="312" width="1" height="1" fill="#fefefd"/>
  <rect x="241" y="313" width="1" height="1" fill="#ffffff"/>
  <rect x="242" y="313" width="1" height="1" fill="#fafafb"/>
  <rect x="243" y="313" width="1" height="1" fill="#f1f2f2"/>
  <rect x="244" y="313" width="1" height="1" fill="#eaebeb"/>
  <rect x="245" y="313" width="1" height="1" fill="#ececed"/>
  <rect x="246" y="313" width="1" height="1" fill="#f5f4f4"/>
  <rect x="247" y="313" width="1" height="1" fill="#fffffe"/>
  <rect x="248" y="313" width="1" height="1" fill="#e9e8e8"/>
  <rect x="240" y="314" width="1" height="1" fill="#fafafb"/>
  <rect x="241" y="314" width="1" height="1" fill="#fbfbfb"/>
  <rect x="242" y="314" width="1" height="1" fill="#f9f9fa"/>
  <rect x="243" y="314" width="1" height="1" fill="#f6f7f7"/>
  <rect x="244" y="314" width="1" height="1" fill="#f6f6f6"/>
  <rect x="245" y="314" width="1" height="1" fill="#f7f7f7"/>
  <rect x="246" y="314" width="1" height="1" fill="#fafafa"/>
  <rect x="247" y="314" width="1" height="1" fill="#fdfdfd"/>
  <rect x="248" y="314" width="1" height="1" fill="#ffffff"/>
  <rect x="239" y="315" width="1" height="1" fill="#c6c5c9"/>
  <rect x="240" y="315" width="1" height="1" fill="#fdfdfd"/>
  <rect x="241" y="315" width="1" height="1" fill="#f7f7f8"/>
  <rect x="242" y="315" width="1" height="1" fill="#f8f8f8"/>
  <rect x="243" y="315" width="1" height="1" fill="#fdfdfd"/>
  <rect x="244" y="315" width="1" height="1" fill="#ededec"/>
  <rect x="245" y="315" width="1" height="1" fill="#f8f7f8"/>
  <rect x="246" y="315" width="1" height="1" fill="#fefefe"/>
  <rect x="247" y="315" width="1" height="1" fill="#fcfcfc"/>
  <rect x="248" y="315" width="1" height="1" fill="#fcfdfd"/>
  <rect x="249" y="315" width="1" height="1" fill="#faf9fa"/>
  <rect x="239" y="316" width="1" height="1" fill="#ffffff"/>
  <rect x="240" y="316" width="1" height="1" fill="#fdfdfd"/>
  <rect x="241" y="316" width="1" height="1" fill="#fcfcfc"/>
  <rect x="242" y="316" width="1" height="1" fill="#fbfbfb"/>
  <rect x="243" y="316" width="1" height="1" fill="#fdfefd"/>
  <rect x="245" y="316" width="1" height="1" fill="#c3c3c6"/>
  <rect x="246" y="316" width="1" height="1" fill="#fdfefd"/>
  <rect x="247" y="316" width="1" height="1" fill="#fbfbfb"/>
  <rect x="248" y="316" width="1" height="1" fill="#fafafb"/>
  <rect x="249" y="316" width="1" height="1" fill="#fcfcfd"/>
  <rect x="238" y="317" width="1" height="1" fill="#d7d5d9"/>
  <rect x="239" y="317" width="1" height="1" fill="#ffffff"/>
  <rect x="240" y="317" width="1" height="1" fill="#fdfefe"/>
  <rect x="241" y="317" width="1" height="1" fill="#fefefd"/>
  <rect x="242" y="317" width="1" height="1" fill="#ffffff"/>
  <rect x="243" y="317" width="1" height="1" fill="#c9c8cb"/>
  <rect x="246" y="317" width="1" height="1" fill="#fafbfb"/>
  <rect x="247" y="317" width="2" height="1" fill="#fafafa"/>
  <rect x="249" y="317" width="1" height="1" fill="#f9fafb"/>
  <rect x="250" y="317" width="1" height="1" fill="#fafbfc"/>
  <rect x="238" y="318" width="1" height="1" fill="#fdfdfd"/>
  <rect x="239" y="318" width="1" height="1" fill="#fdfefd"/>
  <rect x="240" y="318" width="1" height="1" fill="#fffefe"/>
  <rect x="241" y="318" width="1" height="1" fill="#fefefe"/>
  <rect x="242" y="318" width="1" height="1" fill="#fffeff"/>
  <rect x="247" y="318" width="1" height="1" fill="#fbfbfc"/>
  <rect x="248" y="318" width="1" height="1" fill="#f9f9fa"/>
  <rect x="249" y="318" width="1" height="1" fill="#f9fafb"/>
  <rect x="250" y="318" width="1" height="1" fill="#fafbfb"/>
  <rect x="251" y="318" width="1" height="1" fill="#d5d4d6"/>
  <rect x="237" y="319" width="1" height="1" fill="#e2e5e7"/>
  <rect x="238" y="319" width="1" height="1" fill="#fbfbfb"/>
  <rect x="239" y="319" width="1" height="1" fill="#f9f9f9"/>
  <rect x="240" y="319" width="1" height="1" fill="#faf9f9"/>
  <rect x="241" y="319" width="1" height="1" fill="#ffffff"/>
  <rect x="247" y="319" width="1" height="1" fill="#f8f8f9"/>
  <rect x="248" y="319" width="1" height="1" fill="#f9f9fa"/>
  <rect x="249" y="319" width="1" height="1" fill="#f8f9f9"/>
  <rect x="250" y="319" width="1" height="1" fill="#f7f7f8"/>
  <rect x="251" y="319" width="1" height="1" fill="#f8f8f8"/>
  <rect x="237" y="320" width="1" height="1" fill="#f3f4f5"/>
  <rect x="238" y="320" width="1" height="1" fill="#f1f1f1"/>
  <rect x="239" y="320" width="1" height="1" fill="#f2f2f1"/>
  <rect x="240" y="320" width="1" height="1" fill="#f7f7f7"/>
  <rect x="241" y="320" width="1" height="1" fill="#fafbfc"/>
  <rect x="248" y="320" width="1" height="1" fill="#f8f9fa"/>
  <rect x="249" y="320" width="1" height="1" fill="#f2f3f4"/>
  <rect x="250" y="320" width="2" height="1" fill="#f1f1f1"/>
  <rect x="252" y="320" width="1" height="1" fill="#eaeaeb"/>
  <rect x="236" y="321" width="1" height="1" fill="#f0f1f3"/>
  <rect x="237" y="321" width="1" height="1" fill="#eff0f1"/>
  <rect x="238" y="321" width="1" height="1" fill="#eceded"/>
  <rect x="239" y="321" width="1" height="1" fill="#ebeaeb"/>
  <rect x="240" y="321" width="1" height="1" fill="#f6f7f8"/>
  <rect x="248" y="321" width="1" height="1" fill="#eff1f3"/>
  <rect x="249" y="321" width="1" height="1" fill="#f1f2f3"/>
  <rect x="250" y="321" width="2" height="1" fill="#ededee"/>
  <rect x="252" y="321" width="1" height="1" fill="#f2f2f4"/>
  <rect x="236" y="322" width="1" height="1" fill="#f8f8f9"/>
  <rect x="237" y="322" width="1" height="1" fill="#f3f4f5"/>
  <rect x="238" y="322" width="1" height="1" fill="#f1f1f2"/>
  <rect x="239" y="322" width="1" height="1" fill="#f5f5f6"/>
  <rect x="240" y="322" width="1" height="1" fill="#e8eaeb"/>
  <rect x="249" y="322" width="1" height="1" fill="#f5f6f8"/>
  <rect x="250" y="322" width="1" height="1" fill="#f1f2f5"/>
  <rect x="251" y="322" width="1" height="1" fill="#f3f3f6"/>
  <rect x="252" y="322" width="1" height="1" fill="#f4f5f7"/>
  <rect x="253" y="322" width="1" height="1" fill="#f5f6f8"/>
  <rect x="235" y="323" width="1" height="1" fill="#f9f9fa"/>
  <rect x="236" y="323" width="2" height="1" fill="#f7f7f9"/>
  <rect x="238" y="323" width="1" height="1" fill="#f4f4f6"/>
  <rect x="239" y="323" width="1" height="1" fill="#fafafb"/>
  <rect x="249" y="323" width="1" height="1" fill="#e8e8ec"/>
  <rect x="250" y="323" width="1" height="1" fill="#f7f8fc"/>
  <rect x="251" y="323" width="1" height="1" fill="#f6f8fb"/>
  <rect x="252" y="323" width="1" height="1" fill="#f6f7fa"/>
  <rect x="253" y="323" width="1" height="1" fill="#f9fafa"/>
  <rect x="234" y="324" width="1" height="1" fill="#dbd9de"/>
  <rect x="235" y="324" width="1" height="1" fill="#f8f8f9"/>
  <rect x="236" y="324" width="1" height="1" fill="#f6f6f7"/>
  <rect x="237" y="324" width="1" height="1" fill="#f6f7f8"/>
  <rect x="238" y="324" width="1" height="1" fill="#fafafb"/>
  <rect x="239" y="324" width="1" height="1" fill="#d4d6d8"/>
  <rect x="250" y="324" width="1" height="1" fill="#f9f9fb"/>
  <rect x="251" y="324" width="1" height="1" fill="#f7f7fa"/>
  <rect x="252" y="324" width="1" height="1" fill="#fafafc"/>
  <rect x="253" y="324" width="1" height="1" fill="#fbfbfc"/>
  <rect x="254" y="324" width="1" height="1" fill="#fcfcfd"/>
  <rect x="234" y="325" width="1" height="1" fill="#f9fafa"/>
  <rect x="235" y="325" width="1" height="1" fill="#f4f5f5"/>
  <rect x="236" y="325" width="2" height="1" fill="#f5f6f6"/>
  <rect x="238" y="325" width="1" height="1" fill="#f9fafa"/>
  <rect x="250" y="325" width="1" height="1" fill="#f2f3f4"/>
  <rect x="251" y="325" width="1" height="1" fill="#f9f9f9"/>
  <rect x="252" y="325" width="2" height="1" fill="#fafafb"/>
  <rect x="254" y="325" width="1" height="1" fill="#fdfdfe"/>
  <rect x="255" y="325" width="1" height="1" fill="#dfe0e2"/>
  <rect x="233" y="326" width="1" height="1" fill="#f0f1f3"/>
  <rect x="234" y="326" width="1" height="1" fill="#f6f6f7"/>
  <rect x="235" y="326" width="1" height="1" fill="#f1f1f1"/>
  <rect x="236" y="326" width="1" height="1" fill="#f0f0f0"/>
  <rect x="237" y="326" width="1" height="1" fill="#f6f6f7"/>
  <rect x="238" y="326" width="1" height="1" fill="#d2d3d4"/>
  <rect x="245" y="326" width="1" height="1" fill="#c9ced1"/>
  <rect x="246" y="326" width="1" height="1" fill="#c8cbd0"/>
  <rect x="247" y="326" width="1" height="1" fill="#cccfd2"/>
  <rect x="250" y="326" width="1" height="1" fill="#ebedee"/>
  <rect x="251" y="326" width="1" height="1" fill="#f9f9f9"/>
  <rect x="252" y="326" width="1" height="1" fill="#f6f6f7"/>
  <rect x="253" y="326" width="1" height="1" fill="#f5f5f6"/>
  <rect x="254" y="326" width="1" height="1" fill="#f6f5f6"/>
  <rect x="255" y="326" width="1" height="1" fill="#fcfcfc"/>
  <rect x="233" y="327" width="1" height="1" fill="#fefefe"/>
  <rect x="234" y="327" width="1" height="1" fill="#f4f4f5"/>
  <rect x="235" y="327" width="2" height="1" fill="#f0f0f0"/>
  <rect x="237" y="327" width="1" height="1" fill="#f5f6f6"/>
  <rect x="243" y="327" width="1" height="1" fill="#c7ccd1"/>
  <rect x="244" y="327" width="1" height="1" fill="#d2d7db"/>
  <rect x="245" y="327" width="1" height="1" fill="#d0d5da"/>
  <rect x="246" y="327" width="1" height="1" fill="#cdd1d7"/>
  <rect x="247" y="327" width="1" height="1" fill="#d1d6da"/>
  <rect x="248" y="327" width="1" height="1" fill="#d6dade"/>
  <rect x="249" y="327" width="1" height="1" fill="#dadddf"/>
  <rect x="250" y="327" width="1" height="1" fill="#e8e9ea"/>
  <rect x="251" y="327" width="1" height="1" fill="#fbfbfb"/>
  <rect x="252" y="327" width="1" height="1" fill="#f4f4f4"/>
  <rect x="253" y="327" width="1" height="1" fill="#f2f3f3"/>
  <rect x="254" y="327" width="1" height="1" fill="#f3f3f4"/>
  <rect x="255" y="327" width="1" height="1" fill="#fbfbfb"/>
  <rect x="256" y="327" width="1" height="1" fill="#eceae8"/>
  <rect x="232" y="328" width="1" height="1" fill="#fcfcfc"/>
  <rect x="233" y="328" width="1" height="1" fill="#ffffff"/>
  <rect x="234" y="328" width="1" height="1" fill="#fdfdfd"/>
  <rect x="235" y="328" width="1" height="1" fill="#f8f8f7"/>
  <rect x="236" y="328" width="1" height="1" fill="#fafafa"/>
  <rect x="243" y="328" width="1" height="1" fill="#e8e9ec"/>
  <rect x="244" y="328" width="1" height="1" fill="#e0e1e6"/>
  <rect x="245" y="328" width="1" height="1" fill="#e7e8ed"/>
  <rect x="246" y="328" width="1" height="1" fill="#e1e4e9"/>
  <rect x="247" y="328" width="1" height="1" fill="#e1e6eb"/>
  <rect x="248" y="328" width="1" height="1" fill="#dbdde3"/>
  <rect x="249" y="328" width="1" height="1" fill="#c9cccf"/>
  <rect x="251" y="328" width="1" height="1" fill="#e8e8e9"/>
  <rect x="252" y="328" width="1" height="1" fill="#fcfcfc"/>
  <rect x="253" y="328" width="1" height="1" fill="#f8f9f9"/>
  <rect x="254" y="328" width="1" height="1" fill="#fcfcfc"/>
  <rect x="255" y="328" width="2" height="1" fill="#ffffff"/>
  <rect x="232" y="329" width="1" height="1" fill="#ffffff"/>
  <rect x="233" y="329" width="2" height="1" fill="#fdfdfd"/>
  <rect x="235" y="329" width="1" height="1" fill="#ffffff"/>
  <rect x="236" y="329" width="1" height="1" fill="#e7e6e5"/>
  <rect x="252" y="329" width="1" height="1" fill="#d4d2d0"/>
  <rect x="253" y="329" width="4" height="1" fill="#ffffff"/>
  <rect x="257" y="329" width="1" height="1" fill="#f6f5f5"/>
  <rect x="231" y="330" width="1" height="1" fill="#f8f9fa"/>
  <rect x="232" y="330" width="1" height="1" fill="#f5f5f6"/>
  <rect x="233" y="330" width="1" height="1" fill="#f7f7f7"/>
  <rect x="234" y="330" width="1" height="1" fill="#f8f8f8"/>
  <rect x="235" y="330" width="1" height="1" fill="#ffffff"/>
  <rect x="253" y="330" width="1" height="1" fill="#e4e5e4"/>
  <rect x="254" y="330" width="1" height="1" fill="#ffffff"/>
  <rect x="255" y="330" width="1" height="1" fill="#fdfdfc"/>
  <rect x="256" y="330" width="1" height="1" fill="#f9f8f8"/>
  <rect x="257" y="330" width="1" height="1" fill="#fcfcfc"/>
  <rect x="230" y="331" width="1" height="1" fill="#c4c5c9"/>
  <rect x="231" y="331" width="1" height="1" fill="#f6f6f6"/>
  <rect x="232" y="331" width="1" height="1" fill="#ededed"/>
  <rect x="233" y="331" width="1" height="1" fill="#edeeee"/>
  <rect x="234" y="331" width="1" height="1" fill="#f9faf9"/>
  <rect x="254" y="331" width="1" height="1" fill="#fdfefe"/>
  <rect x="255" y="331" width="1" height="1" fill="#f8f8f9"/>
  <rect x="256" y="331" width="1" height="1" fill="#f3f3f3"/>
  <rect x="257" y="331" width="1" height="1" fill="#f4f5f6"/>
  <rect x="258" y="331" width="1" height="1" fill="#f5f6f4"/>
  <rect x="230" y="332" width="1" height="1" fill="#f9faf9"/>
  <rect x="231" y="332" width="1" height="1" fill="#f5f5f4"/>
  <rect x="232" y="332" width="1" height="1" fill="#f2f2f2"/>
  <rect x="233" y="332" width="1" height="1" fill="#f5f5f4"/>
  <rect x="234" y="332" width="1" height="1" fill="#f8f8f7"/>
  <rect x="255" y="332" width="1" height="1" fill="#f9f9f9"/>
  <rect x="256" y="332" width="1" height="1" fill="#f0eff0"/>
  <rect x="257" y="332" width="1" height="1" fill="#f1f1f2"/>
  <rect x="258" y="332" width="1" height="1" fill="#fbfbfb"/>
  <rect x="229" y="333" width="1" height="1" fill="#c2c3c7"/>
  <rect x="230" y="333" width="1" height="1" fill="#f9f9f9"/>
  <rect x="231" y="333" width="1" height="1" fill="#f5f5f4"/>
  <rect x="232" y="333" width="1" height="1" fill="#f4f3f2"/>
  <rect x="233" y="333" width="1" height="1" fill="#fefefe"/>
  <rect x="255" y="333" width="1" height="1" fill="#f4f3f3"/>
  <rect x="256" y="333" width="1" height="1" fill="#f2f1f2"/>
  <rect x="257" y="333" width="1" height="1" fill="#f0f1f1"/>
  <rect x="258" y="333" width="1" height="1" fill="#f8f8f7"/>
  <rect x="259" y="333" width="1" height="1" fill="#fffefb"/>
  <rect x="229" y="334" width="1" height="1" fill="#f7f7f7"/>
  <rect x="230" y="334" width="1" height="1" fill="#f3f3f1"/>
  <rect x="231" y="334" width="1" height="1" fill="#f0f1f2"/>
  <rect x="232" y="334" width="1" height="1" fill="#f7f7f8"/>
  <rect x="233" y="334" width="1" height="1" fill="#e0e2e4"/>
  <rect x="256" y="334" width="1" height="1" fill="#fdfcfc"/>
  <rect x="257" y="334" width="1" height="1" fill="#fcfcfb"/>
  <rect x="258" y="334" width="1" height="1" fill="#fffefc"/>
  <rect x="259" y="334" width="1" height="1" fill="#ffffff"/>
  <rect x="260" y="334" width="1" height="1" fill="#d4d3cf"/>
</svg>
