<?xml version="1.0" encoding="UTF-8"?>
<svg xmlns="http://www.w3.org/2000/svg" width="492" height="461">
  <rect x="137" y="311" width="1" height="1" fill="#ffffff"/>
  <rect x="138" y="311" width="1" height="1" fill="#fdfdfc"/>
  <rect x="139" y="311" width="1" height="1" fill="#fefdfd"/>
  <rect x="140" y="311" width="1" height="1" fill="#ffffff"/>
  <rect x="160" y="311" width="1" height="1" fill="#e1e2e6"/>
  <rect x="161" y="311" width="1" height="1" fill="#fbfbfc"/>
  <rect x="162" y="311" width="1" height="1" fill="#f8f9fa"/>
  <rect x="163" y="311" width="1" height="1" fill="#fafafb"/>
  <rect x="164" y="311" width="1" height="1" fill="#bfc2c5"/>
  <rect x="137" y="312" width="1" height="1" fill="#ffffff"/>
  <rect x="138" y="312" width="1" height="1" fill="#f8f8f8"/>
  <rect x="139" y="312" width="1" height="1" fill="#faf9f8"/>
  <rect x="140" y="312" width="1" height="1" fill="#ffffff"/>
  <rect x="160" y="312" width="1" height="1" fill="#eeeff2"/>
  <rect x="161" y="312" width="1" height="1" fill="#fefefe"/>
  <rect x="162" y="312" width="1" height="1" fill="#f8f8f9"/>
  <rect x="163" y="312" width="1" height="1" fill="#fcfcfd"/>
  <rect x="164" y="312" width="1" height="1" fill="#c4c7c8"/>
  <rect x="137" y="313" width="1" height="1" fill="#ffffff"/>
  <rect x="138" y="313" width="1" height="1" fill="#f8f8f8"/>
  <rect x="139" y="313" width="1" height="1" fill="#fafafa"/>
  <rect x="140" y="313" width="1" height="1" fill="#ffffff"/>
  <rect x="160" y="313" width="1" height="1" fill="#f1f1f3"/>
  <rect x="161" y="313" width="1" height="1" fill="#ffffff"/>
  <rect x="162" y="313" width="1" height="1" fill="#f9fafa"/>
  <rect x="163" y="313" width="1" height="1" fill="#fdfdfd"/>
  <rect x="164" y="313" width="1" height="1" fill="#c4c8c7"/>
  <rect x="137" y="314" width="1" height="1" fill="#ffffff"/>
  <rect x="138" y="314" width="1" height="1" fill="#f9fafa"/>
  <rect x="139" y="314" width="1" height="1" fill="#fafbfb"/>
  <rect x="140" y="314" width="1" height="1" fill="#ffffff"/>
  <rect x="160" y="314" width="1" height="1" fill="#f6f6f7"/>
  <rect x="161" y="314" width="1" height="1" fill="#ffffff"/>
  <rect x="162" y="314" width="1" height="1" fill="#fcfcfc"/>
  <rect x="163" y="314" width="1" height="1" fill="#fdfcfd"/>
  <rect x="164" y="314" width="1" height="1" fill="#c8c9c9"/>
  <rect x="137" y="315" width="1" height="1" fill="#fefdff"/>
  <rect x="138" y="315" width="1" height="1" fill="#f9f9f9"/>
  <rect x="139" y="315" width="1" height="1" fill="#fbfafa"/>
  <rect x="140" y="315" width="1" height="1" fill="#ffffff"/>
  <rect x="160" y="315" width="1" height="1" fill="#f8f7f9"/>
  <rect x="161" y="315" width="1" height="1" fill="#ffffff"/>
  <rect x="162" y="315" width="1" height="1" fill="#fcfbfc"/>
  <rect x="163" y="315" width="1" height="1" fill="#fdfcfc"/>
  <rect x="164" y="315" width="1" height="1" fill="#c8c9c9"/>
  <rect x="137" y="316" width="1" height="1" fill="#fdfcfd"/>
  <rect x="138" y="316" width="1" height="1" fill="#f9f8f8"/>
  <rect x="139" y="316" width="1" height="1" fill="#fbfafa"/>
  <rect x="140" y="316" width="1" height="1" fill="#ffffff"/>
  <rect x="160" y="316" width="1" height="1" fill="#f8f8f9"/>
  <rect x="161" y="316" width="1" height="1" fill="#ffffff"/>
  <rect x="162" y="316" width="1" height="1" fill="#fcfcfc"/>
  <rect x="163" y="316" width="1" height="1" fill="#fdfdfc"/>
  <rect x="164" y="316" width="1" height="1" fill="#c9cbca"/>
  <rect x="137" y="317" width="1" height="1" fill="#fcfcfc"/>
  <rect x="138" y="317" width="1" height="1" fill="#f7f7f7"/>
  <rect x="139" y="317" width="1" height="1" fill="#f9f9f8"/>
  <rect x="140" y="317" width="1" height="1" fill="#ffffff"/>
  <rect x="160" y="317" width="1" height="1" fill="#f9f8f9"/>
  <rect x="161" y="317" width="1" height="1" fill="#fffffe"/>
  <rect x="162" y="317" width="1" height="1" fill="#fbfbfb"/>
  <rect x="163" y="317" width="1" height="1" fill="#fdfdfd"/>
  <rect x="164" y="317" width="1" height="1" fill="#cacbcb"/>
  <rect x="137" y="318" width="1" height="1" fill="#fbfbfc"/>
  <rect x="138" y="318" width="1" height="1" fill="#f6f6f6"/>
  <rect x="139" y="318" width="1" height="1" fill="#f7f7f6"/>
  <rect x="140" y="318" width="1" height="1" fill="#fffefe"/>
  <rect x="160" y="318" width="1" height="1" fill="#f9f9fa"/>
  <rect x="161" y="318" width="1" height="1" fill="#fffefe"/>
  <rect x="162" y="318" width="1" height="1" fill="#fbfbfb"/>
  <rect x="163" y="318" width="1" height="1" fill="#fdfdfd"/>
  <rect x="164" y="318" width="1" height="1" fill="#c9caca"/>
  <rect x="137" y="319" width="1" height="1" fill="#fbfafb"/>
  <rect x="138" y="319" width="1" height="1" fill="#f5f5f5"/>
  <rect x="139" y="319" width="1" height="1" fill="#f6f6f5"/>
  <rect x="140" y="319" width="1" height="1" fill="#fdfdfc"/>
  <rect x="160" y="319" width="1" height="1" fill="#f9fafa"/>
  <rect x="161" y="319" width="1" height="1" fill="#ffffff"/>
  <rect x="162" y="319" width="1" height="1" fill="#fbfbfc"/>
  <rect x="163" y="319" width="1" height="1" fill="#fefdfd"/>
  <rect x="164" y="319" width="1" height="1" fill="#c9cacb"/>
  <rect x="137" y="320" width="1" height="1" fill="#fafafb"/>
  <rect x="138" y="320" width="1" height="1" fill="#f4f5f4"/>
  <rect x="139" y="320" width="1" height="1" fill="#f4f4f4"/>
  <rect x="140" y="320" width="1" height="1" fill="#fbfbfa"/>
  <rect x="160" y="320" width="1" height="1" fill="#fafafb"/>
  <rect x="161" y="320" width="1" height="1" fill="#ffffff"/>
  <rect x="162" y="320" width="1" height="1" fill="#fdfdfd"/>
  <rect x="163" y="320" width="1" height="1" fill="#ffffff"/>
  <rect x="164" y="320" width="1" height="1" fill="#cbcccc"/>
  <rect x="137" y="321" width="1" height="1" fill="#fafafa"/>
  <rect x="138" y="321" width="1" height="1" fill="#f3f4f3"/>
  <rect x="139" y="321" width="1" height="1" fill="#f3f3f2"/>
  <rect x="140" y="321" width="1" height="1" fill="#faf9f8"/>
  <rect x="160" y="321" width="1" height="1" fill="#fafbfb"/>
  <rect x="161" y="321" width="1" height="1" fill="#ffffff"/>
  <rect x="162" y="321" width="1" height="1" fill="#fefefe"/>
  <rect x="163" y="321" width="1" height="1" fill="#ffffff"/>
  <rect x="164" y="321" width="1" height="1" fill="#cecfcf"/>
  <rect x="137" y="322" width="1" height="1" fill="#fafafa"/>
  <rect x="138" y="322" width="1" height="1" fill="#f4f4f3"/>
  <rect x="139" y="322" width="1" height="1" fill="#f4f3f2"/>
  <rect x="140" y="322" width="1" height="1" fill="#f9f8f7"/>
  <rect x="160" y="322" width="1" height="1" fill="#fafafa"/>
  <rect x="161" y="322" width="3" height="1" fill="#ffffff"/>
  <rect x="164" y="322" width="1" height="1" fill="#d0d1d1"/>
  <rect x="137" y="323" width="1" height="1" fill="#fafafa"/>
  <rect x="138" y="323" width="1" height="1" fill="#f4f4f4"/>
  <rect x="139" y="323" width="1" height="1" fill="#f4f3f2"/>
  <rect x="140" y="323" width="1" height="1" fill="#f9f8f7"/>
  <rect x="160" y="323" width="1" height="1" fill="#fafafa"/>
  <rect x="161" y="323" width="3" height="1" fill="#ffffff"/>
  <rect x="164" y="323" width="1" height="1" fill="#d1d3d3"/>
  <rect x="137" y="324" width="1" height="1" fill="#fcfcfc"/>
  <rect x="138" y="324" width="1" height="1" fill="#f6f6f5"/>
  <rect x="139" y="324" width="1" height="1" fill="#f4f4f3"/>
  <rect x="140" y="324" width="1" height="1" fill="#f9f8f8"/>
  <rect x="160" y="324" width="1" height="1" fill="#fbfcfb"/>
  <rect x="161" y="324" width="3" height="1" fill="#ffffff"/>
  <rect x="164" y="324" width="1" height="1" fill="#d1d3d3"/>
  <rect x="137" y="325" width="1" height="1" fill="#fdfdfd"/>
  <rect x="138" y="325" width="1" height="1" fill="#f6f7f6"/>
  <rect x="139" y="325" width="1" height="1" fill="#f5f5f4"/>
  <rect x="140" y="325" width="1" height="1" fill="#f9f9f8"/>
  <rect x="160" y="325" width="1" height="1" fill="#fcfdfc"/>
  <rect x="161" y="325" width="3" height="1" fill="#ffffff"/>
  <rect x="164" y="325" width="1" height="1" fill="#d1d3d3"/>
  <rect x="137" y="326" width="1" height="1" fill="#fefefe"/>
  <rect x="138" y="326" width="1" height="1" fill="#f7f7f7"/>
  <rect x="139" y="326" width="1" height="1" fill="#f7f7f6"/>
  <rect x="140" y="326" width="1" height="1" fill="#fafaf9"/>
  <rect x="160" y="326" width="1" height="1" fill="#fdfdfc"/>
  <rect x="161" y="326" width="3" height="1" fill="#ffffff"/>
  <rect x="164" y="326" width="1" height="1" fill="#d1d2d2"/>
  <rect x="137" y="327" width="1" height="1" fill="#fefffe"/>
  <rect x="138" y="327" width="1" height="1" fill="#f7f7f6"/>
  <rect x="139" y="327" width="1" height="1" fill="#f9f8f6"/>
  <rect x="140" y="327" width="1" height="1" fill="#faf9f8"/>
  <rect x="160" y="327" width="1" height="1" fill="#fbfbfb"/>
  <rect x="161" y="327" width="3" height="1" fill="#ffffff"/>
  <rect x="164" y="327" width="1" height="1" fill="#cfd1d1"/>
  <rect x="137" y="328" width="1" height="1" fill="#fffefd"/>
  <rect x="138" y="328" width="1" height="1" fill="#faf9f6"/>
  <rect x="139" y="328" width="2" height="1" fill="#fcf9f7"/>
  <rect x="160" y="328" width="1" height="1" fill="#fdfdfc"/>
  <rect x="161" y="328" width="3" height="1" fill="#ffffff"/>
  <rect x="164" y="328" width="1" height="1" fill="#d1d3d1"/>
  <rect x="137" y="329" width="1" height="1" fill="#fdfcfb"/>
  <rect x="138" y="329" width="1" height="1" fill="#f8f5f4"/>
  <rect x="139" y="329" width="1" height="1" fill="#f9f6f4"/>
  <rect x="140" y="329" width="1" height="1" fill="#fcfaf7"/>
  <rect x="160" y="329" width="4" height="1" fill="#ffffff"/>
  <rect x="164" y="329" width="1" height="1" fill="#cdcdcd"/>
  <rect x="137" y="330" width="1" height="1" fill="#fafaf9"/>
  <rect x="138" y="330" width="1" height="1" fill="#f4f3f3"/>
  <rect x="139" y="330" width="2" height="1" fill="#f6f5f4"/>
  <rect x="141" y="330" width="1" height="1" fill="#f7f6f5"/>
  <rect x="159" y="330" width="1" height="1" fill="#f6f7f6"/>
  <rect x="160" y="330" width="1" height="1" fill="#fbfbfa"/>
  <rect x="161" y="330" width="1" height="1" fill="#fafaf9"/>
  <rect x="162" y="330" width="1" height="1" fill="#fcfcfa"/>
  <rect x="163" y="330" width="1" height="1" fill="#ffffff"/>
  <rect x="137" y="331" width="1" height="1" fill="#e5e7e8"/>
  <rect x="138" y="331" width="1" height="1" fill="#f4f4f5"/>
  <rect x="139" y="331" width="1" height="1" fill="#f0f1f1"/>
  <rect x="140" y="331" width="1" height="1" fill="#f2f1f2"/>
  <rect x="141" y="331" width="1" height="1" fill="#f5f4f4"/>
  <rect x="142" y="331" width="1" height="1" fill="#f7f6f6"/>
  <rect x="143" y="331" width="1" height="1" fill="#f8f7f7"/>
  <rect x="144" y="331" width="1" height="1" fill="#f7f7f7"/>
  <rect x="145" y="331" width="2" height="1" fill="#f7f8f8"/>
  <rect x="147" y="331" width="1" height="1" fill="#f7f8f9"/>
  <rect x="148" y="331" width="1" height="1" fill="#f8f8f8"/>
  <rect x="149" y="331" width="1" height="1" fill="#f8f8f9"/>
  <rect x="150" y="331" width="1" height="1" fill="#f8f8f8"/>
  <rect x="151" y="331" width="1" height="1" fill="#f8f8f9"/>
  <rect x="152" y="331" width="1" height="1" fill="#f9f9f9"/>
  <rect x="153" y="331" width="1" height="1" fill="#faf9f9"/>
  <rect x="154" y="331" width="1" height="1" fill="#fafafa"/>
  <rect x="155" y="331" width="1" height="1" fill="#fbfbfb"/>
  <rect x="156" y="331" width="1" height="1" fill="#fcfcfb"/>
  <rect x="157" y="331" width="1" height="1" fill="#fdfdfd"/>
  <rect x="158" y="331" width="1" height="1" fill="#fcfbfc"/>
  <rect x="159" y="331" width="1" height="1" fill="#f7f7f7"/>
  <rect x="160" y="331" width="2" height="1" fill="#f4f4f4"/>
  <rect x="162" y="331" width="1" height="1" fill="#fbfaf9"/>
  <rect x="163" y="331" width="1" height="1" fill="#ffffff"/>
  <rect x="138" y="332" width="1" height="1" fill="#f7f8f8"/>
  <rect x="139" y="332" width="1" height="1" fill="#f4f4f4"/>
  <rect x="140" y="332" width="1" height="1" fill="#f1f1f2"/>
  <rect x="141" y="332" width="1" height="1" fill="#f2f2f2"/>
  <rect x="142" y="332" width="1" height="1" fill="#f0efee"/>
  <rect x="143" y="332" width="1" height="1" fill="#efefee"/>
  <rect x="144" y="332" width="1" height="1" fill="#eff0ef"/>
  <rect x="145" y="332" width="1" height="1" fill="#f1f2f2"/>
  <rect x="146" y="332" width="1" height="1" fill="#f0f1f1"/>
  <rect x="147" y="332" width="1" height="1" fill="#f1f2f2"/>
  <rect x="148" y="332" width="1" height="1" fill="#f0f0f0"/>
  <rect x="149" y="332" width="1" height="1" fill="#f1f1f1"/>
  <rect x="150" y="332" width="2" height="1" fill="#f0f0f1"/>
  <rect x="152" y="332" width="1" height="1" fill="#f0eff0"/>
  <rect x="153" y="332" width="1" height="1" fill="#f0f0f0"/>
  <rect x="154" y="332" width="1" height="1" fill="#efefef"/>
  <rect x="155" y="332" width="1" height="1" fill="#f1f0f0"/>
  <rect x="156" y="332" width="1" height="1" fill="#f0efef"/>
  <rect x="157" y="332" width="1" height="1" fill="#f1f0f1"/>
  <rect x="158" y="332" width="1" height="1" fill="#f1f1f1"/>
  <rect x="159" y="332" width="1" height="1" fill="#f4f4f4"/>
  <rect x="160" y="332" width="1" height="1" fill="#f5f5f6"/>
  <rect x="161" y="332" width="1" height="1" fill="#f7f6f6"/>
  <rect x="162" y="332" width="1" height="1" fill="#ffffff"/>
  <rect x="139" y="333" width="1" height="1" fill="#f8f8f8"/>
  <rect x="140" y="333" width="1" height="1" fill="#f7f7f8"/>
  <rect x="141" y="333" width="1" height="1" fill="#f3f4f4"/>
  <rect x="142" y="333" width="1" height="1" fill="#efeeef"/>
  <rect x="143" y="333" width="2" height="1" fill="#edeeee"/>
  <rect x="145" y="333" width="4" height="1" fill="#eff0f0"/>
  <rect x="149" y="333" width="3" height="1" fill="#f0f1f1"/>
  <rect x="152" y="333" width="1" height="1" fill="#f0f0f1"/>
  <rect x="153" y="333" width="1" height="1" fill="#f0f1f1"/>
  <rect x="154" y="333" width="2" height="1" fill="#f0f0f1"/>
  <rect x="156" y="333" width="2" height="1" fill="#eeefef"/>
  <rect x="158" y="333" width="1" height="1" fill="#f1f1f1"/>
  <rect x="159" y="333" width="1" height="1" fill="#f9f8f8"/>
  <rect x="160" y="333" width="1" height="1" fill="#fefefe"/>
  <rect x="161" y="333" width="1" height="1" fill="#ffffff"/>
  <rect x="141" y="334" width="1" height="1" fill="#ededed"/>
  <rect x="142" y="334" width="1" height="1" fill="#f4f3f4"/>
  <rect x="143" y="334" width="1" height="1" fill="#f5f4f5"/>
  <rect x="144" y="334" width="1" height="1" fill="#f4f4f4"/>
  <rect x="145" y="334" width="1" height="1" fill="#f5f5f5"/>
  <rect x="146" y="334" width="2" height="1" fill="#f5f5f4"/>
  <rect x="148" y="334" width="1" height="1" fill="#f5f4f4"/>
  <rect x="149" y="334" width="1" height="1" fill="#f5f5f4"/>
  <rect x="150" y="334" width="1" height="1" fill="#f5f4f4"/>
  <rect x="151" y="334" width="1" height="1" fill="#f6f4f4"/>
  <rect x="152" y="334" width="1" height="1" fill="#f5f4f4"/>
  <rect x="153" y="334" width="2" height="1" fill="#f5f5f4"/>
  <rect x="155" y="334" width="1" height="1" fill="#f6f6f5"/>
  <rect x="156" y="334" width="1" height="1" fill="#f5f5f5"/>
  <rect x="157" y="334" width="1" height="1" fill="#f6f6f6"/>
  <rect x="158" y="334" width="1" height="1" fill="#f8f7f7"/>
  <rect x="159" y="334" width="1" height="1" fill="#f4f4f2"/>
</svg>
