<?xml version="1.0" encoding="UTF-8"?>
<svg xmlns="http://www.w3.org/2000/svg" width="492" height="461">
  <path d="M220,0 L219,1 L213,1 L212,2 L206,2 L205,3 L201,3 L200,4 L196,4 L195,5 L192,5 L191,6 L188,6 L187,7 L184,7 L183,8 L181,8 L180,9 L177,9 L176,10 L174,10 L173,11 L171,11 L170,12 L169,12 L168,13 L166,13 L165,14 L163,14 L162,15 L161,15 L160,16 L158,16 L157,17 L156,17 L155,18 L153,18 L152,19 L151,19 L150,20 L149,20 L148,21 L147,21 L146,22 L145,22 L144,23 L143,23 L142,24 L141,24 L140,25 L139,25 L138,26 L137,26 L136,27 L135,27 L134,28 L133,28 L131,30 L130,30 L129,31 L128,31 L127,32 L126,32 L124,34 L123,34 L121,36 L120,36 L118,38 L117,38 L115,40 L114,40 L112,42 L111,42 L108,45 L107,45 L104,48 L103,48 L99,52 L98,52 L93,57 L92,57 L73,76 L73,77 L67,83 L67,84 L63,88 L63,89 L60,92 L60,93 L57,96 L57,97 L55,99 L55,100 L53,102 L53,103 L51,105 L51,106 L49,108 L49,109 L48,110 L48,111 L46,113 L46,114 L45,115 L45,116 L44,117 L44,118 L43,119 L43,120 L41,122 L41,123 L40,124 L40,125 L39,126 L39,127 L38,128 L38,129 L37,130 L37,131 L36,132 L36,134 L35,135 L35,136 L34,137 L34,138 L33,139 L33,140 L32,141 L32,143 L31,144 L31,145 L30,146 L30,148 L29,149 L29,151 L28,152 L28,153 L27,154 L27,156 L26,157 L26,159 L25,160 L25,163 L24,164 L24,166 L23,167 L23,170 L22,171 L22,173 L21,174 L21,178 L20,179 L20,182 L19,183 L19,187 L18,188 L18,193 L17,194 L17,200 L16,201 L16,208 L15,209 L15,252 L16,253 L16,260 L17,261 L17,267 L18,268 L18,273 L19,274 L19,278 L20,279 L20,282 L21,283 L21,287 L22,288 L22,290 L23,291 L23,294 L24,295 L24,297 L25,298 L25,301 L26,302 L26,304 L27,305 L27,307 L28,308 L28,309 L29,310 L29,312 L30,313 L30,315 L31,316 L31,317 L32,318 L32,320 L33,321 L33,322 L34,323 L34,324 L35,325 L35,326 L36,327 L36,329 L37,330 L37,331 L38,332 L38,333 L39,334 L39,335 L40,336 L40,337 L41,338 L41,339 L43,341 L43,342 L44,343 L44,344 L45,345 L45,346 L46,347 L46,348 L48,350 L48,351 L49,352 L49,353 L51,355 L51,356 L53,358 L53,359 L55,361 L55,362 L57,364 L57,365 L60,368 L60,369 L63,372 L63,373 L67,377 L67,378 L73,384 L73,385 L92,404 L93,404 L98,409 L99,409 L103,413 L104,413 L107,416 L108,416 L111,419 L112,419 L114,421 L115,421 L117,423 L118,423 L120,425 L121,425 L123,427 L124,427 L126,429 L127,429 L128,430 L129,430 L130,431 L131,431 L133,433 L134,433 L135,434 L136,434 L137,435 L138,435 L139,436 L140,436 L141,437 L142,437 L143,438 L144,438 L145,439 L146,439 L147,440 L148,440 L149,441 L150,441 L151,442 L152,442 L153,443 L155,443 L156,444 L157,444 L158,445 L160,445 L161,446 L162,446 L163,447 L165,447 L166,448 L168,448 L169,449 L170,449 L171,450 L173,450 L174,451 L176,451 L177,452 L180,452 L181,453 L183,453 L184,454 L187,454 L188,455 L191,455 L192,456 L195,456 L196,457 L200,457 L201,458 L205,458 L206,459 L212,459 L213,460 L279,460 L280,459 L286,459 L287,458 L291,458 L292,457 L296,457 L297,456 L300,456 L301,455 L304,455 L305,454 L308,454 L309,453 L311,453 L312,452 L315,452 L316,451 L318,451 L319,450 L321,450 L322,449 L323,449 L324,448 L326,448 L327,447 L329,447 L330,446 L331,446 L332,445 L334,445 L335,444 L336,444 L337,443 L339,443 L340,442 L341,442 L342,441 L343,441 L344,440 L345,440 L346,439 L347,439 L348,438 L349,438 L350,437 L351,437 L352,436 L353,436 L354,435 L355,435 L356,434 L357,434 L358,433 L359,433 L361,431 L362,431 L363,430 L364,430 L365,429 L366,429 L368,427 L369,427 L371,425 L372,425 L374,423 L375,423 L377,421 L378,421 L380,419 L381,419 L384,416 L385,416 L388,413 L389,413 L393,409 L394,409 L399,404 L400,404 L419,385 L419,384 L425,378 L425,377 L429,373 L429,372 L432,369 L432,368 L435,365 L435,364 L437,362 L437,361 L439,359 L439,358 L441,356 L441,355 L443,353 L443,352 L444,351 L444,350 L446,348 L446,347 L447,346 L447,345 L448,344 L448,343 L449,342 L449,341 L451,339 L451,338 L452,337 L452,336 L453,335 L453,334 L454,333 L454,332 L455,331 L455,330 L456,329 L456,327 L457,326 L457,325 L458,324 L458,323 L459,322 L459,321 L460,320 L460,318 L461,317 L461,316 L462,315 L462,313 L463,312 L463,310 L464,309 L464,308 L465,307 L465,305 L466,304 L466,302 L467,301 L467,298 L468,297 L468,295 L469,294 L469,291 L470,290 L470,288 L471,287 L471,283 L472,282 L472,279 L473,278 L473,274 L474,273 L474,268 L475,267 L475,261 L476,260 L476,253 L477,252 L477,209 L476,208 L476,201 L475,200 L475,194 L474,193 L474,188 L473,187 L473,183 L472,182 L472,179 L471,178 L471,174 L470,173 L470,171 L469,170 L469,167 L468,166 L468,164 L467,163 L467,160 L466,159 L466,157 L465,156 L465,154 L464,153 L464,152 L463,151 L463,149 L462,148 L462,146 L461,145 L461,144 L460,143 L460,141 L459,140 L459,139 L458,138 L458,137 L457,136 L457,135 L456,134 L456,132 L455,131 L455,130 L454,129 L454,128 L453,127 L453,126 L452,125 L452,124 L451,123 L451,122 L449,120 L449,119 L448,118 L448,117 L447,116 L447,115 L446,114 L446,113 L444,111 L444,110 L443,109 L443,108 L441,106 L441,105 L439,103 L439,102 L437,100 L437,99 L435,97 L435,96 L432,93 L432,92 L429,89 L429,88 L425,84 L425,83 L419,77 L419,76 L400,57 L399,57 L394,52 L393,52 L389,48 L388,48 L385,45 L384,45 L381,42 L380,42 L378,40 L377,40 L375,38 L374,38 L372,36 L371,36 L369,34 L368,34 L366,32 L365,32 L364,31 L363,31 L362,30 L361,30 L359,28 L358,28 L357,27 L356,27 L355,26 L354,26 L353,25 L352,25 L351,24 L350,24 L349,23 L348,23 L347,22 L346,22 L345,21 L344,21 L343,20 L342,20 L341,19 L340,19 L339,18 L337,18 L336,17 L335,17 L334,16 L332,16 L331,15 L330,15 L329,14 L327,14 L326,13 L324,13 L323,12 L322,12 L321,11 L319,11 L318,10 L316,10 L315,9 L312,9 L311,8 L309,8 L308,7 L305,7 L304,6 L301,6 L300,5 L297,5 L296,4 L292,4 L291,3 L287,3 L286,2 L280,2 L279,1 L273,1 L272,0 Z M232,53 L233,52 L259,52 L260,53 L269,53 L270,54 L275,54 L276,55 L281,55 L282,56 L285,56 L286,57 L289,57 L290,58 L293,58 L294,59 L297,59 L298,60 L300,60 L301,61 L303,61 L304,62 L306,62 L307,63 L308,63 L309,64 L311,64 L312,65 L313,65 L314,66 L316,66 L317,67 L318,67 L319,68 L320,68 L321,69 L322,69 L323,70 L325,70 L326,71 L327,71 L329,73 L330,73 L331,74 L332,74 L333,75 L334,75 L335,76 L336,76 L338,78 L339,78 L340,79 L341,79 L343,81 L344,81 L346,83 L347,83 L350,86 L351,86 L354,89 L355,89 L358,92 L359,92 L366,99 L367,99 L378,110 L378,111 L384,117 L384,118 L388,122 L388,123 L391,126 L391,127 L393,129 L393,130 L395,132 L395,133 L397,135 L397,136 L399,138 L399,139 L400,140 L400,141 L402,143 L402,144 L403,145 L403,146 L404,147 L404,148 L405,149 L405,150 L406,151 L406,152 L407,153 L407,154 L408,155 L408,156 L409,157 L409,158 L410,159 L410,161 L411,162 L411,163 L412,164 L412,166 L413,167 L413,168 L414,169 L414,171 L415,172 L415,174 L416,175 L416,177 L417,178 L417,181 L418,182 L418,184 L419,185 L419,188 L420,189 L420,192 L421,193 L421,197 L422,198 L422,203 L423,204 L423,211 L424,212 L424,249 L423,250 L423,257 L422,258 L422,263 L421,264 L421,268 L420,269 L420,272 L419,273 L419,276 L418,277 L418,279 L417,280 L417,283 L416,284 L416,286 L415,287 L415,289 L414,290 L414,292 L413,293 L413,294 L412,295 L412,297 L411,298 L411,299 L410,300 L410,302 L409,303 L409,304 L408,305 L408,306 L407,307 L407,308 L406,309 L406,310 L405,311 L405,312 L404,313 L404,314 L403,315 L403,316 L402,317 L402,318 L400,320 L400,321 L399,322 L399,323 L397,325 L397,326 L395,328 L395,329 L393,331 L393,332 L391,334 L391,335 L388,338 L388,339 L384,343 L384,344 L378,350 L378,351 L367,362 L366,362 L359,369 L358,369 L355,372 L354,372 L351,375 L350,375 L347,378 L346,378 L344,380 L343,380 L341,382 L340,382 L339,383 L338,383 L336,385 L335,385 L334,386 L333,386 L332,387 L331,387 L330,388 L329,388 L327,390 L326,390 L325,391 L323,391 L322,392 L321,392 L320,393 L319,393 L318,394 L317,394 L316,395 L314,395 L313,396 L312,396 L311,397 L309,397 L308,398 L307,398 L306,399 L304,399 L303,400 L301,400 L300,401 L298,401 L297,402 L294,402 L293,403 L290,403 L289,404 L286,404 L285,405 L282,405 L281,406 L276,406 L275,407 L270,407 L269,408 L260,408 L259,409 L233,409 L232,408 L223,408 L222,407 L217,407 L216,406 L211,406 L210,405 L207,405 L206,404 L203,404 L202,403 L199,403 L198,402 L195,402 L194,401 L192,401 L191,400 L189,400 L188,399 L186,399 L185,398 L184,398 L183,397 L181,397 L180,396 L179,396 L178,395 L176,395 L175,394 L174,394 L173,393 L172,393 L171,392 L170,392 L169,391 L167,391 L166,390 L165,390 L163,388 L162,388 L161,387 L160,387 L159,386 L158,386 L157,385 L156,385 L154,383 L153,383 L152,382 L151,382 L149,380 L148,380 L146,378 L145,378 L142,375 L141,375 L138,372 L137,372 L134,369 L133,369 L126,362 L125,362 L114,351 L114,350 L108,344 L108,343 L104,339 L104,338 L101,335 L101,334 L99,332 L99,331 L97,329 L97,328 L95,326 L95,325 L93,323 L93,322 L92,321 L92,320 L90,318 L90,317 L89,316 L89,315 L88,314 L88,313 L87,312 L87,311 L86,310 L86,309 L85,308 L85,307 L84,306 L84,305 L83,304 L83,303 L82,302 L82,300 L81,299 L81,298 L80,297 L80,295 L79,294 L79,293 L78,292 L78,290 L77,289 L77,287 L76,286 L76,284 L75,283 L75,280 L74,279 L74,277 L73,276 L73,273 L72,272 L72,269 L71,268 L71,264 L70,263 L70,258 L69,257 L69,250 L68,249 L68,212 L69,211 L69,204 L70,203 L70,198 L71,197 L71,193 L72,192 L72,189 L73,188 L73,185 L74,184 L74,182 L75,181 L75,178 L76,177 L76,175 L77,174 L77,172 L78,171 L78,169 L79,168 L79,167 L80,166 L80,164 L81,163 L81,162 L82,161 L82,159 L83,158 L83,157 L84,156 L84,155 L85,154 L85,153 L86,152 L86,151 L87,150 L87,149 L88,148 L88,147 L89,146 L89,145 L90,144 L90,143 L92,141 L92,140 L93,139 L93,138 L95,136 L95,135 L97,133 L97,132 L99,130 L99,129 L101,127 L101,126 L104,123 L104,122 L108,118 L108,117 L114,111 L114,110 L125,99 L126,99 L133,92 L134,92 L137,89 L138,89 L141,86 L142,86 L145,83 L146,83 L148,81 L149,81 L151,79 L152,79 L153,78 L154,78 L156,76 L157,76 L158,75 L159,75 L160,74 L161,74 L162,73 L163,73 L165,71 L166,71 L167,70 L169,70 L170,69 L171,69 L172,68 L173,68 L174,67 L175,67 L176,66 L178,66 L179,65 L180,65 L181,64 L183,64 L184,63 L185,63 L186,62 L188,62 L189,61 L191,61 L192,60 L194,60 L195,59 L198,59 L199,58 L202,58 L203,57 L206,57 L207,56 L210,56 L211,55 L216,55 L217,54 L222,54 L223,53 Z" fill="#030810" fill-rule="evenodd"/>
  <path d="M163,388 L163,390 L165,390 Z" fill="#0480f7" fill-rule="evenodd"/>
  <path d="M335,385 L334,386 L333,386 L333,388 L332,389 L328,389 L327,390 L334,390 L335,389 Z" fill="#0480f7" fill-rule="evenodd"/>
  <path d="M231,17 L230,18 L223,18 L222,19 L216,19 L215,20 L210,20 L209,21 L205,21 L204,22 L201,22 L200,23 L196,23 L195,24 L193,24 L192,25 L189,25 L188,26 L186,26 L185,27 L183,27 L182,28 L180,28 L179,29 L177,29 L176,30 L174,30 L173,31 L172,31 L171,32 L169,32 L168,33 L167,33 L166,34 L165,34 L164,35 L162,35 L161,36 L160,36 L159,37 L158,37 L157,38 L156,38 L155,39 L154,39 L153,40 L152,40 L151,41 L150,41 L149,42 L148,42 L147,43 L146,43 L145,44 L144,44 L142,46 L141,46 L140,47 L139,47 L138,48 L137,48 L135,50 L134,50 L132,52 L131,52 L129,54 L128,54 L126,56 L125,56 L121,60 L120,60 L117,63 L116,63 L112,67 L111,67 L103,75 L103,76 L102,77 L101,77 L100,78 L99,78 L98,79 L97,79 L93,83 L93,84 L86,91 L86,92 L81,97 L81,98 L77,102 L77,103 L74,106 L74,107 L72,109 L72,110 L70,112 L70,113 L68,115 L68,116 L66,118 L66,119 L65,120 L65,121 L63,123 L63,124 L62,125 L62,126 L61,127 L61,128 L60,129 L60,130 L58,132 L58,133 L57,134 L57,135 L56,136 L56,137 L55,138 L55,140 L54,141 L54,142 L53,143 L53,144 L52,145 L52,146 L51,147 L51,149 L50,150 L50,151 L49,152 L49,153 L48,154 L48,156 L47,157 L47,159 L46,160 L46,162 L45,163 L45,165 L44,166 L44,168 L43,169 L43,171 L42,172 L42,174 L41,175 L41,178 L40,179 L40,182 L39,183 L39,186 L38,187 L38,191 L37,192 L37,196 L36,197 L36,203 L35,204 L35,210 L34,211 L34,220 L33,221 L33,244 L34,245 L34,254 L35,255 L35,261 L36,262 L36,267 L37,268 L37,271 L38,272 L38,277 L39,278 L39,281 L40,282 L40,285 L41,286 L41,288 L42,289 L42,291 L43,292 L43,294 L44,295 L44,297 L45,298 L45,300 L46,301 L46,303 L47,304 L47,306 L48,307 L48,308 L49,309 L49,311 L50,312 L50,313 L51,314 L51,315 L52,316 L52,317 L53,318 L53,319 L54,320 L54,322 L55,323 L55,324 L56,325 L56,326 L57,327 L57,328 L59,330 L59,331 L60,332 L60,333 L61,334 L61,335 L63,337 L63,338 L64,339 L64,340 L65,341 L65,342 L67,344 L67,345 L68,346 L68,347 L70,349 L70,350 L72,352 L75,352 L76,353 L76,355 L79,358 L79,359 L81,361 L81,362 L85,366 L85,367 L89,371 L89,372 L95,378 L95,379 L101,385 L103,385 L108,390 L109,390 L113,394 L114,394 L118,398 L119,398 L122,401 L123,401 L126,404 L127,404 L129,406 L130,406 L132,408 L133,408 L134,409 L135,409 L137,411 L138,411 L139,412 L140,412 L142,414 L143,414 L144,415 L145,415 L146,416 L147,416 L149,418 L150,418 L151,419 L152,419 L153,420 L154,420 L155,421 L156,421 L157,422 L159,422 L160,423 L161,423 L162,424 L163,424 L164,425 L166,425 L167,426 L168,426 L169,427 L170,427 L171,428 L173,428 L174,429 L176,429 L177,430 L178,430 L179,431 L181,431 L182,432 L183,432 L184,433 L186,433 L187,434 L190,434 L191,435 L193,435 L194,436 L197,436 L198,437 L201,437 L202,438 L205,438 L206,439 L210,439 L211,440 L216,440 L217,441 L222,441 L223,442 L230,442 L231,443 L244,443 L245,444 L263,444 L264,443 L274,443 L275,442 L282,442 L283,441 L289,441 L290,440 L294,440 L295,439 L298,439 L299,438 L302,438 L303,437 L306,437 L307,436 L310,436 L311,435 L313,435 L314,434 L315,434 L316,433 L318,433 L319,432 L325,432 L326,431 L327,431 L328,430 L329,430 L330,429 L332,429 L333,428 L334,428 L335,427 L336,427 L337,426 L339,426 L340,425 L341,425 L342,424 L343,424 L344,423 L345,423 L346,422 L347,422 L348,421 L349,421 L351,419 L352,419 L353,418 L354,418 L355,417 L356,417 L358,415 L359,415 L361,413 L362,413 L363,412 L364,412 L366,410 L367,410 L369,408 L370,408 L373,405 L374,405 L377,402 L378,402 L381,399 L382,399 L388,393 L389,393 L407,375 L407,373 L410,370 L411,370 L413,368 L413,367 L417,363 L417,362 L420,359 L420,358 L422,356 L422,355 L425,352 L425,351 L426,350 L426,349 L428,347 L428,346 L430,344 L430,343 L432,341 L432,340 L433,339 L433,338 L434,337 L434,336 L436,334 L436,333 L437,332 L437,331 L438,330 L438,329 L439,328 L439,327 L440,326 L440,325 L441,324 L441,322 L442,321 L442,320 L443,319 L443,318 L444,317 L444,316 L445,315 L445,313 L446,312 L446,311 L447,310 L447,308 L448,307 L448,306 L449,305 L449,303 L450,302 L450,300 L451,299 L451,297 L452,296 L452,293 L453,292 L453,290 L454,289 L454,286 L455,285 L455,282 L456,281 L456,278 L457,277 L457,273 L458,272 L458,267 L459,266 L459,264 L460,263 L460,254 L461,253 L461,241 L462,240 L462,222 L461,221 L461,209 L460,208 L460,201 L459,200 L459,195 L458,194 L458,191 L457,190 L457,188 L456,187 L456,185 L455,184 L455,181 L454,180 L454,177 L453,176 L453,173 L452,172 L452,170 L451,169 L451,166 L450,165 L450,163 L449,162 L449,161 L448,160 L448,158 L447,157 L447,155 L446,154 L446,153 L445,152 L445,150 L444,149 L444,147 L443,146 L443,145 L442,144 L442,143 L441,142 L441,141 L440,140 L440,138 L439,137 L439,136 L438,135 L438,134 L437,133 L437,132 L436,131 L436,130 L435,129 L435,128 L434,127 L434,126 L433,125 L433,124 L431,122 L431,121 L430,120 L430,119 L428,117 L428,116 L426,114 L426,113 L425,112 L425,111 L423,109 L423,108 L421,106 L421,105 L419,103 L419,102 L416,99 L416,98 L413,95 L413,94 L408,89 L408,88 L389,69 L388,69 L383,64 L382,64 L378,60 L377,60 L374,57 L373,57 L370,54 L369,54 L367,52 L366,52 L364,50 L363,50 L361,48 L360,48 L359,47 L358,47 L356,45 L355,45 L354,44 L353,44 L352,43 L351,43 L349,41 L348,41 L347,40 L346,40 L345,39 L344,39 L343,38 L342,38 L341,37 L340,37 L339,36 L337,36 L336,35 L335,35 L334,34 L333,34 L332,33 L331,33 L330,32 L328,32 L327,31 L325,31 L324,30 L322,30 L321,29 L319,29 L318,28 L316,28 L315,27 L313,27 L312,26 L309,26 L308,25 L305,25 L304,24 L301,24 L300,23 L297,23 L296,22 L291,22 L290,21 L284,21 L283,20 L277,20 L276,19 L266,19 L265,18 L253,18 L258,18 L259,19 L268,19 L269,20 L274,20 L275,21 L279,21 L280,22 L283,22 L284,23 L284,25 L283,26 L276,26 L275,25 L243,25 L242,24 L235,24 L234,23 L234,21 L235,20 L240,20 L241,19 L246,19 L247,18 L247,17 Z M199,38 L200,37 L202,37 L203,38 L203,41 L200,44 L199,44 L198,45 L196,45 L195,46 L193,46 L192,47 L191,47 L190,48 L189,48 L188,49 L187,49 L186,50 L185,50 L184,51 L183,51 L182,52 L181,52 L180,53 L179,53 L178,54 L177,54 L176,55 L175,55 L174,56 L173,56 L172,57 L171,57 L170,58 L169,58 L168,59 L167,59 L165,61 L164,61 L159,66 L158,66 L155,69 L154,69 L151,72 L150,72 L147,75 L146,75 L143,78 L142,78 L136,84 L135,84 L119,100 L119,101 L115,105 L115,106 L111,110 L111,111 L108,114 L108,115 L106,117 L106,118 L104,120 L104,121 L102,123 L102,124 L100,126 L100,127 L99,128 L99,129 L97,131 L97,132 L96,133 L96,134 L94,136 L94,137 L93,138 L93,139 L92,140 L92,141 L91,142 L92,141 L92,140 L93,139 L93,138 L95,136 L95,135 L97,133 L97,132 L99,130 L99,129 L101,127 L101,126 L104,123 L104,122 L108,118 L108,117 L114,111 L114,110 L125,99 L126,99 L133,92 L134,92 L137,89 L138,89 L141,86 L142,86 L145,83 L146,83 L148,81 L149,81 L151,79 L152,79 L153,78 L154,78 L156,76 L157,76 L158,75 L159,75 L160,74 L161,74 L162,73 L163,73 L165,71 L166,71 L167,70 L169,70 L170,69 L171,69 L172,68 L173,68 L174,67 L175,67 L176,66 L178,66 L179,65 L180,65 L181,64 L183,64 L184,63 L185,63 L186,62 L188,62 L189,61 L191,61 L192,60 L194,60 L195,59 L198,59 L199,58 L202,58 L203,57 L206,57 L207,56 L210,56 L211,55 L216,55 L217,54 L222,54 L223,53 L232,53 L233,52 L259,52 L260,53 L269,53 L270,54 L275,54 L276,55 L281,55 L282,56 L285,56 L286,57 L289,57 L290,58 L293,58 L294,59 L297,59 L298,60 L300,60 L301,61 L303,61 L304,62 L306,62 L307,63 L308,63 L309,64 L311,64 L312,65 L313,65 L314,66 L316,66 L317,67 L318,67 L319,68 L320,68 L321,69 L322,69 L323,70 L325,70 L326,71 L327,71 L329,73 L330,73 L331,74 L332,74 L333,75 L334,75 L335,76 L336,76 L338,78 L339,78 L340,79 L341,79 L343,81 L344,81 L346,83 L347,83 L350,86 L351,86 L354,89 L355,89 L358,92 L359,92 L366,99 L367,99 L378,110 L378,111 L384,117 L384,118 L388,122 L388,123 L391,126 L391,127 L393,129 L393,130 L395,132 L395,133 L397,135 L397,136 L399,138 L399,139 L400,140 L400,141 L402,143 L402,144 L403,145 L403,146 L404,147 L404,148 L405,149 L405,150 L406,151 L406,152 L407,153 L407,154 L408,155 L410,155 L411,156 L413,156 L414,155 L415,155 L415,150 L414,149 L414,148 L413,147 L413,146 L412,145 L412,144 L411,143 L411,142 L410,141 L410,140 L409,139 L409,138 L408,137 L408,136 L407,135 L407,134 L406,133 L406,131 L405,130 L405,128 L404,127 L404,124 L405,123 L405,122 L409,118 L410,118 L411,117 L414,117 L416,119 L416,121 L415,122 L415,123 L416,124 L416,125 L417,126 L417,127 L418,128 L418,129 L419,130 L419,131 L420,132 L420,133 L421,134 L421,135 L423,137 L423,139 L424,140 L424,141 L425,142 L425,143 L426,144 L426,145 L427,146 L427,147 L428,148 L428,150 L429,151 L429,152 L430,153 L430,155 L431,156 L431,158 L432,159 L432,161 L433,162 L433,164 L434,165 L434,167 L435,168 L435,170 L436,171 L436,173 L437,174 L437,177 L438,178 L438,181 L439,182 L439,185 L440,186 L440,189 L441,190 L441,194 L442,195 L442,197 L443,198 L443,212 L444,213 L444,232 L443,233 L443,234 L444,235 L444,236 L445,237 L446,237 L447,238 L449,238 L450,239 L450,246 L448,248 L446,248 L445,247 L444,247 L444,252 L443,253 L443,261 L442,262 L442,267 L441,268 L441,273 L440,274 L440,279 L439,280 L439,283 L438,284 L438,286 L437,287 L437,290 L436,291 L436,293 L435,294 L435,296 L434,297 L434,299 L433,300 L433,302 L432,303 L432,305 L431,306 L431,308 L430,309 L430,310 L429,311 L429,313 L428,314 L428,315 L427,316 L427,317 L426,318 L426,319 L425,320 L425,322 L424,323 L424,324 L423,325 L423,326 L422,327 L422,328 L421,329 L421,330 L420,331 L420,332 L419,333 L419,334 L418,335 L418,336 L417,337 L417,338 L415,340 L415,341 L413,343 L413,344 L411,346 L411,347 L409,349 L409,350 L407,352 L407,353 L404,356 L404,357 L402,359 L402,360 L398,364 L398,365 L391,372 L391,373 L384,380 L383,380 L373,390 L372,390 L368,394 L367,394 L363,398 L362,398 L360,400 L359,400 L356,403 L355,403 L354,404 L353,404 L351,406 L350,406 L348,408 L347,408 L345,410 L344,410 L343,411 L342,411 L340,413 L339,413 L338,414 L337,414 L336,415 L335,415 L334,416 L333,416 L332,417 L331,417 L330,418 L329,418 L328,419 L327,419 L326,420 L325,420 L324,421 L323,421 L322,422 L321,422 L320,423 L319,423 L318,424 L317,424 L316,425 L315,425 L314,426 L313,426 L312,427 L310,427 L309,428 L308,428 L307,429 L305,429 L304,430 L302,430 L301,431 L299,431 L298,432 L296,432 L295,433 L293,433 L292,434 L290,434 L289,435 L286,435 L285,436 L282,436 L281,437 L277,437 L276,438 L272,438 L271,439 L266,439 L265,440 L257,440 L256,441 L231,441 L230,440 L223,440 L222,439 L217,439 L216,438 L212,438 L211,437 L207,437 L206,436 L203,436 L202,435 L200,435 L199,434 L197,434 L196,433 L194,433 L193,432 L191,432 L190,431 L188,431 L187,430 L186,430 L185,429 L184,429 L183,428 L183,425 L182,425 L181,424 L180,424 L179,423 L177,423 L176,422 L175,422 L174,421 L172,421 L171,420 L170,420 L169,419 L168,419 L167,418 L166,418 L165,417 L164,417 L163,416 L162,416 L161,415 L160,415 L159,414 L158,414 L157,413 L156,413 L155,412 L154,412 L153,411 L152,411 L150,409 L149,409 L148,408 L147,408 L145,406 L144,406 L142,404 L141,404 L139,402 L138,402 L135,399 L134,399 L131,396 L130,396 L127,393 L126,393 L119,386 L118,386 L111,379 L110,379 L108,377 L108,376 L101,369 L101,368 L94,361 L94,360 L91,357 L91,356 L88,353 L88,352 L86,350 L85,350 L82,347 L82,345 L81,344 L81,343 L80,342 L80,341 L79,340 L79,339 L77,337 L77,336 L76,335 L76,334 L74,332 L74,331 L73,330 L73,329 L72,328 L72,327 L71,326 L71,325 L70,324 L70,323 L69,322 L69,321 L68,320 L68,319 L67,318 L67,317 L66,316 L66,315 L65,314 L65,313 L64,312 L64,310 L63,309 L63,308 L62,307 L62,305 L61,304 L61,303 L60,302 L60,300 L59,299 L59,297 L58,296 L58,294 L57,293 L57,291 L56,290 L56,288 L55,287 L55,285 L54,284 L54,281 L53,280 L53,276 L52,275 L52,272 L51,271 L51,267 L55,263 L55,249 L54,248 L54,225 L55,224 L55,214 L56,213 L56,206 L57,205 L57,201 L58,200 L58,196 L59,195 L59,192 L60,191 L60,187 L61,186 L61,184 L62,183 L62,181 L63,180 L63,177 L64,176 L64,174 L65,173 L65,171 L66,170 L66,168 L67,167 L67,165 L68,164 L68,163 L69,162 L69,160 L70,159 L70,158 L71,157 L71,155 L72,154 L72,153 L73,152 L73,151 L74,150 L74,149 L75,148 L75,146 L76,145 L76,144 L78,142 L78,141 L79,140 L79,139 L80,138 L80,137 L81,136 L81,135 L83,133 L83,132 L84,131 L84,130 L86,128 L86,127 L87,126 L87,125 L89,123 L89,122 L91,120 L91,119 L94,116 L94,115 L96,113 L96,112 L100,108 L100,107 L105,102 L105,101 L127,79 L128,79 L133,74 L134,74 L139,69 L140,69 L142,67 L143,67 L146,64 L147,64 L149,62 L150,62 L152,60 L153,60 L155,58 L156,58 L157,57 L158,57 L160,55 L161,55 L162,54 L163,54 L164,53 L165,53 L167,51 L168,51 L169,50 L170,50 L171,49 L172,49 L173,48 L174,48 L175,47 L176,47 L177,46 L179,46 L180,45 L181,45 L182,44 L183,44 L184,43 L185,43 L186,42 L188,42 L189,41 L191,41 L192,40 L193,40 L194,39 L196,39 L197,38 Z M209,28 L210,27 L212,27 L213,28 L213,30 L211,32 L210,32 L207,35 L206,35 L205,36 L202,36 L201,35 L201,32 L202,31 L203,31 L204,30 L205,30 L206,29 L207,29 L208,28 Z M285,24 L286,23 L288,23 L289,24 L289,26 L288,27 L286,27 L285,26 Z M221,24 L222,23 L225,23 L226,24 L226,26 L225,27 L222,27 L221,26 Z" fill="#0480f7" fill-rule="evenodd"/>
</svg>
