<?xml version="1.0" encoding="UTF-8"?>
<svg xmlns="http://www.w3.org/2000/svg" width="492" height="461">
  <path d="M255,18 L261,18 L262,19 L269,19 L270,20 L275,20 L276,21 L280,21 L281,22 L284,22 L285,23 L288,23 L289,24 L292,24 L293,25 L296,25 L297,26 L300,26 L301,27 L303,27 L304,28 L306,28 L307,29 L309,29 L310,30 L311,30 L312,31 L314,31 L315,32 L317,32 L318,33 L319,33 L320,34 L322,34 L324,36 L325,36 L326,37 L327,37 L328,38 L329,38 L330,39 L331,39 L332,40 L333,40 L334,41 L335,41 L336,42 L337,42 L338,43 L339,43 L340,44 L341,44 L343,46 L344,46 L345,47 L346,47 L348,49 L349,49 L351,51 L352,51 L354,53 L355,53 L358,56 L359,56 L361,58 L362,58 L366,62 L367,62 L373,68 L374,68 L390,84 L390,85 L397,92 L397,93 L400,96 L400,97 L404,101 L404,102 L406,104 L406,105 L409,108 L409,109 L411,111 L411,112 L413,114 L413,115 L415,117 L415,118 L416,119 L416,120 L417,121 L415,123 L417,125 L417,127 L418,128 L418,129 L420,131 L420,132 L421,133 L421,134 L422,135 L422,136 L423,137 L423,138 L424,139 L424,140 L425,141 L425,143 L426,144 L426,145 L427,146 L427,147 L428,148 L428,149 L429,150 L429,152 L430,153 L430,155 L431,156 L431,157 L432,158 L432,160 L433,161 L433,163 L434,164 L434,166 L435,167 L435,169 L436,170 L436,173 L437,174 L437,176 L438,177 L438,180 L439,181 L439,185 L440,186 L440,189 L441,190 L441,193 L442,194 L442,195 L444,193 L444,190 L445,189 L446,189 L447,190 L447,195 L448,196 L448,199 L447,200 L447,201 L446,202 L445,202 L444,203 L443,203 L443,210 L444,211 L444,225 L445,226 L445,232 L445,228 L446,227 L446,223 L447,222 L448,222 L450,224 L450,247 L448,249 L447,249 L446,248 L444,248 L444,253 L443,254 L443,262 L442,263 L442,269 L441,270 L441,275 L440,276 L440,279 L439,280 L439,283 L438,284 L438,287 L437,288 L437,290 L436,291 L436,293 L435,294 L435,297 L434,298 L434,300 L433,301 L433,303 L432,304 L432,305 L431,306 L431,308 L430,309 L430,311 L429,312 L429,313 L428,314 L428,315 L427,316 L427,318 L426,319 L426,320 L425,321 L425,322 L424,323 L424,324 L423,325 L423,326 L422,327 L422,328 L421,329 L421,330 L420,331 L420,332 L419,333 L419,334 L418,335 L418,336 L417,337 L417,338 L416,339 L416,340 L414,342 L414,343 L412,345 L412,346 L409,349 L409,350 L407,352 L407,353 L405,355 L405,356 L403,358 L403,359 L399,363 L399,364 L393,370 L393,371 L388,376 L389,375 L391,375 L392,376 L389,379 L385,379 L381,383 L380,383 L373,390 L372,390 L367,395 L366,395 L363,398 L362,398 L360,400 L359,400 L356,403 L355,403 L353,405 L352,405 L350,407 L349,407 L348,408 L347,408 L345,410 L344,410 L343,411 L342,411 L340,413 L339,413 L338,414 L337,414 L336,415 L335,415 L334,416 L333,416 L332,417 L331,417 L329,419 L328,419 L327,420 L325,420 L324,421 L323,421 L322,422 L321,422 L320,423 L319,423 L318,424 L317,424 L316,425 L315,425 L314,426 L313,426 L312,427 L311,427 L310,428 L308,428 L307,429 L305,429 L304,430 L302,430 L301,431 L299,431 L298,432 L296,432 L295,433 L293,433 L292,434 L290,434 L289,435 L286,435 L285,436 L282,436 L281,437 L278,437 L277,438 L273,438 L272,439 L267,439 L266,440 L259,440 L258,441 L248,441 L247,442 L239,442 L238,441 L228,441 L227,440 L221,440 L220,439 L215,439 L214,438 L210,438 L209,437 L206,437 L205,436 L202,436 L201,435 L199,435 L198,434 L196,434 L195,433 L193,433 L192,432 L190,432 L189,431 L188,431 L187,430 L185,430 L184,429 L183,429 L181,427 L182,426 L183,426 L183,425 L182,425 L181,424 L179,424 L178,423 L177,423 L176,422 L174,422 L173,421 L172,421 L171,420 L170,420 L169,419 L168,419 L167,418 L166,418 L165,417 L163,417 L161,415 L160,415 L159,414 L158,414 L157,413 L156,413 L155,412 L154,412 L153,411 L152,411 L150,409 L149,409 L148,408 L147,408 L145,406 L144,406 L142,404 L141,404 L139,402 L138,402 L136,400 L135,400 L132,397 L131,397 L127,393 L126,393 L121,388 L120,388 L111,379 L110,379 L108,381 L107,381 L106,382 L105,382 L104,381 L108,377 L107,376 L107,375 L99,367 L99,366 L94,361 L94,360 L91,357 L91,356 L88,353 L88,352 L86,350 L85,351 L85,356 L84,357 L81,354 L80,354 L79,353 L78,353 L77,352 L76,353 L76,354 L77,355 L77,356 L79,358 L79,359 L82,362 L82,363 L86,367 L86,368 L89,371 L89,372 L102,385 L103,384 L105,386 L105,387 L106,388 L107,388 L113,394 L114,394 L118,398 L119,398 L122,401 L123,401 L125,403 L126,403 L128,405 L129,405 L131,407 L132,407 L134,409 L135,409 L136,410 L137,410 L139,412 L140,412 L141,413 L142,413 L144,415 L145,415 L146,416 L147,416 L148,417 L149,417 L150,418 L151,418 L152,419 L153,419 L154,420 L155,420 L156,421 L157,421 L158,422 L159,422 L160,423 L161,423 L162,424 L163,424 L164,425 L166,425 L167,426 L168,426 L169,427 L171,427 L172,428 L173,428 L174,429 L176,429 L177,430 L179,430 L180,431 L181,431 L182,432 L184,432 L185,433 L187,433 L188,434 L190,434 L191,435 L194,435 L195,436 L198,436 L199,437 L202,437 L203,438 L206,438 L207,439 L212,439 L213,440 L217,440 L218,441 L224,441 L225,442 L233,442 L234,443 L251,443 L252,444 L255,444 L256,443 L273,443 L274,442 L281,442 L282,441 L288,441 L289,440 L293,440 L294,439 L298,439 L299,438 L302,438 L303,437 L306,437 L307,436 L309,436 L310,435 L312,435 L313,434 L315,434 L316,433 L318,433 L319,432 L324,432 L325,431 L327,431 L328,430 L329,430 L330,429 L331,429 L332,428 L334,428 L335,427 L336,427 L337,426 L338,426 L339,425 L341,425 L342,424 L343,424 L345,422 L346,422 L347,421 L348,421 L349,420 L350,420 L351,419 L352,419 L353,418 L354,418 L356,416 L357,416 L358,415 L359,415 L361,413 L362,413 L364,411 L365,411 L366,410 L367,410 L369,408 L370,408 L373,405 L374,405 L377,402 L378,402 L382,398 L383,398 L388,393 L389,393 L406,376 L406,375 L407,374 L407,373 L416,364 L416,363 L419,360 L419,359 L422,356 L422,355 L424,353 L424,352 L425,351 L425,350 L426,349 L426,348 L429,345 L429,344 L431,342 L431,341 L433,339 L433,338 L434,337 L434,336 L435,335 L435,334 L436,333 L436,332 L437,331 L437,330 L439,328 L439,326 L440,325 L440,324 L441,323 L441,322 L442,321 L442,320 L443,319 L443,318 L444,317 L444,315 L445,314 L445,313 L446,312 L446,310 L447,309 L447,308 L448,307 L448,305 L449,304 L449,302 L450,301 L450,299 L451,298 L451,296 L452,295 L452,293 L453,292 L453,289 L454,288 L454,286 L455,285 L455,281 L456,280 L456,277 L457,276 L457,272 L458,271 L458,267 L459,266 L459,263 L458,264 L457,264 L456,265 L454,263 L454,256 L455,255 L455,253 L456,252 L458,254 L458,258 L459,259 L460,258 L460,252 L461,251 L461,212 L460,211 L460,202 L459,201 L459,196 L458,195 L458,192 L457,191 L456,192 L455,192 L454,193 L452,193 L451,192 L451,186 L452,185 L455,185 L455,182 L454,181 L454,177 L453,176 L453,174 L452,173 L452,170 L451,169 L451,167 L450,166 L450,164 L449,163 L449,161 L448,160 L448,158 L447,157 L447,155 L446,154 L446,153 L445,152 L445,150 L444,149 L444,148 L443,147 L443,146 L442,145 L442,143 L441,142 L441,141 L440,140 L440,139 L439,138 L439,136 L438,135 L438,134 L437,133 L437,132 L436,131 L436,130 L435,129 L435,128 L433,126 L433,125 L432,124 L432,123 L431,122 L431,121 L429,119 L429,118 L428,117 L428,116 L426,114 L426,113 L425,112 L425,111 L422,108 L422,107 L421,106 L421,105 L419,103 L419,102 L416,99 L416,98 L412,94 L412,93 L406,87 L406,86 L391,71 L390,71 L383,64 L382,64 L379,61 L378,61 L375,58 L374,58 L371,55 L370,55 L367,52 L366,52 L365,51 L364,51 L362,49 L361,49 L359,47 L358,47 L356,45 L355,45 L354,44 L353,44 L352,43 L351,43 L350,42 L349,42 L347,40 L346,40 L345,39 L344,39 L343,38 L342,38 L341,37 L339,37 L338,36 L337,36 L336,35 L335,35 L334,34 L332,34 L331,33 L330,33 L329,32 L327,32 L326,31 L325,31 L324,30 L322,30 L321,29 L319,29 L318,28 L316,28 L315,27 L312,27 L311,26 L309,26 L308,25 L305,25 L304,24 L301,24 L300,23 L296,23 L295,22 L289,22 L288,21 L282,21 L281,20 L274,20 L273,19 L262,19 L261,18 Z M103,382 L104,381 L105,382 L104,383 Z M402,363 L403,362 L405,362 L406,363 L406,366 L404,368 L403,368 L402,367 Z M425,344 L427,344 L428,345 L427,346 L427,347 L426,348 L425,347 L426,348 L425,349 L424,349 L423,348 L423,346 Z M419,343 L420,342 L421,343 L420,344 Z" fill="#0683fa" fill-rule="evenodd"/>
  <path d="M236,17 L235,18 L224,18 L223,19 L217,19 L216,20 L211,20 L210,21 L206,21 L205,22 L201,22 L200,23 L197,23 L196,24 L193,24 L192,25 L190,25 L189,26 L187,26 L186,27 L183,27 L182,28 L180,28 L179,29 L177,29 L176,30 L175,30 L174,31 L172,31 L171,32 L169,32 L168,33 L167,33 L166,34 L165,34 L164,35 L163,35 L162,36 L160,36 L159,37 L158,37 L157,38 L156,38 L155,39 L154,39 L153,40 L152,40 L151,41 L150,41 L149,42 L148,42 L146,44 L145,44 L144,45 L143,45 L142,46 L141,46 L140,47 L139,47 L137,49 L136,49 L134,51 L133,51 L131,53 L130,53 L128,55 L127,55 L125,57 L124,57 L120,61 L119,61 L117,63 L116,63 L111,68 L110,68 L104,74 L104,75 L101,78 L99,78 L97,80 L96,80 L95,81 L95,82 L87,90 L87,91 L81,97 L81,98 L78,101 L78,102 L75,105 L75,106 L72,109 L72,110 L70,112 L70,113 L68,115 L68,116 L67,117 L67,118 L65,120 L65,121 L64,122 L64,123 L62,125 L62,126 L61,127 L61,128 L60,129 L60,130 L59,131 L59,132 L58,133 L58,134 L57,135 L57,136 L56,137 L56,138 L55,139 L55,140 L54,141 L54,142 L53,143 L53,144 L52,145 L52,147 L51,148 L51,149 L50,150 L50,151 L49,152 L49,154 L48,155 L48,157 L47,158 L47,159 L46,160 L46,162 L45,163 L45,165 L44,166 L44,168 L43,169 L43,171 L42,172 L42,175 L41,176 L41,179 L40,180 L40,182 L39,183 L39,187 L38,188 L38,191 L37,192 L37,197 L36,198 L36,203 L35,204 L35,216 L36,215 L36,214 L37,213 L37,212 L39,210 L40,211 L40,212 L41,213 L41,220 L44,220 L45,221 L45,247 L46,248 L46,259 L47,260 L47,266 L48,267 L48,275 L49,276 L49,279 L50,280 L50,281 L52,283 L52,286 L51,287 L51,288 L50,289 L48,287 L48,284 L47,283 L47,279 L46,278 L46,275 L45,274 L45,271 L43,269 L44,268 L44,259 L43,258 L43,249 L42,248 L42,225 L41,224 L41,223 L40,223 L39,222 L37,222 L35,220 L33,222 L33,239 L34,240 L34,253 L35,254 L35,261 L36,262 L36,267 L37,268 L37,271 L38,272 L38,277 L39,278 L39,280 L40,281 L40,284 L41,285 L41,287 L42,288 L42,291 L43,292 L43,294 L44,295 L44,297 L45,298 L45,300 L46,301 L46,303 L47,304 L47,305 L48,306 L48,308 L49,309 L49,310 L50,311 L50,312 L51,313 L51,315 L52,316 L52,317 L53,318 L53,319 L54,320 L54,321 L55,322 L55,323 L56,324 L56,325 L57,326 L57,327 L58,328 L58,329 L59,330 L59,331 L60,332 L60,333 L62,335 L62,336 L63,337 L63,338 L64,339 L64,340 L66,342 L66,343 L67,344 L67,345 L69,347 L69,348 L71,350 L71,351 L72,352 L73,352 L74,351 L75,351 L77,349 L78,349 L81,346 L81,343 L80,342 L80,341 L78,339 L78,338 L77,337 L77,336 L75,334 L75,333 L74,332 L74,331 L73,330 L73,329 L72,328 L72,327 L71,326 L71,325 L69,323 L69,321 L68,320 L68,319 L67,318 L67,317 L66,316 L66,315 L65,314 L65,313 L64,312 L64,311 L63,310 L63,308 L62,307 L62,306 L61,305 L61,303 L60,302 L60,300 L59,299 L59,298 L58,297 L58,295 L57,294 L57,292 L56,291 L56,288 L55,287 L55,286 L54,285 L54,283 L53,282 L53,277 L52,276 L52,272 L51,271 L51,267 L55,263 L55,251 L54,250 L54,235 L53,234 L51,234 L50,233 L50,232 L51,231 L52,232 L53,232 L54,231 L54,223 L55,222 L55,213 L56,212 L56,206 L57,205 L57,201 L58,200 L58,196 L59,195 L59,191 L60,190 L60,187 L61,186 L61,183 L62,182 L62,180 L63,179 L63,177 L64,176 L64,174 L65,173 L65,171 L66,170 L66,168 L67,167 L67,165 L68,164 L68,162 L69,161 L69,160 L70,159 L70,157 L71,156 L71,155 L72,154 L72,152 L73,151 L73,150 L74,149 L74,148 L75,147 L75,146 L76,145 L76,144 L77,143 L77,142 L78,141 L78,140 L80,138 L80,137 L81,136 L81,135 L82,134 L82,133 L84,131 L84,130 L85,129 L85,128 L87,126 L87,125 L89,123 L89,122 L91,120 L91,119 L93,117 L93,116 L96,113 L96,112 L99,109 L99,108 L104,103 L104,102 L128,78 L129,78 L134,73 L135,73 L140,68 L141,68 L143,66 L144,66 L147,63 L148,63 L149,62 L150,62 L152,60 L153,60 L155,58 L156,58 L157,57 L158,57 L160,55 L161,55 L162,54 L163,54 L165,52 L166,52 L167,51 L168,51 L169,50 L170,50 L171,49 L172,49 L173,48 L174,48 L175,47 L176,47 L177,46 L178,46 L179,45 L180,45 L181,44 L183,44 L184,43 L185,43 L186,42 L187,42 L188,41 L190,41 L191,40 L193,40 L194,39 L195,39 L196,38 L198,38 L199,37 L201,37 L201,32 L203,30 L204,30 L205,29 L206,29 L207,28 L209,28 L210,27 L211,27 L212,26 L214,26 L215,25 L218,25 L219,24 L221,24 L222,23 L225,23 L226,22 L228,22 L229,21 L233,21 L234,20 L238,20 L239,19 L244,19 L245,18 L247,18 L246,17 Z M44,210 L45,209 L46,210 L46,212 L45,213 L44,212 Z M45,204 L46,203 L47,204 L47,207 L46,208 L45,207 Z M46,199 L47,198 L48,199 L48,202 L47,203 L46,202 Z M47,195 L48,194 L49,195 L48,196 Z M49,186 L50,185 L51,186 L50,187 Z" fill="#0683fa" fill-rule="evenodd"/>
</svg>
