<?xml version="1.0" encoding="UTF-8"?>
<svg xmlns="http://www.w3.org/2000/svg" width="492" height="461">
  <defs>
<linearGradient id="skyGrad" x1="0" y1="46" x2="0" y2="170" gradientUnits="userSpaceOnUse">
  <stop offset="0.0000" stop-color="#011d46"/>
  <stop offset="0.0909" stop-color="#012253"/>
  <stop offset="0.1818" stop-color="#012760"/>
  <stop offset="0.2727" stop-color="#002e6e"/>
  <stop offset="0.3636" stop-color="#00357d"/>
  <stop offset="0.4545" stop-color="#003f8f"/>
  <stop offset="0.5455" stop-color="#014598"/>
  <stop offset="0.6364" stop-color="#004aa1"/>
  <stop offset="0.7273" stop-color="#004faa"/>
  <stop offset="0.8182" stop-color="#0050ad"/>
  <stop offset="0.9091" stop-color="#004baa"/>
  <stop offset="1.0000" stop-color="#011e49"/>
</linearGradient>
  </defs>
  <path d="M358,160 L356,162 L358,162 Z" fill="url(#skyGrad)" fill-rule="evenodd"/>
  <path d="M367,156 L366,157 L366,158 L365,159 L364,159 L364,162 L365,162 L366,163 L367,163 L368,164 L369,164 L368,163 L368,162 L367,162 L365,160 L365,159 L366,158 L368,160 L368,156 Z" fill="url(#skyGrad)" fill-rule="evenodd"/>
  <path d="M354,156 L354,157 L353,158 L353,159 L352,160 L352,162 L353,162 L356,159 L356,158 Z" fill="url(#skyGrad)" fill-rule="evenodd"/>
  <path d="M217,155 L217,156 L216,157 L216,158 L214,160 L214,162 L217,162 L217,158 L218,157 L218,155 Z" fill="url(#skyGrad)" fill-rule="evenodd"/>
  <path d="M201,148 L200,149 L199,149 L195,153 L195,154 L191,158 L191,159 L196,159 L197,160 L203,160 L204,161 L207,161 L207,160 L208,159 L208,157 L209,156 L209,152 L208,151 L208,150 L207,149 L206,149 L205,148 Z" fill="url(#skyGrad)" fill-rule="evenodd"/>
  <path d="M363,145 L363,148 L364,149 L364,151 L363,152 L364,153 L363,154 L363,155 L364,155 L365,154 L365,153 L367,151 L367,150 L365,148 L365,147 Z" fill="url(#skyGrad)" fill-rule="evenodd"/>
  <path d="M358,145 L357,146 L357,147 L356,148 L355,148 L355,149 L354,150 L354,152 L356,152 L357,151 L358,152 L358,153 L357,154 L358,155 L359,155 L359,153 L357,151 L357,150 L359,148 L359,145 Z" fill="url(#skyGrad)" fill-rule="evenodd"/>
  <path d="M363,140 L363,141 L364,142 L365,142 L365,140 Z" fill="url(#skyGrad)" fill-rule="evenodd"/>
  <path d="M357,139 L356,140 L356,143 L358,141 L358,139 Z" fill="url(#skyGrad)" fill-rule="evenodd"/>
  <path d="M363,133 L363,137 L364,137 L364,133 Z" fill="url(#skyGrad)" fill-rule="evenodd"/>
  <path d="M358,133 L358,134 L357,135 L357,136 L358,137 L359,137 L359,133 Z" fill="url(#skyGrad)" fill-rule="evenodd"/>
  <path d="M359,104 L355,108 L355,112 L358,115 L359,115 L359,112 L357,110 L361,106 L362,106 L364,108 L364,109 L365,110 L363,112 L363,115 L366,112 L366,107 L363,104 L362,104 L361,105 L360,104 Z" fill="url(#skyGrad)" fill-rule="evenodd"/>
  <path d="M233,46 L232,47 L223,47 L222,48 L216,48 L215,49 L211,49 L210,50 L206,50 L205,51 L202,51 L201,52 L198,52 L197,53 L194,53 L193,54 L191,54 L190,55 L188,55 L187,56 L185,56 L184,57 L182,57 L181,58 L180,58 L179,59 L177,59 L176,60 L175,60 L174,61 L172,61 L171,62 L170,62 L169,63 L168,63 L167,64 L166,64 L165,65 L164,65 L163,66 L162,66 L161,67 L160,67 L159,68 L158,68 L157,69 L156,69 L155,70 L154,70 L152,72 L151,72 L150,73 L149,73 L147,75 L146,75 L143,78 L142,78 L136,84 L135,84 L118,101 L118,102 L113,107 L113,108 L110,111 L110,112 L107,115 L107,116 L105,118 L105,119 L103,121 L103,122 L101,124 L101,125 L100,126 L100,127 L98,129 L98,130 L97,131 L97,132 L95,134 L95,135 L94,136 L94,137 L93,138 L93,139 L92,140 L92,141 L90,143 L90,144 L89,145 L89,146 L88,147 L88,148 L87,149 L87,151 L86,152 L86,153 L88,153 L89,152 L94,152 L95,151 L98,151 L99,150 L102,150 L103,149 L105,149 L106,148 L112,148 L113,147 L126,147 L127,148 L130,148 L131,149 L132,149 L133,150 L135,150 L136,151 L138,151 L139,152 L141,152 L142,153 L144,153 L145,154 L148,154 L149,155 L153,155 L154,156 L154,155 L150,151 L150,150 L149,149 L149,147 L148,146 L148,139 L149,138 L150,139 L150,142 L151,143 L151,144 L152,145 L152,146 L156,150 L157,150 L158,151 L159,151 L160,152 L161,152 L162,153 L164,153 L165,154 L171,154 L172,155 L176,155 L177,154 L179,154 L180,153 L181,153 L185,149 L185,148 L186,147 L186,146 L187,145 L187,144 L188,143 L188,142 L189,141 L189,139 L190,138 L190,136 L191,135 L191,133 L192,132 L192,131 L193,130 L193,129 L194,128 L194,127 L196,125 L196,124 L199,121 L199,120 L203,116 L204,116 L207,113 L208,113 L209,112 L210,112 L211,111 L212,111 L213,110 L216,110 L217,109 L226,109 L227,110 L230,110 L231,111 L232,111 L233,112 L234,112 L235,113 L238,113 L239,114 L244,114 L245,113 L247,113 L250,110 L250,109 L251,108 L251,107 L252,106 L252,104 L253,103 L253,101 L254,100 L254,98 L253,97 L253,96 L252,95 L252,94 L251,93 L251,92 L250,91 L250,90 L252,88 L253,89 L254,89 L257,92 L257,93 L258,94 L258,95 L259,95 L259,93 L260,92 L260,91 L261,90 L261,89 L263,87 L264,88 L264,94 L263,95 L263,97 L264,98 L265,98 L270,103 L270,104 L273,107 L273,110 L272,111 L271,111 L270,112 L268,112 L267,111 L263,111 L262,112 L262,113 L261,114 L261,115 L260,116 L260,118 L259,119 L259,122 L258,123 L258,124 L257,125 L257,127 L254,130 L254,131 L251,134 L251,135 L250,136 L250,137 L251,138 L251,140 L252,141 L252,142 L253,143 L253,145 L250,148 L249,148 L248,147 L249,146 L249,144 L248,143 L248,141 L247,140 L247,139 L246,139 L246,141 L245,142 L245,145 L246,146 L246,150 L245,151 L245,152 L243,154 L242,154 L241,153 L241,146 L240,145 L240,140 L239,139 L236,142 L235,142 L233,144 L232,144 L231,145 L230,145 L229,146 L228,146 L227,147 L227,150 L226,151 L226,152 L224,154 L224,155 L223,156 L223,157 L222,158 L222,163 L225,163 L226,164 L249,164 L250,163 L264,163 L265,164 L269,164 L270,165 L274,165 L275,166 L278,166 L279,167 L284,167 L285,168 L290,168 L291,169 L300,169 L301,170 L314,170 L315,169 L327,169 L328,168 L331,168 L332,167 L335,167 L336,166 L338,166 L339,165 L340,165 L341,166 L342,165 L343,165 L344,164 L347,164 L348,163 L348,159 L349,158 L349,154 L350,153 L350,151 L351,150 L351,147 L352,146 L352,141 L353,140 L353,137 L354,136 L354,131 L355,130 L355,126 L356,125 L354,123 L354,122 L355,121 L355,120 L356,119 L355,120 L355,121 L353,123 L351,123 L350,122 L350,119 L353,116 L351,118 L350,118 L349,119 L348,119 L347,118 L347,117 L346,116 L346,115 L348,113 L350,113 L351,112 L349,112 L348,113 L347,113 L345,111 L345,108 L346,107 L352,107 L350,107 L349,106 L347,106 L346,105 L346,103 L347,102 L347,101 L349,99 L353,103 L354,103 L355,104 L350,99 L350,98 L352,96 L353,96 L355,94 L356,95 L356,96 L357,97 L357,99 L358,100 L358,101 L358,99 L357,98 L357,94 L358,93 L359,93 L360,92 L361,93 L362,93 L363,94 L363,97 L363,95 L365,93 L366,93 L368,95 L368,97 L366,99 L366,100 L370,96 L373,99 L369,103 L370,102 L371,102 L372,101 L374,101 L375,102 L375,105 L373,107 L371,107 L370,108 L373,108 L374,107 L375,107 L376,108 L376,109 L377,110 L377,111 L375,113 L372,113 L371,112 L372,113 L374,113 L376,115 L375,116 L375,117 L373,119 L371,119 L368,116 L372,120 L372,121 L370,123 L368,123 L367,122 L367,121 L366,120 L366,121 L368,123 L366,125 L366,129 L367,130 L367,133 L368,134 L368,139 L369,140 L369,144 L370,145 L370,148 L371,149 L371,152 L372,153 L372,158 L373,159 L373,163 L374,164 L374,165 L376,165 L377,164 L378,164 L379,165 L383,165 L384,164 L386,164 L387,163 L388,163 L389,162 L392,162 L396,158 L398,158 L399,157 L400,157 L402,155 L404,155 L406,153 L410,153 L411,154 L414,154 L413,153 L413,151 L412,150 L412,149 L411,148 L411,147 L410,146 L410,145 L408,143 L408,142 L407,141 L407,140 L406,139 L406,138 L405,137 L405,136 L403,134 L403,133 L401,131 L401,130 L400,129 L400,128 L397,125 L397,124 L395,122 L395,121 L392,118 L392,117 L388,113 L388,112 L380,104 L380,103 L373,96 L372,96 L365,89 L364,89 L360,85 L359,85 L356,82 L355,82 L352,79 L351,79 L349,77 L348,77 L346,75 L345,75 L343,73 L342,73 L341,72 L340,72 L338,70 L337,70 L336,69 L335,69 L334,68 L333,68 L332,67 L331,67 L330,66 L329,66 L328,65 L327,65 L326,64 L325,64 L324,63 L323,63 L322,62 L321,62 L320,61 L318,61 L317,60 L316,60 L315,59 L313,59 L312,58 L311,58 L310,57 L308,57 L307,56 L305,56 L304,55 L302,55 L301,54 L299,54 L298,53 L295,53 L294,52 L291,52 L290,51 L287,51 L286,50 L282,50 L281,49 L277,49 L276,48 L270,48 L269,47 L260,47 L259,46 Z" fill="url(#skyGrad)" fill-rule="evenodd"/>
  <path d="M140,79 L137,82 L136,82 L133,85 L132,85 L128,89 L127,89 L120,96 L119,96 L112,103 L112,104 L104,112 L104,113 L100,117 L100,118 L97,121 L97,122 L95,124 L95,125 L92,128 L92,129 L91,130 L91,131 L89,133 L89,134 L87,136 L87,137 L86,138 L86,139 L85,140 L85,141 L84,142 L84,143 L82,145 L82,146 L81,147 L81,148 L80,149 L80,150 L79,151 L79,153 L78,154 L78,155 L77,156 L77,157 L76,158 L76,159 L75,160 L75,162 L74,163 L74,164 L73,165 L73,167 L72,168 L72,170 L71,171 L71,173 L70,174 L70,176 L69,177 L69,180 L68,181 L68,183 L67,184 L425,184 L424,183 L424,181 L423,180 L423,177 L422,176 L422,174 L421,173 L421,171 L420,170 L420,168 L419,167 L419,165 L418,164 L418,163 L417,162 L417,160 L416,159 L416,158 L415,157 L415,156 L414,155 L411,155 L410,154 L406,154 L404,156 L402,156 L400,158 L399,158 L398,159 L396,159 L392,163 L389,163 L388,164 L387,164 L386,165 L384,165 L383,166 L379,166 L378,165 L377,165 L376,166 L374,166 L373,165 L373,164 L372,163 L372,159 L371,158 L371,153 L370,152 L370,149 L369,148 L369,145 L368,144 L368,140 L367,139 L367,134 L366,133 L366,130 L365,129 L365,125 L368,122 L370,122 L371,121 L371,120 L370,119 L371,118 L373,118 L374,117 L374,116 L375,115 L374,114 L372,114 L371,113 L372,112 L375,112 L376,111 L376,110 L375,109 L375,108 L374,108 L373,109 L370,109 L369,108 L371,106 L373,106 L374,105 L374,102 L372,102 L371,103 L370,103 L369,102 L372,99 L370,97 L366,101 L365,100 L365,99 L367,97 L367,95 L366,94 L365,94 L364,95 L364,97 L363,98 L362,97 L362,94 L361,94 L360,93 L359,94 L358,94 L358,98 L359,99 L359,101 L358,102 L357,101 L357,100 L356,99 L356,97 L355,96 L355,95 L353,97 L352,97 L351,98 L351,99 L355,103 L354,104 L353,104 L349,100 L348,101 L348,102 L347,103 L347,105 L349,105 L350,106 L352,106 L353,107 L352,108 L346,108 L346,111 L347,112 L348,112 L349,111 L351,111 L352,112 L350,114 L348,114 L347,115 L347,116 L348,117 L348,118 L349,118 L350,117 L351,117 L352,118 L351,119 L351,122 L353,122 L354,121 L355,122 L355,123 L357,125 L356,126 L356,130 L355,131 L355,136 L354,137 L354,140 L353,141 L353,146 L352,147 L352,150 L351,151 L351,153 L350,154 L350,158 L349,159 L349,163 L347,165 L344,165 L343,166 L342,166 L341,167 L340,166 L339,166 L338,167 L336,167 L335,168 L332,168 L331,169 L328,169 L327,170 L315,170 L314,171 L301,171 L300,170 L291,170 L290,169 L285,169 L284,168 L279,168 L278,167 L275,167 L274,166 L270,166 L269,165 L265,165 L264,164 L250,164 L249,165 L226,165 L225,164 L222,164 L221,163 L221,158 L222,157 L222,156 L223,155 L223,154 L225,152 L225,151 L226,150 L226,147 L228,145 L229,145 L230,144 L231,144 L232,143 L233,143 L235,141 L236,141 L239,138 L241,140 L241,145 L242,146 L242,153 L243,153 L244,152 L244,151 L245,150 L245,146 L244,145 L244,142 L245,141 L245,139 L246,138 L247,138 L248,139 L248,140 L249,141 L249,143 L250,144 L250,146 L249,147 L250,147 L252,145 L252,143 L251,142 L251,141 L250,140 L250,138 L249,137 L249,136 L250,135 L250,134 L253,131 L253,130 L256,127 L256,125 L257,124 L257,123 L258,122 L258,119 L259,118 L259,116 L260,115 L260,114 L261,113 L261,112 L263,110 L267,110 L268,111 L270,111 L271,110 L272,110 L272,107 L269,104 L269,103 L265,99 L264,99 L262,97 L262,95 L263,94 L263,88 L262,89 L262,90 L261,91 L261,92 L260,93 L260,95 L259,96 L258,96 L257,95 L257,94 L256,93 L256,92 L254,90 L253,90 L252,89 L251,90 L251,91 L252,92 L252,93 L253,94 L253,95 L254,96 L254,97 L255,98 L255,100 L254,101 L254,103 L253,104 L253,106 L252,107 L252,108 L251,109 L251,110 L247,114 L245,114 L244,115 L239,115 L238,114 L235,114 L234,113 L233,113 L232,112 L231,112 L230,111 L227,111 L226,110 L217,110 L216,111 L213,111 L212,112 L211,112 L210,113 L209,113 L208,114 L207,114 L204,117 L203,117 L200,120 L200,121 L197,124 L197,125 L195,127 L195,128 L194,129 L194,130 L193,131 L193,132 L192,133 L192,135 L191,136 L191,138 L190,139 L190,141 L189,142 L189,143 L188,144 L188,145 L187,146 L187,147 L186,148 L186,149 L181,154 L180,154 L179,155 L177,155 L176,156 L172,156 L171,155 L165,155 L164,154 L162,154 L161,153 L160,153 L159,152 L158,152 L157,151 L156,151 L151,146 L151,145 L150,144 L150,143 L149,142 L149,139 L149,146 L150,147 L150,149 L151,150 L151,151 L155,155 L155,156 L154,157 L153,156 L149,156 L148,155 L145,155 L144,154 L142,154 L141,153 L139,153 L138,152 L136,152 L135,151 L133,151 L132,150 L131,150 L130,149 L127,149 L126,148 L113,148 L112,149 L106,149 L105,150 L103,150 L102,151 L99,151 L98,152 L95,152 L94,153 L89,153 L88,154 L86,154 L85,153 L85,152 L86,151 L86,149 L87,148 L87,147 L88,146 L88,145 L89,144 L89,143 L91,141 L91,140 L92,139 L92,138 L93,137 L93,136 L94,135 L94,134 L96,132 L96,131 L97,130 L97,129 L99,127 L99,126 L100,125 L100,124 L102,122 L102,121 L104,119 L104,118 L106,116 L106,115 L109,112 L109,111 L112,108 L112,107 L117,102 L117,101 L135,83 L136,83 Z M358,159 L359,160 L359,162 L358,163 L356,163 L355,162 Z M363,159 L364,158 L365,158 L366,159 L366,160 L367,161 L368,161 L369,162 L369,163 L370,164 L369,165 L368,165 L367,164 L366,164 L365,163 L364,163 L363,162 Z M367,155 L368,155 L369,156 L369,160 L368,161 L365,158 L365,157 Z M353,156 L354,155 L357,158 L357,159 L353,163 L352,163 L351,162 L351,160 L352,159 L352,158 L353,157 Z M216,155 L217,154 L218,154 L219,155 L219,157 L218,158 L218,162 L217,163 L214,163 L213,162 L213,160 L215,158 L215,157 L216,156 Z M357,152 L358,151 L360,153 L360,155 L359,156 L358,156 L356,154 L357,153 Z M200,148 L201,147 L205,147 L206,148 L207,148 L209,150 L209,151 L210,152 L210,156 L209,157 L209,159 L208,160 L208,161 L207,162 L204,162 L203,161 L197,161 L196,160 L191,160 L190,159 L190,158 L194,154 L194,153 L199,148 Z M362,145 L363,144 L366,147 L366,148 L368,150 L368,151 L366,153 L366,154 L364,156 L363,156 L362,155 L362,154 L363,153 L362,152 L363,151 L363,149 L362,148 Z M358,144 L359,144 L360,145 L360,148 L358,150 L358,151 L356,153 L354,153 L353,152 L353,150 L354,149 L354,148 L355,147 L356,147 L356,146 Z M362,140 L363,139 L365,139 L366,140 L366,142 L365,143 L364,143 L362,141 Z M357,138 L358,138 L359,139 L359,141 L356,144 L355,143 L355,140 Z M362,133 L363,132 L364,132 L365,133 L365,137 L364,138 L363,138 L362,137 Z M357,133 L358,132 L359,132 L360,133 L360,137 L359,138 L358,138 L356,136 L356,135 L357,134 Z M365,120 L366,119 L368,121 L368,122 L367,123 L365,121 Z M354,120 L355,119 L356,120 L356,121 L355,122 L354,121 Z M355,119 L356,118 L357,119 L356,120 Z M369,118 L370,117 L371,118 L370,119 Z M368,117 L369,116 L370,117 L369,118 Z M351,117 L352,116 L353,117 L352,118 Z M367,116 L368,115 L369,116 L368,117 Z M352,116 L353,115 L354,116 L353,117 Z M370,112 L371,111 L372,112 L371,113 Z M359,103 L360,103 L361,104 L362,103 L363,103 L367,107 L367,112 L363,116 L362,115 L362,112 L364,110 L363,109 L363,108 L362,107 L361,107 L358,110 L360,112 L360,115 L359,116 L358,116 L354,112 L354,108 Z M354,104 L355,103 L356,104 L355,105 Z M368,103 L369,102 L370,103 L369,104 Z" fill="#030710" fill-rule="evenodd"/>
</svg>
