<?xml version="1.0" encoding="UTF-8"?>
<svg xmlns="http://www.w3.org/2000/svg" width="492" height="461">
  <rect x="316" y="356" width="1" height="1" fill="#04499c"/>
  <rect x="317" y="356" width="1" height="1" fill="#074d93"/>
  <rect x="318" y="356" width="1" height="1" fill="#064586"/>
  <rect x="319" y="356" width="1" height="1" fill="#06457f"/>
  <rect x="320" y="356" width="1" height="1" fill="#074986"/>
  <rect x="321" y="356" width="1" height="1" fill="#0a4e8d"/>
  <rect x="322" y="356" width="1" height="1" fill="#0a437a"/>
  <rect x="316" y="357" width="1" height="1" fill="#088af3"/>
  <rect x="317" y="357" width="1" height="1" fill="#058df6"/>
  <rect x="318" y="357" width="1" height="1" fill="#049bf7"/>
  <rect x="319" y="357" width="1" height="1" fill="#04a3f7"/>
  <rect x="320" y="357" width="1" height="1" fill="#06a1f7"/>
  <rect x="321" y="357" width="1" height="1" fill="#0aa1f7"/>
  <rect x="322" y="357" width="1" height="1" fill="#0ea4f8"/>
  <rect x="323" y="357" width="1" height="1" fill="#0c92ef"/>
  <rect x="316" y="358" width="1" height="1" fill="#078aed"/>
  <rect x="317" y="358" width="1" height="1" fill="#067bdd"/>
  <rect x="322" y="358" width="1" height="1" fill="#064d95"/>
  <rect x="323" y="358" width="1" height="1" fill="#0b9df5"/>
  <rect x="324" y="358" width="1" height="1" fill="#0290ef"/>
  <rect x="316" y="359" width="1" height="1" fill="#0992f6"/>
  <rect x="317" y="359" width="1" height="1" fill="#0d7ed7"/>
  <rect x="323" y="359" width="1" height="1" fill="#0973cb"/>
  <rect x="324" y="359" width="1" height="1" fill="#0197fb"/>
  <rect x="316" y="360" width="1" height="1" fill="#0a91f8"/>
  <rect x="317" y="360" width="1" height="1" fill="#0a7dd7"/>
  <rect x="323" y="360" width="1" height="1" fill="#0d62b0"/>
  <rect x="324" y="360" width="1" height="1" fill="#0197fd"/>
  <rect x="316" y="361" width="1" height="1" fill="#0b90f8"/>
  <rect x="317" y="361" width="1" height="1" fill="#0982e5"/>
  <rect x="323" y="361" width="1" height="1" fill="#0b69c1"/>
  <rect x="324" y="361" width="1" height="1" fill="#0195fb"/>
  <rect x="316" y="362" width="1" height="1" fill="#068bf3"/>
  <rect x="317" y="362" width="1" height="1" fill="#038ff5"/>
  <rect x="322" y="362" width="1" height="1" fill="#03519e"/>
  <rect x="323" y="362" width="1" height="1" fill="#0799f4"/>
  <rect x="324" y="362" width="1" height="1" fill="#0175d1"/>
  <rect x="316" y="363" width="1" height="1" fill="#028af2"/>
  <rect x="317" y="363" width="1" height="1" fill="#008fff"/>
  <rect x="318" y="363" width="1" height="1" fill="#048bf9"/>
  <rect x="319" y="363" width="1" height="1" fill="#0494fd"/>
  <rect x="320" y="363" width="1" height="1" fill="#028eff"/>
  <rect x="321" y="363" width="1" height="1" fill="#048aff"/>
  <rect x="322" y="363" width="1" height="1" fill="#0586ef"/>
  <rect x="323" y="363" width="1" height="1" fill="#0458a2"/>
  <rect x="316" y="364" width="1" height="1" fill="#028af5"/>
  <rect x="317" y="364" width="1" height="1" fill="#008df9"/>
  <rect x="320" y="364" width="1" height="1" fill="#01468b"/>
  <rect x="321" y="364" width="1" height="1" fill="#078af0"/>
  <rect x="322" y="364" width="1" height="1" fill="#0671cd"/>
  <rect x="316" y="365" width="1" height="1" fill="#038af7"/>
  <rect x="317" y="365" width="1" height="1" fill="#0286eb"/>
  <rect x="321" y="365" width="1" height="1" fill="#033f87"/>
  <rect x="322" y="365" width="1" height="1" fill="#0b98f7"/>
  <rect x="323" y="365" width="1" height="1" fill="#04447d"/>
  <rect x="316" y="366" width="1" height="1" fill="#058bf1"/>
  <rect x="317" y="366" width="1" height="1" fill="#027bdc"/>
  <rect x="322" y="366" width="1" height="1" fill="#0470cf"/>
  <rect x="323" y="366" width="1" height="1" fill="#0788db"/>
  <rect x="316" y="367" width="1" height="1" fill="#058aea"/>
  <rect x="317" y="367" width="1" height="1" fill="#0173cd"/>
  <rect x="323" y="367" width="1" height="1" fill="#048de2"/>
  <rect x="324" y="367" width="1" height="1" fill="#01538c"/>
  <rect x="316" y="368" width="1" height="1" fill="#0787e6"/>
  <rect x="317" y="368" width="1" height="1" fill="#0376ce"/>
  <rect x="323" y="368" width="1" height="1" fill="#0561ab"/>
  <rect x="324" y="368" width="1" height="1" fill="#0782d5"/>
</svg>
