<?xml version="1.0" encoding="UTF-8"?>
<svg xmlns="http://www.w3.org/2000/svg" width="492" height="461">
  <rect x="229" y="378" width="1" height="1" fill="#115492"/>
  <rect x="230" y="378" width="1" height="1" fill="#1161a8"/>
  <rect x="231" y="378" width="1" height="1" fill="#1265b2"/>
  <rect x="232" y="378" width="1" height="1" fill="#0d559a"/>
  <rect x="227" y="379" width="1" height="1" fill="#087cf0"/>
  <rect x="228" y="379" width="1" height="1" fill="#06a0ff"/>
  <rect x="229" y="379" width="1" height="1" fill="#079dff"/>
  <rect x="230" y="379" width="1" height="1" fill="#0593f7"/>
  <rect x="231" y="379" width="1" height="1" fill="#0696f8"/>
  <rect x="232" y="379" width="1" height="1" fill="#05a1ff"/>
  <rect x="233" y="379" width="1" height="1" fill="#07a3fb"/>
  <rect x="234" y="379" width="1" height="1" fill="#01549b"/>
  <rect x="226" y="380" width="1" height="1" fill="#0d70d1"/>
  <rect x="227" y="380" width="1" height="1" fill="#089bff"/>
  <rect x="228" y="380" width="1" height="1" fill="#0666b4"/>
  <rect x="233" y="380" width="1" height="1" fill="#0375d0"/>
  <rect x="234" y="380" width="1" height="1" fill="#02a7f8"/>
  <rect x="226" y="381" width="1" height="1" fill="#0a8af1"/>
  <rect x="227" y="381" width="1" height="1" fill="#068ae9"/>
  <rect x="234" y="381" width="1" height="1" fill="#0495ee"/>
  <rect x="235" y="381" width="1" height="1" fill="#0254a4"/>
  <rect x="226" y="382" width="1" height="1" fill="#0893fa"/>
  <rect x="227" y="382" width="1" height="1" fill="#0576d1"/>
  <rect x="226" y="383" width="1" height="1" fill="#069afe"/>
  <rect x="227" y="383" width="1" height="1" fill="#0277d4"/>
  <rect x="226" y="384" width="1" height="1" fill="#069bff"/>
  <rect x="227" y="384" width="1" height="1" fill="#027bd9"/>
  <rect x="231" y="384" width="1" height="1" fill="#055d9e"/>
  <rect x="232" y="384" width="1" height="1" fill="#0b67a6"/>
  <rect x="233" y="384" width="1" height="1" fill="#0a528e"/>
  <rect x="226" y="385" width="1" height="1" fill="#0999fe"/>
  <rect x="227" y="385" width="1" height="1" fill="#037ad3"/>
  <rect x="230" y="385" width="1" height="1" fill="#023894"/>
  <rect x="231" y="385" width="1" height="1" fill="#0385da"/>
  <rect x="232" y="385" width="1" height="1" fill="#047dcf"/>
  <rect x="233" y="385" width="1" height="1" fill="#068ae4"/>
  <rect x="234" y="385" width="1" height="1" fill="#04b3f2"/>
  <rect x="235" y="385" width="1" height="1" fill="#004999"/>
  <rect x="226" y="386" width="1" height="1" fill="#099bfb"/>
  <rect x="227" y="386" width="1" height="1" fill="#0382d5"/>
  <rect x="234" y="386" width="1" height="1" fill="#0991e2"/>
  <rect x="235" y="386" width="1" height="1" fill="#015fae"/>
  <rect x="226" y="387" width="1" height="1" fill="#0699f8"/>
  <rect x="227" y="387" width="1" height="1" fill="#028fe7"/>
  <rect x="234" y="387" width="1" height="1" fill="#088fe3"/>
  <rect x="235" y="387" width="1" height="1" fill="#0158ac"/>
  <rect x="226" y="388" width="1" height="1" fill="#078eef"/>
  <rect x="227" y="388" width="1" height="1" fill="#039bf1"/>
  <rect x="233" y="388" width="1" height="1" fill="#04468d"/>
  <rect x="234" y="388" width="1" height="1" fill="#02a0eb"/>
  <rect x="235" y="388" width="1" height="1" fill="#00478d"/>
  <rect x="226" y="389" width="1" height="1" fill="#045294"/>
  <rect x="227" y="389" width="1" height="1" fill="#09aaf9"/>
  <rect x="228" y="389" width="1" height="1" fill="#088ee1"/>
  <rect x="229" y="389" width="1" height="1" fill="#0362a6"/>
  <rect x="230" y="389" width="1" height="1" fill="#015092"/>
  <rect x="231" y="389" width="1" height="1" fill="#025096"/>
  <rect x="232" y="389" width="1" height="1" fill="#0263b1"/>
  <rect x="233" y="389" width="1" height="1" fill="#0492e4"/>
  <rect x="234" y="389" width="1" height="1" fill="#0078ca"/>
  <rect x="227" y="390" width="1" height="1" fill="#094987"/>
  <rect x="228" y="390" width="1" height="1" fill="#0e84dd"/>
  <rect x="229" y="390" width="1" height="1" fill="#0698e9"/>
  <rect x="230" y="390" width="1" height="1" fill="#0394e9"/>
  <rect x="231" y="390" width="1" height="1" fill="#0492e6"/>
  <rect x="232" y="390" width="1" height="1" fill="#038dde"/>
  <rect x="233" y="390" width="1" height="1" fill="#0369b3"/>
</svg>
