<?xml version="1.0" encoding="UTF-8"?>
<svg xmlns="http://www.w3.org/2000/svg" width="492" height="461">
  <rect x="204" y="356" width="1" height="1" fill="#0d6ea6"/>
  <rect x="205" y="356" width="1" height="1" fill="#095d90"/>
  <rect x="206" y="356" width="1" height="1" fill="#08558f"/>
  <rect x="207" y="356" width="1" height="1" fill="#0459a0"/>
  <rect x="208" y="356" width="1" height="1" fill="#025bac"/>
  <rect x="209" y="356" width="1" height="1" fill="#0359a9"/>
  <rect x="210" y="356" width="1" height="1" fill="#045397"/>
  <rect x="211" y="356" width="1" height="1" fill="#065392"/>
  <rect x="212" y="356" width="1" height="1" fill="#0b63a2"/>
  <rect x="204" y="357" width="1" height="1" fill="#11bafe"/>
  <rect x="205" y="357" width="1" height="1" fill="#0fb5fb"/>
  <rect x="206" y="357" width="1" height="1" fill="#10a4f7"/>
  <rect x="207" y="357" width="1" height="1" fill="#04a2ff"/>
  <rect x="208" y="357" width="1" height="1" fill="#009aff"/>
  <rect x="209" y="357" width="1" height="1" fill="#019dff"/>
  <rect x="210" y="357" width="1" height="1" fill="#05a3ff"/>
  <rect x="211" y="357" width="1" height="1" fill="#08a8ff"/>
  <rect x="212" y="357" width="1" height="1" fill="#0cb5ff"/>
  <rect x="213" y="357" width="1" height="1" fill="#0d5a9d"/>
  <rect x="207" y="358" width="1" height="1" fill="#036cc9"/>
  <rect x="208" y="358" width="1" height="1" fill="#029afe"/>
  <rect x="209" y="358" width="1" height="1" fill="#014f9b"/>
  <rect x="207" y="359" width="1" height="1" fill="#0453a8"/>
  <rect x="208" y="359" width="1" height="1" fill="#05a3ff"/>
  <rect x="207" y="360" width="1" height="1" fill="#034c97"/>
  <rect x="208" y="360" width="1" height="1" fill="#03a0fa"/>
  <rect x="207" y="361" width="1" height="1" fill="#034889"/>
  <rect x="208" y="361" width="1" height="1" fill="#029ff3"/>
  <rect x="207" y="362" width="1" height="1" fill="#03467e"/>
  <rect x="208" y="362" width="1" height="1" fill="#039feb"/>
  <rect x="207" y="363" width="1" height="1" fill="#04437c"/>
  <rect x="208" y="363" width="1" height="1" fill="#029de8"/>
  <rect x="208" y="364" width="1" height="1" fill="#039ae6"/>
  <rect x="208" y="365" width="1" height="1" fill="#0397e3"/>
  <rect x="208" y="366" width="1" height="1" fill="#0494df"/>
  <rect x="208" y="367" width="1" height="1" fill="#0292dc"/>
  <rect x="208" y="368" width="1" height="1" fill="#0497df"/>
</svg>
