<?xml version="1.0" encoding="UTF-8"?>
<svg xmlns="http://www.w3.org/2000/svg" width="492" height="461">
  <rect x="299" y="378" width="1" height="1" fill="#0f5eb0"/>
  <rect x="307" y="378" width="1" height="1" fill="#175da1"/>
  <rect x="298" y="379" width="1" height="1" fill="#074086"/>
  <rect x="299" y="379" width="1" height="1" fill="#0aa7f1"/>
  <rect x="300" y="379" width="1" height="1" fill="#077cda"/>
  <rect x="306" y="379" width="1" height="1" fill="#0a4486"/>
  <rect x="307" y="379" width="1" height="1" fill="#1dc6f3"/>
  <rect x="298" y="380" width="1" height="1" fill="#04407f"/>
  <rect x="299" y="380" width="1" height="1" fill="#0289e9"/>
  <rect x="300" y="380" width="1" height="1" fill="#028ae6"/>
  <rect x="301" y="380" width="1" height="1" fill="#015198"/>
  <rect x="306" y="380" width="1" height="1" fill="#054180"/>
  <rect x="307" y="380" width="1" height="1" fill="#0db2f3"/>
  <rect x="298" y="381" width="1" height="1" fill="#043f85"/>
  <rect x="299" y="381" width="1" height="1" fill="#0289ea"/>
  <rect x="300" y="381" width="1" height="1" fill="#0273d8"/>
  <rect x="301" y="381" width="1" height="1" fill="#0385e1"/>
  <rect x="306" y="381" width="1" height="1" fill="#054387"/>
  <rect x="307" y="381" width="1" height="1" fill="#0cb0f4"/>
  <rect x="298" y="382" width="1" height="1" fill="#033f84"/>
  <rect x="299" y="382" width="1" height="1" fill="#0395ed"/>
  <rect x="300" y="382" width="1" height="1" fill="#03539c"/>
  <rect x="301" y="382" width="1" height="1" fill="#067bd9"/>
  <rect x="302" y="382" width="1" height="1" fill="#0366b8"/>
  <rect x="306" y="382" width="1" height="1" fill="#05458a"/>
  <rect x="307" y="382" width="1" height="1" fill="#0badf5"/>
  <rect x="298" y="383" width="1" height="1" fill="#033e7d"/>
  <rect x="299" y="383" width="1" height="1" fill="#039eef"/>
  <rect x="302" y="383" width="1" height="1" fill="#0693e8"/>
  <rect x="303" y="383" width="1" height="1" fill="#024c8a"/>
  <rect x="306" y="383" width="1" height="1" fill="#06478b"/>
  <rect x="307" y="383" width="1" height="1" fill="#07abf7"/>
  <rect x="298" y="384" width="1" height="1" fill="#03407d"/>
  <rect x="299" y="384" width="1" height="1" fill="#029def"/>
  <rect x="302" y="384" width="1" height="1" fill="#025db2"/>
  <rect x="303" y="384" width="1" height="1" fill="#0395ea"/>
  <rect x="306" y="384" width="1" height="1" fill="#084c8d"/>
  <rect x="307" y="384" width="1" height="1" fill="#03acf9"/>
  <rect x="298" y="385" width="1" height="1" fill="#05407c"/>
  <rect x="299" y="385" width="1" height="1" fill="#029cf0"/>
  <rect x="303" y="385" width="1" height="1" fill="#038de8"/>
  <rect x="304" y="385" width="1" height="1" fill="#0879cc"/>
  <rect x="306" y="385" width="1" height="1" fill="#095694"/>
  <rect x="307" y="385" width="1" height="1" fill="#05acf9"/>
  <rect x="298" y="386" width="1" height="1" fill="#074181"/>
  <rect x="299" y="386" width="1" height="1" fill="#039df0"/>
  <rect x="303" y="386" width="1" height="1" fill="#01479b"/>
  <rect x="304" y="386" width="1" height="1" fill="#0ca2f0"/>
  <rect x="305" y="386" width="1" height="1" fill="#034e98"/>
  <rect x="306" y="386" width="1" height="1" fill="#055fa8"/>
  <rect x="307" y="386" width="1" height="1" fill="#06aaf9"/>
  <rect x="298" y="387" width="1" height="1" fill="#084084"/>
  <rect x="299" y="387" width="1" height="1" fill="#059df2"/>
  <rect x="304" y="387" width="1" height="1" fill="#0670d1"/>
  <rect x="305" y="387" width="1" height="1" fill="#0a95ed"/>
  <rect x="306" y="387" width="1" height="1" fill="#057dd7"/>
  <rect x="307" y="387" width="1" height="1" fill="#05a3f7"/>
  <rect x="308" y="387" width="1" height="1" fill="#013a7e"/>
  <rect x="298" y="388" width="1" height="1" fill="#084183"/>
  <rect x="299" y="388" width="1" height="1" fill="#07a0f3"/>
  <rect x="305" y="388" width="1" height="1" fill="#0991eb"/>
  <rect x="306" y="388" width="1" height="1" fill="#0492e9"/>
  <rect x="307" y="388" width="1" height="1" fill="#04a4f7"/>
  <rect x="308" y="388" width="1" height="1" fill="#023e7f"/>
  <rect x="298" y="389" width="1" height="1" fill="#064487"/>
  <rect x="299" y="389" width="1" height="1" fill="#05a0f3"/>
  <rect x="305" y="389" width="1" height="1" fill="#044e97"/>
  <rect x="306" y="389" width="1" height="1" fill="#05a2f1"/>
  <rect x="307" y="389" width="1" height="1" fill="#03a9f8"/>
  <rect x="308" y="389" width="1" height="1" fill="#02427d"/>
  <rect x="298" y="390" width="1" height="1" fill="#074285"/>
  <rect x="299" y="390" width="1" height="1" fill="#089ef1"/>
  <rect x="300" y="390" width="1" height="1" fill="#03427c"/>
  <rect x="306" y="390" width="1" height="1" fill="#0774ca"/>
  <rect x="307" y="390" width="1" height="1" fill="#06b2f8"/>
</svg>
