<?xml version="1.0" encoding="UTF-8"?>
<svg xmlns="http://www.w3.org/2000/svg" width="492" height="461">
  <rect x="289" y="356" width="1" height="1" fill="#0451a6"/>
  <rect x="290" y="356" width="1" height="1" fill="#064c82"/>
  <rect x="297" y="356" width="1" height="1" fill="#045cad"/>
  <rect x="298" y="356" width="1" height="1" fill="#05457b"/>
  <rect x="289" y="357" width="1" height="1" fill="#0489ee"/>
  <rect x="290" y="357" width="1" height="1" fill="#028ce6"/>
  <rect x="297" y="357" width="1" height="1" fill="#03b3fc"/>
  <rect x="298" y="357" width="1" height="1" fill="#0171cb"/>
  <rect x="289" y="358" width="1" height="1" fill="#0483e1"/>
  <rect x="290" y="358" width="1" height="1" fill="#018ae4"/>
  <rect x="297" y="358" width="1" height="1" fill="#04a4f5"/>
  <rect x="298" y="358" width="1" height="1" fill="#016abf"/>
  <rect x="289" y="359" width="1" height="1" fill="#0582e3"/>
  <rect x="290" y="359" width="1" height="1" fill="#018bec"/>
  <rect x="297" y="359" width="1" height="1" fill="#079df0"/>
  <rect x="298" y="359" width="1" height="1" fill="#0167c0"/>
  <rect x="289" y="360" width="1" height="1" fill="#0a81de"/>
  <rect x="290" y="360" width="1" height="1" fill="#048ef1"/>
  <rect x="297" y="360" width="1" height="1" fill="#0e9ceb"/>
  <rect x="298" y="360" width="1" height="1" fill="#0165bf"/>
  <rect x="289" y="361" width="1" height="1" fill="#097bd8"/>
  <rect x="290" y="361" width="1" height="1" fill="#038df0"/>
  <rect x="297" y="361" width="1" height="1" fill="#0e9beb"/>
  <rect x="298" y="361" width="1" height="1" fill="#0163bc"/>
  <rect x="289" y="362" width="1" height="1" fill="#0578d5"/>
  <rect x="290" y="362" width="1" height="1" fill="#0191fa"/>
  <rect x="291" y="362" width="1" height="1" fill="#027cdf"/>
  <rect x="292" y="362" width="1" height="1" fill="#0584e1"/>
  <rect x="293" y="362" width="1" height="1" fill="#0483e6"/>
  <rect x="294" y="362" width="1" height="1" fill="#0483e9"/>
  <rect x="295" y="362" width="1" height="1" fill="#0682e6"/>
  <rect x="296" y="362" width="1" height="1" fill="#0679dc"/>
  <rect x="297" y="362" width="1" height="1" fill="#0593ee"/>
  <rect x="298" y="362" width="1" height="1" fill="#0161be"/>
  <rect x="289" y="363" width="1" height="1" fill="#0675d8"/>
  <rect x="290" y="363" width="1" height="1" fill="#0194fe"/>
  <rect x="291" y="363" width="1" height="1" fill="#027dd9"/>
  <rect x="292" y="363" width="1" height="1" fill="#0371c7"/>
  <rect x="293" y="363" width="1" height="1" fill="#0370c4"/>
  <rect x="294" y="363" width="1" height="1" fill="#056ec6"/>
  <rect x="295" y="363" width="1" height="1" fill="#056bc2"/>
  <rect x="296" y="363" width="1" height="1" fill="#0573d2"/>
  <rect x="297" y="363" width="1" height="1" fill="#0394f1"/>
  <rect x="298" y="363" width="1" height="1" fill="#0163c3"/>
  <rect x="289" y="364" width="1" height="1" fill="#0a78dd"/>
  <rect x="290" y="364" width="1" height="1" fill="#0289ea"/>
  <rect x="297" y="364" width="1" height="1" fill="#0689ed"/>
  <rect x="298" y="364" width="1" height="1" fill="#0062c2"/>
  <rect x="289" y="365" width="1" height="1" fill="#0e7cde"/>
  <rect x="290" y="365" width="1" height="1" fill="#057cd6"/>
  <rect x="297" y="365" width="1" height="1" fill="#0786e9"/>
  <rect x="298" y="365" width="1" height="1" fill="#0065c3"/>
  <rect x="289" y="366" width="1" height="1" fill="#0c7cd7"/>
  <rect x="290" y="366" width="1" height="1" fill="#027ed7"/>
  <rect x="297" y="366" width="1" height="1" fill="#058aed"/>
  <rect x="298" y="366" width="1" height="1" fill="#016bc3"/>
  <rect x="289" y="367" width="1" height="1" fill="#0c7cd1"/>
  <rect x="290" y="367" width="1" height="1" fill="#0382d6"/>
  <rect x="297" y="367" width="1" height="1" fill="#088ef2"/>
  <rect x="298" y="367" width="1" height="1" fill="#026fc4"/>
  <rect x="289" y="368" width="1" height="1" fill="#0e72bf"/>
  <rect x="290" y="368" width="1" height="1" fill="#0573bb"/>
  <rect x="297" y="368" width="1" height="1" fill="#0c84e4"/>
  <rect x="298" y="368" width="1" height="1" fill="#066bba"/>
</svg>
