<?xml version="1.0" encoding="UTF-8"?>
<svg xmlns="http://www.w3.org/2000/svg" width="492" height="461">
  <rect x="239" y="356" width="1" height="1" fill="#07569c"/>
  <rect x="240" y="356" width="1" height="1" fill="#0864b5"/>
  <rect x="241" y="356" width="1" height="1" fill="#0a64b7"/>
  <rect x="242" y="356" width="1" height="1" fill="#084f8f"/>
  <rect x="237" y="357" width="1" height="1" fill="#0a72d3"/>
  <rect x="238" y="357" width="1" height="1" fill="#0596ee"/>
  <rect x="239" y="357" width="1" height="1" fill="#0691ec"/>
  <rect x="240" y="357" width="1" height="1" fill="#058deb"/>
  <rect x="241" y="357" width="1" height="1" fill="#0793f0"/>
  <rect x="242" y="357" width="1" height="1" fill="#08a1f7"/>
  <rect x="243" y="357" width="1" height="1" fill="#0795f2"/>
  <rect x="244" y="357" width="1" height="1" fill="#034581"/>
  <rect x="236" y="358" width="1" height="1" fill="#1172cf"/>
  <rect x="237" y="358" width="1" height="1" fill="#119fec"/>
  <rect x="238" y="358" width="1" height="1" fill="#0860a1"/>
  <rect x="242" y="358" width="1" height="1" fill="#074481"/>
  <rect x="243" y="358" width="1" height="1" fill="#0994f0"/>
  <rect x="244" y="358" width="1" height="1" fill="#059bf6"/>
  <rect x="236" y="359" width="1" height="1" fill="#14a0ed"/>
  <rect x="237" y="359" width="1" height="1" fill="#1474bb"/>
  <rect x="243" y="359" width="1" height="1" fill="#05468d"/>
  <rect x="244" y="359" width="1" height="1" fill="#05a1fa"/>
  <rect x="245" y="359" width="1" height="1" fill="#0563ad"/>
  <rect x="236" y="360" width="1" height="1" fill="#0ea5ee"/>
  <rect x="237" y="360" width="1" height="1" fill="#0c477b"/>
  <rect x="244" y="360" width="1" height="1" fill="#0491f2"/>
  <rect x="245" y="360" width="1" height="1" fill="#0372ca"/>
  <rect x="236" y="361" width="1" height="1" fill="#0aa1ed"/>
  <rect x="244" y="361" width="1" height="1" fill="#0482e0"/>
  <rect x="245" y="361" width="1" height="1" fill="#0275d0"/>
  <rect x="236" y="362" width="1" height="1" fill="#09a4ee"/>
  <rect x="244" y="362" width="1" height="1" fill="#0580d8"/>
  <rect x="245" y="362" width="1" height="1" fill="#0175ce"/>
  <rect x="236" y="363" width="1" height="1" fill="#08a3f0"/>
  <rect x="244" y="363" width="1" height="1" fill="#0781d8"/>
  <rect x="245" y="363" width="1" height="1" fill="#0272cb"/>
  <rect x="235" y="364" width="1" height="1" fill="#074181"/>
  <rect x="236" y="364" width="1" height="1" fill="#08a4f5"/>
  <rect x="237" y="364" width="1" height="1" fill="#054479"/>
  <rect x="244" y="364" width="1" height="1" fill="#0884dd"/>
  <rect x="245" y="364" width="1" height="1" fill="#0370c7"/>
  <rect x="235" y="365" width="1" height="1" fill="#053b7f"/>
  <rect x="236" y="365" width="1" height="1" fill="#07a2f9"/>
  <rect x="237" y="365" width="1" height="1" fill="#065291"/>
  <rect x="244" y="365" width="1" height="1" fill="#0691ec"/>
  <rect x="245" y="365" width="1" height="1" fill="#036abf"/>
  <rect x="236" y="366" width="1" height="1" fill="#059afa"/>
  <rect x="237" y="366" width="1" height="1" fill="#0782d9"/>
  <rect x="243" y="366" width="1" height="1" fill="#094994"/>
  <rect x="244" y="366" width="1" height="1" fill="#06a9f2"/>
  <rect x="245" y="366" width="1" height="1" fill="#034680"/>
  <rect x="236" y="367" width="1" height="1" fill="#025ebf"/>
  <rect x="237" y="367" width="1" height="1" fill="#09a6fb"/>
  <rect x="238" y="367" width="1" height="1" fill="#0b87d6"/>
  <rect x="239" y="367" width="1" height="1" fill="#075184"/>
  <rect x="242" y="367" width="1" height="1" fill="#0958a2"/>
  <rect x="243" y="367" width="1" height="1" fill="#119dee"/>
  <rect x="244" y="367" width="1" height="1" fill="#0674bd"/>
  <rect x="237" y="368" width="1" height="1" fill="#0654a5"/>
  <rect x="238" y="368" width="1" height="1" fill="#0885e4"/>
  <rect x="239" y="368" width="1" height="1" fill="#059af7"/>
  <rect x="240" y="368" width="1" height="1" fill="#0397f8"/>
  <rect x="241" y="368" width="1" height="1" fill="#0697f5"/>
  <rect x="242" y="368" width="1" height="1" fill="#0a92e7"/>
  <rect x="243" y="368" width="1" height="1" fill="#0965a8"/>
</svg>
