<?xml version="1.0" encoding="UTF-8"?>
<svg xmlns="http://www.w3.org/2000/svg" width="492" height="461">
  <rect x="160" y="356" width="1" height="1" fill="#034e98"/>
  <rect x="161" y="356" width="1" height="1" fill="#034181"/>
  <rect x="159" y="357" width="1" height="1" fill="#03449e"/>
  <rect x="160" y="357" width="1" height="1" fill="#009bfd"/>
  <rect x="161" y="357" width="1" height="1" fill="#0091fa"/>
  <rect x="162" y="357" width="1" height="1" fill="#0496f9"/>
  <rect x="163" y="357" width="1" height="1" fill="#039efc"/>
  <rect x="164" y="357" width="1" height="1" fill="#04a8fe"/>
  <rect x="165" y="357" width="1" height="1" fill="#05adff"/>
  <rect x="166" y="357" width="1" height="1" fill="#05aeff"/>
  <rect x="167" y="357" width="1" height="1" fill="#0683ee"/>
  <rect x="159" y="358" width="1" height="1" fill="#014085"/>
  <rect x="160" y="358" width="1" height="1" fill="#0095fc"/>
  <rect x="161" y="358" width="1" height="1" fill="#0058ae"/>
  <rect x="166" y="358" width="1" height="1" fill="#024995"/>
  <rect x="167" y="358" width="1" height="1" fill="#0ba1fc"/>
  <rect x="168" y="358" width="1" height="1" fill="#046bce"/>
  <rect x="159" y="359" width="1" height="1" fill="#023f8b"/>
  <rect x="160" y="359" width="1" height="1" fill="#019cff"/>
  <rect x="161" y="359" width="1" height="1" fill="#014b95"/>
  <rect x="167" y="359" width="1" height="1" fill="#0e83e4"/>
  <rect x="168" y="359" width="1" height="1" fill="#0480e9"/>
  <rect x="159" y="360" width="1" height="1" fill="#023f8a"/>
  <rect x="160" y="360" width="1" height="1" fill="#009bff"/>
  <rect x="161" y="360" width="1" height="1" fill="#02529c"/>
  <rect x="167" y="360" width="1" height="1" fill="#1494f0"/>
  <rect x="168" y="360" width="1" height="1" fill="#0463b9"/>
  <rect x="159" y="361" width="1" height="1" fill="#023c89"/>
  <rect x="160" y="361" width="1" height="1" fill="#009eff"/>
  <rect x="161" y="361" width="1" height="1" fill="#0058b3"/>
  <rect x="166" y="361" width="1" height="1" fill="#0e5bc0"/>
  <rect x="167" y="361" width="1" height="1" fill="#1582de"/>
  <rect x="159" y="362" width="1" height="1" fill="#033a87"/>
  <rect x="160" y="362" width="1" height="1" fill="#009cff"/>
  <rect x="161" y="362" width="1" height="1" fill="#0087eb"/>
  <rect x="162" y="362" width="1" height="1" fill="#087ad8"/>
  <rect x="163" y="362" width="1" height="1" fill="#067ad5"/>
  <rect x="164" y="362" width="1" height="1" fill="#0a81dd"/>
  <rect x="165" y="362" width="1" height="1" fill="#0c81e7"/>
  <rect x="166" y="362" width="1" height="1" fill="#0685ef"/>
  <rect x="167" y="362" width="1" height="1" fill="#0454b4"/>
  <rect x="159" y="363" width="1" height="1" fill="#04367f"/>
  <rect x="160" y="363" width="1" height="1" fill="#00a2ff"/>
  <rect x="161" y="363" width="1" height="1" fill="#0075d3"/>
  <rect x="162" y="363" width="1" height="1" fill="#0456a8"/>
  <rect x="163" y="363" width="1" height="1" fill="#025aa6"/>
  <rect x="164" y="363" width="1" height="1" fill="#03579b"/>
  <rect x="165" y="363" width="1" height="1" fill="#0459a0"/>
  <rect x="166" y="363" width="1" height="1" fill="#037ee0"/>
  <rect x="167" y="363" width="1" height="1" fill="#0b90ea"/>
  <rect x="159" y="364" width="1" height="1" fill="#03357b"/>
  <rect x="160" y="364" width="1" height="1" fill="#00aeff"/>
  <rect x="161" y="364" width="1" height="1" fill="#00458a"/>
  <rect x="167" y="364" width="1" height="1" fill="#0783e5"/>
  <rect x="168" y="364" width="1" height="1" fill="#0277d6"/>
  <rect x="160" y="365" width="1" height="1" fill="#00abff"/>
  <rect x="161" y="365" width="1" height="1" fill="#004882"/>
  <rect x="167" y="365" width="1" height="1" fill="#0667c1"/>
  <rect x="168" y="365" width="1" height="1" fill="#0185e4"/>
  <rect x="160" y="366" width="1" height="1" fill="#00a9ff"/>
  <rect x="161" y="366" width="1" height="1" fill="#004b95"/>
  <rect x="167" y="366" width="1" height="1" fill="#0b6fcd"/>
  <rect x="168" y="366" width="1" height="1" fill="#0282dc"/>
  <rect x="159" y="367" width="1" height="1" fill="#023579"/>
  <rect x="160" y="367" width="1" height="1" fill="#00a7fe"/>
  <rect x="161" y="367" width="1" height="1" fill="#006bbc"/>
  <rect x="164" y="367" width="1" height="1" fill="#02437c"/>
  <rect x="165" y="367" width="1" height="1" fill="#044a86"/>
  <rect x="166" y="367" width="1" height="1" fill="#045baa"/>
  <rect x="167" y="367" width="1" height="1" fill="#0b9be7"/>
  <rect x="168" y="367" width="1" height="1" fill="#01427f"/>
  <rect x="159" y="368" width="1" height="1" fill="#023983"/>
  <rect x="160" y="368" width="1" height="1" fill="#01abfc"/>
  <rect x="161" y="368" width="1" height="1" fill="#018ae1"/>
  <rect x="162" y="368" width="1" height="1" fill="#048eeb"/>
  <rect x="163" y="368" width="1" height="1" fill="#0390eb"/>
  <rect x="164" y="368" width="1" height="1" fill="#0296ec"/>
  <rect x="165" y="368" width="1" height="1" fill="#0497e7"/>
  <rect x="166" y="368" width="1" height="1" fill="#0487cf"/>
  <rect x="167" y="368" width="1" height="1" fill="#044c8a"/>
</svg>
