<?xml version="1.0" encoding="UTF-8"?>
<svg xmlns="http://www.w3.org/2000/svg" width="492" height="461">
  <rect x="304" y="356" width="1" height="1" fill="#014fa7"/>
  <rect x="305" y="356" width="1" height="1" fill="#014998"/>
  <rect x="306" y="356" width="1" height="1" fill="#03448e"/>
  <rect x="307" y="356" width="1" height="1" fill="#044486"/>
  <rect x="308" y="356" width="1" height="1" fill="#07467f"/>
  <rect x="309" y="356" width="1" height="1" fill="#0c4981"/>
  <rect x="310" y="356" width="1" height="1" fill="#10518a"/>
  <rect x="303" y="357" width="1" height="1" fill="#034bac"/>
  <rect x="304" y="357" width="1" height="1" fill="#0089fb"/>
  <rect x="305" y="357" width="1" height="1" fill="#0088f9"/>
  <rect x="306" y="357" width="1" height="1" fill="#0295f8"/>
  <rect x="307" y="357" width="1" height="1" fill="#039ff7"/>
  <rect x="308" y="357" width="1" height="1" fill="#05acf7"/>
  <rect x="309" y="357" width="1" height="1" fill="#0aacf5"/>
  <rect x="310" y="357" width="1" height="1" fill="#0bb2f7"/>
  <rect x="311" y="357" width="1" height="1" fill="#0698ee"/>
  <rect x="303" y="358" width="1" height="1" fill="#02478f"/>
  <rect x="304" y="358" width="1" height="1" fill="#0085f2"/>
  <rect x="305" y="358" width="1" height="1" fill="#0050a4"/>
  <rect x="303" y="359" width="1" height="1" fill="#03448c"/>
  <rect x="304" y="359" width="1" height="1" fill="#0284ee"/>
  <rect x="305" y="359" width="1" height="1" fill="#024589"/>
  <rect x="303" y="360" width="1" height="1" fill="#044083"/>
  <rect x="304" y="360" width="1" height="1" fill="#0280ea"/>
  <rect x="305" y="360" width="1" height="1" fill="#034488"/>
  <rect x="303" y="361" width="1" height="1" fill="#043a7d"/>
  <rect x="304" y="361" width="1" height="1" fill="#0181e9"/>
  <rect x="305" y="361" width="1" height="1" fill="#01479a"/>
  <rect x="303" y="362" width="1" height="1" fill="#043a7d"/>
  <rect x="304" y="362" width="1" height="1" fill="#017ee9"/>
  <rect x="305" y="362" width="1" height="1" fill="#0277d9"/>
  <rect x="306" y="362" width="1" height="1" fill="#0e77cf"/>
  <rect x="307" y="362" width="1" height="1" fill="#0d84d7"/>
  <rect x="308" y="362" width="1" height="1" fill="#0e8bde"/>
  <rect x="309" y="362" width="1" height="1" fill="#1393e3"/>
  <rect x="310" y="362" width="1" height="1" fill="#0d7fd3"/>
  <rect x="303" y="363" width="1" height="1" fill="#043a7f"/>
  <rect x="304" y="363" width="1" height="1" fill="#0180ed"/>
  <rect x="305" y="363" width="1" height="1" fill="#0273db"/>
  <rect x="306" y="363" width="1" height="1" fill="#07549f"/>
  <rect x="307" y="363" width="1" height="1" fill="#065394"/>
  <rect x="308" y="363" width="1" height="1" fill="#065592"/>
  <rect x="309" y="363" width="1" height="1" fill="#065f9c"/>
  <rect x="310" y="363" width="1" height="1" fill="#055b9b"/>
  <rect x="303" y="364" width="1" height="1" fill="#033c83"/>
  <rect x="304" y="364" width="1" height="1" fill="#0187f0"/>
  <rect x="305" y="364" width="1" height="1" fill="#014b99"/>
  <rect x="303" y="365" width="1" height="1" fill="#043e83"/>
  <rect x="304" y="365" width="1" height="1" fill="#0186f2"/>
  <rect x="305" y="365" width="1" height="1" fill="#024884"/>
  <rect x="303" y="366" width="1" height="1" fill="#054283"/>
  <rect x="304" y="366" width="1" height="1" fill="#0087f1"/>
  <rect x="305" y="366" width="1" height="1" fill="#014c98"/>
  <rect x="303" y="367" width="1" height="1" fill="#054487"/>
  <rect x="304" y="367" width="1" height="1" fill="#0088f0"/>
  <rect x="305" y="367" width="1" height="1" fill="#0075ce"/>
  <rect x="306" y="367" width="1" height="1" fill="#0255a0"/>
  <rect x="307" y="367" width="1" height="1" fill="#045294"/>
  <rect x="308" y="367" width="1" height="1" fill="#034f8d"/>
  <rect x="309" y="367" width="1" height="1" fill="#044e89"/>
  <rect x="310" y="367" width="1" height="1" fill="#04558f"/>
  <rect x="311" y="367" width="1" height="1" fill="#074d82"/>
  <rect x="303" y="368" width="1" height="1" fill="#05458e"/>
  <rect x="304" y="368" width="1" height="1" fill="#0286f2"/>
  <rect x="305" y="368" width="1" height="1" fill="#0282e6"/>
  <rect x="306" y="368" width="1" height="1" fill="#0386f1"/>
  <rect x="307" y="368" width="1" height="1" fill="#048df7"/>
  <rect x="308" y="368" width="1" height="1" fill="#0394fc"/>
  <rect x="309" y="368" width="1" height="1" fill="#039afe"/>
  <rect x="310" y="368" width="1" height="1" fill="#029dfb"/>
  <rect x="311" y="368" width="1" height="1" fill="#088ee4"/>
</svg>
