<?xml version="1.0" encoding="UTF-8"?>
<svg xmlns="http://www.w3.org/2000/svg" width="492" height="461">
  <rect x="330" y="356" width="1" height="1" fill="#0458a8"/>
  <rect x="331" y="356" width="1" height="1" fill="#065195"/>
  <rect x="332" y="356" width="1" height="1" fill="#064b8a"/>
  <rect x="333" y="356" width="1" height="1" fill="#074a83"/>
  <rect x="334" y="356" width="1" height="1" fill="#074680"/>
  <rect x="335" y="356" width="1" height="1" fill="#05468c"/>
  <rect x="336" y="356" width="1" height="1" fill="#0351a7"/>
  <rect x="329" y="357" width="1" height="1" fill="#075dbf"/>
  <rect x="330" y="357" width="1" height="1" fill="#02a2ff"/>
  <rect x="331" y="357" width="1" height="1" fill="#029afc"/>
  <rect x="332" y="357" width="1" height="1" fill="#04a8ff"/>
  <rect x="333" y="357" width="1" height="1" fill="#04aafe"/>
  <rect x="334" y="357" width="1" height="1" fill="#06aafc"/>
  <rect x="335" y="357" width="1" height="1" fill="#0aa8f7"/>
  <rect x="336" y="357" width="1" height="1" fill="#04b1fb"/>
  <rect x="337" y="357" width="1" height="1" fill="#026dd1"/>
  <rect x="329" y="358" width="1" height="1" fill="#0660b2"/>
  <rect x="330" y="358" width="1" height="1" fill="#039dfd"/>
  <rect x="331" y="358" width="1" height="1" fill="#02477e"/>
  <rect x="329" y="359" width="1" height="1" fill="#0963b4"/>
  <rect x="330" y="359" width="1" height="1" fill="#059cfe"/>
  <rect x="329" y="360" width="1" height="1" fill="#0c62b1"/>
  <rect x="330" y="360" width="1" height="1" fill="#039afd"/>
  <rect x="329" y="361" width="1" height="1" fill="#0b5fae"/>
  <rect x="330" y="361" width="1" height="1" fill="#0299fd"/>
  <rect x="329" y="362" width="1" height="1" fill="#085fae"/>
  <rect x="330" y="362" width="1" height="1" fill="#0192fa"/>
  <rect x="331" y="362" width="1" height="1" fill="#0875cb"/>
  <rect x="332" y="362" width="1" height="1" fill="#197cd1"/>
  <rect x="333" y="362" width="1" height="1" fill="#1785da"/>
  <rect x="334" y="362" width="1" height="1" fill="#1a84d8"/>
  <rect x="335" y="362" width="1" height="1" fill="#1f89de"/>
  <rect x="336" y="362" width="1" height="1" fill="#0a6bbd"/>
  <rect x="329" y="363" width="1" height="1" fill="#055ead"/>
  <rect x="330" y="363" width="1" height="1" fill="#0093f9"/>
  <rect x="331" y="363" width="1" height="1" fill="#046fca"/>
  <rect x="332" y="363" width="1" height="1" fill="#095ea6"/>
  <rect x="333" y="363" width="1" height="1" fill="#0865a8"/>
  <rect x="334" y="363" width="1" height="1" fill="#0965a9"/>
  <rect x="335" y="363" width="1" height="1" fill="#1070b8"/>
  <rect x="336" y="363" width="1" height="1" fill="#0760a8"/>
  <rect x="329" y="364" width="1" height="1" fill="#055aaa"/>
  <rect x="330" y="364" width="1" height="1" fill="#0193f5"/>
  <rect x="329" y="365" width="1" height="1" fill="#075ba6"/>
  <rect x="330" y="365" width="1" height="1" fill="#038eef"/>
  <rect x="329" y="366" width="1" height="1" fill="#095ca0"/>
  <rect x="330" y="366" width="1" height="1" fill="#028ae6"/>
  <rect x="329" y="367" width="1" height="1" fill="#065b9c"/>
  <rect x="330" y="367" width="1" height="1" fill="#018adf"/>
  <rect x="331" y="367" width="1" height="1" fill="#02579c"/>
  <rect x="332" y="367" width="1" height="1" fill="#03447e"/>
  <rect x="333" y="367" width="1" height="1" fill="#044d86"/>
  <rect x="334" y="367" width="1" height="1" fill="#034782"/>
  <rect x="335" y="367" width="1" height="1" fill="#034784"/>
  <rect x="336" y="367" width="1" height="1" fill="#0459a3"/>
  <rect x="329" y="368" width="1" height="1" fill="#03569f"/>
  <rect x="330" y="368" width="1" height="1" fill="#0283df"/>
  <rect x="331" y="368" width="1" height="1" fill="#0487e3"/>
  <rect x="332" y="368" width="1" height="1" fill="#038de9"/>
  <rect x="333" y="368" width="1" height="1" fill="#038feb"/>
  <rect x="334" y="368" width="1" height="1" fill="#0392ed"/>
  <rect x="335" y="368" width="1" height="1" fill="#0298eb"/>
  <rect x="336" y="368" width="1" height="1" fill="#02adf3"/>
  <rect x="337" y="368" width="1" height="1" fill="#056ec1"/>
</svg>
