<?xml version="1.0" encoding="UTF-8"?>
<svg xmlns="http://www.w3.org/2000/svg" width="492" height="461">
  <rect x="270" y="356" width="1" height="1" fill="#085287"/>
  <rect x="277" y="356" width="1" height="1" fill="#125c90"/>
  <rect x="284" y="356" width="1" height="1" fill="#0e5d98"/>
  <rect x="269" y="357" width="1" height="1" fill="#0a57a6"/>
  <rect x="270" y="357" width="1" height="1" fill="#0db2ee"/>
  <rect x="276" y="357" width="1" height="1" fill="#108ce3"/>
  <rect x="277" y="357" width="1" height="1" fill="#19cdfa"/>
  <rect x="278" y="357" width="1" height="1" fill="#064e8b"/>
  <rect x="283" y="357" width="1" height="1" fill="#186dba"/>
  <rect x="284" y="357" width="1" height="1" fill="#16c0f8"/>
  <rect x="270" y="358" width="1" height="1" fill="#0ca4e9"/>
  <rect x="271" y="358" width="1" height="1" fill="#075791"/>
  <rect x="276" y="358" width="1" height="1" fill="#089cea"/>
  <rect x="277" y="358" width="1" height="1" fill="#0bb0f7"/>
  <rect x="278" y="358" width="1" height="1" fill="#0668b1"/>
  <rect x="283" y="358" width="1" height="1" fill="#1e93e6"/>
  <rect x="284" y="358" width="1" height="1" fill="#138bda"/>
  <rect x="270" y="359" width="1" height="1" fill="#0789dc"/>
  <rect x="271" y="359" width="1" height="1" fill="#0671c0"/>
  <rect x="275" y="359" width="1" height="1" fill="#043979"/>
  <rect x="276" y="359" width="1" height="1" fill="#079deb"/>
  <rect x="277" y="359" width="1" height="1" fill="#0693eb"/>
  <rect x="278" y="359" width="1" height="1" fill="#0780d8"/>
  <rect x="283" y="359" width="1" height="1" fill="#1db1fc"/>
  <rect x="284" y="359" width="1" height="1" fill="#0c5c9a"/>
  <rect x="270" y="360" width="1" height="1" fill="#0564b7"/>
  <rect x="271" y="360" width="1" height="1" fill="#0592e6"/>
  <rect x="275" y="360" width="1" height="1" fill="#0761b3"/>
  <rect x="276" y="360" width="1" height="1" fill="#0990de"/>
  <rect x="277" y="360" width="1" height="1" fill="#025bb0"/>
  <rect x="278" y="360" width="1" height="1" fill="#0c98f1"/>
  <rect x="282" y="360" width="1" height="1" fill="#053f83"/>
  <rect x="283" y="360" width="1" height="1" fill="#17b8ff"/>
  <rect x="271" y="361" width="1" height="1" fill="#069eed"/>
  <rect x="275" y="361" width="1" height="1" fill="#0787dd"/>
  <rect x="276" y="361" width="1" height="1" fill="#0864ac"/>
  <rect x="278" y="361" width="1" height="1" fill="#0b8ce8"/>
  <rect x="279" y="361" width="1" height="1" fill="#0366af"/>
  <rect x="282" y="361" width="1" height="1" fill="#0b61af"/>
  <rect x="283" y="361" width="1" height="1" fill="#14a5f7"/>
  <rect x="271" y="362" width="1" height="1" fill="#059df0"/>
  <rect x="272" y="362" width="1" height="1" fill="#0561b7"/>
  <rect x="275" y="362" width="1" height="1" fill="#049cec"/>
  <rect x="278" y="362" width="1" height="1" fill="#0674cb"/>
  <rect x="279" y="362" width="1" height="1" fill="#058de2"/>
  <rect x="282" y="362" width="1" height="1" fill="#1181d2"/>
  <rect x="283" y="362" width="1" height="1" fill="#1187d7"/>
  <rect x="271" y="363" width="1" height="1" fill="#0482e7"/>
  <rect x="272" y="363" width="1" height="1" fill="#057fdf"/>
  <rect x="275" y="363" width="1" height="1" fill="#0295e8"/>
  <rect x="278" y="363" width="1" height="1" fill="#0456a5"/>
  <rect x="279" y="363" width="1" height="1" fill="#07a3f1"/>
  <rect x="282" y="363" width="1" height="1" fill="#0e9eed"/>
  <rect x="283" y="363" width="1" height="1" fill="#065ea5"/>
  <rect x="271" y="364" width="1" height="1" fill="#045fb4"/>
  <rect x="272" y="364" width="1" height="1" fill="#0694eb"/>
  <rect x="274" y="364" width="1" height="1" fill="#0566ad"/>
  <rect x="275" y="364" width="1" height="1" fill="#0383d5"/>
  <rect x="279" y="364" width="1" height="1" fill="#08abf2"/>
  <rect x="280" y="364" width="1" height="1" fill="#02427e"/>
  <rect x="282" y="364" width="1" height="1" fill="#08aaf1"/>
  <rect x="272" y="365" width="1" height="1" fill="#0596ed"/>
  <rect x="273" y="365" width="1" height="1" fill="#0151a4"/>
  <rect x="274" y="365" width="1" height="1" fill="#0484d5"/>
  <rect x="275" y="365" width="1" height="1" fill="#035494"/>
  <rect x="279" y="365" width="1" height="1" fill="#0998e6"/>
  <rect x="280" y="365" width="1" height="1" fill="#0461ad"/>
  <rect x="281" y="365" width="1" height="1" fill="#055ba2"/>
  <rect x="282" y="365" width="1" height="1" fill="#079be7"/>
  <rect x="272" y="366" width="1" height="1" fill="#038fe9"/>
  <rect x="273" y="366" width="1" height="1" fill="#017dd3"/>
  <rect x="274" y="366" width="1" height="1" fill="#038ee2"/>
  <rect x="279" y="366" width="1" height="1" fill="#0875c2"/>
  <rect x="280" y="366" width="1" height="1" fill="#0583d3"/>
  <rect x="281" y="366" width="1" height="1" fill="#0987d7"/>
  <rect x="282" y="366" width="1" height="1" fill="#067bc9"/>
  <rect x="272" y="367" width="1" height="1" fill="#027ddc"/>
  <rect x="273" y="367" width="1" height="1" fill="#028fe5"/>
  <rect x="274" y="367" width="1" height="1" fill="#038ee2"/>
  <rect x="279" y="367" width="1" height="1" fill="#044d8d"/>
  <rect x="280" y="367" width="1" height="1" fill="#0496e1"/>
  <rect x="281" y="367" width="1" height="1" fill="#089ce4"/>
  <rect x="282" y="367" width="1" height="1" fill="#045994"/>
  <rect x="272" y="368" width="1" height="1" fill="#0267bc"/>
  <rect x="273" y="368" width="1" height="1" fill="#03a0ea"/>
  <rect x="274" y="368" width="1" height="1" fill="#056aae"/>
  <rect x="280" y="368" width="1" height="1" fill="#0a92da"/>
  <rect x="281" y="368" width="1" height="1" fill="#0a96d7"/>
</svg>
