<?xml version="1.0" encoding="UTF-8"?>
<svg xmlns="http://www.w3.org/2000/svg" width="492" height="461">
  <rect x="173" y="378" width="1" height="1" fill="#0954b7"/>
  <rect x="174" y="378" width="1" height="1" fill="#0857ad"/>
  <rect x="181" y="378" width="1" height="1" fill="#0f71cf"/>
  <rect x="182" y="378" width="1" height="1" fill="#0a5499"/>
  <rect x="173" y="379" width="1" height="1" fill="#078bfe"/>
  <rect x="174" y="379" width="1" height="1" fill="#038dfc"/>
  <rect x="181" y="379" width="1" height="1" fill="#089bf9"/>
  <rect x="182" y="379" width="1" height="1" fill="#0370d1"/>
  <rect x="173" y="380" width="1" height="1" fill="#048bf8"/>
  <rect x="174" y="380" width="1" height="1" fill="#018af8"/>
  <rect x="181" y="380" width="1" height="1" fill="#0597f5"/>
  <rect x="182" y="380" width="1" height="1" fill="#016dcf"/>
  <rect x="173" y="381" width="1" height="1" fill="#058bf6"/>
  <rect x="174" y="381" width="1" height="1" fill="#0286f4"/>
  <rect x="181" y="381" width="1" height="1" fill="#0995f2"/>
  <rect x="182" y="381" width="1" height="1" fill="#016bd3"/>
  <rect x="173" y="382" width="1" height="1" fill="#0787ed"/>
  <rect x="174" y="382" width="1" height="1" fill="#0384ef"/>
  <rect x="181" y="382" width="1" height="1" fill="#1394ef"/>
  <rect x="182" y="382" width="1" height="1" fill="#0169d3"/>
  <rect x="173" y="383" width="1" height="1" fill="#0583e6"/>
  <rect x="174" y="383" width="1" height="1" fill="#0187f0"/>
  <rect x="175" y="383" width="1" height="1" fill="#003380"/>
  <rect x="181" y="383" width="1" height="1" fill="#0b95f0"/>
  <rect x="182" y="383" width="1" height="1" fill="#016ddc"/>
  <rect x="173" y="384" width="1" height="1" fill="#037fe4"/>
  <rect x="174" y="384" width="1" height="1" fill="#0089f5"/>
  <rect x="175" y="384" width="1" height="1" fill="#0393f3"/>
  <rect x="176" y="384" width="1" height="1" fill="#0497f2"/>
  <rect x="177" y="384" width="1" height="1" fill="#0492f1"/>
  <rect x="178" y="384" width="1" height="1" fill="#0493f2"/>
  <rect x="179" y="384" width="1" height="1" fill="#0793f1"/>
  <rect x="180" y="384" width="1" height="1" fill="#0792ef"/>
  <rect x="181" y="384" width="1" height="1" fill="#0499f2"/>
  <rect x="182" y="384" width="1" height="1" fill="#016ee6"/>
  <rect x="173" y="385" width="1" height="1" fill="#0779dd"/>
  <rect x="174" y="385" width="1" height="1" fill="#018ced"/>
  <rect x="175" y="385" width="1" height="1" fill="#024287"/>
  <rect x="180" y="385" width="1" height="1" fill="#073d82"/>
  <rect x="181" y="385" width="1" height="1" fill="#0c92f0"/>
  <rect x="182" y="385" width="1" height="1" fill="#0271e3"/>
  <rect x="173" y="386" width="1" height="1" fill="#077fdf"/>
  <rect x="174" y="386" width="1" height="1" fill="#0289e4"/>
  <rect x="181" y="386" width="1" height="1" fill="#0e90ed"/>
  <rect x="182" y="386" width="1" height="1" fill="#0174de"/>
  <rect x="173" y="387" width="1" height="1" fill="#0780de"/>
  <rect x="174" y="387" width="1" height="1" fill="#0284e1"/>
  <rect x="181" y="387" width="1" height="1" fill="#088dec"/>
  <rect x="182" y="387" width="1" height="1" fill="#0175dd"/>
  <rect x="173" y="388" width="1" height="1" fill="#097edb"/>
  <rect x="174" y="388" width="1" height="1" fill="#0184e1"/>
  <rect x="181" y="388" width="1" height="1" fill="#0a94f0"/>
  <rect x="182" y="388" width="1" height="1" fill="#017ade"/>
  <rect x="173" y="389" width="1" height="1" fill="#087cdc"/>
  <rect x="174" y="389" width="1" height="1" fill="#0284e3"/>
  <rect x="181" y="389" width="1" height="1" fill="#0c98f4"/>
  <rect x="182" y="389" width="1" height="1" fill="#027ce0"/>
  <rect x="173" y="390" width="1" height="1" fill="#0a71d2"/>
  <rect x="174" y="390" width="1" height="1" fill="#0382e1"/>
  <rect x="181" y="390" width="1" height="1" fill="#0f93f2"/>
  <rect x="182" y="390" width="1" height="1" fill="#0379dc"/>
</svg>
