<?xml version="1.0" encoding="UTF-8"?>
<svg xmlns="http://www.w3.org/2000/svg" width="492" height="461">
  <rect x="160" y="378" width="1" height="1" fill="#075492"/>
  <rect x="161" y="378" width="1" height="1" fill="#0c588f"/>
  <rect x="162" y="378" width="1" height="1" fill="#0f4f8f"/>
  <rect x="163" y="378" width="1" height="1" fill="#094d93"/>
  <rect x="164" y="378" width="1" height="1" fill="#054c98"/>
  <rect x="165" y="378" width="1" height="1" fill="#054e9e"/>
  <rect x="166" y="378" width="1" height="1" fill="#064c95"/>
  <rect x="167" y="378" width="1" height="1" fill="#075295"/>
  <rect x="168" y="378" width="1" height="1" fill="#085bab"/>
  <rect x="160" y="379" width="1" height="1" fill="#089df0"/>
  <rect x="161" y="379" width="1" height="1" fill="#0b92ea"/>
  <rect x="162" y="379" width="1" height="1" fill="#1486e8"/>
  <rect x="163" y="379" width="1" height="1" fill="#068ef3"/>
  <rect x="164" y="379" width="1" height="1" fill="#0294fb"/>
  <rect x="165" y="379" width="1" height="1" fill="#0294fd"/>
  <rect x="166" y="379" width="1" height="1" fill="#0697fc"/>
  <rect x="167" y="379" width="1" height="1" fill="#07a8ff"/>
  <rect x="168" y="379" width="1" height="1" fill="#06b9ff"/>
  <rect x="163" y="380" width="1" height="1" fill="#024a99"/>
  <rect x="164" y="380" width="1" height="1" fill="#0394f8"/>
  <rect x="165" y="380" width="1" height="1" fill="#025bad"/>
  <rect x="163" y="381" width="1" height="1" fill="#023a83"/>
  <rect x="164" y="381" width="1" height="1" fill="#039dfe"/>
  <rect x="165" y="381" width="1" height="1" fill="#075097"/>
  <rect x="164" y="382" width="1" height="1" fill="#019eff"/>
  <rect x="165" y="382" width="1" height="1" fill="#065497"/>
  <rect x="164" y="383" width="1" height="1" fill="#01a4ff"/>
  <rect x="165" y="383" width="1" height="1" fill="#03549d"/>
  <rect x="164" y="384" width="1" height="1" fill="#00a7ff"/>
  <rect x="165" y="384" width="1" height="1" fill="#0154a0"/>
  <rect x="164" y="385" width="1" height="1" fill="#00a9ff"/>
  <rect x="165" y="385" width="1" height="1" fill="#00549d"/>
  <rect x="164" y="386" width="1" height="1" fill="#00a9fe"/>
  <rect x="165" y="386" width="1" height="1" fill="#01549c"/>
  <rect x="164" y="387" width="1" height="1" fill="#00a9fc"/>
  <rect x="165" y="387" width="1" height="1" fill="#02539a"/>
  <rect x="164" y="388" width="1" height="1" fill="#00a7f7"/>
  <rect x="165" y="388" width="1" height="1" fill="#035295"/>
  <rect x="164" y="389" width="1" height="1" fill="#00a9f4"/>
  <rect x="165" y="389" width="1" height="1" fill="#025395"/>
  <rect x="164" y="390" width="1" height="1" fill="#009be8"/>
  <rect x="165" y="390" width="1" height="1" fill="#024b88"/>
</svg>
