<?xml version="1.0" encoding="UTF-8"?>
<svg xmlns="http://www.w3.org/2000/svg" width="492" height="461">
  <rect x="258" y="378" width="1" height="1" fill="#064e91"/>
  <rect x="259" y="378" width="1" height="1" fill="#065196"/>
  <rect x="257" y="379" width="1" height="1" fill="#044492"/>
  <rect x="258" y="379" width="1" height="1" fill="#0385e9"/>
  <rect x="259" y="379" width="1" height="1" fill="#0697ee"/>
  <rect x="260" y="379" width="1" height="1" fill="#033f7c"/>
  <rect x="257" y="380" width="1" height="1" fill="#0360ca"/>
  <rect x="258" y="380" width="1" height="1" fill="#026cd3"/>
  <rect x="259" y="380" width="1" height="1" fill="#0586e6"/>
  <rect x="260" y="380" width="1" height="1" fill="#0362ba"/>
  <rect x="257" y="381" width="1" height="1" fill="#027be6"/>
  <rect x="258" y="381" width="1" height="1" fill="#0556a3"/>
  <rect x="259" y="381" width="1" height="1" fill="#0752a7"/>
  <rect x="260" y="381" width="1" height="1" fill="#058de9"/>
  <rect x="256" y="382" width="1" height="1" fill="#03489c"/>
  <rect x="257" y="382" width="1" height="1" fill="#038bea"/>
  <rect x="260" y="382" width="1" height="1" fill="#0c97ee"/>
  <rect x="261" y="382" width="1" height="1" fill="#034d94"/>
  <rect x="256" y="383" width="1" height="1" fill="#0376e1"/>
  <rect x="257" y="383" width="1" height="1" fill="#037bd4"/>
  <rect x="260" y="383" width="1" height="1" fill="#0665c0"/>
  <rect x="261" y="383" width="1" height="1" fill="#0289ea"/>
  <rect x="256" y="384" width="1" height="1" fill="#029cf0"/>
  <rect x="257" y="384" width="1" height="1" fill="#04508e"/>
  <rect x="261" y="384" width="1" height="1" fill="#05a2f3"/>
  <rect x="262" y="384" width="1" height="1" fill="#014087"/>
  <rect x="255" y="385" width="1" height="1" fill="#0a56a9"/>
  <rect x="256" y="385" width="1" height="1" fill="#038bea"/>
  <rect x="261" y="385" width="1" height="1" fill="#0b93eb"/>
  <rect x="262" y="385" width="1" height="1" fill="#0478da"/>
  <rect x="255" y="386" width="1" height="1" fill="#0a84de"/>
  <rect x="256" y="386" width="1" height="1" fill="#0275d8"/>
  <rect x="257" y="386" width="1" height="1" fill="#024e91"/>
  <rect x="258" y="386" width="1" height="1" fill="#055797"/>
  <rect x="259" y="386" width="1" height="1" fill="#0965a6"/>
  <rect x="260" y="386" width="1" height="1" fill="#076db1"/>
  <rect x="261" y="386" width="1" height="1" fill="#037dde"/>
  <rect x="262" y="386" width="1" height="1" fill="#0290f4"/>
  <rect x="254" y="387" width="1" height="1" fill="#063f82"/>
  <rect x="255" y="387" width="1" height="1" fill="#058eef"/>
  <rect x="256" y="387" width="1" height="1" fill="#038bea"/>
  <rect x="257" y="387" width="1" height="1" fill="#048fe9"/>
  <rect x="258" y="387" width="1" height="1" fill="#038ee6"/>
  <rect x="259" y="387" width="1" height="1" fill="#048be2"/>
  <rect x="260" y="387" width="1" height="1" fill="#0685d5"/>
  <rect x="261" y="387" width="1" height="1" fill="#027fe2"/>
  <rect x="262" y="387" width="1" height="1" fill="#0190fb"/>
  <rect x="263" y="387" width="1" height="1" fill="#0155b0"/>
  <rect x="254" y="388" width="1" height="1" fill="#0c71d5"/>
  <rect x="255" y="388" width="1" height="1" fill="#0c83e3"/>
  <rect x="261" y="388" width="1" height="1" fill="#033784"/>
  <rect x="262" y="388" width="1" height="1" fill="#0290fb"/>
  <rect x="263" y="388" width="1" height="1" fill="#0176e7"/>
  <rect x="254" y="389" width="1" height="1" fill="#0b90f4"/>
  <rect x="255" y="389" width="1" height="1" fill="#0e6ab5"/>
  <rect x="262" y="389" width="1" height="1" fill="#0170e3"/>
  <rect x="263" y="389" width="1" height="1" fill="#018bf9"/>
  <rect x="253" y="390" width="1" height="1" fill="#0b53a9"/>
  <rect x="254" y="390" width="1" height="1" fill="#08a1f8"/>
  <rect x="262" y="390" width="1" height="1" fill="#023d8b"/>
  <rect x="263" y="390" width="1" height="1" fill="#0693f9"/>
  <rect x="264" y="390" width="1" height="1" fill="#06427e"/>
</svg>
