<?xml version="1.0" encoding="UTF-8"?>
<svg xmlns="http://www.w3.org/2000/svg" width="492" height="461">
  <rect x="286" y="378" width="1" height="1" fill="#023c99"/>
  <rect x="287" y="378" width="1" height="1" fill="#034aa4"/>
  <rect x="288" y="378" width="1" height="1" fill="#05438c"/>
  <rect x="289" y="378" width="1" height="1" fill="#0c4c8e"/>
  <rect x="290" y="378" width="1" height="1" fill="#105092"/>
  <rect x="291" y="378" width="1" height="1" fill="#115295"/>
  <rect x="292" y="378" width="1" height="1" fill="#0e5397"/>
  <rect x="293" y="378" width="1" height="1" fill="#0b58a0"/>
  <rect x="286" y="379" width="1" height="1" fill="#036eea"/>
  <rect x="287" y="379" width="1" height="1" fill="#02a8ff"/>
  <rect x="288" y="379" width="1" height="1" fill="#05a6fd"/>
  <rect x="289" y="379" width="1" height="1" fill="#0ca7f6"/>
  <rect x="290" y="379" width="1" height="1" fill="#119ef1"/>
  <rect x="291" y="379" width="1" height="1" fill="#129cee"/>
  <rect x="292" y="379" width="1" height="1" fill="#0aa1ef"/>
  <rect x="293" y="379" width="1" height="1" fill="#06b9f2"/>
  <rect x="286" y="380" width="1" height="1" fill="#046bd9"/>
  <rect x="287" y="380" width="1" height="1" fill="#039efe"/>
  <rect x="288" y="380" width="1" height="1" fill="#01387b"/>
  <rect x="286" y="381" width="1" height="1" fill="#056fdf"/>
  <rect x="287" y="381" width="1" height="1" fill="#049afc"/>
  <rect x="286" y="382" width="1" height="1" fill="#056fda"/>
  <rect x="287" y="382" width="1" height="1" fill="#049af9"/>
  <rect x="286" y="383" width="1" height="1" fill="#046fd5"/>
  <rect x="287" y="383" width="1" height="1" fill="#029bf7"/>
  <rect x="286" y="384" width="1" height="1" fill="#026ed6"/>
  <rect x="287" y="384" width="1" height="1" fill="#0093f9"/>
  <rect x="288" y="384" width="1" height="1" fill="#038cec"/>
  <rect x="289" y="384" width="1" height="1" fill="#079eec"/>
  <rect x="290" y="384" width="1" height="1" fill="#039fed"/>
  <rect x="291" y="384" width="1" height="1" fill="#04a0ee"/>
  <rect x="292" y="384" width="1" height="1" fill="#03a4ef"/>
  <rect x="293" y="384" width="1" height="1" fill="#047ad0"/>
  <rect x="286" y="385" width="1" height="1" fill="#036bd2"/>
  <rect x="287" y="385" width="1" height="1" fill="#019cfb"/>
  <rect x="288" y="385" width="1" height="1" fill="#014ea1"/>
  <rect x="286" y="386" width="1" height="1" fill="#036dd5"/>
  <rect x="287" y="386" width="1" height="1" fill="#02a5fd"/>
  <rect x="286" y="387" width="1" height="1" fill="#0471d5"/>
  <rect x="287" y="387" width="1" height="1" fill="#03a2ff"/>
  <rect x="286" y="388" width="1" height="1" fill="#0574d5"/>
  <rect x="287" y="388" width="1" height="1" fill="#03a7ff"/>
  <rect x="286" y="389" width="1" height="1" fill="#0479db"/>
  <rect x="287" y="389" width="1" height="1" fill="#03b1ff"/>
  <rect x="288" y="389" width="1" height="1" fill="#0278d9"/>
  <rect x="289" y="389" width="1" height="1" fill="#046fbe"/>
  <rect x="290" y="389" width="1" height="1" fill="#0577c0"/>
  <rect x="291" y="389" width="1" height="1" fill="#0670bf"/>
  <rect x="292" y="389" width="1" height="1" fill="#056cb8"/>
  <rect x="293" y="389" width="1" height="1" fill="#0673bf"/>
  <rect x="286" y="390" width="1" height="1" fill="#0474d7"/>
  <rect x="287" y="390" width="1" height="1" fill="#03a3ff"/>
  <rect x="288" y="390" width="1" height="1" fill="#0495f7"/>
  <rect x="289" y="390" width="1" height="1" fill="#03a5fd"/>
  <rect x="290" y="390" width="1" height="1" fill="#01a5fc"/>
  <rect x="291" y="390" width="1" height="1" fill="#03a6fe"/>
  <rect x="292" y="390" width="1" height="1" fill="#02aafd"/>
  <rect x="293" y="390" width="1" height="1" fill="#02aefe"/>
  <rect x="294" y="390" width="1" height="1" fill="#035ea8"/>
</svg>
