<?xml version="1.0" encoding="UTF-8"?>
<svg xmlns="http://www.w3.org/2000/svg" width="492" height="461">
  <rect x="224" y="356" width="1" height="1" fill="#0453a1"/>
  <rect x="225" y="356" width="1" height="1" fill="#034c93"/>
  <rect x="226" y="356" width="1" height="1" fill="#074788"/>
  <rect x="227" y="356" width="1" height="1" fill="#08497f"/>
  <rect x="228" y="356" width="1" height="1" fill="#074e80"/>
  <rect x="229" y="356" width="1" height="1" fill="#0b5084"/>
  <rect x="230" y="356" width="1" height="1" fill="#0c4d81"/>
  <rect x="231" y="356" width="1" height="1" fill="#0b4b82"/>
  <rect x="224" y="357" width="1" height="1" fill="#038ef3"/>
  <rect x="225" y="357" width="1" height="1" fill="#0189f0"/>
  <rect x="226" y="357" width="1" height="1" fill="#0587e9"/>
  <rect x="227" y="357" width="1" height="1" fill="#069eea"/>
  <rect x="228" y="357" width="1" height="1" fill="#05acec"/>
  <rect x="229" y="357" width="1" height="1" fill="#09a9ea"/>
  <rect x="230" y="357" width="1" height="1" fill="#08a2ea"/>
  <rect x="231" y="357" width="1" height="1" fill="#099fe8"/>
  <rect x="224" y="358" width="1" height="1" fill="#038ef3"/>
  <rect x="225" y="358" width="1" height="1" fill="#016fc8"/>
  <rect x="224" y="359" width="1" height="1" fill="#0393f7"/>
  <rect x="225" y="359" width="1" height="1" fill="#036bc4"/>
  <rect x="224" y="360" width="1" height="1" fill="#0293f9"/>
  <rect x="225" y="360" width="1" height="1" fill="#046ec5"/>
  <rect x="224" y="361" width="1" height="1" fill="#0198fb"/>
  <rect x="225" y="361" width="1" height="1" fill="#0172cf"/>
  <rect x="224" y="362" width="1" height="1" fill="#019afd"/>
  <rect x="225" y="362" width="1" height="1" fill="#018cee"/>
  <rect x="226" y="362" width="1" height="1" fill="#0667bd"/>
  <rect x="227" y="362" width="1" height="1" fill="#086cb2"/>
  <rect x="228" y="362" width="1" height="1" fill="#096eb1"/>
  <rect x="229" y="362" width="1" height="1" fill="#0c6aac"/>
  <rect x="230" y="362" width="1" height="1" fill="#086bb2"/>
  <rect x="224" y="363" width="1" height="1" fill="#019bff"/>
  <rect x="225" y="363" width="1" height="1" fill="#0090f5"/>
  <rect x="226" y="363" width="1" height="1" fill="#0577d7"/>
  <rect x="227" y="363" width="1" height="1" fill="#047bd4"/>
  <rect x="228" y="363" width="1" height="1" fill="#057cd2"/>
  <rect x="229" y="363" width="1" height="1" fill="#0680d2"/>
  <rect x="230" y="363" width="1" height="1" fill="#0486db"/>
  <rect x="224" y="364" width="1" height="1" fill="#019fff"/>
  <rect x="225" y="364" width="1" height="1" fill="#016cc6"/>
  <rect x="224" y="365" width="1" height="1" fill="#019dff"/>
  <rect x="225" y="365" width="1" height="1" fill="#0464b5"/>
  <rect x="224" y="366" width="1" height="1" fill="#019dfb"/>
  <rect x="225" y="366" width="1" height="1" fill="#0263b2"/>
  <rect x="224" y="367" width="1" height="1" fill="#019cf7"/>
  <rect x="225" y="367" width="1" height="1" fill="#0161b3"/>
  <rect x="224" y="368" width="1" height="1" fill="#03a3f4"/>
  <rect x="225" y="368" width="1" height="1" fill="#025fa6"/>
</svg>
