<?xml version="1.0" encoding="UTF-8"?>
<svg xmlns="http://www.w3.org/2000/svg" width="492" height="461">
  <rect x="269" y="378" width="1" height="1" fill="#15589d"/>
  <rect x="268" y="379" width="1" height="1" fill="#0872db"/>
  <rect x="269" y="379" width="1" height="1" fill="#15b5ff"/>
  <rect x="268" y="380" width="1" height="1" fill="#046ac1"/>
  <rect x="269" y="380" width="1" height="1" fill="#08a1ff"/>
  <rect x="268" y="381" width="1" height="1" fill="#066bc3"/>
  <rect x="269" y="381" width="1" height="1" fill="#08a1ff"/>
  <rect x="268" y="382" width="1" height="1" fill="#0869c2"/>
  <rect x="269" y="382" width="1" height="1" fill="#08a2ff"/>
  <rect x="268" y="383" width="1" height="1" fill="#0a6bc3"/>
  <rect x="269" y="383" width="1" height="1" fill="#08a6ff"/>
  <rect x="268" y="384" width="1" height="1" fill="#0c6bc3"/>
  <rect x="269" y="384" width="1" height="1" fill="#07a4ff"/>
  <rect x="268" y="385" width="1" height="1" fill="#0e6ac1"/>
  <rect x="269" y="385" width="1" height="1" fill="#06a1ff"/>
  <rect x="268" y="386" width="1" height="1" fill="#0d6bc4"/>
  <rect x="269" y="386" width="1" height="1" fill="#069eff"/>
  <rect x="268" y="387" width="1" height="1" fill="#0d6bc7"/>
  <rect x="269" y="387" width="1" height="1" fill="#099aff"/>
  <rect x="268" y="388" width="1" height="1" fill="#0b6cc9"/>
  <rect x="269" y="388" width="1" height="1" fill="#0d9afc"/>
  <rect x="268" y="389" width="1" height="1" fill="#056ed2"/>
  <rect x="269" y="389" width="1" height="1" fill="#059afd"/>
  <rect x="270" y="389" width="1" height="1" fill="#026ed0"/>
  <rect x="271" y="389" width="1" height="1" fill="#0769bc"/>
  <rect x="272" y="389" width="1" height="1" fill="#0668c1"/>
  <rect x="273" y="389" width="1" height="1" fill="#0763bb"/>
  <rect x="274" y="389" width="1" height="1" fill="#0764bb"/>
  <rect x="275" y="389" width="1" height="1" fill="#096ec9"/>
  <rect x="268" y="390" width="1" height="1" fill="#076bd1"/>
  <rect x="269" y="390" width="1" height="1" fill="#0794f9"/>
  <rect x="270" y="390" width="1" height="1" fill="#0490f4"/>
  <rect x="271" y="390" width="1" height="1" fill="#0794ee"/>
  <rect x="272" y="390" width="1" height="1" fill="#0694ed"/>
  <rect x="273" y="390" width="1" height="1" fill="#0794ec"/>
  <rect x="274" y="390" width="1" height="1" fill="#0596ec"/>
  <rect x="275" y="390" width="1" height="1" fill="#07a6f2"/>
</svg>
