<?xml version="1.0" encoding="UTF-8"?>
<svg xmlns="http://www.w3.org/2000/svg" width="492" height="461">
  <rect x="195" y="356" width="1" height="1" fill="#0e5895"/>
  <rect x="194" y="357" width="1" height="1" fill="#066cc5"/>
  <rect x="195" y="357" width="1" height="1" fill="#13b8f2"/>
  <rect x="194" y="358" width="1" height="1" fill="#0763a8"/>
  <rect x="195" y="358" width="1" height="1" fill="#12a9f1"/>
  <rect x="194" y="359" width="1" height="1" fill="#0863a9"/>
  <rect x="195" y="359" width="1" height="1" fill="#0fa9f4"/>
  <rect x="194" y="360" width="1" height="1" fill="#0b64ab"/>
  <rect x="195" y="360" width="1" height="1" fill="#0faaf8"/>
  <rect x="194" y="361" width="1" height="1" fill="#0d66ac"/>
  <rect x="195" y="361" width="1" height="1" fill="#12abfb"/>
  <rect x="194" y="362" width="1" height="1" fill="#0e6aac"/>
  <rect x="195" y="362" width="1" height="1" fill="#11abff"/>
  <rect x="194" y="363" width="1" height="1" fill="#0e6cb1"/>
  <rect x="195" y="363" width="1" height="1" fill="#0fa9ff"/>
  <rect x="194" y="364" width="1" height="1" fill="#0c6db4"/>
  <rect x="195" y="364" width="1" height="1" fill="#0ea9ff"/>
  <rect x="194" y="365" width="1" height="1" fill="#0f6eb6"/>
  <rect x="195" y="365" width="1" height="1" fill="#14a9fd"/>
  <rect x="194" y="366" width="1" height="1" fill="#106eb5"/>
  <rect x="195" y="366" width="1" height="1" fill="#1ba7fb"/>
  <rect x="194" y="367" width="1" height="1" fill="#0a71b5"/>
  <rect x="195" y="367" width="1" height="1" fill="#12b3fc"/>
  <rect x="196" y="367" width="1" height="1" fill="#0768a2"/>
  <rect x="197" y="367" width="1" height="1" fill="#0b5c8b"/>
  <rect x="198" y="367" width="1" height="1" fill="#09598a"/>
  <rect x="199" y="367" width="1" height="1" fill="#085184"/>
  <rect x="200" y="367" width="1" height="1" fill="#055a96"/>
  <rect x="201" y="367" width="1" height="1" fill="#06528d"/>
  <rect x="194" y="368" width="1" height="1" fill="#0466b4"/>
  <rect x="195" y="368" width="1" height="1" fill="#07a0f8"/>
  <rect x="196" y="368" width="1" height="1" fill="#079ff8"/>
  <rect x="197" y="368" width="1" height="1" fill="#07aefe"/>
  <rect x="198" y="368" width="1" height="1" fill="#05aafd"/>
  <rect x="199" y="368" width="1" height="1" fill="#06abf9"/>
  <rect x="200" y="368" width="1" height="1" fill="#01aafa"/>
  <rect x="201" y="368" width="1" height="1" fill="#02a4f7"/>
</svg>
