<?xml version="1.0" encoding="UTF-8"?>
<svg xmlns="http://www.w3.org/2000/svg" width="492" height="461" viewBox="0 0 492 461">
<defs>
<linearGradient id="skyGrad" x1="0" y1="46" x2="0" y2="170" gradientUnits="userSpaceOnUse">
  <stop offset="0.0000" stop-color="#011d46"/>
  <stop offset="0.0909" stop-color="#012253"/>
  <stop offset="0.1818" stop-color="#012760"/>
  <stop offset="0.2727" stop-color="#002e6e"/>
  <stop offset="0.3636" stop-color="#00357d"/>
  <stop offset="0.4545" stop-color="#003f8f"/>
  <stop offset="0.5455" stop-color="#014598"/>
  <stop offset="0.6364" stop-color="#004aa1"/>
  <stop offset="0.7273" stop-color="#004faa"/>
  <stop offset="0.8182" stop-color="#0050ad"/>
  <stop offset="0.9091" stop-color="#004baa"/>
  <stop offset="1.0000" stop-color="#011e49"/>
</linearGradient>
  </defs>
  <g id="background">
    <path d="M0,0 L0,460 L491,460 L491,0 Z M231,6 L232,5 L260,5 L261,6 L271,6 L272,7 L279,7 L280,8 L285,8 L286,9 L290,9 L291,10 L295,10 L296,11 L299,11 L300,12 L303,12 L304,13 L307,13 L308,14 L310,14 L311,15 L313,15 L314,16 L317,16 L318,17 L319,17 L320,18 L322,18 L323,19 L325,19 L326,20 L328,20 L329,21 L330,21 L331,22 L332,22 L333,23 L335,23 L336,24 L337,24 L338,25 L339,25 L340,26 L341,26 L342,27 L344,27 L345,28 L346,28 L347,29 L348,29 L349,30 L350,30 L352,32 L353,32 L354,33 L355,33 L356,34 L357,34 L358,35 L359,35 L361,37 L362,37 L363,38 L364,38 L366,40 L367,40 L369,42 L370,42 L372,44 L373,44 L375,46 L376,46 L379,49 L380,49 L383,52 L384,52 L387,55 L388,55 L394,61 L395,61 L416,82 L416,83 L421,88 L421,89 L425,93 L425,94 L428,97 L428,98 L430,100 L430,101 L433,104 L433,105 L435,107 L435,108 L437,110 L437,111 L438,112 L438,113 L440,115 L440,116 L441,117 L441,118 L442,119 L442,120 L444,122 L444,123 L445,124 L445,125 L446,126 L446,127 L447,128 L447,129 L448,130 L448,131 L449,132 L449,133 L450,134 L450,135 L451,136 L451,137 L452,138 L452,140 L453,141 L453,142 L454,143 L454,144 L455,145 L455,147 L456,148 L456,149 L457,150 L457,152 L458,153 L458,155 L459,156 L459,158 L460,159 L460,161 L461,162 L461,164 L462,165 L462,167 L463,168 L463,171 L464,172 L464,174 L465,175 L465,178 L466,179 L466,183 L467,184 L467,188 L468,189 L468,193 L469,194 L469,200 L470,201 L470,209 L471,210 L471,251 L470,252 L470,260 L469,261 L469,267 L468,268 L468,272 L467,273 L467,277 L466,278 L466,282 L465,283 L465,286 L464,287 L464,289 L463,290 L463,293 L462,294 L462,296 L461,297 L461,299 L460,300 L460,302 L459,303 L459,305 L458,306 L458,308 L457,309 L457,311 L456,312 L456,313 L455,314 L455,316 L454,317 L454,318 L453,319 L453,320 L452,321 L452,323 L451,324 L451,325 L450,326 L450,327 L449,328 L449,329 L448,330 L448,331 L447,332 L447,333 L446,334 L446,335 L445,336 L445,337 L444,338 L444,339 L442,341 L442,342 L441,343 L441,344 L440,345 L440,346 L438,348 L438,349 L437,350 L437,351 L435,353 L435,354 L433,356 L433,357 L430,360 L430,361 L428,363 L428,364 L425,367 L425,368 L421,372 L421,373 L416,378 L416,379 L395,400 L394,400 L388,406 L387,406 L384,409 L383,409 L380,412 L379,412 L376,415 L375,415 L373,417 L372,417 L370,419 L369,419 L367,421 L366,421 L364,423 L363,423 L362,424 L361,424 L359,426 L358,426 L357,427 L356,427 L355,428 L354,428 L353,429 L352,429 L350,431 L349,431 L348,432 L347,432 L346,433 L345,433 L344,434 L342,434 L341,435 L340,435 L339,436 L338,436 L337,437 L336,437 L335,438 L333,438 L332,439 L331,439 L330,440 L329,440 L328,441 L326,441 L325,442 L323,442 L322,443 L320,443 L319,444 L318,444 L317,445 L314,445 L313,446 L311,446 L310,447 L308,447 L307,448 L304,448 L303,449 L300,449 L299,450 L296,450 L295,451 L291,451 L290,452 L286,452 L285,453 L280,453 L279,454 L272,454 L271,455 L261,455 L260,456 L232,456 L231,455 L221,455 L220,454 L213,454 L212,453 L207,453 L206,452 L202,452 L201,451 L197,451 L196,450 L193,450 L192,449 L189,449 L188,448 L185,448 L184,447 L182,447 L181,446 L179,446 L178,445 L175,445 L174,444 L173,444 L172,443 L170,443 L169,442 L167,442 L166,441 L164,441 L163,440 L162,440 L161,439 L160,439 L159,438 L157,438 L156,437 L155,437 L154,436 L153,436 L152,435 L151,435 L150,434 L148,434 L147,433 L146,433 L145,432 L144,432 L143,431 L142,431 L140,429 L139,429 L138,428 L137,428 L136,427 L135,427 L134,426 L133,426 L131,424 L130,424 L129,423 L128,423 L126,421 L125,421 L123,419 L122,419 L120,417 L119,417 L117,415 L116,415 L113,412 L112,412 L109,409 L108,409 L105,406 L104,406 L98,400 L97,400 L76,379 L76,378 L71,373 L71,372 L67,368 L67,367 L64,364 L64,363 L62,361 L62,360 L59,357 L59,356 L57,354 L57,353 L55,351 L55,350 L54,349 L54,348 L52,346 L52,345 L51,344 L51,343 L50,342 L50,341 L48,339 L48,338 L47,337 L47,336 L46,335 L46,334 L45,333 L45,332 L44,331 L44,330 L43,329 L43,328 L42,327 L42,326 L41,325 L41,324 L40,323 L40,321 L39,320 L39,319 L38,318 L38,317 L37,316 L37,314 L36,313 L36,312 L35,311 L35,309 L34,308 L34,306 L33,305 L33,303 L32,302 L32,300 L31,299 L31,297 L30,296 L30,294 L29,293 L29,290 L28,289 L28,287 L27,286 L27,283 L26,282 L26,278 L25,277 L25,273 L24,272 L24,268 L23,267 L23,261 L22,260 L22,252 L21,251 L21,210 L22,209 L22,201 L23,200 L23,194 L24,193 L24,189 L25,188 L25,184 L26,183 L26,179 L27,178 L27,175 L28,174 L28,172 L29,171 L29,168 L30,167 L30,165 L31,164 L31,162 L32,161 L32,159 L33,158 L33,156 L34,155 L34,153 L35,152 L35,150 L36,149 L36,148 L37,147 L37,145 L38,144 L38,143 L39,142 L39,141 L40,140 L40,138 L41,137 L41,136 L42,135 L42,134 L43,133 L43,132 L44,131 L44,130 L45,129 L45,128 L46,127 L46,126 L47,125 L47,124 L48,123 L48,122 L50,120 L50,119 L51,118 L51,117 L52,116 L52,115 L54,113 L54,112 L55,111 L55,110 L57,108 L57,107 L59,105 L59,104 L62,101 L62,100 L64,98 L64,97 L67,94 L67,93 L71,89 L71,88 L76,83 L76,82 L97,61 L98,61 L104,55 L105,55 L108,52 L109,52 L112,49 L113,49 L116,46 L117,46 L119,44 L120,44 L122,42 L123,42 L125,40 L126,40 L128,38 L129,38 L130,37 L131,37 L133,35 L134,35 L135,34 L136,34 L137,33 L138,33 L139,32 L140,32 L142,30 L143,30 L144,29 L145,29 L146,28 L147,28 L148,27 L150,27 L151,26 L152,26 L153,25 L154,25 L155,24 L156,24 L157,23 L159,23 L160,22 L161,22 L162,21 L163,21 L164,20 L166,20 L167,19 L169,19 L170,18 L172,18 L173,17 L174,17 L175,16 L178,16 L179,15 L181,15 L182,14 L184,14 L185,13 L188,13 L189,12 L192,12 L193,11 L196,11 L197,10 L201,10 L202,9 L206,9 L207,8 L212,8 L213,7 L220,7 L221,6 Z" fill="#030710" fill-rule="evenodd"/>
  </g>
  <g id="scene">
    <path d="M358,160 L356,162 L358,162 Z" fill="url(#skyGrad)" fill-rule="evenodd"/>
    <path d="M367,156 L366,157 L366,158 L365,159 L364,159 L364,162 L365,162 L366,163 L367,163 L368,164 L369,164 L368,163 L368,162 L367,162 L365,160 L365,159 L366,158 L368,160 L368,156 Z" fill="url(#skyGrad)" fill-rule="evenodd"/>
    <path d="M354,156 L354,157 L353,158 L353,159 L352,160 L352,162 L353,162 L356,159 L356,158 Z" fill="url(#skyGrad)" fill-rule="evenodd"/>
    <path d="M217,155 L217,156 L216,157 L216,158 L214,160 L214,162 L217,162 L217,158 L218,157 L218,155 Z" fill="url(#skyGrad)" fill-rule="evenodd"/>
    <path d="M201,148 L200,149 L199,149 L195,153 L195,154 L191,158 L191,159 L196,159 L197,160 L203,160 L204,161 L207,161 L207,160 L208,159 L208,157 L209,156 L209,152 L208,151 L208,150 L207,149 L206,149 L205,148 Z" fill="url(#skyGrad)" fill-rule="evenodd"/>
    <path d="M363,145 L363,148 L364,149 L364,151 L363,152 L364,153 L363,154 L363,155 L364,155 L365,154 L365,153 L367,151 L367,150 L365,148 L365,147 Z" fill="url(#skyGrad)" fill-rule="evenodd"/>
    <path d="M358,145 L357,146 L357,147 L356,148 L355,148 L355,149 L354,150 L354,152 L356,152 L357,151 L358,152 L358,153 L357,154 L358,155 L359,155 L359,153 L357,151 L357,150 L359,148 L359,145 Z" fill="url(#skyGrad)" fill-rule="evenodd"/>
    <path d="M363,140 L363,141 L364,142 L365,142 L365,140 Z" fill="url(#skyGrad)" fill-rule="evenodd"/>
    <path d="M357,139 L356,140 L356,143 L358,141 L358,139 Z" fill="url(#skyGrad)" fill-rule="evenodd"/>
    <path d="M363,133 L363,137 L364,137 L364,133 Z" fill="url(#skyGrad)" fill-rule="evenodd"/>
    <path d="M358,133 L358,134 L357,135 L357,136 L358,137 L359,137 L359,133 Z" fill="url(#skyGrad)" fill-rule="evenodd"/>
    <path d="M359,104 L355,108 L355,112 L358,115 L359,115 L359,112 L357,110 L361,106 L362,106 L364,108 L364,109 L365,110 L363,112 L363,115 L366,112 L366,107 L363,104 L362,104 L361,105 L360,104 Z" fill="url(#skyGrad)" fill-rule="evenodd"/>
    <path d="M233,46 L232,47 L223,47 L222,48 L216,48 L215,49 L211,49 L210,50 L206,50 L205,51 L202,51 L201,52 L198,52 L197,53 L194,53 L193,54 L191,54 L190,55 L188,55 L187,56 L185,56 L184,57 L182,57 L181,58 L180,58 L179,59 L177,59 L176,60 L175,60 L174,61 L172,61 L171,62 L170,62 L169,63 L168,63 L167,64 L166,64 L165,65 L164,65 L163,66 L162,66 L161,67 L160,67 L159,68 L158,68 L157,69 L156,69 L155,70 L154,70 L152,72 L151,72 L150,73 L149,73 L147,75 L146,75 L143,78 L142,78 L136,84 L135,84 L118,101 L118,102 L113,107 L113,108 L110,111 L110,112 L107,115 L107,116 L105,118 L105,119 L103,121 L103,122 L101,124 L101,125 L100,126 L100,127 L98,129 L98,130 L97,131 L97,132 L95,134 L95,135 L94,136 L94,137 L93,138 L93,139 L92,140 L92,141 L90,143 L90,144 L89,145 L89,146 L88,147 L88,148 L87,149 L87,151 L86,152 L86,153 L88,153 L89,152 L94,152 L95,151 L98,151 L99,150 L102,150 L103,149 L105,149 L106,148 L112,148 L113,147 L126,147 L127,148 L130,148 L131,149 L132,149 L133,150 L135,150 L136,151 L138,151 L139,152 L141,152 L142,153 L144,153 L145,154 L148,154 L149,155 L153,155 L154,156 L154,155 L150,151 L150,150 L149,149 L149,147 L148,146 L148,139 L149,138 L150,139 L150,142 L151,143 L151,144 L152,145 L152,146 L156,150 L157,150 L158,151 L159,151 L160,152 L161,152 L162,153 L164,153 L165,154 L171,154 L172,155 L176,155 L177,154 L179,154 L180,153 L181,153 L185,149 L185,148 L186,147 L186,146 L187,145 L187,144 L188,143 L188,142 L189,141 L189,139 L190,138 L190,136 L191,135 L191,133 L192,132 L192,131 L193,130 L193,129 L194,128 L194,127 L196,125 L196,124 L199,121 L199,120 L203,116 L204,116 L207,113 L208,113 L209,112 L210,112 L211,111 L212,111 L213,110 L216,110 L217,109 L226,109 L227,110 L230,110 L231,111 L232,111 L233,112 L234,112 L235,113 L238,113 L239,114 L244,114 L245,113 L247,113 L250,110 L250,109 L251,108 L251,107 L252,106 L252,104 L253,103 L253,101 L254,100 L254,98 L253,97 L253,96 L252,95 L252,94 L251,93 L251,92 L250,91 L250,90 L252,88 L253,89 L254,89 L257,92 L257,93 L258,94 L258,95 L259,95 L259,93 L260,92 L260,91 L261,90 L261,89 L263,87 L264,88 L264,94 L263,95 L263,97 L264,98 L265,98 L270,103 L270,104 L273,107 L273,110 L272,111 L271,111 L270,112 L268,112 L267,111 L263,111 L262,112 L262,113 L261,114 L261,115 L260,116 L260,118 L259,119 L259,122 L258,123 L258,124 L257,125 L257,127 L254,130 L254,131 L251,134 L251,135 L250,136 L250,137 L251,138 L251,140 L252,141 L252,142 L253,143 L253,145 L250,148 L249,148 L248,147 L249,146 L249,144 L248,143 L248,141 L247,140 L247,139 L246,139 L246,141 L245,142 L245,145 L246,146 L246,150 L245,151 L245,152 L243,154 L242,154 L241,153 L241,146 L240,145 L240,140 L239,139 L236,142 L235,142 L233,144 L232,144 L231,145 L230,145 L229,146 L228,146 L227,147 L227,150 L226,151 L226,152 L224,154 L224,155 L223,156 L223,157 L222,158 L222,163 L225,163 L226,164 L249,164 L250,163 L264,163 L265,164 L269,164 L270,165 L274,165 L275,166 L278,166 L279,167 L284,167 L285,168 L290,168 L291,169 L300,169 L301,170 L314,170 L315,169 L327,169 L328,168 L331,168 L332,167 L335,167 L336,166 L338,166 L339,165 L340,165 L341,166 L342,165 L343,165 L344,164 L347,164 L348,163 L348,159 L349,158 L349,154 L350,153 L350,151 L351,150 L351,147 L352,146 L352,141 L353,140 L353,137 L354,136 L354,131 L355,130 L355,126 L356,125 L354,123 L354,122 L355,121 L355,120 L356,119 L355,120 L355,121 L353,123 L351,123 L350,122 L350,119 L353,116 L351,118 L350,118 L349,119 L348,119 L347,118 L347,117 L346,116 L346,115 L348,113 L350,113 L351,112 L349,112 L348,113 L347,113 L345,111 L345,108 L346,107 L352,107 L350,107 L349,106 L347,106 L346,105 L346,103 L347,102 L347,101 L349,99 L353,103 L354,103 L355,104 L350,99 L350,98 L352,96 L353,96 L355,94 L356,95 L356,96 L357,97 L357,99 L358,100 L358,101 L358,99 L357,98 L357,94 L358,93 L359,93 L360,92 L361,93 L362,93 L363,94 L363,97 L363,95 L365,93 L366,93 L368,95 L368,97 L366,99 L366,100 L370,96 L373,99 L369,103 L370,102 L371,102 L372,101 L374,101 L375,102 L375,105 L373,107 L371,107 L370,108 L373,108 L374,107 L375,107 L376,108 L376,109 L377,110 L377,111 L375,113 L372,113 L371,112 L372,113 L374,113 L376,115 L375,116 L375,117 L373,119 L371,119 L368,116 L372,120 L372,121 L370,123 L368,123 L367,122 L367,121 L366,120 L366,121 L368,123 L366,125 L366,129 L367,130 L367,133 L368,134 L368,139 L369,140 L369,144 L370,145 L370,148 L371,149 L371,152 L372,153 L372,158 L373,159 L373,163 L374,164 L374,165 L376,165 L377,164 L378,164 L379,165 L383,165 L384,164 L386,164 L387,163 L388,163 L389,162 L392,162 L396,158 L398,158 L399,157 L400,157 L402,155 L404,155 L406,153 L410,153 L411,154 L414,154 L413,153 L413,151 L412,150 L412,149 L411,148 L411,147 L410,146 L410,145 L408,143 L408,142 L407,141 L407,140 L406,139 L406,138 L405,137 L405,136 L403,134 L403,133 L401,131 L401,130 L400,129 L400,128 L397,125 L397,124 L395,122 L395,121 L392,118 L392,117 L388,113 L388,112 L380,104 L380,103 L373,96 L372,96 L365,89 L364,89 L360,85 L359,85 L356,82 L355,82 L352,79 L351,79 L349,77 L348,77 L346,75 L345,75 L343,73 L342,73 L341,72 L340,72 L338,70 L337,70 L336,69 L335,69 L334,68 L333,68 L332,67 L331,67 L330,66 L329,66 L328,65 L327,65 L326,64 L325,64 L324,63 L323,63 L322,62 L321,62 L320,61 L318,61 L317,60 L316,60 L315,59 L313,59 L312,58 L311,58 L310,57 L308,57 L307,56 L305,56 L304,55 L302,55 L301,54 L299,54 L298,53 L295,53 L294,52 L291,52 L290,51 L287,51 L286,50 L282,50 L281,49 L277,49 L276,48 L270,48 L269,47 L260,47 L259,46 Z" fill="url(#skyGrad)" fill-rule="evenodd"/>
    <path d="M140,79 L137,82 L136,82 L133,85 L132,85 L128,89 L127,89 L120,96 L119,96 L112,103 L112,104 L104,112 L104,113 L100,117 L100,118 L97,121 L97,122 L95,124 L95,125 L92,128 L92,129 L91,130 L91,131 L89,133 L89,134 L87,136 L87,137 L86,138 L86,139 L85,140 L85,141 L84,142 L84,143 L82,145 L82,146 L81,147 L81,148 L80,149 L80,150 L79,151 L79,153 L78,154 L78,155 L77,156 L77,157 L76,158 L76,159 L75,160 L75,162 L74,163 L74,164 L73,165 L73,167 L72,168 L72,170 L71,171 L71,173 L70,174 L70,176 L69,177 L69,180 L68,181 L68,183 L67,184 L425,184 L424,183 L424,181 L423,180 L423,177 L422,176 L422,174 L421,173 L421,171 L420,170 L420,168 L419,167 L419,165 L418,164 L418,163 L417,162 L417,160 L416,159 L416,158 L415,157 L415,156 L414,155 L411,155 L410,154 L406,154 L404,156 L402,156 L400,158 L399,158 L398,159 L396,159 L392,163 L389,163 L388,164 L387,164 L386,165 L384,165 L383,166 L379,166 L378,165 L377,165 L376,166 L374,166 L373,165 L373,164 L372,163 L372,159 L371,158 L371,153 L370,152 L370,149 L369,148 L369,145 L368,144 L368,140 L367,139 L367,134 L366,133 L366,130 L365,129 L365,125 L368,122 L370,122 L371,121 L371,120 L370,119 L371,118 L373,118 L374,117 L374,116 L375,115 L374,114 L372,114 L371,113 L372,112 L375,112 L376,111 L376,110 L375,109 L375,108 L374,108 L373,109 L370,109 L369,108 L371,106 L373,106 L374,105 L374,102 L372,102 L371,103 L370,103 L369,102 L372,99 L370,97 L366,101 L365,100 L365,99 L367,97 L367,95 L366,94 L365,94 L364,95 L364,97 L363,98 L362,97 L362,94 L361,94 L360,93 L359,94 L358,94 L358,98 L359,99 L359,101 L358,102 L357,101 L357,100 L356,99 L356,97 L355,96 L355,95 L353,97 L352,97 L351,98 L351,99 L355,103 L354,104 L353,104 L349,100 L348,101 L348,102 L347,103 L347,105 L349,105 L350,106 L352,106 L353,107 L352,108 L346,108 L346,111 L347,112 L348,112 L349,111 L351,111 L352,112 L350,114 L348,114 L347,115 L347,116 L348,117 L348,118 L349,118 L350,117 L351,117 L352,118 L351,119 L351,122 L353,122 L354,121 L355,122 L355,123 L357,125 L356,126 L356,130 L355,131 L355,136 L354,137 L354,140 L353,141 L353,146 L352,147 L352,150 L351,151 L351,153 L350,154 L350,158 L349,159 L349,163 L347,165 L344,165 L343,166 L342,166 L341,167 L340,166 L339,166 L338,167 L336,167 L335,168 L332,168 L331,169 L328,169 L327,170 L315,170 L314,171 L301,171 L300,170 L291,170 L290,169 L285,169 L284,168 L279,168 L278,167 L275,167 L274,166 L270,166 L269,165 L265,165 L264,164 L250,164 L249,165 L226,165 L225,164 L222,164 L221,163 L221,158 L222,157 L222,156 L223,155 L223,154 L225,152 L225,151 L226,150 L226,147 L228,145 L229,145 L230,144 L231,144 L232,143 L233,143 L235,141 L236,141 L239,138 L241,140 L241,145 L242,146 L242,153 L243,153 L244,152 L244,151 L245,150 L245,146 L244,145 L244,142 L245,141 L245,139 L246,138 L247,138 L248,139 L248,140 L249,141 L249,143 L250,144 L250,146 L249,147 L250,147 L252,145 L252,143 L251,142 L251,141 L250,140 L250,138 L249,137 L249,136 L250,135 L250,134 L253,131 L253,130 L256,127 L256,125 L257,124 L257,123 L258,122 L258,119 L259,118 L259,116 L260,115 L260,114 L261,113 L261,112 L263,110 L267,110 L268,111 L270,111 L271,110 L272,110 L272,107 L269,104 L269,103 L265,99 L264,99 L262,97 L262,95 L263,94 L263,88 L262,89 L262,90 L261,91 L261,92 L260,93 L260,95 L259,96 L258,96 L257,95 L257,94 L256,93 L256,92 L254,90 L253,90 L252,89 L251,90 L251,91 L252,92 L252,93 L253,94 L253,95 L254,96 L254,97 L255,98 L255,100 L254,101 L254,103 L253,104 L253,106 L252,107 L252,108 L251,109 L251,110 L247,114 L245,114 L244,115 L239,115 L238,114 L235,114 L234,113 L233,113 L232,112 L231,112 L230,111 L227,111 L226,110 L217,110 L216,111 L213,111 L212,112 L211,112 L210,113 L209,113 L208,114 L207,114 L204,117 L203,117 L200,120 L200,121 L197,124 L197,125 L195,127 L195,128 L194,129 L194,130 L193,131 L193,132 L192,133 L192,135 L191,136 L191,138 L190,139 L190,141 L189,142 L189,143 L188,144 L188,145 L187,146 L187,147 L186,148 L186,149 L181,154 L180,154 L179,155 L177,155 L176,156 L172,156 L171,155 L165,155 L164,154 L162,154 L161,153 L160,153 L159,152 L158,152 L157,151 L156,151 L151,146 L151,145 L150,144 L150,143 L149,142 L149,139 L149,146 L150,147 L150,149 L151,150 L151,151 L155,155 L155,156 L154,157 L153,156 L149,156 L148,155 L145,155 L144,154 L142,154 L141,153 L139,153 L138,152 L136,152 L135,151 L133,151 L132,150 L131,150 L130,149 L127,149 L126,148 L113,148 L112,149 L106,149 L105,150 L103,150 L102,151 L99,151 L98,152 L95,152 L94,153 L89,153 L88,154 L86,154 L85,153 L85,152 L86,151 L86,149 L87,148 L87,147 L88,146 L88,145 L89,144 L89,143 L91,141 L91,140 L92,139 L92,138 L93,137 L93,136 L94,135 L94,134 L96,132 L96,131 L97,130 L97,129 L99,127 L99,126 L100,125 L100,124 L102,122 L102,121 L104,119 L104,118 L106,116 L106,115 L109,112 L109,111 L112,108 L112,107 L117,102 L117,101 L135,83 L136,83 Z M358,159 L359,160 L359,162 L358,163 L356,163 L355,162 Z M363,159 L364,158 L365,158 L366,159 L366,160 L367,161 L368,161 L369,162 L369,163 L370,164 L369,165 L368,165 L367,164 L366,164 L365,163 L364,163 L363,162 Z M367,155 L368,155 L369,156 L369,160 L368,161 L365,158 L365,157 Z M353,156 L354,155 L357,158 L357,159 L353,163 L352,163 L351,162 L351,160 L352,159 L352,158 L353,157 Z M216,155 L217,154 L218,154 L219,155 L219,157 L218,158 L218,162 L217,163 L214,163 L213,162 L213,160 L215,158 L215,157 L216,156 Z M357,152 L358,151 L360,153 L360,155 L359,156 L358,156 L356,154 L357,153 Z M200,148 L201,147 L205,147 L206,148 L207,148 L209,150 L209,151 L210,152 L210,156 L209,157 L209,159 L208,160 L208,161 L207,162 L204,162 L203,161 L197,161 L196,160 L191,160 L190,159 L190,158 L194,154 L194,153 L199,148 Z M362,145 L363,144 L366,147 L366,148 L368,150 L368,151 L366,153 L366,154 L364,156 L363,156 L362,155 L362,154 L363,153 L362,152 L363,151 L363,149 L362,148 Z M358,144 L359,144 L360,145 L360,148 L358,150 L358,151 L356,153 L354,153 L353,152 L353,150 L354,149 L354,148 L355,147 L356,147 L356,146 Z M362,140 L363,139 L365,139 L366,140 L366,142 L365,143 L364,143 L362,141 Z M357,138 L358,138 L359,139 L359,141 L356,144 L355,143 L355,140 Z M362,133 L363,132 L364,132 L365,133 L365,137 L364,138 L363,138 L362,137 Z M357,133 L358,132 L359,132 L360,133 L360,137 L359,138 L358,138 L356,136 L356,135 L357,134 Z M365,120 L366,119 L368,121 L368,122 L367,123 L365,121 Z M354,120 L355,119 L356,120 L356,121 L355,122 L354,121 Z M355,119 L356,118 L357,119 L356,120 Z M369,118 L370,117 L371,118 L370,119 Z M368,117 L369,116 L370,117 L369,118 Z M351,117 L352,116 L353,117 L352,118 Z M367,116 L368,115 L369,116 L368,117 Z M352,116 L353,115 L354,116 L353,117 Z M370,112 L371,111 L372,112 L371,113 Z M359,103 L360,103 L361,104 L362,103 L363,103 L367,107 L367,112 L363,116 L362,115 L362,112 L364,110 L363,109 L363,108 L362,107 L361,107 L358,110 L360,112 L360,115 L359,116 L358,116 L354,112 L354,108 Z M354,104 L355,103 L356,104 L355,105 Z M368,103 L369,102 L370,103 L369,104 Z" fill="#030710" fill-rule="evenodd"/>
  </g>
  <g id="ring">
    <path d="M220,0 L219,1 L213,1 L212,2 L206,2 L205,3 L201,3 L200,4 L196,4 L195,5 L192,5 L191,6 L188,6 L187,7 L184,7 L183,8 L181,8 L180,9 L177,9 L176,10 L174,10 L173,11 L171,11 L170,12 L169,12 L168,13 L166,13 L165,14 L163,14 L162,15 L161,15 L160,16 L158,16 L157,17 L156,17 L155,18 L153,18 L152,19 L151,19 L150,20 L149,20 L148,21 L147,21 L146,22 L145,22 L144,23 L143,23 L142,24 L141,24 L140,25 L139,25 L138,26 L137,26 L136,27 L135,27 L134,28 L133,28 L131,30 L130,30 L129,31 L128,31 L127,32 L126,32 L124,34 L123,34 L121,36 L120,36 L118,38 L117,38 L115,40 L114,40 L112,42 L111,42 L108,45 L107,45 L104,48 L103,48 L99,52 L98,52 L93,57 L92,57 L73,76 L73,77 L67,83 L67,84 L63,88 L63,89 L60,92 L60,93 L57,96 L57,97 L55,99 L55,100 L53,102 L53,103 L51,105 L51,106 L49,108 L49,109 L48,110 L48,111 L46,113 L46,114 L45,115 L45,116 L44,117 L44,118 L43,119 L43,120 L41,122 L41,123 L40,124 L40,125 L39,126 L39,127 L38,128 L38,129 L37,130 L37,131 L36,132 L36,134 L35,135 L35,136 L34,137 L34,138 L33,139 L33,140 L32,141 L32,143 L31,144 L31,145 L30,146 L30,148 L29,149 L29,151 L28,152 L28,153 L27,154 L27,156 L26,157 L26,159 L25,160 L25,163 L24,164 L24,166 L23,167 L23,170 L22,171 L22,173 L21,174 L21,178 L20,179 L20,182 L19,183 L19,187 L18,188 L18,193 L17,194 L17,200 L16,201 L16,208 L15,209 L15,252 L16,253 L16,260 L17,261 L17,267 L18,268 L18,273 L19,274 L19,278 L20,279 L20,282 L21,283 L21,287 L22,288 L22,290 L23,291 L23,294 L24,295 L24,297 L25,298 L25,301 L26,302 L26,304 L27,305 L27,307 L28,308 L28,309 L29,310 L29,312 L30,313 L30,315 L31,316 L31,317 L32,318 L32,320 L33,321 L33,322 L34,323 L34,324 L35,325 L35,326 L36,327 L36,329 L37,330 L37,331 L38,332 L38,333 L39,334 L39,335 L40,336 L40,337 L41,338 L41,339 L43,341 L43,342 L44,343 L44,344 L45,345 L45,346 L46,347 L46,348 L48,350 L48,351 L49,352 L49,353 L51,355 L51,356 L53,358 L53,359 L55,361 L55,362 L57,364 L57,365 L60,368 L60,369 L63,372 L63,373 L67,377 L67,378 L73,384 L73,385 L92,404 L93,404 L98,409 L99,409 L103,413 L104,413 L107,416 L108,416 L111,419 L112,419 L114,421 L115,421 L117,423 L118,423 L120,425 L121,425 L123,427 L124,427 L126,429 L127,429 L128,430 L129,430 L130,431 L131,431 L133,433 L134,433 L135,434 L136,434 L137,435 L138,435 L139,436 L140,436 L141,437 L142,437 L143,438 L144,438 L145,439 L146,439 L147,440 L148,440 L149,441 L150,441 L151,442 L152,442 L153,443 L155,443 L156,444 L157,444 L158,445 L160,445 L161,446 L162,446 L163,447 L165,447 L166,448 L168,448 L169,449 L170,449 L171,450 L173,450 L174,451 L176,451 L177,452 L180,452 L181,453 L183,453 L184,454 L187,454 L188,455 L191,455 L192,456 L195,456 L196,457 L200,457 L201,458 L205,458 L206,459 L212,459 L213,460 L279,460 L280,459 L286,459 L287,458 L291,458 L292,457 L296,457 L297,456 L300,456 L301,455 L304,455 L305,454 L308,454 L309,453 L311,453 L312,452 L315,452 L316,451 L318,451 L319,450 L321,450 L322,449 L323,449 L324,448 L326,448 L327,447 L329,447 L330,446 L331,446 L332,445 L334,445 L335,444 L336,444 L337,443 L339,443 L340,442 L341,442 L342,441 L343,441 L344,440 L345,440 L346,439 L347,439 L348,438 L349,438 L350,437 L351,437 L352,436 L353,436 L354,435 L355,435 L356,434 L357,434 L358,433 L359,433 L361,431 L362,431 L363,430 L364,430 L365,429 L366,429 L368,427 L369,427 L371,425 L372,425 L374,423 L375,423 L377,421 L378,421 L380,419 L381,419 L384,416 L385,416 L388,413 L389,413 L393,409 L394,409 L399,404 L400,404 L419,385 L419,384 L425,378 L425,377 L429,373 L429,372 L432,369 L432,368 L435,365 L435,364 L437,362 L437,361 L439,359 L439,358 L441,356 L441,355 L443,353 L443,352 L444,351 L444,350 L446,348 L446,347 L447,346 L447,345 L448,344 L448,343 L449,342 L449,341 L451,339 L451,338 L452,337 L452,336 L453,335 L453,334 L454,333 L454,332 L455,331 L455,330 L456,329 L456,327 L457,326 L457,325 L458,324 L458,323 L459,322 L459,321 L460,320 L460,318 L461,317 L461,316 L462,315 L462,313 L463,312 L463,310 L464,309 L464,308 L465,307 L465,305 L466,304 L466,302 L467,301 L467,298 L468,297 L468,295 L469,294 L469,291 L470,290 L470,288 L471,287 L471,283 L472,282 L472,279 L473,278 L473,274 L474,273 L474,268 L475,267 L475,261 L476,260 L476,253 L477,252 L477,209 L476,208 L476,201 L475,200 L475,194 L474,193 L474,188 L473,187 L473,183 L472,182 L472,179 L471,178 L471,174 L470,173 L470,171 L469,170 L469,167 L468,166 L468,164 L467,163 L467,160 L466,159 L466,157 L465,156 L465,154 L464,153 L464,152 L463,151 L463,149 L462,148 L462,146 L461,145 L461,144 L460,143 L460,141 L459,140 L459,139 L458,138 L458,137 L457,136 L457,135 L456,134 L456,132 L455,131 L455,130 L454,129 L454,128 L453,127 L453,126 L452,125 L452,124 L451,123 L451,122 L449,120 L449,119 L448,118 L448,117 L447,116 L447,115 L446,114 L446,113 L444,111 L444,110 L443,109 L443,108 L441,106 L441,105 L439,103 L439,102 L437,100 L437,99 L435,97 L435,96 L432,93 L432,92 L429,89 L429,88 L425,84 L425,83 L419,77 L419,76 L400,57 L399,57 L394,52 L393,52 L389,48 L388,48 L385,45 L384,45 L381,42 L380,42 L378,40 L377,40 L375,38 L374,38 L372,36 L371,36 L369,34 L368,34 L366,32 L365,32 L364,31 L363,31 L362,30 L361,30 L359,28 L358,28 L357,27 L356,27 L355,26 L354,26 L353,25 L352,25 L351,24 L350,24 L349,23 L348,23 L347,22 L346,22 L345,21 L344,21 L343,20 L342,20 L341,19 L340,19 L339,18 L337,18 L336,17 L335,17 L334,16 L332,16 L331,15 L330,15 L329,14 L327,14 L326,13 L324,13 L323,12 L322,12 L321,11 L319,11 L318,10 L316,10 L315,9 L312,9 L311,8 L309,8 L308,7 L305,7 L304,6 L301,6 L300,5 L297,5 L296,4 L292,4 L291,3 L287,3 L286,2 L280,2 L279,1 L273,1 L272,0 Z M232,53 L233,52 L259,52 L260,53 L269,53 L270,54 L275,54 L276,55 L281,55 L282,56 L285,56 L286,57 L289,57 L290,58 L293,58 L294,59 L297,59 L298,60 L300,60 L301,61 L303,61 L304,62 L306,62 L307,63 L308,63 L309,64 L311,64 L312,65 L313,65 L314,66 L316,66 L317,67 L318,67 L319,68 L320,68 L321,69 L322,69 L323,70 L325,70 L326,71 L327,71 L329,73 L330,73 L331,74 L332,74 L333,75 L334,75 L335,76 L336,76 L338,78 L339,78 L340,79 L341,79 L343,81 L344,81 L346,83 L347,83 L350,86 L351,86 L354,89 L355,89 L358,92 L359,92 L366,99 L367,99 L378,110 L378,111 L384,117 L384,118 L388,122 L388,123 L391,126 L391,127 L393,129 L393,130 L395,132 L395,133 L397,135 L397,136 L399,138 L399,139 L400,140 L400,141 L402,143 L402,144 L403,145 L403,146 L404,147 L404,148 L405,149 L405,150 L406,151 L406,152 L407,153 L407,154 L408,155 L408,156 L409,157 L409,158 L410,159 L410,161 L411,162 L411,163 L412,164 L412,166 L413,167 L413,168 L414,169 L414,171 L415,172 L415,174 L416,175 L416,177 L417,178 L417,181 L418,182 L418,184 L419,185 L419,188 L420,189 L420,192 L421,193 L421,197 L422,198 L422,203 L423,204 L423,211 L424,212 L424,249 L423,250 L423,257 L422,258 L422,263 L421,264 L421,268 L420,269 L420,272 L419,273 L419,276 L418,277 L418,279 L417,280 L417,283 L416,284 L416,286 L415,287 L415,289 L414,290 L414,292 L413,293 L413,294 L412,295 L412,297 L411,298 L411,299 L410,300 L410,302 L409,303 L409,304 L408,305 L408,306 L407,307 L407,308 L406,309 L406,310 L405,311 L405,312 L404,313 L404,314 L403,315 L403,316 L402,317 L402,318 L400,320 L400,321 L399,322 L399,323 L397,325 L397,326 L395,328 L395,329 L393,331 L393,332 L391,334 L391,335 L388,338 L388,339 L384,343 L384,344 L378,350 L378,351 L367,362 L366,362 L359,369 L358,369 L355,372 L354,372 L351,375 L350,375 L347,378 L346,378 L344,380 L343,380 L341,382 L340,382 L339,383 L338,383 L336,385 L335,385 L334,386 L333,386 L332,387 L331,387 L330,388 L329,388 L327,390 L326,390 L325,391 L323,391 L322,392 L321,392 L320,393 L319,393 L318,394 L317,394 L316,395 L314,395 L313,396 L312,396 L311,397 L309,397 L308,398 L307,398 L306,399 L304,399 L303,400 L301,400 L300,401 L298,401 L297,402 L294,402 L293,403 L290,403 L289,404 L286,404 L285,405 L282,405 L281,406 L276,406 L275,407 L270,407 L269,408 L260,408 L259,409 L233,409 L232,408 L223,408 L222,407 L217,407 L216,406 L211,406 L210,405 L207,405 L206,404 L203,404 L202,403 L199,403 L198,402 L195,402 L194,401 L192,401 L191,400 L189,400 L188,399 L186,399 L185,398 L184,398 L183,397 L181,397 L180,396 L179,396 L178,395 L176,395 L175,394 L174,394 L173,393 L172,393 L171,392 L170,392 L169,391 L167,391 L166,390 L165,390 L163,388 L162,388 L161,387 L160,387 L159,386 L158,386 L157,385 L156,385 L154,383 L153,383 L152,382 L151,382 L149,380 L148,380 L146,378 L145,378 L142,375 L141,375 L138,372 L137,372 L134,369 L133,369 L126,362 L125,362 L114,351 L114,350 L108,344 L108,343 L104,339 L104,338 L101,335 L101,334 L99,332 L99,331 L97,329 L97,328 L95,326 L95,325 L93,323 L93,322 L92,321 L92,320 L90,318 L90,317 L89,316 L89,315 L88,314 L88,313 L87,312 L87,311 L86,310 L86,309 L85,308 L85,307 L84,306 L84,305 L83,304 L83,303 L82,302 L82,300 L81,299 L81,298 L80,297 L80,295 L79,294 L79,293 L78,292 L78,290 L77,289 L77,287 L76,286 L76,284 L75,283 L75,280 L74,279 L74,277 L73,276 L73,273 L72,272 L72,269 L71,268 L71,264 L70,263 L70,258 L69,257 L69,250 L68,249 L68,212 L69,211 L69,204 L70,203 L70,198 L71,197 L71,193 L72,192 L72,189 L73,188 L73,185 L74,184 L74,182 L75,181 L75,178 L76,177 L76,175 L77,174 L77,172 L78,171 L78,169 L79,168 L79,167 L80,166 L80,164 L81,163 L81,162 L82,161 L82,159 L83,158 L83,157 L84,156 L84,155 L85,154 L85,153 L86,152 L86,151 L87,150 L87,149 L88,148 L88,147 L89,146 L89,145 L90,144 L90,143 L92,141 L92,140 L93,139 L93,138 L95,136 L95,135 L97,133 L97,132 L99,130 L99,129 L101,127 L101,126 L104,123 L104,122 L108,118 L108,117 L114,111 L114,110 L125,99 L126,99 L133,92 L134,92 L137,89 L138,89 L141,86 L142,86 L145,83 L146,83 L148,81 L149,81 L151,79 L152,79 L153,78 L154,78 L156,76 L157,76 L158,75 L159,75 L160,74 L161,74 L162,73 L163,73 L165,71 L166,71 L167,70 L169,70 L170,69 L171,69 L172,68 L173,68 L174,67 L175,67 L176,66 L178,66 L179,65 L180,65 L181,64 L183,64 L184,63 L185,63 L186,62 L188,62 L189,61 L191,61 L192,60 L194,60 L195,59 L198,59 L199,58 L202,58 L203,57 L206,57 L207,56 L210,56 L211,55 L216,55 L217,54 L222,54 L223,53 Z" fill="#030810" fill-rule="evenodd"/>
    <path d="M163,388 L163,390 L165,390 Z" fill="#0480f7" fill-rule="evenodd"/>
    <path d="M335,385 L334,386 L333,386 L333,388 L332,389 L328,389 L327,390 L334,390 L335,389 Z" fill="#0480f7" fill-rule="evenodd"/>
    <path d="M231,17 L230,18 L223,18 L222,19 L216,19 L215,20 L210,20 L209,21 L205,21 L204,22 L201,22 L200,23 L196,23 L195,24 L193,24 L192,25 L189,25 L188,26 L186,26 L185,27 L183,27 L182,28 L180,28 L179,29 L177,29 L176,30 L174,30 L173,31 L172,31 L171,32 L169,32 L168,33 L167,33 L166,34 L165,34 L164,35 L162,35 L161,36 L160,36 L159,37 L158,37 L157,38 L156,38 L155,39 L154,39 L153,40 L152,40 L151,41 L150,41 L149,42 L148,42 L147,43 L146,43 L145,44 L144,44 L142,46 L141,46 L140,47 L139,47 L138,48 L137,48 L135,50 L134,50 L132,52 L131,52 L129,54 L128,54 L126,56 L125,56 L121,60 L120,60 L117,63 L116,63 L112,67 L111,67 L103,75 L103,76 L102,77 L101,77 L100,78 L99,78 L98,79 L97,79 L93,83 L93,84 L86,91 L86,92 L81,97 L81,98 L77,102 L77,103 L74,106 L74,107 L72,109 L72,110 L70,112 L70,113 L68,115 L68,116 L66,118 L66,119 L65,120 L65,121 L63,123 L63,124 L62,125 L62,126 L61,127 L61,128 L60,129 L60,130 L58,132 L58,133 L57,134 L57,135 L56,136 L56,137 L55,138 L55,140 L54,141 L54,142 L53,143 L53,144 L52,145 L52,146 L51,147 L51,149 L50,150 L50,151 L49,152 L49,153 L48,154 L48,156 L47,157 L47,159 L46,160 L46,162 L45,163 L45,165 L44,166 L44,168 L43,169 L43,171 L42,172 L42,174 L41,175 L41,178 L40,179 L40,182 L39,183 L39,186 L38,187 L38,191 L37,192 L37,196 L36,197 L36,203 L35,204 L35,210 L34,211 L34,220 L33,221 L33,244 L34,245 L34,254 L35,255 L35,261 L36,262 L36,267 L37,268 L37,271 L38,272 L38,277 L39,278 L39,281 L40,282 L40,285 L41,286 L41,288 L42,289 L42,291 L43,292 L43,294 L44,295 L44,297 L45,298 L45,300 L46,301 L46,303 L47,304 L47,306 L48,307 L48,308 L49,309 L49,311 L50,312 L50,313 L51,314 L51,315 L52,316 L52,317 L53,318 L53,319 L54,320 L54,322 L55,323 L55,324 L56,325 L56,326 L57,327 L57,328 L59,330 L59,331 L60,332 L60,333 L61,334 L61,335 L63,337 L63,338 L64,339 L64,340 L65,341 L65,342 L67,344 L67,345 L68,346 L68,347 L70,349 L70,350 L72,352 L75,352 L76,353 L76,355 L79,358 L79,359 L81,361 L81,362 L85,366 L85,367 L89,371 L89,372 L95,378 L95,379 L101,385 L103,385 L108,390 L109,390 L113,394 L114,394 L118,398 L119,398 L122,401 L123,401 L126,404 L127,404 L129,406 L130,406 L132,408 L133,408 L134,409 L135,409 L137,411 L138,411 L139,412 L140,412 L142,414 L143,414 L144,415 L145,415 L146,416 L147,416 L149,418 L150,418 L151,419 L152,419 L153,420 L154,420 L155,421 L156,421 L157,422 L159,422 L160,423 L161,423 L162,424 L163,424 L164,425 L166,425 L167,426 L168,426 L169,427 L170,427 L171,428 L173,428 L174,429 L176,429 L177,430 L178,430 L179,431 L181,431 L182,432 L183,432 L184,433 L186,433 L187,434 L190,434 L191,435 L193,435 L194,436 L197,436 L198,437 L201,437 L202,438 L205,438 L206,439 L210,439 L211,440 L216,440 L217,441 L222,441 L223,442 L230,442 L231,443 L244,443 L245,444 L263,444 L264,443 L274,443 L275,442 L282,442 L283,441 L289,441 L290,440 L294,440 L295,439 L298,439 L299,438 L302,438 L303,437 L306,437 L307,436 L310,436 L311,435 L313,435 L314,434 L315,434 L316,433 L318,433 L319,432 L325,432 L326,431 L327,431 L328,430 L329,430 L330,429 L332,429 L333,428 L334,428 L335,427 L336,427 L337,426 L339,426 L340,425 L341,425 L342,424 L343,424 L344,423 L345,423 L346,422 L347,422 L348,421 L349,421 L351,419 L352,419 L353,418 L354,418 L355,417 L356,417 L358,415 L359,415 L361,413 L362,413 L363,412 L364,412 L366,410 L367,410 L369,408 L370,408 L373,405 L374,405 L377,402 L378,402 L381,399 L382,399 L388,393 L389,393 L407,375 L407,373 L410,370 L411,370 L413,368 L413,367 L417,363 L417,362 L420,359 L420,358 L422,356 L422,355 L425,352 L425,351 L426,350 L426,349 L428,347 L428,346 L430,344 L430,343 L432,341 L432,340 L433,339 L433,338 L434,337 L434,336 L436,334 L436,333 L437,332 L437,331 L438,330 L438,329 L439,328 L439,327 L440,326 L440,325 L441,324 L441,322 L442,321 L442,320 L443,319 L443,318 L444,317 L444,316 L445,315 L445,313 L446,312 L446,311 L447,310 L447,308 L448,307 L448,306 L449,305 L449,303 L450,302 L450,300 L451,299 L451,297 L452,296 L452,293 L453,292 L453,290 L454,289 L454,286 L455,285 L455,282 L456,281 L456,278 L457,277 L457,273 L458,272 L458,267 L459,266 L459,264 L460,263 L460,254 L461,253 L461,241 L462,240 L462,222 L461,221 L461,209 L460,208 L460,201 L459,200 L459,195 L458,194 L458,191 L457,190 L457,188 L456,187 L456,185 L455,184 L455,181 L454,180 L454,177 L453,176 L453,173 L452,172 L452,170 L451,169 L451,166 L450,165 L450,163 L449,162 L449,161 L448,160 L448,158 L447,157 L447,155 L446,154 L446,153 L445,152 L445,150 L444,149 L444,147 L443,146 L443,145 L442,144 L442,143 L441,142 L441,141 L440,140 L440,138 L439,137 L439,136 L438,135 L438,134 L437,133 L437,132 L436,131 L436,130 L435,129 L435,128 L434,127 L434,126 L433,125 L433,124 L431,122 L431,121 L430,120 L430,119 L428,117 L428,116 L426,114 L426,113 L425,112 L425,111 L423,109 L423,108 L421,106 L421,105 L419,103 L419,102 L416,99 L416,98 L413,95 L413,94 L408,89 L408,88 L389,69 L388,69 L383,64 L382,64 L378,60 L377,60 L374,57 L373,57 L370,54 L369,54 L367,52 L366,52 L364,50 L363,50 L361,48 L360,48 L359,47 L358,47 L356,45 L355,45 L354,44 L353,44 L352,43 L351,43 L349,41 L348,41 L347,40 L346,40 L345,39 L344,39 L343,38 L342,38 L341,37 L340,37 L339,36 L337,36 L336,35 L335,35 L334,34 L333,34 L332,33 L331,33 L330,32 L328,32 L327,31 L325,31 L324,30 L322,30 L321,29 L319,29 L318,28 L316,28 L315,27 L313,27 L312,26 L309,26 L308,25 L305,25 L304,24 L301,24 L300,23 L297,23 L296,22 L291,22 L290,21 L284,21 L283,20 L277,20 L276,19 L266,19 L265,18 L253,18 L258,18 L259,19 L268,19 L269,20 L274,20 L275,21 L279,21 L280,22 L283,22 L284,23 L284,25 L283,26 L276,26 L275,25 L243,25 L242,24 L235,24 L234,23 L234,21 L235,20 L240,20 L241,19 L246,19 L247,18 L247,17 Z M199,38 L200,37 L202,37 L203,38 L203,41 L200,44 L199,44 L198,45 L196,45 L195,46 L193,46 L192,47 L191,47 L190,48 L189,48 L188,49 L187,49 L186,50 L185,50 L184,51 L183,51 L182,52 L181,52 L180,53 L179,53 L178,54 L177,54 L176,55 L175,55 L174,56 L173,56 L172,57 L171,57 L170,58 L169,58 L168,59 L167,59 L165,61 L164,61 L159,66 L158,66 L155,69 L154,69 L151,72 L150,72 L147,75 L146,75 L143,78 L142,78 L136,84 L135,84 L119,100 L119,101 L115,105 L115,106 L111,110 L111,111 L108,114 L108,115 L106,117 L106,118 L104,120 L104,121 L102,123 L102,124 L100,126 L100,127 L99,128 L99,129 L97,131 L97,132 L96,133 L96,134 L94,136 L94,137 L93,138 L93,139 L92,140 L92,141 L91,142 L92,141 L92,140 L93,139 L93,138 L95,136 L95,135 L97,133 L97,132 L99,130 L99,129 L101,127 L101,126 L104,123 L104,122 L108,118 L108,117 L114,111 L114,110 L125,99 L126,99 L133,92 L134,92 L137,89 L138,89 L141,86 L142,86 L145,83 L146,83 L148,81 L149,81 L151,79 L152,79 L153,78 L154,78 L156,76 L157,76 L158,75 L159,75 L160,74 L161,74 L162,73 L163,73 L165,71 L166,71 L167,70 L169,70 L170,69 L171,69 L172,68 L173,68 L174,67 L175,67 L176,66 L178,66 L179,65 L180,65 L181,64 L183,64 L184,63 L185,63 L186,62 L188,62 L189,61 L191,61 L192,60 L194,60 L195,59 L198,59 L199,58 L202,58 L203,57 L206,57 L207,56 L210,56 L211,55 L216,55 L217,54 L222,54 L223,53 L232,53 L233,52 L259,52 L260,53 L269,53 L270,54 L275,54 L276,55 L281,55 L282,56 L285,56 L286,57 L289,57 L290,58 L293,58 L294,59 L297,59 L298,60 L300,60 L301,61 L303,61 L304,62 L306,62 L307,63 L308,63 L309,64 L311,64 L312,65 L313,65 L314,66 L316,66 L317,67 L318,67 L319,68 L320,68 L321,69 L322,69 L323,70 L325,70 L326,71 L327,71 L329,73 L330,73 L331,74 L332,74 L333,75 L334,75 L335,76 L336,76 L338,78 L339,78 L340,79 L341,79 L343,81 L344,81 L346,83 L347,83 L350,86 L351,86 L354,89 L355,89 L358,92 L359,92 L366,99 L367,99 L378,110 L378,111 L384,117 L384,118 L388,122 L388,123 L391,126 L391,127 L393,129 L393,130 L395,132 L395,133 L397,135 L397,136 L399,138 L399,139 L400,140 L400,141 L402,143 L402,144 L403,145 L403,146 L404,147 L404,148 L405,149 L405,150 L406,151 L406,152 L407,153 L407,154 L408,155 L410,155 L411,156 L413,156 L414,155 L415,155 L415,150 L414,149 L414,148 L413,147 L413,146 L412,145 L412,144 L411,143 L411,142 L410,141 L410,140 L409,139 L409,138 L408,137 L408,136 L407,135 L407,134 L406,133 L406,131 L405,130 L405,128 L404,127 L404,124 L405,123 L405,122 L409,118 L410,118 L411,117 L414,117 L416,119 L416,121 L415,122 L415,123 L416,124 L416,125 L417,126 L417,127 L418,128 L418,129 L419,130 L419,131 L420,132 L420,133 L421,134 L421,135 L423,137 L423,139 L424,140 L424,141 L425,142 L425,143 L426,144 L426,145 L427,146 L427,147 L428,148 L428,150 L429,151 L429,152 L430,153 L430,155 L431,156 L431,158 L432,159 L432,161 L433,162 L433,164 L434,165 L434,167 L435,168 L435,170 L436,171 L436,173 L437,174 L437,177 L438,178 L438,181 L439,182 L439,185 L440,186 L440,189 L441,190 L441,194 L442,195 L442,197 L443,198 L443,212 L444,213 L444,232 L443,233 L443,234 L444,235 L444,236 L445,237 L446,237 L447,238 L449,238 L450,239 L450,246 L448,248 L446,248 L445,247 L444,247 L444,252 L443,253 L443,261 L442,262 L442,267 L441,268 L441,273 L440,274 L440,279 L439,280 L439,283 L438,284 L438,286 L437,287 L437,290 L436,291 L436,293 L435,294 L435,296 L434,297 L434,299 L433,300 L433,302 L432,303 L432,305 L431,306 L431,308 L430,309 L430,310 L429,311 L429,313 L428,314 L428,315 L427,316 L427,317 L426,318 L426,319 L425,320 L425,322 L424,323 L424,324 L423,325 L423,326 L422,327 L422,328 L421,329 L421,330 L420,331 L420,332 L419,333 L419,334 L418,335 L418,336 L417,337 L417,338 L415,340 L415,341 L413,343 L413,344 L411,346 L411,347 L409,349 L409,350 L407,352 L407,353 L404,356 L404,357 L402,359 L402,360 L398,364 L398,365 L391,372 L391,373 L384,380 L383,380 L373,390 L372,390 L368,394 L367,394 L363,398 L362,398 L360,400 L359,400 L356,403 L355,403 L354,404 L353,404 L351,406 L350,406 L348,408 L347,408 L345,410 L344,410 L343,411 L342,411 L340,413 L339,413 L338,414 L337,414 L336,415 L335,415 L334,416 L333,416 L332,417 L331,417 L330,418 L329,418 L328,419 L327,419 L326,420 L325,420 L324,421 L323,421 L322,422 L321,422 L320,423 L319,423 L318,424 L317,424 L316,425 L315,425 L314,426 L313,426 L312,427 L310,427 L309,428 L308,428 L307,429 L305,429 L304,430 L302,430 L301,431 L299,431 L298,432 L296,432 L295,433 L293,433 L292,434 L290,434 L289,435 L286,435 L285,436 L282,436 L281,437 L277,437 L276,438 L272,438 L271,439 L266,439 L265,440 L257,440 L256,441 L231,441 L230,440 L223,440 L222,439 L217,439 L216,438 L212,438 L211,437 L207,437 L206,436 L203,436 L202,435 L200,435 L199,434 L197,434 L196,433 L194,433 L193,432 L191,432 L190,431 L188,431 L187,430 L186,430 L185,429 L184,429 L183,428 L183,425 L182,425 L181,424 L180,424 L179,423 L177,423 L176,422 L175,422 L174,421 L172,421 L171,420 L170,420 L169,419 L168,419 L167,418 L166,418 L165,417 L164,417 L163,416 L162,416 L161,415 L160,415 L159,414 L158,414 L157,413 L156,413 L155,412 L154,412 L153,411 L152,411 L150,409 L149,409 L148,408 L147,408 L145,406 L144,406 L142,404 L141,404 L139,402 L138,402 L135,399 L134,399 L131,396 L130,396 L127,393 L126,393 L119,386 L118,386 L111,379 L110,379 L108,377 L108,376 L101,369 L101,368 L94,361 L94,360 L91,357 L91,356 L88,353 L88,352 L86,350 L85,350 L82,347 L82,345 L81,344 L81,343 L80,342 L80,341 L79,340 L79,339 L77,337 L77,336 L76,335 L76,334 L74,332 L74,331 L73,330 L73,329 L72,328 L72,327 L71,326 L71,325 L70,324 L70,323 L69,322 L69,321 L68,320 L68,319 L67,318 L67,317 L66,316 L66,315 L65,314 L65,313 L64,312 L64,310 L63,309 L63,308 L62,307 L62,305 L61,304 L61,303 L60,302 L60,300 L59,299 L59,297 L58,296 L58,294 L57,293 L57,291 L56,290 L56,288 L55,287 L55,285 L54,284 L54,281 L53,280 L53,276 L52,275 L52,272 L51,271 L51,267 L55,263 L55,249 L54,248 L54,225 L55,224 L55,214 L56,213 L56,206 L57,205 L57,201 L58,200 L58,196 L59,195 L59,192 L60,191 L60,187 L61,186 L61,184 L62,183 L62,181 L63,180 L63,177 L64,176 L64,174 L65,173 L65,171 L66,170 L66,168 L67,167 L67,165 L68,164 L68,163 L69,162 L69,160 L70,159 L70,158 L71,157 L71,155 L72,154 L72,153 L73,152 L73,151 L74,150 L74,149 L75,148 L75,146 L76,145 L76,144 L78,142 L78,141 L79,140 L79,139 L80,138 L80,137 L81,136 L81,135 L83,133 L83,132 L84,131 L84,130 L86,128 L86,127 L87,126 L87,125 L89,123 L89,122 L91,120 L91,119 L94,116 L94,115 L96,113 L96,112 L100,108 L100,107 L105,102 L105,101 L127,79 L128,79 L133,74 L134,74 L139,69 L140,69 L142,67 L143,67 L146,64 L147,64 L149,62 L150,62 L152,60 L153,60 L155,58 L156,58 L157,57 L158,57 L160,55 L161,55 L162,54 L163,54 L164,53 L165,53 L167,51 L168,51 L169,50 L170,50 L171,49 L172,49 L173,48 L174,48 L175,47 L176,47 L177,46 L179,46 L180,45 L181,45 L182,44 L183,44 L184,43 L185,43 L186,42 L188,42 L189,41 L191,41 L192,40 L193,40 L194,39 L196,39 L197,38 Z M209,28 L210,27 L212,27 L213,28 L213,30 L211,32 L210,32 L207,35 L206,35 L205,36 L202,36 L201,35 L201,32 L202,31 L203,31 L204,30 L205,30 L206,29 L207,29 L208,28 Z M285,24 L286,23 L288,23 L289,24 L289,26 L288,27 L286,27 L285,26 Z M221,24 L222,23 L225,23 L226,24 L226,26 L225,27 L222,27 L221,26 Z" fill="#0480f7" fill-rule="evenodd"/>
  </g>
  <g id="mark">
    <path d="M329,378 L328,379 L327,379 L327,381 L326,382 L328,384 L328,386 L326,388 L327,389 L328,388 L328,386 L329,385 L334,385 L333,384 L330,384 L328,382 L328,380 L329,379 L332,379 L334,381 L335,381 L335,380 L333,378 Z" fill="#0681fb" fill-rule="evenodd"/>
    <path d="M314,378 L313,379 L313,390 L320,390 L322,388 L322,381 L320,379 L315,379 Z M314,380 L315,379 L319,379 L320,380 L320,381 L321,382 L321,387 L319,389 L315,389 L314,388 Z" fill="#0681fb" fill-rule="evenodd"/>
    <path d="M299,378 L298,379 L298,380 L299,381 L299,390 L299,385 L300,384 L302,384 L303,385 L303,386 L305,388 L305,389 L306,390 L307,390 L307,379 L307,382 L306,383 L303,383 L301,381 L301,380 Z" fill="#0681fb" fill-rule="evenodd"/>
    <path d="M286,378 L286,390 L294,390 L293,389 L288,389 L287,388 L287,386 L289,384 L293,384 L288,384 L287,383 L287,380 L288,379 L293,379 L293,378 Z" fill="#0681fb" fill-rule="evenodd"/>
    <path d="M269,378 L268,379 L268,390 L275,390 L275,389 L270,389 L269,388 Z" fill="#0681fb" fill-rule="evenodd"/>
    <path d="M258,378 L257,379 L257,381 L256,382 L256,384 L255,385 L255,387 L254,388 L254,389 L253,390 L254,390 L255,389 L255,388 L256,387 L261,387 L262,388 L262,389 L263,390 L263,387 L262,386 L262,384 L261,383 L261,382 L260,381 L260,379 L259,378 Z" fill="#0681fb" fill-rule="evenodd"/>
    <path d="M240,378 L240,390 L241,390 L241,386 L242,385 L244,385 L246,387 L246,388 L248,390 L249,390 L249,379 L248,378 L248,383 L247,384 L245,384 L244,383 L244,382 L242,380 L242,379 L241,378 Z" fill="#0681fb" fill-rule="evenodd"/>
    <path d="M229,378 L228,379 L227,379 L226,380 L226,389 L227,390 L233,390 L235,388 L235,385 L234,385 L233,384 L231,384 L230,385 L228,385 L227,384 L227,381 L229,379 L232,379 L234,381 L235,381 L234,380 L234,379 L233,379 L232,378 Z M227,386 L228,385 L232,385 L233,386 L233,388 L232,389 L228,389 L227,388 Z" fill="#0681fb" fill-rule="evenodd"/>
    <path d="M220,378 L219,379 L219,390 L221,390 L221,379 Z" fill="#0681fb" fill-rule="evenodd"/>
    <path d="M208,378 L206,380 L206,382 L208,384 L210,384 L211,385 L212,385 L213,386 L213,388 L212,389 L208,389 L207,388 L207,387 L206,387 L206,389 L207,390 L213,390 L214,389 L214,385 L213,385 L212,384 L209,384 L208,383 L208,380 L209,379 L212,379 L213,380 L213,381 L214,381 L214,380 L212,378 Z" fill="#0681fb" fill-rule="evenodd"/>
    <path d="M188,378 L187,379 L187,390 L195,390 L195,389 L190,389 L189,388 L189,386 L191,384 L194,384 L190,384 L189,383 L189,380 L190,379 L195,379 L194,378 Z" fill="#0681fb" fill-rule="evenodd"/>
    <path d="M173,378 L173,390 L174,390 L174,385 L175,384 L180,384 L181,385 L181,390 L182,390 L182,378 L181,378 L181,383 L180,384 L175,384 L174,383 L174,378 Z" fill="#0681fb" fill-rule="evenodd"/>
    <path d="M160,378 L160,379 L162,379 L163,380 L163,381 L164,382 L164,388 L165,389 L165,380 L166,379 L168,379 L168,378 Z" fill="#0681fb" fill-rule="evenodd"/>
    <path d="M330,356 L329,357 L329,368 L337,368 L336,367 L331,367 L330,366 L330,364 L331,363 L336,363 L336,362 L331,362 L330,361 L330,358 L331,357 L337,357 L336,356 L335,357 L333,357 L332,356 Z" fill="#0681fb" fill-rule="evenodd"/>
    <path d="M316,356 L316,368 L317,368 L317,364 L318,363 L320,363 L322,365 L322,366 L323,367 L323,368 L324,368 L324,367 L323,366 L323,363 L324,362 L324,358 L323,357 L318,357 L317,356 Z M317,358 L318,357 L321,357 L323,359 L323,361 L321,363 L318,363 L317,362 Z" fill="#0681fb" fill-rule="evenodd"/>
    <path d="M304,356 L303,357 L303,368 L311,368 L310,367 L306,367 L305,366 L305,364 L306,363 L310,363 L310,362 L306,362 L305,361 L305,358 L306,357 L311,357 L308,357 L307,356 Z" fill="#0681fb" fill-rule="evenodd"/>
    <path d="M289,356 L289,368 L290,368 L290,364 L291,363 L296,363 L297,364 L297,368 L298,368 L298,357 L297,356 L297,361 L296,362 L291,362 L290,361 L290,357 Z" fill="#0681fb" fill-rule="evenodd"/>
    <path d="M270,356 L269,357 L270,358 L270,360 L271,361 L271,364 L272,365 L272,368 L274,368 L274,366 L275,365 L275,364 L276,363 L278,363 L279,364 L279,367 L280,368 L281,368 L282,367 L282,364 L283,363 L283,360 L284,359 L284,356 L283,357 L283,360 L282,361 L279,361 L278,360 L278,357 L277,356 L276,357 L276,359 L275,360 L275,361 L274,362 L272,362 L271,361 L271,358 L270,357 Z" fill="#0681fb" fill-rule="evenodd"/>
    <path d="M251,356 L250,357 L250,368 L251,368 L251,364 L252,363 L254,363 L256,365 L256,366 L257,367 L257,368 L258,368 L258,367 L257,366 L257,363 L258,362 L258,357 L256,357 L255,356 L254,357 L252,357 Z M251,358 L252,357 L255,357 L257,359 L257,361 L255,363 L252,363 L251,362 Z" fill="#0681fb" fill-rule="evenodd"/>
    <path d="M239,356 L238,357 L237,357 L236,358 L236,367 L237,368 L243,368 L245,366 L245,359 L242,356 Z M239,357 L241,357 L244,360 L244,365 L242,367 L238,367 L236,365 L236,360 Z" fill="#0681fb" fill-rule="evenodd"/>
    <path d="M224,356 L224,368 L225,368 L225,364 L226,363 L230,363 L230,362 L226,362 L225,361 L225,358 L226,357 L231,357 L230,356 Z" fill="#0681fb" fill-rule="evenodd"/>
    <path d="M204,356 L204,357 L206,357 L207,358 L207,359 L208,360 L208,368 L208,359 L210,357 L213,357 L212,356 Z" fill="#0681fb" fill-rule="evenodd"/>
    <path d="M195,356 L194,357 L194,368 L201,368 L201,367 L196,367 L195,366 Z" fill="#0681fb" fill-rule="evenodd"/>
    <path d="M173,356 L173,366 L175,368 L180,368 L182,366 L182,357 L181,356 L181,366 L180,367 L175,367 L174,366 L174,356 Z" fill="#0681fb" fill-rule="evenodd"/>
    <path d="M160,356 L159,357 L159,364 L160,365 L160,368 L167,368 L168,367 L168,364 L167,363 L167,361 L168,360 L168,358 L167,357 L161,357 Z M161,364 L162,363 L166,363 L167,364 L167,366 L166,367 L162,367 L161,366 Z M161,358 L162,357 L166,357 L167,358 L167,360 L165,362 L162,362 L161,361 Z" fill="#0681fb" fill-rule="evenodd"/>
    <path d="M370,311 L367,314 L367,321 L370,324 L387,324 L389,326 L389,329 L387,331 L368,331 L368,334 L390,334 L392,332 L392,331 L393,330 L393,325 L392,324 L392,323 L390,321 L373,321 L371,319 L371,316 L373,314 L392,314 L392,311 Z" fill="#0681fb" fill-rule="evenodd"/>
    <path d="M338,311 L334,315 L334,330 L335,331 L335,332 L336,333 L337,333 L338,334 L358,334 L359,333 L360,333 L361,332 L361,331 L362,330 L362,315 L361,314 L361,313 L360,312 L359,312 L358,311 Z M341,314 L355,314 L356,315 L357,315 L358,316 L358,329 L357,330 L356,330 L355,331 L341,331 L338,328 L338,317 Z" fill="#0681fb" fill-rule="evenodd"/>
    <path d="M299,229 L297,231 L297,232 L294,235 L294,236 L292,238 L292,239 L290,241 L290,242 L288,244 L288,245 L285,248 L360,248 L361,249 L362,249 L364,251 L364,268 L362,270 L361,270 L360,271 L256,271 L256,290 L368,290 L369,289 L371,289 L372,288 L373,288 L375,286 L376,286 L380,282 L380,281 L382,279 L382,277 L383,276 L383,274 L384,273 L384,246 L383,245 L383,242 L382,241 L382,240 L380,238 L380,237 L377,234 L376,234 L374,232 L373,232 L372,231 L371,231 L370,230 L368,230 L367,229 Z" fill="#0681fb" fill-rule="evenodd"/>
    <path d="M276,186 L275,187 L271,187 L270,188 L268,188 L267,189 L266,189 L264,191 L263,191 L260,194 L260,195 L258,197 L258,198 L257,199 L257,200 L256,201 L256,203 L255,204 L255,231 L256,232 L256,234 L257,235 L257,236 L258,237 L258,238 L259,239 L259,240 L262,243 L263,243 L265,245 L266,245 L267,246 L268,246 L269,247 L270,247 L271,248 L275,248 L275,247 L277,245 L277,244 L279,242 L279,241 L281,239 L281,238 L283,236 L283,235 L285,233 L285,232 L287,230 L287,229 L280,229 L279,228 L278,228 L275,225 L275,210 L279,206 L382,206 L382,186 Z" fill="#0681fb" fill-rule="evenodd"/>
    <path d="M294,311 L294,334 L297,334 L297,325 L298,324 L304,324 L307,327 L308,327 L315,334 L320,334 L314,328 L313,328 L309,324 L309,321 L319,311 L314,311 L304,321 L298,321 L297,320 L297,311 Z" fill="#fcfcfb" fill-rule="evenodd"/>
    <path d="M267,311 L266,312 L265,312 L263,314 L263,331 L265,333 L266,333 L267,334 L288,334 L288,331 L269,331 L266,328 L266,317 L269,314 L288,314 L288,311 Z" fill="#fcfcfb" fill-rule="evenodd"/>
    <path d="M242,311 L241,312 L241,313 L239,315 L239,316 L238,317 L238,318 L237,319 L237,320 L235,322 L235,323 L234,324 L234,325 L233,326 L233,327 L231,329 L231,330 L230,331 L230,332 L229,333 L229,334 L233,334 L233,333 L235,331 L235,330 L236,329 L236,328 L238,326 L238,325 L239,324 L239,323 L240,322 L240,321 L242,319 L242,318 L243,317 L245,317 L248,320 L248,321 L249,322 L249,325 L248,326 L244,326 L243,327 L243,328 L251,328 L254,331 L254,332 L256,334 L260,334 L258,332 L258,331 L257,330 L257,329 L256,328 L256,327 L255,326 L255,325 L254,324 L254,323 L252,321 L252,320 L251,319 L251,318 L250,317 L250,316 L248,314 L248,313 L246,311 Z" fill="#fcfcfb" fill-rule="evenodd"/>
    <path d="M199,311 L199,334 L222,334 L223,333 L224,333 L225,332 L225,324 L224,323 L224,321 L225,320 L225,314 L222,311 Z M202,325 L203,324 L220,324 L222,326 L222,329 L220,331 L203,331 L202,330 Z M202,315 L203,314 L220,314 L222,316 L222,319 L220,321 L203,321 L202,320 Z" fill="#fcfcfb" fill-rule="evenodd"/>
    <path d="M168,311 L168,314 L178,314 L179,315 L179,334 L182,334 L182,328 L183,327 L183,315 L184,314 L194,314 L194,311 Z" fill="#fcfcfb" fill-rule="evenodd"/>
    <path d="M137,311 L137,331 L140,334 L160,334 L164,330 L164,311 L160,311 L160,329 L158,331 L143,331 L142,330 L141,330 L140,329 L140,311 Z" fill="#fcfcfb" fill-rule="evenodd"/>
    <path d="M108,311 L107,312 L106,312 L104,314 L104,331 L107,334 L127,334 L128,333 L129,333 L131,331 L131,314 L129,312 L128,312 L127,311 Z M110,314 L125,314 L128,317 L128,328 L125,331 L109,331 L107,329 L107,317 Z" fill="#fcfcfb" fill-rule="evenodd"/>
    <path d="M123,187 L122,188 L120,188 L119,189 L117,189 L115,191 L114,191 L108,197 L108,198 L107,199 L107,200 L106,201 L106,203 L105,204 L105,273 L106,274 L106,276 L107,277 L107,278 L108,279 L108,280 L115,287 L116,287 L117,288 L118,288 L119,289 L122,289 L123,290 L219,290 L220,289 L222,289 L223,288 L224,288 L225,287 L226,287 L227,286 L228,286 L232,282 L232,281 L234,279 L234,278 L235,277 L235,275 L236,274 L236,268 L237,267 L237,238 L236,237 L236,220 L237,219 L237,213 L236,212 L236,203 L235,202 L235,200 L234,199 L234,198 L232,196 L232,195 L228,191 L227,191 L226,190 L225,190 L224,189 L223,189 L222,188 L220,188 L219,187 Z M128,207 L129,206 L212,206 L213,207 L214,207 L216,209 L216,210 L217,211 L217,266 L216,267 L216,268 L214,270 L213,270 L212,271 L129,271 L128,270 L127,270 L125,268 L125,267 L124,266 L124,212 L125,211 L125,210 L126,209 L126,208 L127,207 Z" fill="#fcfcfb" fill-rule="evenodd"/>
  </g>
</svg>
